<svg viewBox="0 0 20 20" fill="none" xmlns="http://www.w3.org/2000/svg">
<path d="M3.33398 5.83398C3.33398 5.05742 3.33398 4.66913 3.46085 4.36285C3.63001 3.95447 3.95447 3.63001 4.36285 3.46085C4.66913 3.33398 5.05742 3.33398 5.83398 3.33398C6.61055 3.33398 6.99884 3.33398 7.30512 3.46085C7.7135 3.63001 8.03796 3.95447 8.20712 4.36285C8.33398 4.66913 8.33398 5.05742 8.33398 5.83398C8.33398 6.61055 8.33398 6.99884 8.20712 7.30512C8.03796 7.7135 7.7135 8.03796 7.30512 8.20712C6.99884 8.33398 6.61055 8.33398 5.83398 8.33398C5.05742 8.33398 4.66913 8.33398 4.36285 8.20712C3.95447 8.03796 3.63001 7.7135 3.46085 7.30512C3.33398 6.99884 3.33398 6.61055 3.33398 5.83398Z" fill="url(#linear)"/>
<path d="M3.33398 14.1673C3.33398 13.3907 3.33398 13.0025 3.46085 12.6962C3.63001 12.2878 3.95447 11.9633 4.36285 11.7942C4.66913 11.6673 5.05742 11.6673 5.83398 11.6673C6.61055 11.6673 6.99884 11.6673 7.30512 11.7942C7.7135 11.9633 8.03796 12.2878 8.20712 12.6962C8.33398 13.0025 8.33398 13.3907 8.33398 14.1673C8.33398 14.9439 8.33398 15.3322 8.20712 15.6385C8.03796 16.0468 7.7135 16.3713 7.30512 16.5405C6.99884 16.6673 6.61055 16.6673 5.83398 16.6673C5.05742 16.6673 4.66913 16.6673 4.36285 16.5405C3.95447 16.3713 3.63001 16.0468 3.46085 15.6385C3.33398 15.3322 3.33398 14.9439 3.33398 14.1673Z" fill="url(#linear)"/>
<path d="M11.6673 14.1673C11.6673 13.3907 11.6673 13.0025 11.7942 12.6962C11.9633 12.2878 12.2878 11.9633 12.6962 11.7942C13.0025 11.6673 13.3907 11.6673 14.1673 11.6673C14.9439 11.6673 15.3322 11.6673 15.6385 11.7942C16.0468 11.9633 16.3713 12.2878 16.5405 12.6962C16.6673 13.0025 16.6673 13.3907 16.6673 14.1673C16.6673 14.9439 16.6673 15.3322 16.5405 15.6385C16.3713 16.0468 16.0468 16.3713 15.6385 16.5405C15.3322 16.6673 14.9439 16.6673 14.1673 16.6673C13.3907 16.6673 13.0025 16.6673 12.6962 16.5405C12.2878 16.3713 11.9633 16.0468 11.7942 15.6385C11.6673 15.3322 11.6673 14.9439 11.6673 14.1673Z" fill="url(#linear)"/>
<path d="M14.7923 3.33398C14.7923 2.98881 14.5125 2.70898 14.1673 2.70898C13.8221 2.70898 13.5423 2.98881 13.5423 3.33398V5.20898H11.6673C11.3221 5.20898 11.0423 5.48881 11.0423 5.83398C11.0423 6.17916 11.3221 6.45898 11.6673 6.45898H13.5423V8.33398C13.5423 8.67916 13.8221 8.95898 14.1673 8.95898C14.5125 8.95898 14.7923 8.67916 14.7923 8.33398V6.45898H16.6673C17.0125 6.45898 17.2923 6.17916 17.2923 5.83398C17.2923 5.48881 17.0125 5.20898 16.6673 5.20898H14.7923V3.33398Z" fill="url(#linear)"/>
<defs>
<linearGradient id="linear" x1="10.3132" y1="2.70898" x2="10.3132" y2="16.6673" gradientUnits="userSpaceOnUse">
<stop stop-color="#0DB1A0"/>
<stop offset="1" stop-color="#026056"/>
</linearGradient>
</defs>
</svg>
