<svg viewBox="0 0 24 24" fill="none" xmlns="http://www.w3.org/2000/svg">
<path d="M21.0767 16.1479C21.049 16.2145 21.0022 16.2714 20.9423 16.3116C20.8824 16.3518 20.812 16.3735 20.7399 16.374H19.8955C19.8377 17.284 19.5862 18.1712 19.1578 18.9761C18.7294 19.781 18.1339 20.4852 17.4113 21.0413C16.6887 21.5975 15.8556 21.9928 14.9679 22.2009C14.0801 22.409 13.1581 22.425 12.2636 22.2479C12.1809 22.2301 12.1067 22.1849 12.0531 22.1195C11.9994 22.0542 11.9695 21.9725 11.9683 21.888C11.9682 21.8031 11.9976 21.7207 12.0514 21.6551C12.1053 21.5894 12.1803 21.5445 12.2636 21.5281C13.4738 21.2797 14.5689 20.6409 15.3809 19.7098C16.1928 18.7786 16.6765 17.6067 16.7578 16.374H15.9365C15.8645 16.3724 15.7946 16.3498 15.7353 16.3091C15.6759 16.2683 15.6297 16.2112 15.6023 16.1446C15.5749 16.0781 15.5675 16.005 15.5809 15.9343C15.5944 15.8636 15.6282 15.7983 15.6781 15.7465L18.0775 13.3471C18.1479 13.2804 18.2412 13.2433 18.3382 13.2433C18.4352 13.2433 18.5285 13.2804 18.5989 13.3471L20.9983 15.7465C21.0506 15.7975 21.0861 15.8632 21.1001 15.935C21.1141 16.0067 21.106 16.0809 21.0767 16.1479Z" fill="currentColor"/>
<path d="M3.17361 7.62545H4.01339C4.07075 6.71545 4.32205 5.82823 4.75043 5.02332C5.17881 4.21841 5.77437 3.51441 6.49715 2.95855C7.21994 2.4027 8.05324 2.00784 8.94116 1.80046C9.82907 1.59308 10.7511 1.57799 11.6453 1.75618C11.7289 1.77198 11.8043 1.8167 11.8583 1.8825C11.9123 1.94829 11.9414 2.03098 11.9406 2.11609C11.9394 2.20064 11.9095 2.28227 11.8558 2.34764C11.8022 2.41301 11.728 2.45826 11.6453 2.476C10.4366 2.72564 9.34282 3.36421 8.53124 4.2941C7.71967 5.224 7.23491 6.39406 7.15105 7.62545H7.97238C8.04558 7.62558 8.11709 7.64746 8.17782 7.68832C8.23855 7.72917 8.28577 7.78717 8.31346 7.85492C8.34116 7.92267 8.34808 7.99713 8.33336 8.06883C8.31864 8.14054 8.28293 8.20624 8.23078 8.2576L5.83139 10.657C5.76256 10.725 5.66973 10.7631 5.573 10.7631C5.47626 10.7631 5.38343 10.725 5.3146 10.657L2.9106 8.2576C2.86099 8.20491 2.82768 8.13899 2.81469 8.06779C2.8017 7.9966 2.80958 7.92317 2.83738 7.85635C2.86518 7.78953 2.91171 7.73218 2.97137 7.69121C3.03103 7.65024 3.10126 7.62741 3.17361 7.62545Z" fill="currentColor"/>
<path d="M16.8194 2.64677C12.925 2.61447 10.904 7.44093 13.6171 10.1772C13.7683 9.3802 14.2128 8.66892 14.863 8.18382C15.3645 8.70284 16.0516 9.00156 16.7732 9.01438C16.821 9.01753 16.8689 9.01599 16.9163 9.00976C17.5326 8.99106 18.1239 8.7614 18.5912 8.35916C18.8127 8.06385 18.9096 8.30379 19.1265 8.48374C19.591 8.9434 19.9034 9.53443 20.0216 10.1772C22.7348 7.44093 20.7138 2.61447 16.8194 2.64677ZM15.5274 7.79623C15.2755 7.57989 15.082 7.3037 14.9648 6.99305C14.8475 6.68239 14.8102 6.34725 14.8563 6.01842C14.9024 5.68958 15.0304 5.37762 15.2286 5.1112C15.4268 4.84478 15.6888 4.63245 15.9905 4.49373C16.2922 4.35502 16.6239 4.29436 16.9551 4.31735C17.2864 4.34034 17.6065 4.44622 17.8862 4.62528C18.1658 4.80433 18.3959 5.05081 18.5554 5.34205C18.7149 5.63329 18.7986 5.95994 18.7989 6.29199C18.7956 6.66957 18.6849 7.03841 18.4798 7.35543C18.2747 7.67244 17.9836 7.92455 17.6405 8.08229C17.2974 8.24003 16.9166 8.29689 16.5424 8.24624C16.1682 8.19558 15.8162 8.0395 15.5274 7.79623ZM7.1803 12.2859C3.28591 12.2536 1.26488 17.08 3.97342 19.8162C4.12722 19.0216 4.57134 18.3126 5.21926 17.8275C5.70187 18.3275 6.35756 18.6238 7.05174 18.6555C7.74592 18.6873 8.42592 18.4521 8.95215 17.9982C9.16902 17.7029 9.27053 17.9475 9.4874 18.1228C9.94852 18.585 10.2603 19.1749 10.3826 19.8162C13.0911 17.08 11.0701 12.2536 7.1803 12.2859ZM7.1803 17.9152C6.65469 17.9152 6.15061 17.7064 5.77895 17.3347C5.40729 16.9631 5.19849 16.459 5.19849 15.9334C5.19849 15.4078 5.40729 14.9037 5.77895 14.532C6.15061 14.1604 6.65469 13.9516 7.1803 13.9516C7.7059 13.9516 8.20998 14.1604 8.58164 14.532C8.9533 14.9037 9.1621 15.4078 9.1621 15.9334C9.1621 16.459 8.9533 16.9631 8.58164 17.3347C8.20998 17.7064 7.7059 17.9152 7.1803 17.9152Z" fill="currentColor"/>
</svg>
