<svg viewBox="0 0 14 10" fill="none" xmlns="http://www.w3.org/2000/svg">
<path fill-rule="evenodd" clip-rule="evenodd" d="M9.01482 0.583984C9.5806 0.583984 10.0583 0.961641 10.2117 1.48722L10.9433 4.05826H3.02598L3.75757 1.48722L3.75958 1.47838C3.83542 1.22028 3.99279 0.993667 4.20813 0.832445C4.42348 0.671223 4.68524 0.584056 4.95426 0.583984H9.01482ZM12.9216 5.03728H1.0579C0.928472 5.03989 0.805222 5.09313 0.714609 5.18559C0.623996 5.27805 0.573242 5.40235 0.573242 5.53181C0.573242 5.66126 0.623996 5.78556 0.714609 5.87802C0.805222 5.97048 0.928472 6.02373 1.0579 6.02634C2.84127 6.28179 4.90079 6.42771 6.99489 6.42771C9.08898 6.42771 11.1481 6.28179 13.1644 5.99941L13.0442 6.01307C13.1625 5.98555 13.2666 5.91547 13.3365 5.81618C13.4065 5.71688 13.4374 5.59532 13.4235 5.47466C13.4096 5.354 13.3518 5.24268 13.2611 5.1619C13.1704 5.08113 13.0531 5.03655 12.9317 5.03667L12.9216 5.03728ZM7.29315 7.51023H6.68014C5.40688 7.20574 3.93123 7.26503 2.34945 7.51023V8.0129L2.96247 8.12948C2.96247 8.12948 2.96247 9.9852 4.81819 9.9852C6.06894 9.9852 6.47574 8.86308 6.60859 8.12948H7.35647C7.48932 8.86308 7.89612 9.9852 9.14687 9.9852C11.0026 9.9852 11.0026 8.12948 11.0026 8.12948L11.6156 8.0129V7.51023C10.0644 7.26101 8.59917 7.21177 7.29315 7.51023Z" fill="currentColor"/>
</svg>
