<svg viewBox="0 0 24 24" fill="none" xmlns="http://www.w3.org/2000/svg">
<path d="M12.5943 5.20819C12.4021 4.59727 11.5973 4.59727 11.4052 5.20819C11.1266 6.09399 10.3173 6.71631 9.37976 6.71631C9.0897 6.71631 8.87323 6.89471 8.78522 7.17451C8.69668 7.45601 8.769 7.75176 9.02034 7.9404C9.76369 8.49829 10.0634 9.47391 9.78596 10.3561C9.68352 10.6818 9.80612 10.9606 10.0211 11.122C10.2325 11.2807 10.4973 11.304 10.7399 11.122C11.4894 10.5594 12.51 10.5594 13.2595 11.122C13.5021 11.304 13.7669 11.2807 13.9784 11.122C14.1933 10.9606 14.3159 10.6818 14.2135 10.3561C13.936 9.47391 14.2358 8.49829 14.9791 7.9404C15.2304 7.75176 15.3028 7.45601 15.2142 7.17451C15.1262 6.89471 14.9098 6.71631 14.6197 6.71631C13.6821 6.71631 12.8729 6.09399 12.5943 5.20819Z" fill="currentColor"/>
<path fill-rule="evenodd" clip-rule="evenodd" d="M3.24972 9C3.24972 4.16751 7.16723 0.25 11.9997 0.25C16.8322 0.25 20.7497 4.16751 20.7497 9C20.7497 9.42706 20.7191 9.84715 20.6598 10.2581C20.5332 10.5946 20.3875 10.9218 20.224 11.2382C18.9123 13.7781 16.4592 15.6312 13.5469 16.1213C13.0443 16.2059 12.5274 16.25 11.9998 16.25C11.3827 16.25 10.7805 16.1897 10.1985 16.0749C7.34619 15.5122 4.96228 13.6362 3.70611 11.1011C3.57051 10.8274 3.44804 10.5461 3.33955 10.2578C3.28035 9.84693 3.24972 9.42694 3.24972 9ZM9.9743 4.75812C10.6068 2.74729 13.3927 2.74729 14.0251 4.75812C14.1153 5.0448 14.3638 5.21631 14.6197 5.21631C16.7287 5.21631 17.4918 7.93003 15.8795 9.1401C15.6573 9.30685 15.5531 9.61567 15.6444 9.90599C15.9543 10.8912 15.5568 11.8128 14.8788 12.3217C14.1972 12.8332 13.196 12.9498 12.3591 12.3217C12.1431 12.1595 11.8563 12.1595 11.6403 12.3217C10.8034 12.9498 9.80224 12.8332 9.12069 12.3217C8.44265 11.8128 8.04519 10.8912 8.35507 9.90599C8.44639 9.61567 8.34213 9.30685 8.11995 9.1401C6.50763 7.93003 7.2707 5.21631 9.37976 5.21631C9.63566 5.21631 9.88413 5.0448 9.9743 4.75812Z" fill="currentColor"/>
<path d="M3.26334 13.2652C3.17469 13.4153 3.0813 13.5771 2.98074 13.7513L1.15476 16.914C0.929291 17.3044 0.72081 17.6654 0.600611 17.9642C0.482878 18.2569 0.334605 18.7645 0.662267 19.2343C0.994078 19.71 1.5267 19.7382 1.84236 19.7225C2.16195 19.7066 2.56824 19.6267 3.00467 19.5407L3.79593 19.3851C4.2346 19.2988 4.49486 19.2491 4.68796 19.2358C4.77615 19.2297 4.82351 19.2338 4.84681 19.2377C4.85751 19.2395 4.86383 19.2416 4.86383 19.2416L4.86676 19.243L4.86942 19.2449C4.86942 19.2449 4.87442 19.2493 4.88133 19.2576C4.89637 19.2759 4.92358 19.3148 4.96242 19.3942C5.04747 19.5681 5.1345 19.8184 5.27911 20.2414L5.53993 21.0044C5.68376 21.4254 5.81764 21.8172 5.96369 22.102C6.10793 22.3832 6.39867 22.8304 6.97657 22.8798C7.54725 22.9287 7.91266 22.5465 8.10728 22.2982C8.30598 22.0447 8.51437 21.6836 8.73973 21.2932L10.529 18.1941C10.6355 18.0096 10.7329 17.8409 10.8206 17.686C10.5125 17.6524 10.2081 17.6057 9.90816 17.5465C7.18083 17.0085 4.82578 15.4403 3.26334 13.2652Z" fill="currentColor"/>
<path d="M20.5811 13.4757C20.6265 13.554 20.6733 13.635 20.7216 13.7188L22.5664 16.9141C22.7918 17.3044 23.0003 17.6654 23.1205 17.9642C23.2382 18.2569 23.3865 18.7645 23.0589 19.2343C22.727 19.71 22.1944 19.7382 21.8788 19.7225C21.5592 19.7066 21.1529 19.6267 20.7165 19.5407L19.9252 19.3851C19.4865 19.2988 19.2263 19.2491 19.0332 19.2358C18.945 19.2297 18.8976 19.2338 18.8743 19.2377C18.8636 19.2395 18.8573 19.2416 18.8573 19.2416L18.8544 19.243L18.853 19.2439L18.8517 19.2449C18.8517 19.2449 18.8467 19.2493 18.8398 19.2576C18.8248 19.2759 18.7975 19.3148 18.7587 19.3942C18.6736 19.5681 18.5866 19.8184 18.442 20.2414L18.1812 21.0044C18.0374 21.4254 17.9035 21.8173 17.7574 22.102C17.6132 22.3832 17.3225 22.8304 16.7445 22.8798C16.1739 22.9287 15.8085 22.5465 15.6138 22.2982C15.4151 22.0447 15.2068 21.6837 14.9814 21.2932L13.1921 18.194C13.0914 18.0196 12.9989 17.8594 12.915 17.7115C13.2121 17.6865 13.5058 17.6493 13.7958 17.6005C16.5587 17.1356 18.9621 15.618 20.5811 13.4757Z" fill="currentColor"/>
</svg>
