<svg viewBox="0 0 20 20" fill="none" xmlns="http://www.w3.org/2000/svg">
<path fill-rule="evenodd" clip-rule="evenodd" d="M3.11949 11.8242L4.19808 12.9027L10.8519 4.39402C10.8403 3.7973 10.5937 3.094 9.85209 2.35237C7.78863 0.288944 6.15011 2.18535 6.15011 2.18535L3.11949 11.8242ZM2.48281 12.9552C0.942302 14.7557 0.971012 16.4865 2.17504 17.6912C3.37908 18.8959 5.07463 18.8885 6.86982 17.3421L2.48281 12.9552ZM8.00028 16.7048L17.6403 13.676C17.6403 13.676 19.5763 12.0765 17.5128 10.013C16.745 9.24522 16.0182 9.00803 15.4083 9.01287L6.9624 15.667L8.00028 16.7048ZM14.5987 8.05936C14.6116 7.52671 14.3891 6.88937 13.6826 6.18289C12.9533 5.4536 12.2977 5.24004 11.7548 5.26866L5.08856 13.7932L6.0723 14.7769L14.5987 8.05936Z" fill="currentColor"/>
</svg>
