<svg viewBox="0 0 20 20" fill="none" xmlns="http://www.w3.org/2000/svg">
<path d="M6.6665 9.16667L4.1665 5L1.6665 9.16667" stroke="currentColor" stroke-width="1.5" stroke-linecap="round" stroke-linejoin="round"/>
<path d="M4.1665 11.666C4.82955 11.666 5.46543 11.4026 5.93427 10.9338C6.40311 10.4649 6.6665 9.82906 6.6665 9.16602H1.6665C1.6665 9.82906 1.9299 10.4649 2.39874 10.9338C2.86758 11.4026 3.50346 11.666 4.1665 11.666Z" stroke="currentColor" stroke-width="1.5" stroke-linecap="round" stroke-linejoin="round"/>
<path d="M18.333 9.16667L15.833 5L13.333 9.16667" stroke="currentColor" stroke-width="1.5" stroke-linecap="round" stroke-linejoin="round"/>
<path d="M15.833 11.666C16.496 11.666 17.1319 11.4026 17.6008 10.9338C18.0696 10.4649 18.333 9.82906 18.333 9.16602H13.333C13.333 9.82906 13.5964 10.4649 14.0652 10.9338C14.5341 11.4026 15.17 11.666 15.833 11.666Z" stroke="currentColor" stroke-width="1.5" stroke-linecap="round" stroke-linejoin="round"/>
<path d="M9.99984 2.5V17.5M4.1665 5H15.8332M15.8332 17.5H4.1665" stroke="currentColor" stroke-width="1.5" stroke-linecap="round" stroke-linejoin="round"/>
</svg>
