<svg viewBox="0 0 20 20" fill="none" xmlns="http://www.w3.org/2000/svg">
<path fill-rule="evenodd" clip-rule="evenodd" d="M6.56968 15.4662L8.56672 12.7804L5.43856 10.9744L5.06204 11.8316L4.15791 14.0433C4.57906 14.131 5.00992 14.2921 5.44211 14.5417C5.90179 14.8071 6.27411 15.1212 6.56968 15.4662ZM5.79268 16.5112C5.56274 16.1749 5.24285 15.87 4.81711 15.6242C4.42971 15.4005 4.0438 15.2772 3.67135 15.2335L3.67111 15.2341C2.5947 15.1079 1.63073 15.6465 1.06829 16.3492C0.924491 16.5288 0.994561 16.7857 1.19385 16.9007L5.52398 19.4007C5.72326 19.5158 5.98072 19.4481 6.06441 19.2337C6.38061 18.4238 6.37686 17.3659 5.79253 16.5114L5.79268 16.5112ZM14.3176 5.04594L9.31759 11.7705L5.94428 9.82296L9.31883 2.13981C10.0158 0.553034 11.9367 -0.0764508 13.4376 0.790091C14.9445 1.66013 15.3559 3.64956 14.3176 5.04594ZM18.3329 15.4167C18.3329 17.0275 17.027 18.3333 15.4162 18.3333C13.8054 18.3333 12.4995 17.0275 12.4995 15.4167C12.4995 13.8058 13.8054 12.5 15.4162 12.5C17.027 12.5 18.3329 13.8058 18.3329 15.4167Z" fill="currentColor"/>
</svg>
