<svg viewBox="0 0 20 20" fill="none" xmlns="http://www.w3.org/2000/svg">
<path fill-rule="evenodd" clip-rule="evenodd" d="M7.51053 1.69727C7.4894 1.65279 7.43885 1.63051 7.39183 1.64517C5.91383 2.10599 4.60407 2.94821 3.57773 4.05664C3.53762 4.09996 3.5445 4.16833 3.59141 4.2042C4.60208 4.97704 5.40467 6.00826 5.90055 7.1992C5.91904 7.24362 5.96618 7.26914 6.01339 7.25989C6.99076 7.06851 7.99286 6.94615 9.01439 6.89812C9.07423 6.8953 9.1185 6.84109 9.10862 6.78201C8.80941 4.99206 8.26479 3.28523 7.51053 1.69727ZM2.67582 5.21011C2.70696 5.16259 2.77162 5.15126 2.81686 5.18562C3.59795 5.77883 4.23027 6.55777 4.64801 7.45663C4.6739 7.51234 4.64258 7.57743 4.58329 7.59352C3.51922 7.88235 2.48933 8.25422 1.501 8.70174C1.42886 8.73441 1.34887 8.67485 1.36148 8.59667C1.56046 7.36235 2.01763 6.21443 2.67582 5.21011ZM5.10011 8.85824C5.08937 8.80208 5.03311 8.76732 4.97788 8.7821C3.69755 9.12472 2.46948 9.59522 1.30822 10.1791C1.27381 10.1964 1.25248 10.2321 1.25365 10.2706C1.30423 11.9359 1.82016 13.4843 2.67583 14.7899C2.70697 14.8374 2.77163 14.8487 2.81688 14.8144C4.26971 13.711 5.20785 11.965 5.20785 10C5.20785 9.60966 5.17083 9.22797 5.10011 8.85824ZM17.051 4.98153C17.0955 4.95166 17.1555 4.96309 17.1861 5.00704C17.918 6.05857 18.4251 7.27833 18.6376 8.59667C18.6502 8.67485 18.5702 8.73441 18.4981 8.70174C17.396 8.2027 16.2422 7.79773 15.047 7.49708C14.9859 7.48174 14.9537 7.41472 14.9812 7.35817C15.4504 6.39477 16.1681 5.57473 17.051 4.98153ZM16.2481 3.8748C16.2914 3.91897 16.2836 3.99135 16.233 4.02687C15.129 4.80144 14.2496 5.87429 13.7117 7.12837C13.6932 7.17155 13.6475 7.19655 13.6012 7.1884C12.5827 7.00903 11.5385 6.9044 10.4743 6.88036C10.4256 6.87926 10.3847 6.84335 10.3771 6.79521C10.085 4.92278 9.54102 3.13379 8.78087 1.46396C8.75317 1.40309 8.7914 1.33247 8.85771 1.32383C9.23143 1.27512 9.61255 1.25 9.99954 1.25C12.4472 1.25 14.6601 2.25498 16.2481 3.8748ZM17.051 15.0185C17.0955 15.0483 17.1555 15.0369 17.1861 14.993C18.1236 13.6461 18.6922 12.0231 18.7454 10.2706C18.7466 10.2321 18.7253 10.1964 18.6909 10.1791C17.4097 9.53491 16.0471 9.02874 14.6228 8.68004C14.5687 8.6668 14.5143 8.70057 14.5029 8.75506C14.4188 9.15682 14.3745 9.57324 14.3745 10C14.3745 12.091 15.4367 13.9339 17.051 15.0185ZM13.1959 8.38741C13.2523 8.39677 13.289 8.45165 13.2774 8.50763C13.1772 8.98937 13.1245 9.48853 13.1245 10C13.1245 12.4706 14.3532 14.6542 16.233 15.9731C16.2836 16.0086 16.2914 16.081 16.2481 16.1252C14.6601 17.745 12.4472 18.75 9.99954 18.75C9.61255 18.75 9.23143 18.7249 8.85771 18.6762C8.7914 18.6675 8.75316 18.5969 8.78086 18.5361C9.96501 15.9349 10.6246 13.0445 10.6246 10C10.6246 9.40867 10.5998 8.82315 10.551 8.24444C10.5459 8.1848 10.5938 8.13385 10.6536 8.13583C11.5165 8.16446 12.3651 8.24951 13.1959 8.38741ZM9.37464 10C9.37464 9.40391 9.34772 8.81412 9.29503 8.23175C9.29026 8.17903 9.245 8.13935 9.1921 8.14152C8.24175 8.18048 7.30905 8.28789 6.3988 8.45897C6.34382 8.4693 6.30837 8.52292 6.31922 8.5778C6.41017 9.03778 6.45785 9.51332 6.45785 10C6.45785 12.3629 5.33388 14.4634 3.59142 15.7958C3.54452 15.8317 3.53762 15.9 3.57773 15.9434C4.60407 17.0518 5.91383 17.894 7.39183 18.3548C7.43885 18.3695 7.48939 18.3472 7.51052 18.3027C8.70582 15.7863 9.37464 12.9712 9.37464 10Z" fill="currentColor"/>
</svg>
