<svg viewBox="0 0 25 24" fill="none" xmlns="http://www.w3.org/2000/svg">
<path fill-rule="evenodd" clip-rule="evenodd" d="M8.3335 6H12.3335C13.2625 6 13.727 6 14.1157 6.06156C15.8285 6.33285 17.2456 7.46244 17.9165 9H19.3335C20.4381 9 21.3335 9.89543 21.3335 11V13C21.3335 14.1046 20.4381 15 19.3335 15H17.9165C17.2456 16.5376 15.8285 17.6672 14.1157 17.9384C13.727 18 13.2625 18 12.3335 18H8.3335C7.40449 18 6.93999 18 6.55132 17.9384C4.41186 17.5996 2.73391 15.9216 2.39505 13.7822C2.3335 13.3935 2.3335 12.929 2.3335 12C2.3335 11.071 2.3335 10.6065 2.39505 10.2178C2.73391 8.07836 4.41186 6.40042 6.55132 6.06156C6.93999 6 7.40449 6 8.3335 6ZM10.3113 9.43956C10.554 9.10394 10.4788 8.63507 10.1431 8.39231C9.80752 8.14955 9.33865 8.22482 9.09589 8.56044L8.52142 9.35463C8.25612 9.72136 8.02362 10.0428 7.86676 10.3143C7.71054 10.5848 7.54279 10.9453 7.59233 11.3613C7.63799 11.7447 7.8208 12.0978 8.10578 12.3571C8.41382 12.6373 8.80271 12.7128 9.11449 12.7453C9.42769 12.778 9.82601 12.779 10.2817 12.7802L10.3198 12.7803C10.8335 12.7817 11.1606 12.7835 11.3931 12.8077C11.489 12.8177 11.5438 12.8296 11.5711 12.837C11.5731 12.8403 11.5748 12.8437 11.5764 12.8471C11.5655 12.8736 11.5427 12.9222 11.4967 12.9989C11.3777 13.1974 11.184 13.4578 10.8777 13.867L10.366 14.5506C10.1178 14.8822 10.1854 15.3522 10.517 15.6004C10.8486 15.8486 11.3186 15.781 11.5669 15.4494L12.1017 14.7349C12.378 14.3658 12.6195 14.0432 12.7831 13.7705C12.9453 13.5002 13.1217 13.1377 13.0762 12.7167C13.0344 12.3299 12.8531 11.9724 12.5673 11.7096C12.2575 11.4246 11.8632 11.3485 11.5484 11.3157C11.2309 11.2827 10.8262 11.2816 10.3621 11.2804L10.3238 11.2803C9.81874 11.279 9.49805 11.2772 9.27003 11.2534C9.17638 11.2436 9.12289 11.232 9.09621 11.2248C9.09402 11.2212 9.09206 11.2176 9.09034 11.2139C9.10058 11.1879 9.12206 11.1401 9.16565 11.0646C9.27916 10.8681 9.4648 10.6098 9.75933 10.2026L10.3113 9.43956Z" fill="currentColor"/>
</svg>
