<svg viewBox="0 0 24 24" fill="none" xmlns="http://www.w3.org/2000/svg">
<path fill-rule="evenodd" clip-rule="evenodd" d="M9.92397 8.18972C9.40244 8.74763 8.9605 9.26307 8.57575 9.7658C7.57773 11.068 7.09375 12.1714 7.09375 13.1389C7.09375 14.2097 8.07972 14.8725 8.99055 14.8725C9.25511 14.8725 9.46853 14.6595 9.46853 14.3964C9.46853 14.1332 9.25506 13.9202 8.99055 13.9202C8.53361 13.9202 8.04663 13.6063 8.04663 13.139C8.04663 12.3989 8.47802 11.4585 9.33175 10.3447C9.6955 9.86742 10.1178 9.37594 10.6183 8.84161C10.8002 8.64999 10.7912 8.34863 10.5973 8.16853C10.4064 7.98863 10.1058 7.9981 9.92392 8.18972H9.92397Z" fill="currentColor"/>
<path fill-rule="evenodd" clip-rule="evenodd" d="M12.0004 0.190033C5.49569 0.190033 0.19043 5.4953 0.19043 12C0.19043 18.5047 5.49569 23.81 12.0004 23.81C18.5051 23.81 23.8104 18.5047 23.8104 12C23.8104 5.4953 18.5051 0.190033 12.0004 0.190033ZM15.0095 15.9836C14.1618 15.9836 13.553 15.7581 13.0495 15.307C13.0015 15.2639 12.9308 15.261 12.8782 15.3004C12.8271 15.3398 12.8105 15.4083 12.8391 15.4668C13.3712 16.5448 14.0506 17.5371 14.8547 18.4104C14.9734 18.5408 15.0035 18.7193 14.9329 18.8814C14.8622 19.0435 14.7104 19.1425 14.5331 19.1425H9.46779C9.29191 19.1425 9.14013 19.0435 9.06949 18.8814C8.99735 18.7193 9.0274 18.5408 9.14763 18.4104C9.95177 17.5371 10.6296 16.5448 11.1617 15.4668C11.1903 15.4083 11.1753 15.3398 11.1227 15.3004C11.0716 15.261 11.0009 15.2639 10.9528 15.307C10.4478 15.7581 9.83904 15.9836 8.99285 15.9836C7.33198 15.9836 5.98376 14.7093 5.98376 13.1389C5.98376 10.4399 8.69224 7.74089 11.539 5.04188C11.7975 4.79597 12.2033 4.79597 12.4619 5.04188C15.3101 7.74089 18.0171 10.4399 18.0171 13.1389C18.0171 14.7093 16.6704 15.9836 15.0095 15.9836H15.0095Z" fill="currentColor"/>
</svg>
