<svg viewBox="0 0 24 24" fill="none" xmlns="http://www.w3.org/2000/svg">
<path fill-rule="evenodd" clip-rule="evenodd" d="M21.9196 12C21.9196 17.4785 17.4784 21.9198 11.9999 21.9198C6.52131 21.9198 2.08008 17.4785 2.08008 12C2.08008 6.52143 6.52131 2.0802 11.9999 2.0802C17.4784 2.0802 21.9196 6.52143 21.9196 12ZM15.7881 8.89996V10.6224C17.648 10.6224 18.1993 11.3799 18.1993 13.2399V14.4798C18.1993 16.6216 16.6842 18.1998 14.5143 18.1998H9.51946C7.31457 18.1998 5.79954 16.616 5.79954 14.4798V9.51995C5.79954 7.35 7.31457 5.80003 9.48452 5.80003H12.6194C13.8594 5.80003 15.7881 7.04 15.7881 8.89996ZM12.5157 8.89996H9.76069C9.53228 8.89996 9.31323 8.9907 9.15172 9.15221C8.99021 9.31371 8.89947 9.53277 8.89947 9.76118C8.89947 9.98959 8.99021 10.2086 9.15172 10.3702C9.31323 10.5317 9.53228 10.6224 9.76069 10.6224H12.5157C12.7441 10.6224 12.9631 10.5317 13.1247 10.3702C13.2862 10.2086 13.3769 9.98959 13.3769 9.76118C13.3769 9.53277 13.2862 9.31371 13.1247 9.15221C12.9631 8.9907 12.7441 8.89996 12.5157 8.89996ZM9.76069 15.0998H14.2381C14.4665 15.0998 14.6856 15.0091 14.8471 14.8476C15.0086 14.6861 15.0993 14.467 15.0993 14.2386C15.0993 14.0102 15.0086 13.7911 14.8471 13.6296C14.6856 13.4681 14.4665 13.3774 14.2381 13.3774H9.76069C9.53228 13.3774 9.31323 13.4681 9.15172 13.6296C8.99021 13.7911 8.89947 14.0102 8.89947 14.2386C8.89947 14.467 8.99021 14.6861 9.15172 14.8476C9.31323 15.0091 9.53228 15.0998 9.76069 15.0998Z" fill="currentColor"/>
</svg>
