<svg viewBox="0 0 20 20" fill="none" xmlns="http://www.w3.org/2000/svg">
<path fill-rule="evenodd" clip-rule="evenodd" d="M2.08398 12.9166C2.08398 10.8246 2.86204 8.73252 3.55005 7.29158H8.11792C8.24505 7.55783 8.37525 7.84631 8.50304 8.15291C7.11717 9.44587 6.25065 11.2884 6.25065 13.3333C6.25065 15.205 6.97661 16.9071 8.16232 18.1735C7.99798 18.4597 7.84827 18.6886 7.73298 18.8542C7.59165 19.0571 7.35766 19.1666 7.11034 19.1666H4.55763C4.31031 19.1666 4.07681 19.0578 3.93545 18.8548C3.39245 18.0753 2.08398 15.8885 2.08398 12.9166ZM7.37476 5.88875C7.40277 5.93643 7.43239 5.98742 7.46343 6.04158H4.20454C4.23569 5.98724 4.26541 5.93608 4.2935 5.88825C4.4639 5.59818 4.46208 5.2342 4.30966 4.93429C4.06681 4.45646 3.75065 3.68652 3.75065 2.91658C3.75065 1.66659 4.58398 0.833252 5.83398 0.833252C7.08398 0.833252 7.91732 1.66659 7.91732 2.91658C7.91732 3.68652 7.60115 4.45646 7.35831 4.93429C7.20589 5.2342 7.20437 5.59867 7.37476 5.88875ZM8.76179 16.9562C7.97223 15.9611 7.50065 14.7022 7.50065 13.3333C7.50065 11.841 8.06094 10.4797 8.98262 9.44814C10.0509 8.25255 11.6045 7.49992 13.334 7.49992C16.5556 7.49992 19.1673 10.1116 19.1673 13.3333C19.1673 16.5549 16.5556 19.1666 13.334 19.1666C11.4813 19.1666 9.83034 18.3029 8.76179 16.9562ZM12.9841 13.1508C12.754 13.5494 12.2444 13.6859 11.8458 13.4558C11.4472 13.2257 11.3107 12.716 11.5408 12.3175C11.7709 11.9189 12.2806 11.7823 12.6791 12.0125C13.0777 12.2426 13.2143 12.7522 12.9841 13.1508ZM11.8047 11.0266C12.2033 11.2567 12.7129 11.1202 12.9431 10.7216C13.1732 10.323 13.0366 9.81337 12.638 9.58325C12.2395 9.35313 11.7298 9.48969 11.4997 9.88827C11.2696 10.2868 11.4061 10.7965 11.8047 11.0266ZM10.819 11.9008C10.5889 12.2994 10.0792 12.4359 9.68067 12.2058C9.28209 11.9757 9.14553 11.466 9.37565 11.0675C9.60577 10.6689 10.1154 10.5323 10.514 10.7625C10.9126 10.9926 11.0491 11.5022 10.819 11.9008Z" fill="currentColor"/>
</svg>
