<svg viewBox="0 0 20 20" fill="none" xmlns="http://www.w3.org/2000/svg">
<path d="M4.32162 10.6185C4.37069 1.59129 10.2269 -0.266075 13.458 1.59938C15.9972 3.06544 16.924 4.77701 16.8091 6.14384C15.7443 6.01218 14.7227 6.49194 14.2333 7.33966C13.7901 8.10736 13.766 9.00223 14.0879 9.75743C14.2233 10.075 14.5904 10.2226 14.9079 10.0873C15.2255 9.95191 15.3731 9.58477 15.2378 9.26724C15.0634 8.85809 15.0775 8.3775 15.3158 7.96466C15.5804 7.50646 16.3606 7.15692 17.1578 7.52529C18.7808 8.5528 18.4459 10.4599 17.7023 11.7479C17.2089 12.6025 16.0099 13.2184 14.7478 13.8668C13.917 14.2936 13.0588 14.7345 12.3566 15.2668C12.3528 15.2661 12.349 15.2654 12.3451 15.2646C12.2356 15.2439 12.072 15.2103 11.8636 15.1598C11.4466 15.0587 10.8519 14.8906 10.1536 14.6243C9.49788 14.3742 8.75266 14.0382 7.97828 13.5911C6.76584 12.8911 5.82566 12.1172 5.18981 11.5193C4.87229 11.2207 4.63186 10.9671 4.47252 10.7904C4.40931 10.7203 4.35893 10.6623 4.32162 10.6185Z" fill="currentColor"/>
<path d="M3.71339 11.8111C3.877 11.985 4.08418 12.1954 4.33351 12.4299C5.02309 13.0783 6.03982 13.9153 7.35328 14.6737C8.19299 15.1585 8.9995 15.5219 9.7082 15.7922C10.4629 16.0801 11.1089 16.2631 11.5693 16.3746C11.5976 16.3815 11.6251 16.3881 11.652 16.3944L10.3849 18.589C9.92465 19.3862 8.90534 19.6593 8.10818 19.1991L3.05642 16.2824C2.25926 15.8222 1.98594 14.8032 2.44617 14.0061L3.71339 11.8111Z" fill="currentColor"/>
</svg>
