<svg viewBox="0 0 20 20" fill="none" xmlns="http://www.w3.org/2000/svg">
<path d="M12.9165 10.834C12.143 10.834 11.4011 11.1413 10.8541 11.6883C10.3071 12.2352 9.99984 12.9771 9.99984 13.7507M9.99984 13.7507V14.584M9.99984 13.7507C9.99984 12.9771 9.69255 12.2352 9.14557 11.6883C8.59858 11.1413 7.85672 10.834 7.08317 10.834M9.99984 14.584C9.99984 15.3575 10.3071 16.0994 10.8541 16.6464C11.4011 17.1934 12.143 17.5007 12.9165 17.5007C13.6901 17.5007 14.4319 17.1934 14.9789 16.6464C15.5259 16.0994 15.8332 15.3575 15.8332 14.584V13.084M9.99984 14.584C9.99984 15.3575 9.69255 16.0994 9.14557 16.6464C8.59858 17.1934 7.85672 17.5007 7.08317 17.5007C6.30962 17.5007 5.56776 17.1934 5.02078 16.6464C4.47379 16.0994 4.1665 15.3575 4.1665 14.584V13.084" stroke="currentColor" stroke-width="1.5" stroke-linecap="round" stroke-linejoin="round"/>
<path d="M14.5832 13.3333C15.3567 13.3333 16.0986 13.026 16.6456 12.4791C17.1925 11.9321 17.4998 11.1902 17.4998 10.4167C17.4998 9.64312 17.1925 8.90125 16.6456 8.35427C16.0986 7.80729 15.3567 7.5 14.5832 7.5H14.1665" stroke="currentColor" stroke-width="1.5" stroke-linecap="round" stroke-linejoin="round"/>
<path d="M15.8333 7.75V5.41667C15.8333 4.64312 15.526 3.90125 14.9791 3.35427C14.4321 2.80729 13.6902 2.5 12.9167 2.5C12.1431 2.5 11.4013 2.80729 10.8543 3.35427C10.3073 3.90125 10 4.64312 10 5.41667M5.41667 13.3333C4.64312 13.3333 3.90125 13.026 3.35427 12.4791C2.80729 11.9321 2.5 11.1902 2.5 10.4167C2.5 9.64312 2.80729 8.90125 3.35427 8.35427C3.90125 7.80729 4.64312 7.5 5.41667 7.5H5.83333" stroke="currentColor" stroke-width="1.5" stroke-linecap="round" stroke-linejoin="round"/>
<path d="M4.1665 7.75V5.41667C4.1665 4.64312 4.47379 3.90125 5.02078 3.35427C5.56776 2.80729 6.30962 2.5 7.08317 2.5C7.85672 2.5 8.59858 2.80729 9.14557 3.35427C9.69255 3.90125 9.99984 4.64312 9.99984 5.41667V13.75" stroke="currentColor" stroke-width="1.5" stroke-linecap="round" stroke-linejoin="round"/>
</svg>
