<svg viewBox="0 0 32 32" fill="none" xmlns="http://www.w3.org/2000/svg">
<path d="M31.5211 19.8706C29.3838 28.442 20.7015 33.6584 12.128 31.521C3.55814 29.384 -1.65893 20.7021 0.479272 12.1312C2.61549 3.55878 11.2979 -1.65818 19.8689 0.478786C28.4417 2.61579 33.6583 11.2987 31.5211 19.8706Z" fill="#F7931A"/>
<path d="M10.7374 18.6947C10.6504 18.9107 10.4299 19.2347 9.93284 19.1116C9.95038 19.1372 8.65673 18.7932 8.65673 18.7932L7.78516 20.8026L10.0699 21.3722C10.4949 21.4786 10.9115 21.5901 11.3215 21.6952L10.5949 24.6121L12.3486 25.0496L13.0682 22.1636C13.5332 22.2896 13.9996 22.4107 14.4673 22.5266L13.7502 25.3991L15.5059 25.8366L16.2325 22.9251C19.2264 23.4916 21.4776 23.2631 22.4252 20.5556C23.1888 18.3757 22.3872 17.1181 20.812 16.2982C21.9592 16.0337 22.8232 15.2792 23.0537 13.7207C23.3722 11.5917 21.7511 10.4472 19.5343 9.68373L20.2534 6.79973L18.4977 6.36223L17.7976 9.1702C17.3361 9.0552 16.862 8.9467 16.391 8.83919L17.0961 6.01269L15.3414 5.5752L14.6218 8.45816C14.2397 8.37117 13.8647 8.28513 13.5007 8.19466L13.5027 8.18564L11.0814 7.58115L10.6143 9.45613C10.6143 9.45613 11.917 9.75464 11.8895 9.77313C12.6006 9.95063 12.7291 10.4211 12.7076 10.7941L10.7374 18.6947ZM19.0423 19.3452C18.4998 21.5251 14.8289 20.3466 13.6387 20.0511L14.6029 16.1867C15.7929 16.4837 19.6093 17.0716 19.0423 19.3452ZM19.5853 13.6892C19.0903 15.6722 16.035 14.6647 15.0439 14.4177L15.918 10.9127C16.9091 11.1597 20.1009 11.6207 19.5853 13.6892Z" fill="white"/>
</svg>
