<svg viewBox="0 0 18 20" fill="none" xmlns="http://www.w3.org/2000/svg">
<path d="M3.21756 17.5369L3.6584 16.9302L3.21756 17.5369ZM2.29576 16.6151L2.90253 16.1743L2.29576 16.6151ZM15.7042 16.6151L15.0975 16.1743L15.7042 16.6151ZM14.7824 17.5369L15.2233 18.1437L14.7824 17.5369ZM14.7824 4.12844L15.2233 3.52168L14.7824 4.12844ZM15.7042 5.05024L15.0975 5.49108L15.0975 5.49108L15.7042 5.05024ZM3.21756 4.12844L3.6584 4.73521L3.6584 4.73521L3.21756 4.12844ZM2.29576 5.05024L2.90253 5.49108L2.90253 5.49108L2.29576 5.05024ZM15.0149 13.384L14.8975 12.6432L14.8975 12.6432L15.0149 13.384ZM11.5513 16.8475L10.8105 16.7302L10.8105 16.7302L11.5513 16.8475ZM6.5 10.916C6.08579 10.916 5.75 11.2518 5.75 11.666C5.75 12.0802 6.08579 12.416 6.5 12.416V10.916ZM11.5 12.416C11.9142 12.416 12.25 12.0802 12.25 11.666C12.25 11.2518 11.9142 10.916 11.5 10.916V12.416ZM10.75 4.16602C10.75 4.58023 11.0858 4.91602 11.5 4.91602C11.9142 4.91602 12.25 4.58023 12.25 4.16602H10.75ZM12.25 1.66602C12.25 1.2518 11.9142 0.916016 11.5 0.916016C11.0858 0.916016 10.75 1.2518 10.75 1.66602H12.25ZM5.75 4.16602C5.75 4.58023 6.08579 4.91602 6.5 4.91602C6.91421 4.91602 7.25 4.58023 7.25 4.16602H5.75ZM7.25 1.66602C7.25 1.2518 6.91421 0.916016 6.5 0.916016C6.08579 0.916016 5.75 1.2518 5.75 1.66602H7.25ZM16.4759 13.3327L17.2255 13.3584L16.4759 13.3327ZM1.52411 8.33268L0.774547 8.307L0.774547 8.307L1.52411 8.33268ZM16.4759 8.33268L17.2255 8.307L16.4759 8.33268ZM9 17.5827C7.42091 17.5827 6.29683 17.5817 5.4285 17.4876C4.57421 17.395 4.05688 17.2197 3.6584 16.9302L2.77672 18.1437C3.47352 18.6499 4.28502 18.8725 5.26693 18.9788C6.23481 19.0837 7.45432 19.0827 9 19.0827V17.5827ZM0.75 10.8327C0.75 12.3784 0.748971 13.5979 0.853834 14.5658C0.960218 15.5477 1.18275 16.3592 1.689 17.056L2.90253 16.1743C2.61301 15.7758 2.43766 15.2585 2.34511 14.4042C2.25103 13.5359 2.25 12.4118 2.25 10.8327H0.75ZM3.6584 16.9302C3.36834 16.7194 3.11326 16.4643 2.90253 16.1743L1.689 17.056C1.99226 17.4734 2.35932 17.8404 2.77672 18.1437L3.6584 16.9302ZM15.0975 16.1743C14.8867 16.4643 14.6317 16.7194 14.3416 16.9302L15.2233 18.1437C15.6407 17.8404 16.0077 17.4734 16.311 17.056L15.0975 16.1743ZM14.3416 4.73521C14.6317 4.94595 14.8867 5.20103 15.0975 5.49108L16.311 4.60941C16.0077 4.19201 15.6407 3.82494 15.2233 3.52168L14.3416 4.73521ZM2.77672 3.52168C2.35932 3.82494 1.99226 4.19201 1.689 4.60941L2.90253 5.49108C3.11326 5.20103 3.36834 4.94595 3.6584 4.73521L2.77672 3.52168ZM14.8975 12.6432C12.7937 12.9764 11.1437 14.6264 10.8105 16.7302L12.2921 16.9649C12.5236 15.5029 13.6702 14.3563 15.1322 14.1247L14.8975 12.6432ZM6.5 12.416H11.5V10.916H6.5V12.416ZM16.4759 12.5827C15.7452 12.5827 15.2908 12.5809 14.8975 12.6432L15.1322 14.1247C15.3799 14.0855 15.6903 14.0827 16.4759 14.0827L16.4759 12.5827ZM15.75 10.8327C15.75 11.8109 15.7499 12.619 15.7263 13.307L17.2255 13.3584C17.2501 12.6392 17.25 11.8026 17.25 10.8327H15.75ZM15.7263 13.307C15.6734 14.8512 15.5005 15.6195 15.0975 16.1743L16.311 17.056C17.0033 16.1031 17.1719 14.9211 17.2255 13.3584L15.7263 13.307ZM12.25 18.3086C12.25 17.523 12.2528 17.2126 12.2921 16.9649L10.8105 16.7302C10.7482 17.1235 10.75 17.5779 10.75 18.3086L12.25 18.3086ZM9 19.0827C9.96996 19.0827 10.8065 19.0828 11.5257 19.0581L11.4743 17.559C10.7863 17.5826 9.97825 17.5827 9 17.5827V19.0827ZM11.5257 19.0581C13.0884 19.0046 14.2704 18.836 15.2233 18.1437L14.3416 16.9302C13.7868 17.3332 13.0185 17.5061 11.4743 17.559L11.5257 19.0581ZM2.25 10.8327C2.25 9.85443 2.25009 9.04641 2.27367 8.35836L0.774547 8.307C0.749906 9.0262 0.75 9.86273 0.75 10.8327H2.25ZM2.27367 8.35836C2.32657 6.81413 2.49945 6.04586 2.90253 5.49108L1.689 4.60941C0.996682 5.5623 0.828089 6.74425 0.774547 8.307L2.27367 8.35836ZM1.52411 9.08268H16.4759V7.58268H1.52411V9.08268ZM17.25 10.8327C17.25 9.86273 17.2501 9.0262 17.2255 8.307L15.7263 8.35836C15.7499 9.04641 15.75 9.85443 15.75 10.8327H17.25ZM17.2255 8.307C17.1719 6.74426 17.0033 5.5623 16.311 4.60941L15.0975 5.49108C15.5005 6.04586 15.6734 6.81413 15.7263 8.35836L17.2255 8.307ZM12.25 4.16602V3.35679H10.75V4.16602H12.25ZM12.25 3.35679V1.66602H10.75V3.35679H12.25ZM9 4.08268C9.97826 4.08268 10.7863 4.08278 11.4743 4.10635L11.5257 2.60723C10.8065 2.58259 9.96995 2.58268 9 2.58268V4.08268ZM11.4743 4.10635C13.0185 4.15926 13.7868 4.33214 14.3416 4.73521L15.2233 3.52168C14.2704 2.82936 13.0884 2.66077 11.5257 2.60723L11.4743 4.10635ZM7.25 4.16602V3.35679H5.75V4.16602H7.25ZM7.25 3.35679V1.66602H5.75V3.35679H7.25ZM9 2.58268C8.03005 2.58268 7.19352 2.58259 6.47432 2.60723L6.52568 4.10635C7.21372 4.08278 8.02174 4.08268 9 4.08268V2.58268ZM6.47432 2.60723C4.91157 2.66077 3.72962 2.82936 2.77672 3.52168L3.6584 4.73521C4.21318 4.33214 4.98145 4.15926 6.52568 4.10635L6.47432 2.60723Z" fill="currentColor"/>
</svg>
