<svg viewBox="0 0 20 20" fill="none" xmlns="http://www.w3.org/2000/svg">
<path d="M14.1667 14.1668H10.8333M17.4908 8.3335C17.5 8.81435 17.5 9.36388 17.5 10.0002C17.5 12.3337 17.5 13.5005 17.0459 14.3918C16.6464 15.1758 16.009 15.8132 15.225 16.2127C14.3337 16.6668 13.1669 16.6668 10.8333 16.6668H9.16667C6.83311 16.6668 5.66634 16.6668 4.77504 16.2127C3.99103 15.8132 3.35361 15.1758 2.95414 14.3918C2.5 13.5005 2.5 12.3337 2.5 10.0002C2.5 9.36388 2.5 8.81435 2.50921 8.3335M17.4908 8.3335C17.4662 7.05081 17.3762 6.25681 17.0459 5.60854C16.6464 4.82453 16.009 4.18711 15.225 3.78764C14.3337 3.3335 13.1669 3.3335 10.8333 3.3335H9.16667C6.83311 3.3335 5.66634 3.3335 4.77504 3.78764C3.99103 4.18711 3.35361 4.82453 2.95414 5.60854C2.62383 6.25681 2.53376 7.05081 2.50921 8.3335M17.4908 8.3335H2.50921" stroke="currentColor" stroke-width="1.5" stroke-linecap="round"/>
</svg>
