<svg viewBox="0 0 20 20" fill="none" xmlns="http://www.w3.org/2000/svg">
<path d="M10.8613 2.70898C12.0044 2.70898 12.9006 2.70898 13.6209 2.76783C14.3543 2.82775 14.9603 2.9518 15.5087 3.23124C16.4103 3.69064 17.1433 4.42367 17.6027 5.32528C17.9378 5.98296 18.0536 6.73593 18.0971 7.70898H1.90295C1.94643 6.73593 2.06216 5.98296 2.39726 5.32528C2.85665 4.42367 3.58969 3.69064 4.4913 3.23124C5.03974 2.9518 5.64566 2.82775 6.37911 2.76783C7.0994 2.70898 7.9956 2.70898 9.1387 2.70898H10.8613Z" fill="url(#linear)"/>
<path fill-rule="evenodd" clip-rule="evenodd" d="M1.87689 8.95898C1.875 9.27904 1.875 9.62396 1.875 9.99583V10.0286C1.875 11.1717 1.87499 12.0679 1.93384 12.7882C1.99377 13.5217 2.11782 14.1276 2.39726 14.676C2.85665 15.5776 3.58969 16.3107 4.4913 16.7701C5.03974 17.0495 5.64566 17.1735 6.37911 17.2335C7.09937 17.2923 7.99551 17.2923 9.13852 17.2923H10.8613C12.0043 17.2923 12.9006 17.2923 13.6209 17.2335C14.3543 17.1735 14.9603 17.0495 15.5087 16.7701C16.4103 16.3107 17.1433 15.5776 17.6027 14.676C17.8822 14.1276 18.0062 13.5217 18.0662 12.7882C18.125 12.068 18.125 11.1718 18.125 10.0288V9.99582C18.125 9.62395 18.125 9.27904 18.1231 8.95898H1.87689ZM10.2083 14.1673C10.2083 13.8221 10.4882 13.5423 10.8333 13.5423H14.1667C14.5118 13.5423 14.7917 13.8221 14.7917 14.1673C14.7917 14.5125 14.5118 14.7923 14.1667 14.7923H10.8333C10.4882 14.7923 10.2083 14.5125 10.2083 14.1673Z" fill="url(#linear)"/>
<defs>
<linearGradient id="linear" x1="10" y1="2.70898" x2="10" y2="17.2923" gradientUnits="userSpaceOnUse">
<stop stop-color="#0DB1A0"/>
<stop offset="1" stop-color="#026056"/>
</linearGradient>
</defs>
</svg>
