<svg viewBox="0 0 23 24" fill="none" xmlns="http://www.w3.org/2000/svg">
<path d="M11.4764 22.9656C17.2762 22.9656 21.9779 18.2639 21.9779 12.4641C21.9779 6.66427 17.2762 1.96259 11.4764 1.96259C5.67657 1.96259 0.974884 6.66427 0.974884 12.4641C0.974884 18.2639 5.67657 22.9656 11.4764 22.9656Z" fill="url(#paint0_radial_851_3488)"/>
<path fill-rule="evenodd" clip-rule="evenodd" d="M11.4764 1.16532C13.7114 1.16517 15.8962 1.82781 17.7545 3.06943C19.6129 4.31105 21.0613 6.07588 21.9166 8.14072C22.7719 10.2056 22.9956 12.4777 22.5595 14.6697C22.1234 16.8617 21.0471 18.8751 19.4666 20.4554C17.8862 22.0356 15.8726 23.1117 13.6805 23.5475C11.4884 23.9833 9.21635 23.7593 7.15162 22.9037C5.0869 22.0482 3.32226 20.5995 2.08089 18.741C0.839514 16.8825 0.177167 14.6976 0.177613 12.4626C0.177613 9.46599 1.36802 6.5921 3.48695 4.47316C5.60589 2.35422 8.47978 1.16382 11.4764 1.16382V1.16532ZM11.4764 2.22238C13.5023 2.22223 15.4828 2.82287 17.1673 3.94834C18.8518 5.07381 20.1647 6.67355 20.94 8.54524C21.7153 10.4169 21.9181 12.4765 21.5228 14.4634C21.1275 16.4504 20.1518 18.2755 18.7192 19.7079C17.2865 21.1404 15.4613 22.1158 13.4743 22.5108C11.4873 22.9058 9.42772 22.7027 7.55614 21.9271C5.68457 21.1516 4.08502 19.8384 2.9598 18.1537C1.83458 16.4691 1.23422 14.4885 1.23467 12.4626C1.23527 9.74666 2.31454 7.14213 4.23516 5.2218C6.15577 3.30147 8.76045 2.22258 11.4764 2.22238Z" fill="#B25400"/>
<path fill-rule="evenodd" clip-rule="evenodd" d="M0.622763 4.57972L8.90054 2.36125C9.11586 2.30411 9.34505 2.33459 9.53795 2.44603C9.73085 2.55746 9.87175 2.74077 9.92982 2.95585L13.2136 15.2096C13.2709 15.4245 13.2409 15.6534 13.1303 15.8463C13.0196 16.0392 12.8372 16.1806 12.6228 16.2396L4.34123 18.4581C4.12614 18.5144 3.89752 18.4835 3.70507 18.3722C3.51262 18.2608 3.37188 18.078 3.31345 17.8635L0.0281687 5.609C-0.0287654 5.39369 0.00180789 5.16459 0.113212 4.97174C0.224616 4.7789 0.407801 4.63796 0.622763 4.57972Z" fill="url(#paint1_linear_851_3488)"/>
<path d="M11.2895 14.9108L11.4629 14.8642L11.5793 15.0264L11.8976 14.9408L11.9148 14.7426L12.0853 14.6976L11.9892 15.5729L11.8195 15.6187L11.2895 14.9108ZM11.6648 15.1465L11.854 15.41L11.8826 15.0879L11.6648 15.1465ZM11.3818 13.6638C11.55 13.8087 11.8698 13.91 11.9441 14.0879C11.9709 14.1489 11.9747 14.2174 11.9546 14.2809C11.9384 14.3245 11.9087 14.3617 11.8698 14.3873C11.8309 14.4128 11.7849 14.4252 11.7384 14.4228C11.699 14.4212 11.6608 14.4087 11.628 14.3869C11.5952 14.3651 11.569 14.3346 11.5522 14.2989C11.5554 14.3418 11.546 14.3846 11.525 14.4221C11.5041 14.4596 11.4726 14.4901 11.4344 14.5099C11.3963 14.5297 11.3532 14.5378 11.3104 14.5332C11.2677 14.5287 11.2273 14.5117 11.1941 14.4843C11.1449 14.4397 11.1139 14.3785 11.107 14.3124C11.0823 14.121 11.309 13.8732 11.3818 13.6638ZM1.95163 5.90852L1.77896 5.95507L1.66184 5.7929L1.34352 5.87774L1.32626 6.07594L1.15659 6.12173L1.25193 5.24636L1.4216 5.20056L1.95163 5.90852ZM1.57626 5.67278L1.38481 5.40552L1.35704 5.72759L1.574 5.66978L1.57626 5.67278ZM1.86154 7.15552C1.69337 7.01062 1.37355 6.90927 1.29923 6.73059C1.27165 6.67023 1.26711 6.60187 1.28647 6.5384C1.30126 6.498 1.32766 6.46287 1.36234 6.43741C1.39702 6.41195 1.43845 6.3973 1.48143 6.3953C1.52441 6.3933 1.56702 6.40403 1.60392 6.42614C1.64083 6.44826 1.67038 6.48078 1.68887 6.51963C1.68546 6.48035 1.69291 6.44089 1.71038 6.40554C1.72785 6.3702 1.75469 6.34033 1.78797 6.31918C1.82704 6.29397 1.87312 6.28183 1.91955 6.28453C1.96597 6.28723 2.01034 6.30462 2.04623 6.3342C2.09528 6.37894 2.12626 6.4401 2.13331 6.50612C2.15884 6.69831 1.93211 6.94531 1.85854 7.15552H1.86154ZM7.14232 12.3582C6.33001 11.6585 4.78571 11.1705 4.42686 10.3087C4.29734 10.0153 4.27971 9.6847 4.37731 9.37924C4.44958 9.18484 4.57748 9.01601 4.74507 8.89382C4.91266 8.77162 5.11251 8.70147 5.3197 8.6921C5.52689 8.68273 5.73226 8.73457 5.91018 8.84114C6.08811 8.94772 6.23073 9.10431 6.32025 9.2914C6.30446 9.10141 6.34087 8.91071 6.42555 8.7399C6.51023 8.56908 6.63996 8.42465 6.80073 8.32218C6.98959 8.20098 7.21209 8.14294 7.4361 8.15643C7.6601 8.16993 7.87402 8.25426 8.04698 8.39726C8.28305 8.61231 8.43298 8.90577 8.4689 9.22308C8.58902 10.1488 7.49292 11.344 7.14232 12.356V12.3582Z" fill="url(#paint2_linear_851_3488)"/>
<path fill-rule="evenodd" clip-rule="evenodd" d="M14.053 2.36127L22.3307 4.57974C22.5459 4.63797 22.7292 4.77902 22.8406 4.97204C22.952 5.16506 22.9825 5.39435 22.9253 5.60977L19.6423 17.8635C19.5839 18.0785 19.4428 18.2617 19.2498 18.3731C19.0569 18.4845 18.8277 18.5151 18.6123 18.4581L10.3345 16.2396C10.1194 16.1814 9.93605 16.0404 9.82463 15.8473C9.7132 15.6543 9.68274 15.425 9.7399 15.2096L13.0229 2.95586C13.0812 2.74074 13.2222 2.55742 13.4152 2.446C13.6083 2.33457 13.8375 2.30411 14.053 2.36127Z" fill="url(#paint3_linear_851_3488)"/>
<path fill-rule="evenodd" clip-rule="evenodd" d="M14.3217 9.87102C14.7969 9.59941 15.2572 9.30269 15.7009 8.98213C16.1475 8.66687 16.5773 8.32831 16.9884 7.96787C17.1641 8.48563 17.3669 8.99384 17.5958 9.49039C17.8205 9.98909 18.0711 10.4757 18.3465 10.9484C17.8722 11.2202 17.4126 11.5169 16.9696 11.8372C16.5226 12.152 16.0928 12.4906 15.6821 12.8515C15.5064 12.3336 15.3034 11.8254 15.074 11.329C14.85 10.8299 14.5994 10.3432 14.3232 9.87102H14.3217ZM14.5394 4.17733L14.3668 4.13078L14.3495 3.93183L14.0319 3.847L13.9141 4.00916L13.7444 3.96412L14.2647 3.25391L14.4343 3.29895L14.5394 4.17733ZM14.3307 3.78394L14.2992 3.46111L14.113 3.72538L14.3307 3.78394ZM18.1258 16.642L18.2985 16.6886L18.3187 16.8875L18.637 16.9724L18.7512 16.8095L18.9208 16.8553L18.4036 17.5677L18.2339 17.5227L18.1288 16.6443L18.1258 16.642ZM18.3345 17.0354L18.366 17.3583L18.5522 17.0932L18.3345 17.0354ZM13.5237 4.6946C13.6228 4.63741 13.7191 4.57527 13.812 4.50841C13.9056 4.44226 13.9956 4.37109 14.0815 4.2952C14.1183 4.40375 14.1609 4.51026 14.2091 4.61427C14.2561 4.71878 14.3084 4.82077 14.366 4.91982C14.2864 4.96487 14.1851 5.02943 14.077 5.10601C13.9833 5.17211 13.8933 5.24329 13.8075 5.31922C13.7706 5.21079 13.7282 5.1043 13.6806 5.00015C13.6336 4.89564 13.5813 4.79365 13.5237 4.6946ZM19.1423 16.1248C19.0426 16.1815 18.9461 16.2437 18.8533 16.311C18.7597 16.3769 18.6697 16.4478 18.5837 16.5234C18.5468 16.4149 18.5042 16.3084 18.4561 16.2044C18.4093 16.0998 18.3569 15.9978 18.2992 15.8988C18.3987 15.8422 18.4949 15.78 18.5875 15.7126C18.6813 15.6467 18.7715 15.5758 18.8578 15.5002C18.8946 15.6086 18.937 15.7151 18.9846 15.8192C19.0315 15.9239 19.0841 16.0259 19.1423 16.1248Z" fill="url(#paint4_linear_851_3488)"/>
<mask id="mask0_851_3488" style="mask-type:luminance" maskUnits="userSpaceOnUse" x="0" y="2" width="23" height="17">
<path d="M22.3307 4.57974L14.053 2.36127C13.8376 2.30411 13.6083 2.33457 13.4152 2.446C13.2222 2.55742 13.0812 2.74074 13.0229 2.95586L11.4764 8.72764L9.92985 2.95586C9.87178 2.74079 9.73088 2.55748 9.53798 2.44605C9.34508 2.33461 9.11589 2.30413 8.90057 2.36127L0.622796 4.57974C0.407667 4.63797 0.224349 4.77902 0.112926 4.97204C0.0015036 5.16506 -0.0289582 5.39435 0.0282016 5.60977L3.31349 17.8635C3.3719 18.0785 3.51298 18.2617 3.70595 18.3731C3.89891 18.4845 4.12811 18.5151 4.34352 18.4581L11.4756 16.546L18.6078 18.4581C18.8232 18.5151 19.0524 18.4845 19.2453 18.3731C19.4383 18.2617 19.5794 18.0785 19.6378 17.8635L22.9253 5.60902C22.9823 5.3937 22.9517 5.16461 22.8403 4.97176C22.7289 4.77892 22.5457 4.63798 22.3307 4.57974Z" fill="white"/>
</mask>
<g mask="url(#mask0_851_3488)">
<g opacity="0.75">
<g style="mix-blend-mode:multiply">
<path fill-rule="evenodd" clip-rule="evenodd" d="M7.06725 3.29366L7.45163 3.27714L7.82701 3.26288L8.18587 3.25012L8.53346 3.23961L8.86905 3.22835L9.19713 3.22009L9.5177 3.21333L9.83076 3.20808L10.1386 3.20282H10.4389H10.7392H11.035H11.33H11.6236H11.9186H12.2144H12.5147H12.815L13.1228 3.20808L13.4359 3.21333L13.7564 3.22009L14.0845 3.22835L14.4224 3.23811L14.77 3.24862L15.1288 3.26138L15.5042 3.27564L15.8886 3.29216C16.0034 3.29647 16.1164 3.32192 16.2219 3.36723C16.3212 3.41019 16.4116 3.4713 16.4884 3.54741C16.5627 3.62008 16.6216 3.70687 16.6618 3.80267C16.7018 3.89886 16.72 4.00268 16.7151 4.10672C16.7076 4.24411 16.7009 4.38 16.6949 4.51288C16.6889 4.64576 16.6814 4.7779 16.6746 4.90778C16.6678 5.03765 16.6618 5.16528 16.6558 5.29216C16.6498 5.41904 16.6431 5.54291 16.6371 5.66753C16.6311 5.79216 16.6251 5.91228 16.619 6.0324C16.613 6.15252 16.607 6.27114 16.601 6.38825C16.595 6.50537 16.5898 6.62174 16.5838 6.7366C16.5778 6.85147 16.5725 6.96183 16.5672 7.0782C16.562 7.19456 16.556 7.30342 16.55 7.41303L16.5342 7.74186C16.5282 7.85072 16.523 7.95883 16.5177 8.06618C16.5124 8.17354 16.5072 8.28015 16.5019 8.386L16.4862 8.70207L16.4704 9.01588L16.4546 9.32669C16.4501 9.4303 16.4449 9.5339 16.4396 9.63675L16.4239 9.94606C16.4186 10.0489 16.4141 10.1518 16.4088 10.2546L16.3931 10.5647C16.3878 10.6683 16.3826 10.7719 16.3781 10.8762L16.3623 11.1893C16.357 11.2944 16.3518 11.3995 16.3465 11.5061C16.3413 11.6127 16.336 11.7186 16.3308 11.8259C16.3255 11.9333 16.3195 12.0407 16.3142 12.1495C16.309 12.2584 16.3037 12.368 16.2977 12.4791C16.2917 12.5902 16.2872 12.7043 16.2812 12.8139C16.2752 12.9235 16.2699 13.0392 16.2639 13.1548C16.2579 13.2704 16.2527 13.386 16.2467 13.5031C16.2407 13.6202 16.2354 13.7396 16.2294 13.8597C16.2234 13.9798 16.2174 14.1015 16.2106 14.2246C16.2039 14.3477 16.1986 14.4723 16.1926 14.6C16.1866 14.7276 16.1799 14.8537 16.1731 14.9836C16.1663 15.1135 16.1603 15.2449 16.1536 15.3785C16.1468 15.5121 16.1401 15.6473 16.1333 15.7847C16.1288 15.8888 16.1033 15.9909 16.0582 16.085C16.0155 16.1746 15.9561 16.2554 15.8833 16.3229C15.8111 16.3897 15.7268 16.442 15.6348 16.4768C15.5392 16.5136 15.4368 16.5297 15.3345 16.5241L14.9591 16.5084L14.5958 16.4949L14.2459 16.4829L13.9081 16.4723L13.5808 16.4641L13.2632 16.4566L12.9531 16.4513L12.6528 16.4461H12.3525H12.059H11.7677H11.1889H10.8976H10.604H10.3037L10.0034 16.4513L9.69337 16.4566L9.37581 16.4641L9.04848 16.4723L8.71064 16.4829L8.36079 16.4949L7.99743 16.5084L7.62205 16.5241C7.51974 16.5298 7.41738 16.5137 7.32175 16.4768C7.22982 16.442 7.14545 16.3897 7.07326 16.3229C7.00042 16.2552 6.94084 16.1745 6.89758 16.085C6.85288 15.9908 6.82736 15.8887 6.8225 15.7847C6.815 15.6473 6.80899 15.5121 6.80223 15.3785C6.79548 15.2449 6.78872 15.1135 6.78196 14.9836C6.77521 14.8537 6.7692 14.7261 6.76319 14.6C6.75719 14.4738 6.75043 14.3492 6.74443 14.2246C6.73842 14.1 6.73241 13.9798 6.72641 13.8597C6.7204 13.7396 6.7144 13.621 6.70839 13.5031C6.70238 13.3853 6.69713 13.2696 6.69112 13.1548C6.68512 13.0399 6.67986 12.9295 6.67461 12.8139C6.66935 12.6983 6.66335 12.5887 6.65734 12.4791C6.65133 12.3695 6.64683 12.2584 6.64157 12.1495C6.63632 12.0407 6.63031 11.9333 6.62506 11.8259C6.6198 11.7186 6.61455 11.612 6.60929 11.5061C6.60404 11.4003 6.59878 11.2944 6.59353 11.1893C6.58827 11.0842 6.58302 10.9798 6.57776 10.8762L6.56199 10.5647C6.55749 10.4611 6.55223 10.3582 6.54698 10.2546L6.53121 9.94606C6.52671 9.84246 6.52145 9.73961 6.5162 9.63675L6.50043 9.32669C6.49518 9.22309 6.49067 9.11949 6.48542 9.01588L6.46965 8.70207L6.45389 8.386C6.44838 8.2804 6.44313 8.17379 6.43812 8.06618C6.43287 7.95883 6.42686 7.85072 6.4216 7.74186C6.41635 7.633 6.41109 7.52339 6.40509 7.41303C6.39908 7.30267 6.39458 7.1878 6.38857 7.0782C6.38256 6.96859 6.37731 6.85297 6.3713 6.7366C6.3653 6.62024 6.36004 6.50537 6.35404 6.38825C6.34803 6.27114 6.34277 6.15252 6.33677 6.0324C6.33076 5.91228 6.32476 5.79066 6.31875 5.66753C6.31274 5.54441 6.30599 5.41979 6.29998 5.29216C6.29398 5.16453 6.28722 5.03765 6.28046 4.90778C6.27371 4.7779 6.2677 4.64651 6.26094 4.51288C6.25419 4.37925 6.24743 4.24411 6.24067 4.10672C6.23548 4.00266 6.2537 3.89876 6.29398 3.80267C6.33417 3.70687 6.39314 3.62008 6.4674 3.54741C6.54426 3.4713 6.63464 3.41019 6.73392 3.36723C6.83946 3.32192 6.95247 3.29647 7.06725 3.29216V3.29366Z" fill="#6B7787"/>
</g>
</g>
</g>
<path fill-rule="evenodd" clip-rule="evenodd" d="M7.19188 1.69379H15.7617C15.9844 1.69458 16.1977 1.78345 16.3551 1.94098C16.5125 2.09852 16.6012 2.31193 16.6018 2.53463V15.2223C16.6012 15.4451 16.5124 15.6587 16.3549 15.8162C16.1973 15.9738 15.9838 16.0626 15.761 16.0632H7.19188C6.96906 16.0626 6.75554 15.9738 6.59798 15.8162C6.44042 15.6587 6.35164 15.4451 6.35104 15.2223V2.53463C6.35164 2.31181 6.44042 2.09828 6.59798 1.94072C6.75554 1.78316 6.96906 1.69438 7.19188 1.69379Z" fill="url(#paint5_linear_851_3488)"/>
<mask id="mask1_851_3488" style="mask-type:alpha" maskUnits="userSpaceOnUse" x="1" y="1" width="21" height="22">
<path d="M11.4591 22.823C17.1188 22.823 21.7069 18.1004 21.7069 12.2749C21.7069 6.44939 17.1188 1.72687 11.4591 1.72687C5.79944 1.72687 1.21136 6.44939 1.21136 12.2749C1.21136 18.1004 5.79944 22.823 11.4591 22.823Z" fill="url(#paint6_radial_851_3488)"/>
</mask>
<g mask="url(#mask1_851_3488)">
<path fill-rule="evenodd" clip-rule="evenodd" d="M6.30143 15.3605C7.37052 15.3605 8.4156 15.6776 9.30451 16.2715C10.1934 16.8655 10.8863 17.7097 11.2954 18.6974C11.7045 19.6851 11.8115 20.7719 11.603 21.8205C11.3944 22.869 10.8796 23.8322 10.1236 24.5881C9.36767 25.3441 8.40452 25.8589 7.35597 26.0675C6.30743 26.2761 5.22058 26.169 4.23287 25.7599C3.24516 25.3508 2.40096 24.6579 1.807 23.769C1.21305 22.8801 0.896027 21.835 0.896027 20.7659C0.896027 19.3323 1.46552 17.9575 2.47923 16.9437C3.49294 15.93 4.86783 15.3605 6.30143 15.3605Z" fill="url(#paint7_radial_851_3488)"/>
<path fill-rule="evenodd" clip-rule="evenodd" d="M6.30144 16.6598C6.66046 16.6609 7.01782 16.7087 7.3645 16.8019L7.72186 15.4696C8.65195 15.7189 9.50013 16.2084 10.1813 16.889L9.20434 17.866C9.71464 18.3745 10.0814 19.0089 10.2674 19.7049L11.6007 19.3475C11.8503 20.2777 11.8503 21.2572 11.6007 22.1873L10.2684 21.83C10.0816 22.5264 9.71458 23.1613 9.20434 23.6708L10.1813 24.6468C9.49984 25.3272 8.6518 25.817 7.72186 26.0672L7.3645 24.7339C6.66794 24.9194 5.93494 24.9194 5.23838 24.7339L4.88202 26.0672C3.95183 25.8176 3.10364 25.3277 2.42256 24.6468L3.39854 23.6708C2.88866 23.1612 2.52201 22.5263 2.33548 21.83L1.00214 22.1873C0.752581 21.2572 0.752581 20.2777 1.00214 19.3475L2.33548 19.7049C2.52145 19.008 2.88817 18.3726 3.39854 17.863L2.42256 16.886C3.10335 16.2049 3.95168 15.7153 4.88202 15.4666L5.23838 16.8019C5.5852 16.7097 5.94255 16.6629 6.30144 16.6628V16.6598Z" fill="url(#paint8_radial_851_3488)"/>
<path fill-rule="evenodd" clip-rule="evenodd" d="M6.3014 17.0843C7.02957 17.0843 7.74139 17.3002 8.34683 17.7048C8.95228 18.1093 9.42417 18.6843 9.70283 19.3571C9.98149 20.0298 10.0544 20.7701 9.91234 21.4842C9.77028 22.1984 9.41964 22.8544 8.90474 23.3693C8.38985 23.8842 7.73384 24.2348 7.01966 24.3769C6.30549 24.519 5.56522 24.4461 4.89248 24.1674C4.21974 23.8887 3.64474 23.4169 3.2402 22.8114C2.83565 22.206 2.61972 21.4941 2.61972 20.766C2.61959 20.2824 2.71473 19.8036 2.8997 19.3569C3.08468 18.9102 3.35587 18.5042 3.69777 18.1623C4.03967 17.8204 4.44559 17.5492 4.89233 17.3643C5.33907 17.1793 5.81788 17.0842 6.3014 17.0843ZM6.3014 17.3365C6.97972 17.3363 7.64286 17.5373 8.20696 17.914C8.77106 18.2907 9.21078 18.8263 9.47049 19.4529C9.73021 20.0795 9.79827 20.7691 9.66606 21.4344C9.53385 22.0997 9.2073 22.7109 8.72773 23.1906C8.24815 23.6703 7.63709 23.997 6.97182 24.1294C6.30655 24.2618 5.61695 24.194 4.99025 23.9344C4.36354 23.6749 3.82788 23.2354 3.45101 22.6714C3.07413 22.1074 2.87297 21.4443 2.87297 20.766C2.87297 19.8566 3.23415 18.9845 3.87708 18.3414C4.52 17.6982 5.39203 17.3368 6.3014 17.3365Z" fill="url(#paint9_radial_851_3488)"/>
<g style="mix-blend-mode:multiply">
<path fill-rule="evenodd" clip-rule="evenodd" d="M6.30143 22.9251C6.05889 22.6195 5.79461 22.3318 5.51064 22.0643C4.99713 21.5557 4.4666 21.0302 4.39753 20.5057C4.35476 20.2271 4.41489 19.9424 4.5667 19.7049C4.65108 19.5846 4.76361 19.4868 4.89447 19.42C5.02532 19.3532 5.17053 19.3193 5.31745 19.3215C5.41311 19.3214 5.50826 19.3355 5.59973 19.3636C5.75858 19.4136 5.90068 19.5062 6.01062 19.6313C6.12055 19.7565 6.19413 19.9093 6.22335 20.0733H6.38051C6.40963 19.9093 6.48317 19.7564 6.59312 19.6312C6.70307 19.5061 6.84523 19.4135 7.00413 19.3636C7.09525 19.3355 7.19007 19.3213 7.28542 19.3215C7.43233 19.3193 7.57754 19.3532 7.7084 19.42C7.83925 19.4868 7.95178 19.5846 8.03617 19.7049C8.19028 19.9441 8.25086 20.2317 8.20634 20.5127C8.13627 21.0342 7.60574 21.5597 7.09322 22.0683C6.80883 22.3343 6.5442 22.6206 6.30143 22.9251Z" fill="#202636"/>
</g>
<path fill-rule="evenodd" clip-rule="evenodd" d="M6.30146 22.9251C5.72988 22.0842 4.43459 21.2584 4.31747 20.3805C4.27095 20.0799 4.33611 19.7726 4.50066 19.5167C4.62379 19.3433 4.79893 19.2137 5.00068 19.1466C5.20244 19.0794 5.42033 19.0783 5.62278 19.1433C5.79546 19.1976 5.94999 19.2982 6.06962 19.434C6.18925 19.5699 6.26943 19.7359 6.30146 19.9141C6.33369 19.736 6.41394 19.5701 6.53354 19.4342C6.65314 19.2984 6.80756 19.1978 6.98013 19.1433C7.18272 19.078 7.40083 19.0791 7.60279 19.1462C7.80475 19.2133 7.98006 19.3431 8.10326 19.5167C8.26754 19.7727 8.33235 20.08 8.28544 20.3805C8.16832 21.2584 6.87403 22.0822 6.30146 22.9251Z" fill="url(#paint10_radial_851_3488)"/>
<path fill-rule="evenodd" clip-rule="evenodd" d="M22.3585 15.3605C23.4276 15.3605 24.4726 15.6776 25.3616 16.2715C26.2505 16.8655 26.9433 17.7097 27.3524 18.6974C27.7615 19.6851 27.8686 20.7719 27.66 21.8205C27.4514 22.869 26.9366 23.8322 26.1807 24.5881C25.4247 25.3441 24.4616 25.8589 23.413 26.0675C22.3645 26.2761 21.2776 26.169 20.2899 25.7599C19.3022 25.3508 18.458 24.6579 17.864 23.769C17.2701 22.8801 16.9531 21.835 16.9531 20.7659C16.9531 19.3323 17.5226 17.9575 18.5363 16.9437C19.55 15.93 20.9249 15.3605 22.3585 15.3605Z" fill="url(#paint11_radial_851_3488)"/>
<path fill-rule="evenodd" clip-rule="evenodd" d="M22.3585 16.6598C22.7172 16.6608 23.0742 16.7086 23.4205 16.802L23.7779 15.4696C24.7082 15.7183 25.5566 16.2079 26.2374 16.889L25.2614 17.866C25.771 18.3751 26.1376 19.0093 26.3244 19.7049L27.6578 19.3475C27.9061 20.2778 27.9061 21.257 27.6578 22.1873L26.3244 21.83C26.1379 22.5263 25.7713 23.1612 25.2614 23.6708L26.2374 24.6468C25.5563 25.3278 24.7081 25.8176 23.7779 26.0672L23.4205 24.7339C22.7243 24.9194 21.9916 24.9194 21.2954 24.7339L20.9381 26.0672C20.0079 25.8176 19.1597 25.3278 18.4786 24.6468L19.4556 23.6708C18.9453 23.1613 18.5783 22.5264 18.3915 21.83L17.0592 22.1853C16.8096 21.2552 16.8096 20.2757 17.0592 19.3455L18.3915 19.7049C18.5781 19.0086 18.9452 18.374 19.4556 17.865L18.4786 16.888C19.1594 16.2069 20.0077 15.7173 20.9381 15.4686L21.2954 16.802C21.6422 16.7096 21.9996 16.6628 22.3585 16.6628V16.6598Z" fill="url(#paint12_radial_851_3488)"/>
<path fill-rule="evenodd" clip-rule="evenodd" d="M22.3585 17.0843C23.0866 17.0845 23.7983 17.3006 24.4037 17.7053C25.009 18.1099 25.4807 18.685 25.7592 19.3577C26.0377 20.0305 26.1105 20.7707 25.9683 21.4848C25.8261 22.199 25.4754 22.8549 24.9605 23.3697C24.4455 23.8845 23.7895 24.235 23.0754 24.377C22.3612 24.519 21.621 24.446 20.9483 24.1673C20.2757 23.8886 19.7007 23.4167 19.2962 22.8113C18.8917 22.2059 18.6758 21.4941 18.6758 20.766C18.6758 20.2824 18.7711 19.8036 18.9562 19.3568C19.1412 18.9101 19.4125 18.5042 19.7545 18.1623C20.0965 17.8204 20.5025 17.5492 20.9493 17.3643C21.3961 17.1793 21.8749 17.0842 22.3585 17.0843ZM22.3585 17.3365C23.0368 17.3365 23.6998 17.5377 24.2638 17.9145C24.8278 18.2913 25.2673 18.8269 25.5269 19.4536C25.7864 20.0802 25.8544 20.7698 25.722 21.435C25.5897 22.1003 25.2631 22.7113 24.7835 23.1909C24.3039 23.6706 23.6928 23.9972 23.0275 24.1295C22.3623 24.2618 21.6728 24.1939 21.0461 23.9343C20.4195 23.6748 19.8839 23.2352 19.507 22.6713C19.1302 22.1073 18.9291 21.4442 18.9291 20.766C18.9291 19.8564 19.2904 18.9841 19.9335 18.341C20.5767 17.6979 21.449 17.3365 22.3585 17.3365Z" fill="url(#paint13_radial_851_3488)"/>
<g style="mix-blend-mode:multiply">
<path fill-rule="evenodd" clip-rule="evenodd" d="M22.3585 23.1563C22.1283 22.815 21.823 22.4106 21.4896 22.0051C21.1563 21.5997 20.7959 21.1993 20.4986 20.904C20.7989 20.6088 21.1453 20.2214 21.4896 19.8029C21.834 19.3845 22.1283 18.9931 22.3585 18.6518C22.5877 18.9921 22.892 19.3965 23.2264 19.8029C23.5607 20.2094 23.92 20.6088 24.2173 20.904C23.917 21.1983 23.5707 21.5867 23.2264 22.0051C22.882 22.4236 22.5877 22.815 22.3585 23.1563Z" fill="#202636"/>
</g>
<path fill-rule="evenodd" clip-rule="evenodd" d="M20.3835 20.7659C20.7515 20.4004 21.1 20.0158 21.4276 19.6137C21.7594 19.2148 22.0701 18.7989 22.3585 18.3675C22.6461 18.7991 22.9566 19.2151 23.2884 19.6137C23.616 20.0158 23.9645 20.4004 24.3325 20.7659C23.6002 21.5008 22.9392 22.3035 22.3585 23.1633C22.0701 22.7323 21.7593 22.3166 21.4276 21.918C21.1002 21.5157 20.7517 21.1312 20.3835 20.7659Z" fill="url(#paint14_radial_851_3488)"/>
</g>
<path style="mix-blend-mode:multiply" fill-rule="evenodd" clip-rule="evenodd" d="M11.4764 6.60671C10.8901 7.46857 9.56274 8.31542 9.44262 9.21557C9.39449 9.52365 9.46128 9.83867 9.6303 10.1007C9.75656 10.2785 9.93619 10.4115 10.1431 10.4804C10.3501 10.5492 10.5736 10.5503 10.7812 10.4836C10.9722 10.426 11.1409 10.3112 11.2647 10.1548C11.2679 10.1507 11.2723 10.1477 11.2773 10.1464C11.2823 10.145 11.2876 10.1453 11.2925 10.1473C11.2973 10.1494 11.3014 10.153 11.3041 10.1576C11.3067 10.1622 11.3079 10.1675 11.3075 10.1728C11.2632 10.5527 11.1408 10.7914 10.7872 11.0909L10.8202 11.1503H12.1333L12.1656 11.0909C11.8127 10.7906 11.6904 10.5527 11.6461 10.1728C11.6456 10.1675 11.6468 10.1622 11.6495 10.1576C11.6522 10.153 11.6562 10.1494 11.6611 10.1473C11.6659 10.1455 11.6712 10.1452 11.6762 10.1466C11.6812 10.1479 11.6856 10.1508 11.6889 10.1548C11.8126 10.3112 11.9814 10.426 12.1723 10.4836C12.38 10.5501 12.6034 10.5488 12.8103 10.48C13.0172 10.4112 13.1968 10.2784 13.3232 10.1007C13.4918 9.83848 13.5586 9.52363 13.5109 9.21557C13.3908 8.31467 12.0635 7.46857 11.4764 6.60671ZM8.1318 3.32143H7.95238L7.8818 3.13449H7.55223L7.48466 3.32143H7.30823L7.6273 2.50085H7.80298L8.1318 3.32143ZM7.82775 2.99635L7.71364 2.69605L7.60328 2.99635H7.82775ZM14.8217 14.434H15.0004L15.0755 14.621H15.4006L15.4689 14.434H15.6446L15.3255 15.2546H15.1498L14.821 14.434H14.8217ZM15.1258 14.7591L15.2399 15.0594L15.3503 14.7591H15.1258ZM7.72039 3.60371C7.59502 3.78764 7.31198 3.96782 7.28646 4.16001C7.27657 4.22567 7.29098 4.29267 7.327 4.34845C7.35384 4.38627 7.39206 4.41453 7.43608 4.42912C7.4801 4.4437 7.52763 4.44385 7.57174 4.42953C7.61308 4.41558 7.64921 4.3894 7.67535 4.35446C7.67632 4.39362 7.66749 4.4324 7.64966 4.46728C7.63183 4.50215 7.60556 4.53202 7.57325 4.55416C7.66846 4.56461 7.76426 4.56888 7.86003 4.56692C7.80179 4.51188 7.76506 4.43788 7.75643 4.35821C7.78896 4.38763 7.82697 4.41033 7.86829 4.42503C7.9126 4.4392 7.96027 4.43891 8.0044 4.4242C8.04853 4.40949 8.08684 4.38112 8.11379 4.3432C8.14922 4.28719 8.16334 4.22031 8.15358 4.15476C8.12805 3.96257 7.84502 3.77938 7.72039 3.59845V3.60371ZM15.2332 14.1593C15.3585 13.9753 15.6408 13.7951 15.6671 13.603C15.677 13.5373 15.6626 13.4703 15.6265 13.4145C15.5998 13.3766 15.5616 13.3482 15.5176 13.3334C15.4736 13.3187 15.426 13.3184 15.3818 13.3327C15.3409 13.345 15.3047 13.3697 15.2782 13.4033C15.2772 13.3641 15.2861 13.3253 15.3039 13.2904C15.3217 13.2556 15.348 13.2257 15.3803 13.2036C15.2851 13.1931 15.1893 13.1888 15.0935 13.1908C15.1518 13.2458 15.1885 13.3198 15.1971 13.3995C15.1646 13.3701 15.1266 13.3474 15.0853 13.3327C15.0409 13.3185 14.9933 13.3188 14.9491 13.3335C14.905 13.3482 14.8667 13.3766 14.8398 13.4145C14.804 13.4704 14.7899 13.5374 14.8 13.603C14.8255 13.7951 15.1085 13.9783 15.2332 14.1593Z" fill="url(#paint15_linear_851_3488)"/>
<path fill-rule="evenodd" clip-rule="evenodd" d="M11.4764 14.5167C12.4142 14.5167 13.331 14.7948 14.1108 15.3158C14.8905 15.8368 15.4983 16.5774 15.8572 17.4438C16.2161 18.3103 16.31 19.2637 16.127 20.1835C15.9441 21.1033 15.4925 21.9482 14.8293 22.6113C14.1662 23.2745 13.3213 23.7261 12.4015 23.909C11.4817 24.092 10.5282 23.9981 9.6618 23.6392C8.79536 23.2803 8.05481 22.6725 7.53378 21.8928C7.01275 21.113 6.73465 20.1962 6.73465 19.2584C6.73465 18.0008 7.23422 16.7947 8.12347 15.9055C9.01272 15.0162 10.2188 14.5167 11.4764 14.5167Z" fill="url(#paint16_radial_851_3488)"/>
<path fill-rule="evenodd" clip-rule="evenodd" d="M11.4764 15.657C11.7912 15.6569 12.1047 15.6981 12.4088 15.7794L12.7226 14.6097C13.5383 14.8291 14.2821 15.2589 14.8795 15.856L14.0229 16.7126C14.4706 17.1591 14.7925 17.7159 14.9561 18.3267L16.125 18.0129C16.3443 18.8288 16.3443 19.688 16.125 20.5039L14.9561 20.1908C14.7925 20.8016 14.4706 21.3584 14.0229 21.8049L14.8795 22.6615C14.2823 23.2588 13.5384 23.6883 12.7226 23.907L12.4088 22.7381C11.798 22.9003 11.1555 22.9003 10.5447 22.7381L10.2309 23.907C9.41495 23.6887 8.67099 23.2591 8.07399 22.6615L8.9306 21.8049C8.48293 21.3584 8.16103 20.8016 7.99741 20.1908L6.82775 20.5039C6.60954 19.6879 6.60954 18.8289 6.82775 18.0129L7.99741 18.3267C8.16103 17.7159 8.48293 17.1591 8.9306 16.7126L8.07399 15.856C8.67112 15.2585 9.41501 14.8286 10.2309 14.6097L10.5447 15.7794C10.8486 15.6981 11.1618 15.6569 11.4764 15.657Z" fill="url(#paint17_radial_851_3488)"/>
<path fill-rule="evenodd" clip-rule="evenodd" d="M11.4764 16.0286C12.1149 16.0286 12.739 16.218 13.2699 16.5727C13.8008 16.9274 14.2146 17.4316 14.4589 18.0215C14.7032 18.6113 14.7672 19.2604 14.6426 19.8866C14.518 20.5129 14.2106 21.0881 13.7591 21.5396C13.3076 21.991 12.7324 22.2985 12.1062 22.4231C11.48 22.5476 10.8309 22.4837 10.241 22.2393C9.65113 21.995 9.14695 21.5812 8.79222 21.0504C8.4375 20.5195 8.24817 19.8953 8.24817 19.2569C8.24817 18.4007 8.58828 17.5796 9.19369 16.9742C9.7991 16.3687 10.6202 16.0286 11.4764 16.0286ZM11.4764 16.2539C12.0714 16.2537 12.6532 16.43 13.148 16.7605C13.6428 17.091 14.0285 17.5608 14.2563 18.1106C14.4841 18.6603 14.5437 19.2652 14.4276 19.8488C14.3116 20.4324 14.0251 20.9685 13.6043 21.3893C13.1835 21.81 12.6475 22.0965 12.0638 22.2126C11.4802 22.3287 10.8753 22.269 10.3256 22.0412C9.77587 21.8135 9.30605 21.4278 8.97556 20.9329C8.64506 20.4381 8.46874 19.8564 8.46889 19.2614C8.46909 18.4638 8.78601 17.6989 9.34999 17.1349C9.91396 16.571 10.6788 16.254 11.4764 16.2539Z" fill="url(#paint18_radial_851_3488)"/>
<g style="mix-blend-mode:multiply">
<path fill-rule="evenodd" clip-rule="evenodd" d="M11.068 21.1135C11.324 20.8725 11.4111 20.6555 11.4269 20.2561C11.4277 20.2426 11.4277 20.2291 11.4269 20.2156C11.4235 20.1914 11.4122 20.1689 11.3949 20.1517C11.3775 20.1345 11.355 20.1234 11.3308 20.1202H11.3143C11.2929 20.1203 11.272 20.1265 11.254 20.1381C11.2361 20.1496 11.2218 20.1661 11.2129 20.1855C11.1452 20.3297 11.0355 20.4501 10.8983 20.5309C10.7611 20.6118 10.6026 20.6493 10.4437 20.6387C10.2848 20.628 10.1328 20.5696 10.0076 20.4712C9.88237 20.3727 9.78979 20.2388 9.74194 20.0869C9.69409 19.935 9.6932 19.7721 9.73938 19.6197C9.78557 19.4673 9.87668 19.3323 10.0008 19.2325C10.1249 19.1327 10.2763 19.0727 10.4351 19.0603C10.5939 19.0479 10.7527 19.0837 10.8908 19.163L10.9712 19.0474C10.8463 18.9431 10.7566 18.8029 10.7143 18.6458C10.672 18.4887 10.679 18.3224 10.7345 18.1695C10.79 18.0166 10.8912 17.8844 11.0244 17.7911C11.1576 17.6977 11.3164 17.6476 11.479 17.6476C11.6417 17.6476 11.8005 17.6977 11.9337 17.7911C12.0669 17.8844 12.1681 18.0166 12.2236 18.1695C12.2791 18.3224 12.2861 18.4887 12.2438 18.6458C12.2014 18.8029 12.1118 18.9431 11.9869 19.0474L12.0673 19.163C12.2055 19.0834 12.3645 19.0475 12.5235 19.0598C12.6825 19.0721 12.8341 19.1321 12.9585 19.232C13.0828 19.3319 13.1741 19.467 13.2204 19.6196C13.2666 19.7722 13.2658 19.9353 13.2178 20.0874C13.1699 20.2395 13.0772 20.3736 12.9518 20.4722C12.8264 20.5707 12.6742 20.6291 12.5151 20.6397C12.3559 20.6503 12.1973 20.6127 12.0599 20.5316C11.9226 20.4506 11.8129 20.33 11.7452 20.1855C11.7363 20.1659 11.722 20.1493 11.7038 20.1377C11.6857 20.1261 11.6646 20.1201 11.6431 20.1202H11.6258C11.6018 20.1235 11.5794 20.1346 11.5623 20.1518C11.5452 20.1691 11.5343 20.1915 11.5312 20.2156C11.5296 20.2288 11.5296 20.2421 11.5312 20.2554C11.547 20.6555 11.6333 20.8725 11.8901 21.1135H11.068Z" fill="#202636"/>
</g>
<path fill-rule="evenodd" clip-rule="evenodd" d="M11.4764 17.4551C11.6535 17.4549 11.8263 17.5093 11.9714 17.6109C12.1165 17.7125 12.2267 17.8562 12.2872 18.0227C12.3477 18.1891 12.3554 18.3702 12.3093 18.5412C12.2632 18.7122 12.1656 18.8648 12.0297 18.9784C12.1802 18.8917 12.3534 18.8525 12.5265 18.8659C12.6997 18.8793 12.8648 18.9447 13.0002 19.0535C13.1356 19.1622 13.235 19.3093 13.2854 19.4755C13.3359 19.6417 13.3349 19.8193 13.2828 19.9849C13.2307 20.1506 13.1298 20.2967 12.9932 20.404C12.8567 20.5114 12.691 20.575 12.5177 20.5867C12.3444 20.5983 12.1717 20.5573 12.022 20.4692C11.8724 20.381 11.7529 20.2497 11.6791 20.0925C11.6753 20.0841 11.6688 20.0772 11.6606 20.0728C11.6525 20.0685 11.6432 20.0669 11.634 20.0684C11.6251 20.0695 11.6167 20.0736 11.6103 20.08C11.6039 20.0864 11.5999 20.0948 11.5988 20.1037C11.598 20.113 11.598 20.1223 11.5988 20.1315C11.6145 20.5302 11.6949 20.7404 12.0199 21.0159L11.9944 21.0624H10.9606L10.9351 21.0159C11.2594 20.7404 11.3405 20.5302 11.3563 20.1315C11.3571 20.1223 11.3571 20.113 11.3563 20.1037C11.3546 20.0949 11.3502 20.0869 11.3438 20.0807C11.3373 20.0745 11.329 20.0705 11.3202 20.0692C11.3113 20.068 11.3022 20.0696 11.2943 20.0737C11.2864 20.0779 11.2799 20.0845 11.2759 20.0925C11.2023 20.25 11.0828 20.3815 10.9331 20.47C10.7834 20.5584 10.6104 20.5996 10.4369 20.5881C10.2635 20.5766 10.0975 20.513 9.96072 20.4057C9.82397 20.2983 9.72282 20.1521 9.67053 19.9863C9.61823 19.8205 9.61723 19.6427 9.66763 19.4763C9.71804 19.3099 9.81752 19.1626 9.95304 19.0537C10.0886 18.9448 10.2538 18.8793 10.4272 18.8658C10.6005 18.8524 10.7739 18.8916 10.9246 18.9784C10.7891 18.8646 10.6919 18.712 10.6461 18.5411C10.6002 18.3703 10.6081 18.1895 10.6684 18.0232C10.7288 17.8569 10.8389 17.7132 10.9837 17.6116C11.1285 17.51 11.301 17.4554 11.4779 17.4551H11.4764Z" fill="url(#paint19_radial_851_3488)"/>
<defs>
<radialGradient id="paint0_radial_851_3488" cx="0" cy="0" r="1" gradientUnits="userSpaceOnUse" gradientTransform="translate(11.6025 2.26364) scale(20.5128 20.5128)">
<stop stop-color="#1982FF"/>
<stop offset="1" stop-color="#003091"/>
</radialGradient>
<linearGradient id="paint1_linear_851_3488" x1="13.8571" y1="14.5875" x2="-0.615335" y2="6.23247" gradientUnits="userSpaceOnUse">
<stop stop-color="#CAD8EB"/>
<stop offset="0.46" stop-color="#DBE6F3"/>
<stop offset="1" stop-color="#F5FCFF"/>
</linearGradient>
<linearGradient id="paint2_linear_851_3488" x1="13.0242" y1="13.7823" x2="0.49911" y2="6.55096" gradientUnits="userSpaceOnUse">
<stop stop-color="#C90010"/>
<stop offset="1" stop-color="#FF4555"/>
</linearGradient>
<linearGradient id="paint3_linear_851_3488" x1="20.5115" y1="17.6465" x2="12.1562" y2="3.17485" gradientUnits="userSpaceOnUse">
<stop stop-color="#CAD8EB"/>
<stop offset="0.46" stop-color="#DBE6F3"/>
<stop offset="1" stop-color="#F5FCFF"/>
</linearGradient>
<linearGradient id="paint4_linear_851_3488" x1="17.2276" y1="11.9586" x2="15.4401" y2="8.86273" gradientUnits="userSpaceOnUse">
<stop stop-color="#C90010"/>
<stop offset="1" stop-color="#FF4555"/>
</linearGradient>
<linearGradient id="paint5_linear_851_3488" x1="17.3848" y1="14.7854" x2="5.56876" y2="2.96931" gradientUnits="userSpaceOnUse">
<stop stop-color="#CAD8EB"/>
<stop offset="0.46" stop-color="#DBE6F3"/>
<stop offset="1" stop-color="#F5FCFF"/>
</linearGradient>
<radialGradient id="paint6_radial_851_3488" cx="0" cy="0" r="1" gradientUnits="userSpaceOnUse" gradientTransform="translate(11.5822 2.02925) scale(20.0171 20.6037)">
<stop stop-color="#1982FF"/>
<stop offset="1" stop-color="#003091"/>
</radialGradient>
<radialGradient id="paint7_radial_851_3488" cx="0" cy="0" r="1" gradientUnits="userSpaceOnUse" gradientTransform="translate(3.58071 15.7569) scale(14.8779 14.8779)">
<stop stop-color="#F2FBFF"/>
<stop offset="0.32" stop-color="#CED7DF"/>
<stop offset="0.77" stop-color="#A1ABB7"/>
<stop offset="1" stop-color="#909AA8"/>
</radialGradient>
<radialGradient id="paint8_radial_851_3488" cx="0" cy="0" r="1" gradientUnits="userSpaceOnUse" gradientTransform="translate(2.94909 16.2694) scale(11.1692)">
<stop stop-color="#FF3D4D"/>
<stop offset="1" stop-color="#B9000F"/>
</radialGradient>
<radialGradient id="paint9_radial_851_3488" cx="0" cy="0" r="1" gradientUnits="userSpaceOnUse" gradientTransform="translate(8.46056 23.6348) scale(7.31031 7.31031)">
<stop stop-color="#E7EEFA"/>
<stop offset="1" stop-color="#B9C6D9"/>
</radialGradient>
<radialGradient id="paint10_radial_851_3488" cx="0" cy="0" r="1" gradientUnits="userSpaceOnUse" gradientTransform="translate(4.97012 18.823) scale(8.17517 8.17518)">
<stop stop-color="#E7EEFA"/>
<stop offset="1" stop-color="#A6B1C2"/>
</radialGradient>
<radialGradient id="paint11_radial_851_3488" cx="0" cy="0" r="1" gradientUnits="userSpaceOnUse" gradientTransform="translate(19.6367 15.7569) scale(14.8779 14.8779)">
<stop stop-color="#F2FBFF"/>
<stop offset="0.32" stop-color="#CED7DF"/>
<stop offset="0.77" stop-color="#A1ABB7"/>
<stop offset="1" stop-color="#909AA8"/>
</radialGradient>
<radialGradient id="paint12_radial_851_3488" cx="0" cy="0" r="1" gradientUnits="userSpaceOnUse" gradientTransform="translate(19.0061 16.2694) scale(11.1692 11.1692)">
<stop stop-color="#32D621"/>
<stop offset="1" stop-color="#0C7300"/>
</radialGradient>
<radialGradient id="paint13_radial_851_3488" cx="0" cy="0" r="1" gradientUnits="userSpaceOnUse" gradientTransform="translate(24.5177 23.6348) scale(7.31031)">
<stop stop-color="#E7EEFA"/>
<stop offset="1" stop-color="#B9C6D9"/>
</radialGradient>
<radialGradient id="paint14_radial_851_3488" cx="0" cy="0" r="1" gradientUnits="userSpaceOnUse" gradientTransform="translate(21.4906 18.912) scale(5.21622)">
<stop stop-color="#E7EEFA"/>
<stop offset="1" stop-color="#A6B1C2"/>
</radialGradient>
<linearGradient id="paint15_linear_851_3488" x1="16.4929" y1="14.0887" x2="6.26619" y2="3.86197" gradientUnits="userSpaceOnUse">
<stop stop-color="#3A4757"/>
<stop offset="1" stop-color="#1A1A1A"/>
</linearGradient>
<radialGradient id="paint16_radial_851_3488" cx="0" cy="0" r="1" gradientUnits="userSpaceOnUse" gradientTransform="translate(9.08975 14.865) scale(13.0503 13.0503)">
<stop stop-color="#F2FBFF"/>
<stop offset="0.32" stop-color="#CED7DF"/>
<stop offset="0.77" stop-color="#A1ABB7"/>
<stop offset="1" stop-color="#909AA8"/>
</radialGradient>
<radialGradient id="paint17_radial_851_3488" cx="0" cy="0" r="1" gradientUnits="userSpaceOnUse" gradientTransform="translate(8.5357 15.3147) scale(9.79805 9.79805)">
<stop stop-color="#FFCC00"/>
<stop offset="1" stop-color="#C86A00"/>
</radialGradient>
<radialGradient id="paint18_radial_851_3488" cx="0" cy="0" r="1" gradientUnits="userSpaceOnUse" gradientTransform="translate(13.3705 21.7756) scale(6.41216)">
<stop stop-color="#E7EEFA"/>
<stop offset="1" stop-color="#B9C6D9"/>
</radialGradient>
<radialGradient id="paint19_radial_851_3488" cx="0" cy="0" r="1" gradientUnits="userSpaceOnUse" gradientTransform="translate(10.3698 17.425) scale(5.49174)">
<stop stop-color="#E7EEFA"/>
<stop offset="1" stop-color="#A6B1C2"/>
</radialGradient>
</defs>
</svg>
