<svg viewBox="0 0 24 25" fill="none" xmlns="http://www.w3.org/2000/svg">
<path d="M16 11.3809V17.3809M12 7.38086V17.3809M8 13.3809V17.3809M12 21.3809C8.25027 21.3809 6.3754 21.3809 5.06107 20.4259C4.6366 20.1175 4.26331 19.7443 3.95491 19.3198C3 18.0055 3 16.1306 3 12.3809C3 8.63113 3 6.75626 3.95491 5.44193C4.26331 5.01746 4.6366 4.64417 5.06107 4.33577C6.3754 3.38086 8.25027 3.38086 12 3.38086C15.7497 3.38086 17.6246 3.38086 18.9389 4.33577C19.3634 4.64417 19.7367 5.01746 20.0451 5.44193C21 6.75626 21 8.63113 21 12.3809C21 16.1306 21 18.0055 20.0451 19.3198C19.7367 19.7443 19.3634 20.1175 18.9389 20.4259C17.6246 21.3809 15.7497 21.3809 12 21.3809Z" stroke="currentColor" stroke-width="1.5" stroke-linecap="round"/>
</svg>
