<svg viewBox="0 0 24 24" fill="none" xmlns="http://www.w3.org/2000/svg">
<path d="M15.5736 11.1274C15.3717 11.0988 15.1681 11.0835 14.9642 11.0816C13.072 11.0816 12.1146 12.3997 11.8731 13.0961C11.8515 13.1588 11.8468 13.2261 11.8596 13.2911C11.8724 13.3562 11.9022 13.4167 11.946 13.4665C11.9898 13.5163 12.046 13.5536 12.1088 13.5746C12.1717 13.5957 12.239 13.5997 12.304 13.5862C12.4214 13.5619 14.671 13.0882 16.2366 12.6154C16.0814 12.141 15.8556 11.6411 15.5736 11.1274Z" fill="currentColor"/>
<path d="M18.2456 13.4306C18.1462 13.4306 18.0469 13.4348 17.9468 13.4404C17.5819 9.76013 12.5558 4.70288 11.2691 3.597C12.0773 2.26875 12.675 1.36875 12.6937 1.34025C12.7489 1.25751 12.769 1.15622 12.7495 1.05868C12.7301 0.961135 12.6726 0.875326 12.5899 0.820128C12.5071 0.76493 12.4058 0.744864 12.3083 0.764344C12.2108 0.783825 12.1249 0.841256 12.0698 0.924003C11.8301 1.284 6.35063 9.54 6.039 13.4438C5.9243 13.4356 5.80936 13.4313 5.69438 13.431C3.0465 13.4306 1.125 15.51 1.125 18.375C1.125 21.1995 3.01762 23.25 5.625 23.25C5.83275 23.25 6.1905 23.1638 6.375 23.1154C6.5595 23.1638 6.91725 23.25 7.125 23.25C9.73238 23.25 11.625 21.1995 11.625 18.375C11.625 15.5561 9.63488 13.4306 6.99563 13.4306C6.92888 13.4306 6.86175 13.4348 6.79425 13.4378C7.00313 11.1188 9.22725 7.01475 10.8851 4.23488C12.018 5.25675 16.8116 10.0684 17.193 13.4393C17.1101 13.4343 17.0271 13.4315 16.944 13.431C14.2965 13.4306 12.375 15.51 12.375 18.375C12.375 21.1995 14.2676 23.25 16.875 23.25C17.0828 23.25 17.4405 23.1638 17.625 23.1154C17.8095 23.1638 18.1672 23.25 18.375 23.25C20.9824 23.25 22.875 21.1995 22.875 18.375C22.875 15.5561 20.8849 13.4306 18.2456 13.4306ZM9.10875 16.6088C9.2475 16.47 9.5025 16.47 9.64125 16.6088C9.70875 16.6796 9.75 16.7734 9.75 16.875C9.75 16.9763 9.70875 17.07 9.64125 17.1413C9.57 17.2088 9.47625 17.25 9.375 17.25C9.2775 17.25 9.17963 17.2088 9.10875 17.1413C9.04088 17.07 9 16.9763 9 16.875C9 16.7734 9.04088 16.6796 9.10875 16.6088ZM7.1685 20.9996C9.26887 20.9696 9.375 18.8078 9.375 18.375C9.375 18.2755 9.41451 18.1802 9.48483 18.1098C9.55516 18.0395 9.65054 18 9.75 18C9.84946 18 9.94484 18.0395 10.0152 18.1098C10.0855 18.1802 10.125 18.2755 10.125 18.375C10.125 20.034 9.21413 21.7208 7.17975 21.7496H7.17413C7.07467 21.7504 6.97899 21.7116 6.90814 21.6418C6.83728 21.572 6.79706 21.4769 6.79631 21.3774C6.79557 21.278 6.83436 21.1823 6.90416 21.1115C6.97396 21.0406 7.06904 21.0004 7.1685 20.9996ZM20.5162 20.1413C20.445 20.2088 20.3475 20.25 20.25 20.25C20.1525 20.25 20.0546 20.2088 19.9838 20.1413C19.9159 20.07 19.875 19.9725 19.875 19.875C19.875 19.7775 19.9125 19.6796 19.9838 19.6088C20.1263 19.47 20.3775 19.47 20.5162 19.6088C20.5837 19.6796 20.625 19.7734 20.625 19.875C20.625 19.9763 20.5837 20.07 20.5162 20.1413ZM21 18.75C20.9005 18.75 20.8052 18.7105 20.7348 18.6402C20.6645 18.5698 20.625 18.4745 20.625 18.375C20.625 17.0363 19.8075 15.6806 18.2456 15.6806C18.1462 15.6806 18.0508 15.6411 17.9805 15.5708C17.9101 15.5005 17.8706 15.4051 17.8706 15.3056C17.8706 15.2062 17.9101 15.1108 17.9805 15.0405C18.0508 14.9701 18.1462 14.9306 18.2456 14.9306C20.3002 14.9306 21.375 16.6635 21.375 18.375C21.375 18.4745 21.3355 18.5698 21.2652 18.6402C21.1948 18.7105 21.0995 18.75 21 18.75Z" fill="currentColor"/>
<path d="M21.5875 9.49912C21.6507 9.47862 21.7072 9.44165 21.7514 9.39202C21.7956 9.34239 21.8257 9.28189 21.8387 9.21675C21.8517 9.15172 21.8473 9.08442 21.8259 9.02166C21.8045 8.9589 21.7669 8.90291 21.7168 8.85937C21.6842 8.83162 20.9121 8.17387 19.7462 8.17387C18.8293 8.17387 17.9492 8.5665 17.1197 9.34087C17.3695 9.74749 17.6009 10.1652 17.8131 10.5926C19.3941 10.2142 21.4765 9.53587 21.5875 9.49912ZM1.54784 13.9987C1.57334 13.9987 1.59922 13.9961 1.62472 13.9909C1.73647 13.9676 3.77834 13.5375 5.32522 13.0886C5.38259 12.6544 5.48759 12.1834 5.63272 11.685C5.15909 11.5579 4.70609 11.4862 4.28459 11.4862C2.39234 11.4862 1.43497 12.8044 1.19347 13.5011C1.17392 13.5576 1.16816 13.618 1.17667 13.6771C1.18518 13.7363 1.20771 13.7926 1.24239 13.8413C1.27707 13.89 1.32288 13.9297 1.37602 13.9571C1.42915 13.9845 1.48806 13.9987 1.54784 13.9987Z" fill="currentColor"/>
</svg>
