<svg viewBox="0 0 18 18" fill="none" xmlns="http://www.w3.org/2000/svg">
<path fill-rule="evenodd" clip-rule="evenodd" d="M0.954915 2.06107C0 3.3754 0 5.25027 0 9C0 12.7497 0 14.6246 0.954915 15.9389C1.26331 16.3634 1.6366 16.7367 2.06107 17.0451C3.3754 18 5.25027 18 9 18C12.7497 18 14.6246 18 15.9389 17.0451C16.3634 16.7367 16.7367 16.3634 17.0451 15.9389C18 14.6246 18 12.7497 18 9C18 5.25027 18 3.3754 17.0451 2.06107C16.7367 1.6366 16.3634 1.26331 15.9389 0.954915C14.6246 0 12.7497 0 9 0C5.25027 0 3.3754 0 2.06107 0.954915C1.6366 1.26331 1.26331 1.6366 0.954915 2.06107ZM7.40899 6.59099C7.1161 6.2981 6.64123 6.2981 6.34833 6.59099C6.05544 6.88389 6.05544 7.35876 6.34833 7.65165L7.93932 9.24264L6.34833 10.8336C6.05544 11.1265 6.05544 11.6014 6.34833 11.8943C6.64123 12.1872 7.1161 12.1872 7.40899 11.8943L8.99998 10.3033L10.591 11.8943C10.8839 12.1872 11.3587 12.1872 11.6516 11.8943C11.9445 11.6014 11.9445 11.1265 11.6516 10.8336L10.0606 9.24264L11.6516 7.65165C11.9445 7.35876 11.9445 6.88389 11.6516 6.59099C11.3587 6.2981 10.8839 6.2981 10.591 6.59099L8.99998 8.18198L7.40899 6.59099Z" fill="currentColor"/>
</svg>
