<svg viewBox="0 0 24 24" fill="none" xmlns="http://www.w3.org/2000/svg">
<path fill-rule="evenodd" clip-rule="evenodd" d="M7.27498 6.585C6.99748 6.31125 6.59248 6.19875 6.21373 6.28875C5.83498 6.37875 5.52748 6.6675 5.40748 7.03875L0.53998 22.1588C0.40873 22.56 0.51373 22.995 0.81373 23.2988C1.02748 23.5125 1.31623 23.6287 1.60873 23.6287C1.72498 23.6287 1.84123 23.61 1.95373 23.5725L17.0737 18.705C17.445 18.585 17.73 18.2737 17.8237 17.8987C17.9137 17.5162 17.8012 17.1113 17.5237 16.8375L7.27498 6.585ZM5.60623 20.82C5.59873 20.7525 5.58373 20.685 5.55373 20.6175L3.87373 16.695L4.87498 13.5825L7.69123 20.1487L5.60623 20.82ZM13.1737 18.3825L10.3387 11.775L16.0312 17.4637L13.1737 18.3825ZM23.0385 10.2086C21.0146 9.41625 18.7136 9.89662 17.1769 11.4337L16.3429 12.2678C16.05 12.5606 16.05 13.0354 16.3429 13.3282C16.4891 13.4749 16.6811 13.548 16.8731 13.548C17.0651 13.548 17.2571 13.4749 17.4034 13.3282L18.2377 12.4943C19.353 11.379 21.0217 11.0303 22.4917 11.6051C22.8765 11.7559 23.3122 11.5657 23.4634 11.1802C23.6145 10.7947 23.4244 10.3597 23.0385 10.2086ZM11.3137 7.98862C11.5057 7.98862 11.6977 7.9155 11.844 7.76887L12.6784 6.93488C14.2151 5.39775 14.6959 3.09712 13.9035 1.07325C13.7524 0.68775 13.3166 0.49725 12.9319 0.648375C12.546 0.7995 12.3559 1.2345 12.507 1.62C13.0822 3.08888 12.7331 4.75912 11.6179 5.87437L10.7839 6.70837C10.491 7.00125 10.491 7.476 10.7839 7.76887C10.9297 7.9155 11.1217 7.98862 11.3137 7.98862ZM12.75 9.375C12.75 9.789 13.086 10.125 13.5 10.125H16.146C16.4404 10.125 16.7175 10.0103 16.9275 9.80063C17.1356 9.59213 17.25 9.31538 17.25 9.02063V7.5H18.771C19.0631 7.5 19.3485 7.3815 19.5495 7.17862C19.7565 6.9735 19.875 6.68812 19.875 6.396V4.875H21.396C21.6904 4.875 21.9671 4.76025 22.1771 4.55063C22.3852 4.34213 22.5 4.065 22.5 3.771V1.125C22.5 0.711 22.164 0.375 21.75 0.375C21.336 0.375 21 0.711 21 1.125V3.375H19.479C19.1876 3.375 18.903 3.49312 18.699 3.6975C18.4901 3.906 18.375 4.1835 18.375 4.479V6H16.854C16.5585 6 16.281 6.11512 16.0729 6.32437C15.8647 6.53287 15.75 6.81 15.75 7.104V8.625H13.5C13.086 8.625 12.75 8.961 12.75 9.375Z" fill="currentColor"/>
<path d="M16.875 3.375C17.2892 3.375 17.625 3.03921 17.625 2.625C17.625 2.21079 17.2892 1.875 16.875 1.875C16.4608 1.875 16.125 2.21079 16.125 2.625C16.125 3.03921 16.4608 3.375 16.875 3.375Z" fill="currentColor"/>
<path d="M9 5.625C9.41421 5.625 9.75 5.28921 9.75 4.875C9.75 4.46079 9.41421 4.125 9 4.125C8.58579 4.125 8.25 4.46079 8.25 4.875C8.25 5.28921 8.58579 5.625 9 5.625Z" fill="currentColor"/>
<path d="M21.375 7.875C21.7892 7.875 22.125 7.53921 22.125 7.125C22.125 6.71079 21.7892 6.375 21.375 6.375C20.9608 6.375 20.625 6.71079 20.625 7.125C20.625 7.53921 20.9608 7.875 21.375 7.875Z" fill="currentColor"/>
<path d="M19.125 15.75C19.5392 15.75 19.875 15.4142 19.875 15C19.875 14.5858 19.5392 14.25 19.125 14.25C18.7108 14.25 18.375 14.5858 18.375 15C18.375 15.4142 18.7108 15.75 19.125 15.75Z" fill="currentColor"/>
</svg>
