<svg viewBox="0 0 20 21" fill="none" xmlns="http://www.w3.org/2000/svg">
<path d="M13.3337 11.4691V14.9691C13.3337 17.8857 12.167 19.0524 9.25033 19.0524H5.75033C2.83366 19.0524 1.66699 17.8857 1.66699 14.9691V11.4691C1.66699 8.55241 2.83366 7.38574 5.75033 7.38574H9.25033C12.167 7.38574 13.3337 8.55241 13.3337 11.4691Z" stroke="currentColor" stroke-width="1.5" stroke-linecap="round" stroke-linejoin="round"/>
<path d="M18.3337 6.46908V9.96908C18.3337 12.8857 17.167 14.0524 14.2503 14.0524H13.3337V11.4691C13.3337 8.55241 12.167 7.38574 9.25033 7.38574H6.66699V6.46908C6.66699 3.55241 7.83366 2.38574 10.7503 2.38574H14.2503C17.167 2.38574 18.3337 3.55241 18.3337 6.46908Z" stroke="currentColor" stroke-width="1.5" stroke-linecap="round" stroke-linejoin="round"/>
</svg>
