<svg viewBox="0 0 18 18" fill="none" xmlns="http://www.w3.org/2000/svg">
<path d="M15.25 0.875H2.75C2.25272 0.875 1.77581 1.07254 1.42417 1.42417C1.07254 1.77581 0.875 2.25272 0.875 2.75V15.25C0.875 15.7473 1.07254 16.2242 1.42417 16.5758C1.77581 16.9275 2.25272 17.125 2.75 17.125H15.25C15.7473 17.125 16.2242 16.9275 16.5758 16.5758C16.9275 16.2242 17.125 15.7473 17.125 15.25V2.75C17.125 2.25272 16.9275 1.77581 16.5758 1.42417C16.2242 1.07254 15.7473 0.875 15.25 0.875ZM5.25 14.625C4.87916 14.625 4.51665 14.515 4.20831 14.309C3.89996 14.103 3.65964 13.8101 3.51773 13.4675C3.37581 13.1249 3.33868 12.7479 3.41103 12.3842C3.48338 12.0205 3.66195 11.6864 3.92417 11.4242C4.1864 11.162 4.52049 10.9834 4.88421 10.911C5.24792 10.8387 5.62492 10.8758 5.96753 11.0177C6.31014 11.1596 6.60298 11.4 6.80901 11.7083C7.01503 12.0166 7.125 12.3792 7.125 12.75C7.125 13.2473 6.92746 13.7242 6.57583 14.0758C6.22419 14.4275 5.74728 14.625 5.25 14.625ZM5.25 7.125C4.87916 7.125 4.51665 7.01503 4.20831 6.80901C3.89996 6.60298 3.65964 6.31014 3.51773 5.96753C3.37581 5.62492 3.33868 5.24792 3.41103 4.88421C3.48338 4.52049 3.66195 4.1864 3.92417 3.92417C4.1864 3.66195 4.52049 3.48338 4.88421 3.41103C5.24792 3.33868 5.62492 3.37581 5.96753 3.51773C6.31014 3.65964 6.60298 3.89996 6.80901 4.20831C7.01503 4.51665 7.125 4.87916 7.125 5.25C7.125 5.74728 6.92746 6.22419 6.57583 6.57583C6.22419 6.92746 5.74728 7.125 5.25 7.125ZM12.75 14.625C12.3792 14.625 12.0166 14.515 11.7083 14.309C11.4 14.103 11.1596 13.8101 11.0177 13.4675C10.8758 13.1249 10.8387 12.7479 10.911 12.3842C10.9834 12.0205 11.162 11.6864 11.4242 11.4242C11.6864 11.162 12.0205 10.9834 12.3842 10.911C12.7479 10.8387 13.1249 10.8758 13.4675 11.0177C13.8101 11.1596 14.103 11.4 14.309 11.7083C14.515 12.0166 14.625 12.3792 14.625 12.75C14.625 13.2473 14.4275 13.7242 14.0758 14.0758C13.7242 14.4275 13.2473 14.625 12.75 14.625ZM12.75 7.125C12.3792 7.125 12.0166 7.01503 11.7083 6.80901C11.4 6.60298 11.1596 6.31014 11.0177 5.96753C10.8758 5.62492 10.8387 5.24792 10.911 4.88421C10.9834 4.52049 11.162 4.1864 11.4242 3.92417C11.6864 3.66195 12.0205 3.48338 12.3842 3.41103C12.7479 3.33868 13.1249 3.37581 13.4675 3.51773C13.8101 3.65964 14.103 3.89996 14.309 4.20831C14.515 4.51665 14.625 4.87916 14.625 5.25C14.625 5.74728 14.4275 6.22419 14.0758 6.57583C13.7242 6.92746 13.2473 7.125 12.75 7.125Z" stroke="currentColor" stroke-width="1.5"/>
</svg>
