<svg viewBox="0 0 24 24" fill="none" xmlns="http://www.w3.org/2000/svg">
<path d="M19.5 2.25H4.5C3.90326 2.25 3.33097 2.48705 2.90901 2.90901C2.48705 3.33097 2.25 3.90326 2.25 4.5V19.5C2.25 20.0967 2.48705 20.669 2.90901 21.091C3.33097 21.5129 3.90326 21.75 4.5 21.75H19.5C20.0967 21.75 20.669 21.5129 21.091 21.091C21.5129 20.669 21.75 20.0967 21.75 19.5V4.5C21.75 3.90326 21.5129 3.33097 21.091 2.90901C20.669 2.48705 20.0967 2.25 19.5 2.25ZM7.5 18.75C7.05499 18.75 6.61998 18.618 6.24997 18.3708C5.87996 18.1236 5.59157 17.7722 5.42127 17.361C5.25097 16.9499 5.20642 16.4975 5.29323 16.061C5.38005 15.6246 5.59434 15.2237 5.90901 14.909C6.22368 14.5943 6.62459 14.38 7.06105 14.2932C7.4975 14.2064 7.9499 14.251 8.36104 14.4213C8.77217 14.5916 9.12357 14.88 9.37081 15.25C9.61804 15.62 9.75 16.055 9.75 16.5C9.75 17.0967 9.51295 17.669 9.09099 18.091C8.66903 18.5129 8.09674 18.75 7.5 18.75ZM7.5 9.75C7.05499 9.75 6.61998 9.61804 6.24997 9.37081C5.87996 9.12357 5.59157 8.77217 5.42127 8.36104C5.25097 7.9499 5.20642 7.4975 5.29323 7.06105C5.38005 6.62459 5.59434 6.22368 5.90901 5.90901C6.22368 5.59434 6.62459 5.38005 7.06105 5.29323C7.4975 5.20642 7.9499 5.25097 8.36104 5.42127C8.77217 5.59157 9.12357 5.87996 9.37081 6.24997C9.61804 6.61998 9.75 7.05499 9.75 7.5C9.75 8.09674 9.51295 8.66903 9.09099 9.09099C8.66903 9.51295 8.09674 9.75 7.5 9.75ZM16.5 18.75C16.055 18.75 15.62 18.618 15.25 18.3708C14.88 18.1236 14.5916 17.7722 14.4213 17.361C14.251 16.9499 14.2064 16.4975 14.2932 16.061C14.38 15.6246 14.5943 15.2237 14.909 14.909C15.2237 14.5943 15.6246 14.38 16.061 14.2932C16.4975 14.2064 16.9499 14.251 17.361 14.4213C17.7722 14.5916 18.1236 14.88 18.3708 15.25C18.618 15.62 18.75 16.055 18.75 16.5C18.75 17.0967 18.5129 17.669 18.091 18.091C17.669 18.5129 17.0967 18.75 16.5 18.75ZM16.5 9.75C16.055 9.75 15.62 9.61804 15.25 9.37081C14.88 9.12357 14.5916 8.77217 14.4213 8.36104C14.251 7.9499 14.2064 7.4975 14.2932 7.06105C14.38 6.62459 14.5943 6.22368 14.909 5.90901C15.2237 5.59434 15.6246 5.38005 16.061 5.29323C16.4975 5.20642 16.9499 5.25097 17.361 5.42127C17.7722 5.59157 18.1236 5.87996 18.3708 6.24997C18.618 6.61998 18.75 7.05499 18.75 7.5C18.75 8.09674 18.5129 8.66903 18.091 9.09099C17.669 9.51295 17.0967 9.75 16.5 9.75Z" fill="currentColor"/>
</svg>
