<svg viewBox="0 0 24 25" fill="none" xmlns="http://www.w3.org/2000/svg">
<path d="M4.78217 8.3193L4.8995 9.06007H4.8995L4.78217 8.3193ZM8.93844 4.16303L9.67921 4.28036V4.28036L8.93844 4.16303ZM18.9389 21.4259L18.4981 20.8192L18.9389 21.4259ZM20.0451 20.3198L19.4383 19.8789L20.0451 20.3198ZM3.95491 20.3198L4.56168 19.8789L3.95491 20.3198ZM5.06107 21.4259L5.50191 20.8192L5.06107 21.4259ZM5.06107 3.33577L4.62024 2.72901L5.06107 3.33577ZM3.95491 4.44193L3.34815 4.00109L3.95491 4.44193ZM18.9389 3.33577L18.4981 3.94254L18.9389 3.33577ZM20.0451 4.44193L19.4383 4.88277L20.0451 4.44193ZM9 2.40979L8.97432 1.66023L9 2.40979ZM3.02893 8.38086L2.27937 8.35518L3.02893 8.38086ZM12.75 9.38086C12.75 8.96665 12.4142 8.63086 12 8.63086C11.5858 8.63086 11.25 8.96665 11.25 9.38086H12.75ZM16.5327 14.7088C16.8243 14.4146 16.8222 13.9398 16.528 13.6482C16.2338 13.3566 15.7589 13.3587 15.4673 13.6529L16.5327 14.7088ZM14.6022 15.5912L15.1348 16.1192L14.6022 15.5912ZM9.39785 15.5912L9.93054 15.0633L9.39785 15.5912ZM8.53269 13.6529C8.24111 13.3587 7.76624 13.3566 7.47204 13.6482C7.17784 13.9398 7.17572 14.4146 7.46731 14.7088L8.53269 13.6529ZM12.2507 17.3649L12.3455 18.1089L12.3455 18.1089L12.2507 17.3649ZM11.7493 17.3649L11.6545 18.1089L11.6545 18.1089L11.7493 17.3649ZM4.8995 9.06007C7.35988 8.67038 9.28952 6.74074 9.67921 4.28036L8.19768 4.04571C7.90965 5.86425 6.48339 7.29051 4.66485 7.57854L4.8995 9.06007ZM2.25 11.3809V13.3809H3.75V11.3809H2.25ZM21.75 13.3809V11.3809H20.25V13.3809H21.75ZM12 23.1309C13.8582 23.1309 15.312 23.1319 16.4635 23.0071C17.6291 22.8809 18.5734 22.6185 19.3798 22.0327L18.4981 20.8192C17.9901 21.1883 17.3399 21.4034 16.302 21.5159C15.25 21.6298 13.8916 21.6309 12 21.6309V23.1309ZM20.25 13.3809C20.25 15.2724 20.249 16.6309 20.135 17.6828C20.0225 18.7207 19.8074 19.3709 19.4383 19.8789L20.6518 20.7606C21.2377 19.9543 21.5 19.0099 21.6263 17.8444C21.751 16.6929 21.75 15.239 21.75 13.3809H20.25ZM19.3798 22.0327C19.8679 21.6781 20.2972 21.2488 20.6518 20.7606L19.4383 19.8789C19.1762 20.2397 18.8589 20.557 18.4981 20.8192L19.3798 22.0327ZM2.25 13.3809C2.25 15.239 2.24897 16.6929 2.37373 17.8444C2.50001 19.0099 2.76232 19.9543 3.34815 20.7606L4.56168 19.8789C4.19259 19.3709 3.97745 18.7207 3.865 17.6828C3.75103 16.6309 3.75 15.2724 3.75 13.3809H2.25ZM12 21.6309C10.1084 21.6309 8.74999 21.6298 7.69804 21.5159C6.66013 21.4034 6.00992 21.1883 5.50191 20.8192L4.62024 22.0327C5.42656 22.6185 6.37094 22.8809 7.53648 23.0071C8.68798 23.1319 10.1418 23.1309 12 23.1309V21.6309ZM3.34815 20.7606C3.70281 21.2488 4.13209 21.6781 4.62024 22.0327L5.50191 20.8192C5.14111 20.557 4.82381 20.2397 4.56168 19.8789L3.34815 20.7606ZM4.62024 2.72901C4.13209 3.08367 3.70281 3.51295 3.34815 4.00109L4.56168 4.88277C4.82381 4.52197 5.14111 4.20468 5.50191 3.94254L4.62024 2.72901ZM12 3.13086C13.8916 3.13086 15.25 3.13189 16.302 3.24586C17.3399 3.35831 17.9901 3.57345 18.4981 3.94254L19.3798 2.72901C18.5734 2.14318 17.6291 1.88087 16.4635 1.75459C15.312 1.62983 13.8582 1.63086 12 1.63086V3.13086ZM21.75 11.3809C21.75 9.5227 21.751 8.06884 21.6263 6.91734C21.5 5.7518 21.2377 4.80742 20.6518 4.00109L19.4383 4.88277C19.8074 5.39078 20.0225 6.04099 20.135 7.0789C20.249 8.13085 20.25 9.48929 20.25 11.3809H21.75ZM18.4981 3.94254C18.8589 4.20468 19.1762 4.52197 19.4383 4.88277L20.6518 4.00109C20.2972 3.51295 19.8679 3.08367 19.3798 2.72901L18.4981 3.94254ZM12 1.63086C10.8352 1.63086 9.83424 1.63077 8.97432 1.66023L9.02568 3.15935C9.85445 3.13095 10.8269 3.13086 12 3.13086V1.63086ZM8.97432 1.66023C7.10087 1.72441 5.7239 1.92716 4.62024 2.72901L5.50191 3.94254C6.20746 3.42993 7.17075 3.2229 9.02568 3.15935L8.97432 1.66023ZM8.25 2.40978C8.24999 3.34703 8.24707 3.73384 8.19768 4.04571L9.67921 4.28036C9.75165 3.82301 9.74999 3.29207 9.75 2.40979L8.25 2.40978ZM3.75 11.3809C3.75 10.2078 3.75009 9.23531 3.77849 8.40654L2.27937 8.35518C2.24991 9.2151 2.25 10.2161 2.25 11.3809H3.75ZM3.77849 8.40654C3.84204 6.55161 4.04907 5.58832 4.56168 4.88277L3.34815 4.00109C2.5463 5.10475 2.34355 6.48173 2.27937 8.35518L3.77849 8.40654ZM3.02893 9.13086C3.91121 9.13085 4.44215 9.1325 4.8995 9.06007L4.66485 7.57854C4.35298 7.62793 3.96618 7.63085 3.02892 7.63086L3.02893 9.13086ZM11.25 9.38086V16.5809H12.75V9.38086H11.25ZM15.4673 13.6529L14.0695 15.0633L15.1348 16.1192L16.5327 14.7088L15.4673 13.6529ZM9.93054 15.0633L8.53269 13.6529L7.46731 14.7088L8.86516 16.1192L9.93054 15.0633ZM14.0695 15.0633C13.4997 15.6382 13.1161 16.0235 12.7935 16.2826C12.4827 16.5322 12.302 16.6023 12.1558 16.621L12.3455 18.1089C12.8787 18.041 13.3163 17.7866 13.7328 17.4522C14.1373 17.1272 14.5899 16.669 15.1348 16.1192L14.0695 15.0633ZM8.86516 16.1192C9.41012 16.669 9.86265 17.1272 10.2672 17.4522C10.6837 17.7866 11.1213 18.041 11.6545 18.1089L11.8442 16.621C11.698 16.6023 11.5173 16.5322 11.2065 16.2826C10.8839 16.0235 10.5003 15.6382 9.93054 15.0633L8.86516 16.1192ZM12.1558 16.621C12.1041 16.6276 12.052 16.6309 12 16.6309V18.1309C12.1154 18.1309 12.2308 18.1235 12.3455 18.1089L12.1558 16.621ZM12 16.6309C11.948 16.6309 11.8959 16.6276 11.8442 16.621L11.6545 18.1089C11.7692 18.1235 11.8846 18.1309 12 18.1309V16.6309ZM11.25 16.5809V17.3809H12.75V16.5809H11.25Z" fill="currentColor"/>
</svg>
