<svg viewBox="0 0 24 25" fill="none" xmlns="http://www.w3.org/2000/svg">
<path d="M5.06107 21.4259L5.50191 20.8192L5.06107 21.4259ZM3.95491 20.3198L4.56168 19.8789L3.95491 20.3198ZM20.0451 20.3198L19.4383 19.8789L20.0451 20.3198ZM18.9389 21.4259L18.4981 20.8192L18.9389 21.4259ZM18.9389 3.33577L19.3798 2.72901L18.9389 3.33577ZM20.0451 4.44193L19.4383 4.88277L20.0451 4.44193ZM5.06107 3.33577L5.50191 3.94254L5.06107 3.33577ZM3.95491 4.44193L4.56168 4.88277L3.95491 4.44193ZM13.1461 6.97617L13.2635 7.71694L13.1461 6.97617ZM11.5818 6.97617L11.4645 7.71694L11.5818 6.97617ZM13 15.6309C12.5858 15.6309 12.25 15.9666 12.25 16.3809C12.25 16.7951 12.5858 17.1309 13 17.1309V15.6309ZM16 17.1309C16.4142 17.1309 16.75 16.7951 16.75 16.3809C16.75 15.9666 16.4142 15.6309 16 15.6309V17.1309ZM8 11.6309C7.58579 11.6309 7.25 11.9666 7.25 12.3809C7.25 12.7951 7.58579 13.1309 8 13.1309V11.6309ZM16 13.1309C16.4142 13.1309 16.75 12.7951 16.75 12.3809C16.75 11.9666 16.4142 11.6309 16 11.6309V13.1309ZM20.25 11.3809V13.3809H21.75V11.3809H20.25ZM3.75 13.3809V11.3809H2.25V13.3809H3.75ZM12 21.6309C10.1084 21.6309 8.74999 21.6298 7.69804 21.5159C6.66013 21.4034 6.00992 21.1883 5.50191 20.8192L4.62023 22.0327C5.42656 22.6185 6.37094 22.8809 7.53648 23.0071C8.68798 23.1319 10.1418 23.1309 12 23.1309V21.6309ZM2.25 13.3809C2.25 15.239 2.24897 16.6929 2.37373 17.8444C2.50001 19.0099 2.76232 19.9543 3.34815 20.7606L4.56168 19.8789C4.19259 19.3709 3.97745 18.7207 3.865 17.6828C3.75103 16.6309 3.75 15.2724 3.75 13.3809H2.25ZM5.50191 20.8192C5.14111 20.557 4.82382 20.2397 4.56168 19.8789L3.34815 20.7606C3.70281 21.2488 4.13209 21.6781 4.62023 22.0327L5.50191 20.8192ZM20.25 13.3809C20.25 15.2724 20.249 16.6309 20.135 17.6828C20.0225 18.7207 19.8074 19.3709 19.4383 19.8789L20.6518 20.7606C21.2377 19.9543 21.5 19.0099 21.6263 17.8444C21.751 16.6929 21.75 15.239 21.75 13.3809H20.25ZM12 23.1309C13.8582 23.1309 15.312 23.1319 16.4635 23.0071C17.6291 22.8809 18.5734 22.6185 19.3798 22.0327L18.4981 20.8192C17.9901 21.1883 17.3399 21.4034 16.302 21.5159C15.25 21.6298 13.8916 21.6309 12 21.6309V23.1309ZM19.4383 19.8789C19.1762 20.2397 18.8589 20.557 18.4981 20.8192L19.3798 22.0327C19.8679 21.6781 20.2972 21.2488 20.6518 20.7606L19.4383 19.8789ZM21.75 11.3809C21.75 9.5227 21.751 8.06884 21.6263 6.91734C21.5 5.7518 21.2377 4.80742 20.6518 4.00109L19.4383 4.88277C19.8074 5.39078 20.0225 6.04099 20.135 7.0789C20.249 8.13085 20.25 9.48929 20.25 11.3809H21.75ZM18.4981 3.94254C18.8589 4.20468 19.1762 4.52197 19.4383 4.88277L20.6518 4.00109C20.2972 3.51295 19.8679 3.08367 19.3798 2.72901L18.4981 3.94254ZM3.75 11.3809C3.75 9.48929 3.75103 8.13085 3.865 7.0789C3.97745 6.04099 4.19259 5.39078 4.56168 4.88277L3.34815 4.00109C2.76232 4.80742 2.50001 5.7518 2.37373 6.91734C2.24897 8.06884 2.25 9.5227 2.25 11.3809H3.75ZM4.62023 2.72901C4.13209 3.08367 3.70281 3.51295 3.34815 4.00109L4.56168 4.88277C4.82382 4.52197 5.14111 4.20468 5.50191 3.94254L4.62023 2.72901ZM13.0288 6.2354C12.5883 6.30517 12.1396 6.30517 11.6991 6.2354L11.4645 7.71694C12.0604 7.81132 12.6675 7.81132 13.2635 7.71694L13.0288 6.2354ZM17.9103 2.50169C16.6701 3.74101 15.7663 4.63092 14.9856 5.24576C14.2161 5.8518 13.6262 6.14079 13.0288 6.2354L13.2635 7.71694C14.2116 7.56676 15.0379 7.11387 15.9137 6.42419C16.7783 5.74331 17.7488 4.78363 18.9706 3.56273L17.9103 2.50169ZM12 3.13086C13.6617 3.13086 14.9149 3.13139 15.9149 3.20997C16.9124 3.28836 17.5844 3.44049 18.1028 3.70189L18.7782 2.36254C18.0049 1.97258 17.107 1.79903 16.0324 1.71458C14.9603 1.63033 13.6391 1.63086 12 1.63086V3.13086ZM18.1028 3.70189C18.2431 3.77266 18.374 3.85236 18.4981 3.94254L19.3798 2.72901C19.1892 2.59053 18.9892 2.46895 18.7782 2.36254L18.1028 3.70189ZM5.5419 3.34739C6.83246 4.63789 7.84545 5.64928 8.73841 6.36397C9.64243 7.08752 10.489 7.56244 11.4645 7.71694L11.6991 6.2354C11.0846 6.13807 10.4781 5.8351 9.67572 5.19288C8.86225 4.54181 7.91543 3.59954 6.60254 2.28671L5.5419 3.34739ZM12 1.63086C10.5637 1.63086 9.37369 1.63059 8.38484 1.68658C7.39671 1.74253 6.55633 1.85662 5.82759 2.10806L6.31685 3.52603C6.85227 3.34129 7.53187 3.23728 8.46964 3.18418C9.40668 3.13113 10.5485 3.13086 12 3.13086V1.63086ZM5.82759 2.10806C5.38699 2.26009 4.98789 2.46189 4.62023 2.72901L5.50191 3.94254C5.73848 3.77066 6.00284 3.63438 6.31685 3.52603L5.82759 2.10806ZM13 17.1309H16V15.6309H13V17.1309ZM8 13.1309L16 13.1309V11.6309L8 11.6309V13.1309Z" fill="currentColor"/>
</svg>
