<svg viewBox="0 0 24 25" fill="none" xmlns="http://www.w3.org/2000/svg">
<path fill-rule="evenodd" clip-rule="evenodd" d="M5.06107 3.33577C5.16622 3.25938 5.27495 3.1891 5.38793 3.12445C5.42423 3.20528 5.47557 3.28101 5.54195 3.34739C6.8325 4.63789 7.84549 5.64928 8.73846 6.36397C9.64248 7.08752 10.4891 7.56244 11.4645 7.71694C12.0605 7.81133 12.6676 7.81133 13.2635 7.71694C14.2117 7.56676 15.038 7.11387 15.9137 6.42419C16.7783 5.74331 17.7489 4.78363 18.9707 3.56273C19.0099 3.52356 19.0438 3.48113 19.0725 3.43631C19.442 3.72412 19.7695 4.06258 20.0451 4.44193C21 5.75626 21 7.63113 21 11.3809V13.3809C21 17.1306 21 19.0055 20.0451 20.3198C19.7367 20.7443 19.3634 21.1175 18.9389 21.4259C17.6246 22.3809 15.7497 22.3809 12 22.3809C8.25027 22.3809 6.3754 22.3809 5.06107 21.4259C4.6366 21.1175 4.26331 20.7443 3.95491 20.3198C3 19.0055 3 17.1306 3 13.3809V11.3809C3 7.63113 3 5.75626 3.95491 4.44193C4.26331 4.01746 4.6366 3.64417 5.06107 3.33577ZM8 9.63086C7.58579 9.63086 7.25 9.96665 7.25 10.3809C7.25 10.7951 7.58579 11.1309 8 11.1309H16C16.4142 11.1309 16.75 10.7951 16.75 10.3809C16.75 9.96665 16.4142 9.63086 16 9.63086H8ZM8 13.6309C7.58579 13.6309 7.25 13.9666 7.25 14.3809C7.25 14.7951 7.58579 15.1309 8 15.1309H16C16.4142 15.1309 16.75 14.7951 16.75 14.3809C16.75 13.9666 16.4142 13.6309 16 13.6309H8ZM13 17.6309C12.5858 17.6309 12.25 17.9666 12.25 18.3809C12.25 18.7951 12.5858 19.1309 13 19.1309H16C16.4142 19.1309 16.75 18.7951 16.75 18.3809C16.75 17.9666 16.4142 17.6309 16 17.6309H13Z" fill="currentColor"/>
<path d="M12 2.38086C14.6999 2.38086 16.4278 2.38086 17.6744 2.73733C16.554 3.85475 15.716 4.67061 14.9857 5.24576C14.2161 5.8518 13.6262 6.14079 13.0289 6.2354C12.5884 6.30517 12.1397 6.30517 11.6992 6.2354C11.0846 6.13807 10.4782 5.8351 9.67576 5.19288C8.92863 4.5949 8.06901 3.75129 6.9166 2.60053C8.10873 2.38086 9.70241 2.38086 12 2.38086Z" fill="currentColor"/>
</svg>
