<svg viewBox="0 0 30 30" fill="none" xmlns="http://www.w3.org/2000/svg">
<path d="M13.8092 8.74179C13.8924 8.69376 13.9769 8.65058 14.0625 8.61215V13.6499C12.0288 12.7518 11.8383 9.87968 13.8092 8.74179Z" fill="url(#linear)"/>
<path d="M15.9375 21.388V16.35C17.9715 17.2479 18.1621 20.1203 16.1911 21.2582C16.1078 21.3063 16.0232 21.3495 15.9375 21.388Z" fill="url(#linear)"/>
<path fill-rule="evenodd" clip-rule="evenodd" d="M1.5625 15C1.5625 7.57867 7.57867 1.5625 15 1.5625C22.4213 1.5625 28.4375 7.57867 28.4375 15C28.4375 22.4213 22.4213 28.4375 15 28.4375C7.57867 28.4375 1.5625 22.4213 1.5625 15ZM15.9375 6.25C15.9375 5.73223 15.5178 5.3125 15 5.3125C14.4822 5.3125 14.0625 5.73223 14.0625 6.25V6.63511C13.6541 6.73758 13.2533 6.89767 12.8717 7.11799C9.46934 9.08233 9.90178 14.1236 13.5889 15.4799L14.0625 15.6541V21.5243C13.3939 21.3357 12.7966 20.8962 12.4226 20.2484L11.9531 19.4353C11.6942 18.9869 11.1209 18.8333 10.6725 19.0922C10.2241 19.3511 10.0704 19.9244 10.3293 20.3728L10.7988 21.1859C11.5218 22.4383 12.7408 23.2245 14.0625 23.4418V23.75C14.0625 24.2678 14.4822 24.6875 15 24.6875C15.5178 24.6875 15.9375 24.2678 15.9375 23.75V23.365C16.346 23.2625 16.7469 23.1024 17.1286 22.882C20.5309 20.9177 20.0985 15.8764 16.4113 14.5202L15.9375 14.3459V8.47564C16.6062 8.66419 17.2037 9.1037 17.5777 9.75157L18.0472 10.5647C18.306 11.0131 18.8794 11.1667 19.3278 10.9078C19.7762 10.649 19.9298 10.0756 19.671 9.62719L19.2015 8.81407C18.4784 7.56158 17.2593 6.77539 15.9375 6.55812V6.25Z" fill="url(#linear)"/>
<defs>
<linearGradient id="linear" x1="15" y1="1.5625" x2="15" y2="28.4375" gradientUnits="userSpaceOnUse">
<stop stop-color="#0DB1A0"/>
<stop offset="1" stop-color="#026056"/>
</linearGradient>
</defs>
</svg>
