<svg viewBox="0 0 16 16" fill="none" xmlns="http://www.w3.org/2000/svg">
<path d="M4.81188 13.959L4.69456 14.6997L4.69456 14.6997L4.81188 13.959ZM2.04104 11.1881L2.78181 11.0708L2.78181 11.0708L2.04104 11.1881ZM13.959 11.1881L14.6997 11.3054L14.6997 11.3054L13.959 11.1881ZM11.1881 13.959L11.3054 14.6997L11.3054 14.6997L11.1881 13.959ZM13.9333 6.8829C13.6845 6.55171 13.2143 6.48489 12.8831 6.73366C12.552 6.98243 12.4851 7.45258 12.7339 7.78377L13.9333 6.8829ZM3.2661 7.78377C3.51486 7.45258 3.44805 6.98243 3.11686 6.73366C2.78566 6.48489 2.31552 6.55171 2.06675 6.8829L3.2661 7.78377ZM8.75 2C8.75 1.58579 8.41421 1.25 8 1.25C7.58579 1.25 7.25 1.58579 7.25 2H8.75ZM5.92102 8.2007C5.66367 7.87613 5.19193 7.82164 4.86736 8.07898C4.54279 8.33633 4.4883 8.80807 4.74565 9.13264L5.92102 8.2007ZM6.26523 9.84198L5.67755 10.3079L5.67755 10.3079L6.26523 9.84198ZM9.73477 9.84198L9.14709 9.37601L9.14709 9.37601L9.73477 9.84198ZM11.2543 9.13264C11.5117 8.80807 11.4572 8.33633 11.1326 8.07898C10.8081 7.82163 10.3363 7.87613 10.079 8.2007L11.2543 9.13264ZM7.83289 11.3201L7.71488 12.0607L7.71488 12.0607L7.83289 11.3201ZM8.16711 11.3201L8.28512 12.0607L8.28512 12.0607L8.16711 11.3201ZM13.25 9.33333V10H14.75V9.33333H13.25ZM10 13.25H6V14.75H10V13.25ZM2.75 10V9.33333H1.25V10H2.75ZM6 13.25C5.352 13.25 5.11532 13.2477 4.92921 13.2182L4.69456 14.6997C5.02666 14.7523 5.40932 14.75 6 14.75V13.25ZM1.25 10C1.25 10.5907 1.24767 10.9733 1.30027 11.3054L2.78181 11.0708C2.75233 10.8847 2.75 10.648 2.75 10H1.25ZM4.92921 13.2182C3.82382 13.0431 2.95688 12.1762 2.78181 11.0708L1.30027 11.3054C1.57701 13.0527 2.94733 14.423 4.69456 14.6997L4.92921 13.2182ZM13.25 10C13.25 10.648 13.2477 10.8847 13.2182 11.0708L14.6997 11.3054C14.7523 10.9733 14.75 10.5907 14.75 10H13.25ZM10 14.75C10.5907 14.75 10.9733 14.7523 11.3054 14.6997L11.0708 13.2182C10.8847 13.2477 10.648 13.25 10 13.25V14.75ZM13.2182 11.0708C13.0431 12.1762 12.1762 13.0431 11.0708 13.2182L11.3054 14.6997C13.0527 14.423 14.423 13.0527 14.6997 11.3054L13.2182 11.0708ZM14.75 9.33333C14.75 8.41495 14.4459 7.56543 13.9333 6.8829L12.7339 7.78377C13.0582 8.21545 13.25 8.75091 13.25 9.33333H14.75ZM2.75 9.33333C2.75 8.75091 2.94184 8.21545 3.2661 7.78377L2.06675 6.8829C1.55408 7.56543 1.25 8.41495 1.25 9.33333H2.75ZM7.25 2V10.6667H8.75V2H7.25ZM4.74565 9.13264L5.67755 10.3079L6.85291 9.37601L5.92102 8.2007L4.74565 9.13264ZM10.3225 10.3079L11.2543 9.13264L10.079 8.2007L9.14709 9.37601L10.3225 10.3079ZM5.67755 10.3079C6.03775 10.7622 6.34699 11.1541 6.62656 11.4348C6.90947 11.7188 7.25494 11.9875 7.71488 12.0607L7.9509 10.5794C7.94957 10.5792 7.94639 10.5786 7.93979 10.5761C7.93272 10.5733 7.91924 10.5672 7.89843 10.5542C7.85409 10.5265 7.78717 10.4744 7.68926 10.3761C7.48402 10.1701 7.23588 9.85901 6.85291 9.37601L5.67755 10.3079ZM9.14709 9.37601C8.76412 9.85901 8.51598 10.1701 8.31074 10.3761C8.21283 10.4744 8.14591 10.5265 8.10157 10.5542C8.08076 10.5672 8.06728 10.5733 8.06021 10.5761C8.05361 10.5786 8.05043 10.5792 8.0491 10.5794L8.28512 12.0607C8.74506 11.9874 9.09053 11.7188 9.37344 11.4348C9.65301 11.1541 9.96225 10.7622 10.3225 10.3079L9.14709 9.37601ZM7.71488 12.0607C7.80925 12.0758 7.90452 12.0833 8 12.0833L8 10.5833C7.98385 10.5833 7.96749 10.5821 7.95089 10.5794L7.71488 12.0607ZM8 12.0833C8.09548 12.0833 8.19075 12.0758 8.28512 12.0607L8.04911 10.5794C8.03251 10.5821 8.01615 10.5833 8 10.5833L8 12.0833ZM7.25 10.6667V11.3333H8.75V10.6667H7.25Z" fill="currentColor"/>
</svg>
