<svg viewBox="0 0 30 30" fill="none" xmlns="http://www.w3.org/2000/svg">
<path d="M20.2552 5.71938L20.3677 5.78437C21.3404 6.34589 22.1515 6.81413 22.7453 7.27243C23.3722 7.75618 23.8697 8.31142 24.0781 9.08915C24.2865 9.86688 24.1333 10.5965 23.8323 11.3289C23.6233 11.8372 23.3161 12.4084 22.946 13.06L22.1518 12.588L22.1416 12.582L13.485 7.5841L12.6754 7.10696C13.0505 6.4681 13.3885 5.92243 13.7212 5.49125C14.205 4.8644 14.7602 4.36686 15.5379 4.15847C16.3157 3.95008 17.0453 4.10333 17.7777 4.40434C18.4715 4.6895 19.2825 5.1578 20.2552 5.71938Z" fill="url(#linear)"/>
<path d="M11.7361 8.7298L7.38864 16.2597C7.01641 16.9032 6.72209 17.412 6.61304 17.9908C6.504 18.5695 6.59298 19.1506 6.70552 19.8854L6.73584 20.084C6.94357 21.4482 7.1148 22.5727 7.37305 23.4254C7.64314 24.3172 8.05833 25.0891 8.87492 25.5605C9.69151 26.032 10.5676 26.0056 11.4749 25.7936C12.3425 25.5909 13.4019 25.177 14.6872 24.6748L14.8744 24.6017C15.5671 24.3318 16.1148 24.1183 16.5615 23.7345C17.0082 23.3507 17.3016 22.8414 17.6728 22.1972L22.01 14.6849L21.1989 14.2028L12.5365 9.20159L11.7361 8.7298Z" fill="url(#linear)"/>
<defs>
<linearGradient id="linear" x1="15.3688" y1="4.0625" x2="15.3688" y2="25.9394" gradientUnits="userSpaceOnUse">
<stop stop-color="#0DB1A0"/>
<stop offset="1" stop-color="#026056"/>
</linearGradient>
</defs>
</svg>
