<svg viewBox="0 0 32 32" fill="none" xmlns="http://www.w3.org/2000/svg">
<path d="M32 16C32 23.8348 26.3686 30.3543 18.9322 31.7316C17.9651 31.9107 16.9836 32.0005 16 32C14.8989 32 13.824 31.889 12.7856 31.6768C5.48963 30.1891 0 23.7355 0 16C0 11.7349 1.66925 7.85831 4.3905 4.99069C4.54797 4.82432 4.70909 4.66144 4.87375 4.50219C7.75313 1.71494 11.6761 0 16 0C20.3239 0 24.2469 1.71494 27.1262 4.50219C27.1941 4.56771 27.2614 4.63388 27.328 4.70069C30.2152 7.59444 32 11.5893 32 16Z" fill="#396CE8"/>
<path d="M16.3912 20.4367L20.422 19.098C20.4861 19.0781 20.5548 19.0784 20.6187 19.099C20.6827 19.1195 20.7387 19.1593 20.7792 19.2128C20.8197 19.2664 20.8427 19.3311 20.8451 19.3982C20.8475 19.4653 20.8292 19.5315 20.7926 19.5878L16.7341 25.416C16.6508 25.5333 16.5406 25.6289 16.4128 25.6949C16.285 25.7608 16.1432 25.7953 15.9994 25.7953C15.8556 25.7953 15.7138 25.7608 15.586 25.6949C15.4582 25.6289 15.3481 25.5333 15.2648 25.416L11.2062 19.5878C11.1696 19.5315 11.1513 19.4653 11.1537 19.3982C11.1561 19.3311 11.1791 19.2664 11.2196 19.2128C11.2601 19.1593 11.3162 19.1195 11.3801 19.099C11.444 19.0784 11.5127 19.0781 11.5768 19.098L15.6076 20.4367C15.8616 20.5238 16.1373 20.5238 16.3912 20.4367ZM21.3705 16.1823C21.4385 16.1594 21.5005 16.1219 21.5524 16.0724C21.6042 16.0229 21.6445 15.9626 21.6705 15.8958C21.6965 15.829 21.7076 15.7573 21.7028 15.6858C21.6981 15.6143 21.6777 15.5447 21.6432 15.4819L16.783 6.65792C16.7037 6.52026 16.5895 6.40593 16.4519 6.32643C16.3144 6.24693 16.1583 6.20508 15.9994 6.20508C15.8405 6.20508 15.6844 6.24693 15.5469 6.32643C15.4093 6.40593 15.2951 6.52026 15.2158 6.65792L10.3557 15.4819C10.3211 15.5447 10.3007 15.6143 10.296 15.6858C10.2913 15.7573 10.3023 15.829 10.3283 15.8958C10.3543 15.9626 10.3946 16.0229 10.4465 16.0724C10.4983 16.1219 10.5604 16.1594 10.6283 16.1823L15.9994 17.9879L21.3705 16.1823Z" fill="white"/>
</svg>
