<svg viewBox="0 0 24 25" fill="none" xmlns="http://www.w3.org/2000/svg">
<path d="M12 14.6309C11.5858 14.6309 11.25 14.9666 11.25 15.3809C11.25 15.7951 11.5858 16.1309 12 16.1309V14.6309ZM15.75 12.3809C15.75 11.9666 15.4142 11.6309 15 11.6309C14.5858 11.6309 14.25 11.9666 14.25 12.3809H15.75ZM3.22067 10.5063L2.61141 10.0689L3.22067 10.5063ZM3.22045 14.2552L3.82971 13.8178L3.82971 13.8178L3.22045 14.2552ZM5.78797 17.2737L6.35092 16.7781L6.33191 16.7565L6.3113 16.7364L5.78797 17.2737ZM18.101 7.38086L17.5824 7.9226L17.6037 7.94299L17.6265 7.96165L18.101 7.38086ZM2.33692 12.3808L1.58692 12.3808L2.33692 12.3808ZM20.7793 14.2555L21.3886 14.6928V14.6928L20.7793 14.2555ZM20.7793 10.5062L20.17 10.9436L20.17 10.9436L20.7793 10.5062ZM20.3953 8.77162C20.1332 8.45089 19.6607 8.40338 19.34 8.6655C19.0193 8.92762 18.9718 9.40011 19.2339 9.72084L20.3953 8.77162ZM7.93753 18.113C7.60111 17.8714 7.13249 17.9482 6.89085 18.2847C6.64921 18.6211 6.72604 19.0897 7.06247 19.3313L7.93753 18.113ZM21.6631 12.3809L20.9131 12.3809L21.6631 12.3809ZM1.53148 19.7952C1.20803 20.054 1.15559 20.5259 1.41435 20.8494C1.67311 21.1728 2.14507 21.2253 2.46852 20.9665L1.53148 19.7952ZM22.4685 4.96651C22.792 4.70775 22.8444 4.23578 22.5857 3.91234C22.3269 3.58889 21.8549 3.53645 21.5315 3.79521L22.4685 4.96651ZM18.1747 7.44107L18.6433 8.02672L18.1747 7.44107ZM5.82765 17.3187L6.29617 17.9044L5.82765 17.3187ZM12 8.63086C9.92893 8.63086 8.25 10.3098 8.25 12.3809H9.75C9.75 11.1382 10.7574 10.1309 12 10.1309V8.63086ZM8.25 12.3809C8.25 13.2617 8.5546 14.0734 9.06365 14.7135L10.2377 13.7799C9.93209 13.3956 9.75 12.9105 9.75 12.3809H8.25ZM14.9274 10.037C14.2414 9.18107 13.1847 8.63086 12 8.63086V10.1309C12.7103 10.1309 13.3434 10.4591 13.7569 10.9751L14.9274 10.037ZM12 16.1309C14.0711 16.1309 15.75 14.4519 15.75 12.3809H14.25C14.25 13.6235 13.2426 14.6309 12 14.6309V16.1309ZM12 3.63086C9.85904 3.63086 7.92324 4.68985 6.35173 5.97657C4.77163 7.27032 3.47961 8.85951 2.61141 10.0689L3.82992 10.9436C4.65919 9.78851 5.86348 8.315 7.302 7.13717C8.7491 5.95232 10.3542 5.13086 12 5.13086V3.63086ZM2.61118 14.6925C3.27304 15.6145 4.17749 16.7519 5.26464 17.8109L6.3113 16.7364C5.30603 15.7572 4.45829 14.6934 3.82971 13.8178L2.61118 14.6925ZM18.6197 6.83912C16.8873 5.18044 14.5908 3.63086 12 3.63086V5.13086C14.0028 5.13086 15.9382 6.34848 17.5824 7.9226L18.6197 6.83912ZM2.61141 10.0689C2.05704 10.8411 1.58692 11.4522 1.58692 12.3808L3.08692 12.3808C3.08692 12.0223 3.20597 11.8128 3.82992 10.9436L2.61141 10.0689ZM3.82971 13.8178C3.20592 12.9488 3.08691 12.7394 3.08692 12.3808L1.58692 12.3808C1.58691 13.3094 2.05693 13.9205 2.61119 14.6925L3.82971 13.8178ZM12 21.1309C14.141 21.1309 16.0768 20.0719 17.6483 18.7851C19.2284 17.4914 20.5204 15.9022 21.3886 14.6928L20.1701 13.8181C19.3408 14.9732 18.1365 16.4467 16.698 17.6245C15.2509 18.8094 13.6458 19.6309 12 19.6309V21.1309ZM21.3885 10.0688C21.1009 9.66808 20.7682 9.2278 20.3953 8.77162L19.2339 9.72084C19.5844 10.1497 19.8981 10.5648 20.17 10.9436L21.3885 10.0688ZM7.06247 19.3313C8.487 20.3545 10.1676 21.1309 12 21.1309V19.6309C10.5952 19.6309 9.21818 19.0329 7.93753 18.113L7.06247 19.3313ZM21.3886 14.6928C21.943 13.9206 22.4131 13.3095 22.4131 12.3809L20.9131 12.3809C20.9131 12.7394 20.794 12.9489 20.1701 13.8181L21.3886 14.6928ZM20.17 10.9436C20.794 11.8128 20.9131 12.0223 20.9131 12.3809L22.4131 12.3809C22.4131 11.4522 21.9429 10.8411 21.3885 10.0688L20.17 10.9436ZM18.6433 8.02672L22.4685 4.96651L21.5315 3.79521L17.7062 6.85542L18.6433 8.02672ZM17.6265 7.96165L17.7002 8.02187L18.6493 6.86028L18.5756 6.80007L17.6265 7.96165ZM2.46852 20.9665L6.29617 17.9044L5.35913 16.7331L1.53148 19.7952L2.46852 20.9665ZM6.29617 17.9044L18.6433 8.02672L17.7062 6.85542L5.35913 16.7331L6.29617 17.9044ZM5.22503 17.7692L5.2647 17.8143L6.39059 16.8232L6.35092 16.7781L5.22503 17.7692Z" fill="currentColor"/>
</svg>
