<svg viewBox="0 0 24 25" fill="none" xmlns="http://www.w3.org/2000/svg">
<path d="M20.7793 14.2555L21.3886 14.6928L20.7793 14.2555ZM20.7793 10.5063L20.1701 10.9436L20.7793 10.5063ZM21.6631 12.3809H20.9131H21.6631ZM3.22067 14.2555L3.82993 13.8181L3.22067 14.2555ZM3.22067 10.5063L2.61142 10.0689L3.22067 10.5063ZM2.33691 12.3809H1.58691H2.33691ZM2.61142 14.6928C3.47962 15.9022 4.77164 17.4914 6.35173 18.7851C7.92325 20.0719 9.85905 21.1309 12 21.1309V19.6309C10.3542 19.6309 8.7491 18.8094 7.302 17.6245C5.86349 16.4467 4.6592 14.9732 3.82993 13.8181L2.61142 14.6928ZM12 21.1309C14.141 21.1309 16.0768 20.0719 17.6483 18.7851C19.2284 17.4914 20.5204 15.9022 21.3886 14.6928L20.1701 13.8181C19.3408 14.9732 18.1365 16.4467 16.698 17.6245C15.2509 18.8094 13.6458 19.6309 12 19.6309V21.1309ZM21.3886 10.0689C20.5204 8.85951 19.2284 7.27032 17.6483 5.97657C16.0768 4.68985 14.141 3.63086 12 3.63086V5.13086C13.6458 5.13086 15.2509 5.95232 16.698 7.13717C18.1365 8.315 19.3408 9.78851 20.1701 10.9436L21.3886 10.0689ZM12 3.63086C9.85905 3.63086 7.92325 4.68985 6.35173 5.97657C4.77164 7.27032 3.47962 8.85951 2.61142 10.0689L3.82993 10.9436C4.6592 9.78851 5.86348 8.315 7.302 7.13717C8.7491 5.95232 10.3542 5.13086 12 5.13086V3.63086ZM21.3886 14.6928C21.943 13.9206 22.4131 13.3095 22.4131 12.3809H20.9131C20.9131 12.7394 20.794 12.9489 20.1701 13.8181L21.3886 14.6928ZM20.1701 10.9436C20.794 11.8128 20.9131 12.0223 20.9131 12.3809H22.4131C22.4131 11.4523 21.943 10.8411 21.3886 10.0689L20.1701 10.9436ZM3.82993 13.8181C3.20597 12.9489 3.08691 12.7394 3.08691 12.3809H1.58691C1.58691 13.3095 2.05703 13.9206 2.61142 14.6928L3.82993 13.8181ZM2.61142 10.0689C2.05703 10.8411 1.58691 11.4523 1.58691 12.3809H3.08691C3.08691 12.0223 3.20597 11.8128 3.82993 10.9436L2.61142 10.0689ZM8.25001 12.3809C8.25001 14.4519 9.92894 16.1309 12 16.1309V14.6309C10.7574 14.6309 9.75001 13.6235 9.75001 12.3809H8.25001ZM12 16.1309C14.0711 16.1309 15.75 14.4519 15.75 12.3809H14.25C14.25 13.6235 13.2426 14.6309 12 14.6309V16.1309ZM15.75 12.3809C15.75 10.3098 14.0711 8.63086 12 8.63086V10.1309C13.2426 10.1309 14.25 11.1382 14.25 12.3809H15.75ZM12 8.63086C9.92894 8.63086 8.25001 10.3098 8.25001 12.3809H9.75001C9.75001 11.1382 10.7574 10.1309 12 10.1309V8.63086Z" fill="currentColor"/>
</svg>
