<svg viewBox="0 0 16 16" fill="none" xmlns="http://www.w3.org/2000/svg">
<path d="M6.50016 8.00033C6.50016 7.1719 7.17174 6.50033 8.00016 6.50033C8.82859 6.50033 9.50016 7.1719 9.50016 8.00033C9.50016 8.82875 8.82859 9.50033 8.00016 9.50033C7.17174 9.50033 6.50016 8.82875 6.50016 8.00033Z" fill="currentColor"/>
<path fill-rule="evenodd" clip-rule="evenodd" d="M4.23465 3.7308C5.28233 2.87299 6.57286 2.16699 8.00017 2.16699C9.42747 2.16699 10.718 2.87299 11.7657 3.7308C12.8191 4.5933 13.6804 5.65276 14.2592 6.459L14.307 6.52539C14.6554 7.00955 14.9422 7.4081 14.9422 8.00033C14.9422 8.59256 14.6554 8.9911 14.307 9.47527L14.2592 9.54165C13.6804 10.3479 12.8191 11.4073 11.7657 12.2698C10.718 13.1277 9.42747 13.8337 8.00017 13.8337C6.57286 13.8337 5.28233 13.1277 4.23465 12.2698C3.18125 11.4073 2.31991 10.3479 1.74111 9.54165L1.69337 9.47527C1.34493 8.9911 1.05811 8.59256 1.05811 8.00033C1.05811 7.4081 1.34493 7.00955 1.69337 6.52539L1.74111 6.459C2.31991 5.65276 3.18125 4.5933 4.23465 3.7308ZM8.00016 5.50033C6.61945 5.50033 5.50016 6.61961 5.50016 8.00033C5.50016 9.38104 6.61945 10.5003 8.00016 10.5003C9.38087 10.5003 10.5002 9.38104 10.5002 8.00033C10.5002 6.61961 9.38087 5.50033 8.00016 5.50033Z" fill="currentColor"/>
</svg>
