<svg viewBox="0 0 20 20" fill="none" xmlns="http://www.w3.org/2000/svg">
<path d="M7.50002 7.49984L7.77944 6.66157C8.36577 4.9026 10.6863 4.52603 11.7988 6.00932C12.4505 6.8782 12.405 8.08463 11.6898 8.902L10.9238 9.77743C10.3283 10.458 10 11.3316 10 12.236V12.4998M18.3334 9.99984C18.3334 14.6022 14.6024 18.3332 10 18.3332C5.39765 18.3332 1.66669 14.6022 1.66669 9.99984C1.66669 5.39746 5.39765 1.6665 10 1.6665C14.6024 1.6665 18.3334 5.39746 18.3334 9.99984Z" stroke="currentColor" stroke-width="1.5" stroke-linecap="round"/>
<path d="M10.8334 14.9998C10.8334 15.4601 10.4603 15.8332 10 15.8332C9.53978 15.8332 9.16669 15.4601 9.16669 14.9998C9.16669 14.5396 9.53978 14.1665 10 14.1665C10.4603 14.1665 10.8334 14.5396 10.8334 14.9998Z" fill="currentColor"/>
</svg>
