<svg viewBox="0 0 20 20" fill="none" xmlns="http://www.w3.org/2000/svg">
<path fill-rule="evenodd" clip-rule="evenodd" d="M17.4992 2.49995C18.1086 3.10931 18.6797 5.17013 18.4376 7.67016C15.2223 7.33162 12.6675 4.77684 12.329 1.56158C14.829 1.31944 16.8899 1.89058 17.4992 2.49995ZM11.0915 1.74503C11.5112 5.50386 14.4953 8.48796 18.2541 8.9077C17.849 10.9292 16.8833 13.1158 14.9992 14.9999C13.1151 16.8841 10.9285 17.8497 8.90696 18.2549C8.48723 14.496 5.50313 11.5119 1.7443 11.0922C2.14944 9.07067 3.11509 6.88408 4.99922 4.99995C6.88334 3.11582 9.06993 2.15018 11.0915 1.74503ZM7.66943 18.4383C5.1694 18.6805 3.10858 18.1093 2.49922 17.4999C1.88985 16.8906 1.31871 14.8298 1.56085 12.3297C4.77611 12.6683 7.33089 15.2231 7.66943 18.4383ZM12.5245 7.47467C12.7686 7.71875 12.7686 8.11448 12.5245 8.35856L11.9248 8.95828L12.9412 9.97467C13.1852 10.2188 13.1852 10.6145 12.9412 10.8586C12.6971 11.1026 12.3014 11.1026 12.0573 10.8586L11.0409 9.84217L9.84143 11.0416L10.8578 12.058C11.1019 12.3021 11.1019 12.6978 10.8578 12.9419C10.6137 13.186 10.218 13.186 9.97394 12.9419L8.95755 11.9255L8.35783 12.5252C8.11375 12.7693 7.71802 12.7693 7.47394 12.5252C7.22987 12.2811 7.22987 11.8854 7.47394 11.6413L8.07367 11.0416L7.05728 10.0252C6.8132 9.78115 6.8132 9.38542 7.05728 9.14134C7.30135 8.89726 7.69708 8.89726 7.94116 9.14134L8.95755 10.1577L10.157 8.95828L9.14061 7.94189C8.89653 7.69781 8.89653 7.30208 9.14061 7.05801C9.38469 6.81393 9.78041 6.81393 10.0245 7.05801L11.0409 8.0744L11.6406 7.47467C11.8847 7.2306 12.2804 7.2306 12.5245 7.47467Z" fill="currentColor"/>
</svg>
