<svg viewBox="0 0 16 16" fill="none" xmlns="http://www.w3.org/2000/svg">
<g>
<path d="M2.70755 14.1534L3.14838 13.5467H3.14838L2.70755 14.1534ZM1.97011 13.416L1.36334 13.8568H1.36334L1.97011 13.416ZM12.6969 13.416L12.0901 12.9752L12.6969 13.416ZM11.9594 14.1534L11.5186 13.5467H11.5186L11.9594 14.1534ZM2.70755 3.42666L2.26671 2.8199H2.26671L2.70755 3.42666ZM1.97011 4.1641L1.36334 3.72326H1.36334L1.97011 4.1641ZM8.65784 3.5448C9.07202 3.54977 9.41181 3.21803 9.41678 2.80385C9.42174 2.38966 9.09 2.04987 8.67582 2.04491L8.65784 3.5448ZM14.0786 7.44773C14.0737 7.03354 13.7339 6.70181 13.3197 6.70677C12.9055 6.71174 12.5738 7.05152 12.5787 7.46571L14.0786 7.44773ZM6.49367 8.15922C6.20078 8.45211 6.20078 8.92699 6.49367 9.21988C6.78656 9.51277 7.26144 9.51277 7.55433 9.21988L6.49367 8.15922ZM10.3205 -0.0743199C9.90628 -0.0724719 9.57199 0.264809 9.57384 0.679019C9.57569 1.09323 9.91297 1.42751 10.3272 1.42567L10.3205 -0.0743199ZM11.9786 0.66829L11.9819 1.41828L11.9786 0.66829ZM15.0453 3.73496L14.2953 3.73161L15.0453 3.73496ZM14.2879 5.38637C14.286 5.80058 14.6203 6.13786 15.0345 6.13971C15.4487 6.14156 15.786 5.80727 15.7879 5.39306L14.2879 5.38637ZM14.4094 1.00875L14.8684 0.415619L14.8684 0.415618L14.4094 1.00875ZM14.7048 1.30416L15.2979 0.84514V0.84514L14.7048 1.30416ZM14.5517 1.16186L14.0917 0.569508L14.0546 0.598319L14.0214 0.631534L14.5517 1.16186ZM7.3335 14.0401C6.06688 14.0401 5.17716 14.039 4.49245 13.9648C3.82178 13.8922 3.43733 13.7566 3.14838 13.5467L2.26671 14.7602C2.85398 15.1869 3.53259 15.3696 4.33089 15.4561C5.11514 15.5411 6.10029 15.5401 7.3335 15.5401V14.0401ZM0.583496 8.79005C0.583496 10.0233 0.582467 11.0084 0.667436 11.7927C0.753926 12.591 0.936667 13.2696 1.36334 13.8568L2.57687 12.9752C2.36693 12.6862 2.23137 12.3018 2.15871 11.6311C2.08453 10.9464 2.0835 10.0567 2.0835 8.79005H0.583496ZM3.14838 13.5467C2.92907 13.3873 2.73621 13.1945 2.57687 12.9752L1.36334 13.8568C1.6152 14.2035 1.92005 14.5083 2.26671 14.7602L3.14838 13.5467ZM12.5835 8.79005C12.5835 10.0567 12.5825 10.9464 12.5083 11.6311C12.4356 12.3018 12.3001 12.6862 12.0901 12.9752L13.3036 13.8568C13.7303 13.2696 13.9131 12.591 13.9996 11.7927C14.0845 11.0084 14.0835 10.0233 14.0835 8.79005H12.5835ZM7.3335 15.5401C8.5667 15.5401 9.55185 15.5411 10.3361 15.4561C11.1344 15.3696 11.813 15.1869 12.4003 14.7602L11.5186 13.5467C11.2297 13.7566 10.8452 13.8922 10.1745 13.9648C9.48983 14.039 8.60011 14.0401 7.3335 14.0401V15.5401ZM12.0901 12.9752C11.9308 13.1945 11.7379 13.3873 11.5186 13.5467L12.4003 14.7602C12.7469 14.5083 13.0518 14.2035 13.3037 13.8568L12.0901 12.9752ZM7.3335 2.04005C6.10029 2.04005 5.11514 2.03902 4.33088 2.12399C3.53259 2.21048 2.85398 2.39322 2.26671 2.8199L3.14838 4.03342C3.43733 3.82349 3.82178 3.68793 4.49245 3.61526C5.17716 3.54108 6.06688 3.54005 7.3335 3.54005V2.04005ZM2.0835 8.79005C2.0835 7.52343 2.08453 6.63372 2.15871 5.94901C2.23137 5.27834 2.36693 4.89389 2.57687 4.60494L1.36334 3.72326C0.936667 4.31053 0.753926 4.98914 0.667436 5.78744C0.582467 6.5717 0.583496 7.55685 0.583496 8.79005H2.0835ZM2.26671 2.8199C1.92005 3.07176 1.6152 3.37661 1.36334 3.72326L2.57687 4.60494C2.73621 4.38563 2.92907 4.19276 3.14838 4.03342L2.26671 2.8199ZM7.3335 3.54005C7.82502 3.54005 8.26246 3.54006 8.65784 3.5448L8.67582 2.04491C8.26967 2.04004 7.82263 2.04005 7.3335 2.04005V3.54005ZM14.0835 8.79005C14.0835 8.30092 14.0835 7.85388 14.0786 7.44773L12.5787 7.46571C12.5835 7.86109 12.5835 8.29853 12.5835 8.79005H14.0835ZM10.3272 1.42567L11.9819 1.41828L11.9752 -0.0817027L10.3205 -0.0743199L10.3272 1.42567ZM14.2953 3.73161L14.2879 5.38637L15.7879 5.39306L15.7953 3.7383L14.2953 3.73161ZM11.9819 1.41828C12.6594 1.41526 13.1041 1.41441 13.4382 1.45089C13.7572 1.48573 13.879 1.54663 13.9504 1.60187L14.8684 0.415618C14.4885 0.121578 14.0547 0.00930256 13.601 -0.0402402C13.1624 -0.0881354 12.6174 -0.0845678 11.9752 -0.0817027L11.9819 1.41828ZM15.7953 3.7383C15.7981 3.09612 15.8017 2.5511 15.7538 2.11252C15.7042 1.65886 15.592 1.22509 15.2979 0.84514L14.1117 1.76318C14.1669 1.83457 14.2278 1.95638 14.2627 2.27537C14.2991 2.60944 14.2983 3.05415 14.2953 3.73161L15.7953 3.7383ZM7.55433 9.21988L15.082 1.69219L14.0214 0.631534L6.49367 8.15922L7.55433 9.21988ZM13.9504 1.60187C13.9809 1.62554 14.0099 1.65111 14.0372 1.67842L15.0995 0.619454C15.027 0.546704 14.9498 0.478611 14.8684 0.415619L13.9504 1.60187ZM14.0372 1.67842C14.0637 1.70506 14.0886 1.73336 14.1117 1.76318L15.2979 0.84514C15.2365 0.765765 15.1702 0.690398 15.0995 0.619454L14.0372 1.67842ZM15.0117 1.75422L15.0283 1.74129L14.1083 0.556582L14.0917 0.569508L15.0117 1.75422Z" fill="currentColor"/>
</g>
</svg>
