<svg viewBox="0 0 101 100" fill="none" xmlns="http://www.w3.org/2000/svg">
<mask id="mask0_1218_302993" style="mask-type:luminance" maskUnits="userSpaceOnUse" x="0" y="0" width="101" height="100">
<path d="M0.5 0H100.5V100H0.5V0Z" fill="white"/>
</mask>
<g mask="url(#mask0_1218_302993)">
<path d="M61.0292 89.4741C61.0292 95.2873 39.9766 95.2873 39.9766 89.4741V63.1583C39.9766 60.3666 41.0856 57.6892 43.0597 55.7151C45.0337 53.741 47.7111 52.632 50.5029 52.632C53.2946 52.632 55.972 53.741 57.9461 55.7151C59.9202 57.6892 61.0292 60.3666 61.0292 63.1583V89.4741Z" fill="#C1694F"/>
<path d="M29.4472 10.5266C23.8637 10.5266 18.5088 12.7447 14.5607 16.6928C10.6126 20.6409 8.39453 25.9958 8.39453 31.5793V63.1582H50.4998V31.5793C50.4998 25.9958 48.2818 20.6409 44.3336 16.6928C40.3855 12.7447 35.0307 10.5266 29.4472 10.5266Z" fill="#292F33"/>
<path d="M55.7644 52.0005C55.7644 55.2531 52.9618 57.8926 49.7302 57.8926H9.16702C5.93281 57.8926 3.13281 55.2531 3.13281 52.0005V24.3136C3.13281 21.0584 5.93281 18.4189 9.16702 18.4189H49.7302C52.9618 18.4189 55.7644 21.0584 55.7644 24.3136V52.0005Z" fill="#CCD6DD"/>
<path d="M20.5998 36.3052L3.39453 53.6C3.6919 54.5895 4.22611 55.4842 4.96295 56.1895L22.6708 38.3895C22.9441 38.1114 23.0972 37.7372 23.0972 37.3473C23.0972 36.9575 22.9441 36.5833 22.6708 36.3052C22.5355 36.1682 22.3742 36.0593 22.1965 35.985C22.0187 35.9107 21.828 35.8725 21.6353 35.8725C21.4427 35.8725 21.2519 35.9107 21.0742 35.985C20.8964 36.0593 20.7352 36.1682 20.5998 36.3052ZM38.3024 36.3052C38.1671 36.1682 38.0058 36.0593 37.8281 35.985C37.6503 35.9107 37.4596 35.8725 37.2669 35.8725C37.0742 35.8725 36.8835 35.9107 36.7057 35.985C36.528 36.0593 36.3667 36.1682 36.2314 36.3052C35.9569 36.5826 35.8029 36.9571 35.8029 37.3473C35.8029 37.7376 35.9569 38.1121 36.2314 38.3895L53.9366 56.1895C54.6735 55.4842 55.2077 54.5895 55.5051 53.6L38.3024 36.3052Z" fill="#99AAB5"/>
<path d="M49.7302 18.4216H9.16702C5.93281 18.4216 3.13281 21.0611 3.13281 24.3138V28.048L24.3775 49.4006C25.0363 50.064 25.8197 50.5905 26.6828 50.9499C27.5459 51.3092 28.4716 51.4941 29.4065 51.4941C30.3414 51.4941 31.2671 51.3092 32.1302 50.9499C32.9932 50.5905 33.7767 50.064 34.4354 49.4006L55.7644 28.0164V24.3138C55.7644 21.0611 52.9618 18.4216 49.7302 18.4216Z" fill="#99AAB5"/>
<path d="M49.7283 18.4213H9.16517C6.09675 18.4213 3.44938 20.8055 3.18359 23.8292L25.3073 45.9239C27.5941 48.2239 31.2994 48.1344 33.5836 45.8318L55.7152 23.8686C55.4704 20.8265 52.8073 18.4213 49.7283 18.4213Z" fill="#E1E8ED"/>
<path d="M71.5545 10.5266H29.4492C35.0327 10.5266 40.3875 12.7447 44.3357 16.6928C48.2838 20.6409 50.5019 25.9958 50.5019 31.5793V63.1582H92.6071V31.5793C92.6071 25.9958 90.3891 20.6409 86.4409 16.6928C82.4928 12.7447 77.138 10.5266 71.5545 10.5266Z" fill="#99AAB5"/>
<path d="M71.5551 5.26388H61.0288C59.6329 5.26388 58.2942 5.81838 57.3072 6.80542C56.3201 7.79245 55.7656 9.13116 55.7656 10.527V42.106C55.7656 43.5019 56.3201 44.8406 57.3072 45.8276C58.2942 46.8146 59.6329 47.3691 61.0288 47.3691C62.4247 47.3691 63.7634 46.8146 64.7504 45.8276C65.7374 44.8406 66.2919 43.5019 66.2919 42.106V21.0534H71.5551C72.951 21.0534 74.2897 20.4988 75.2767 19.5118C76.2637 18.5248 76.8183 17.1861 76.8183 15.7902V10.527C76.8183 9.13116 76.2637 7.79245 75.2767 6.80542C74.2897 5.81838 72.951 5.26388 71.5551 5.26388Z" fill="#DD2E44"/>
</g>
</svg>
