<svg viewBox="0 0 24 25" fill="none" xmlns="http://www.w3.org/2000/svg">
<path fill-rule="evenodd" clip-rule="evenodd" d="M6.26197 21.6055C8.99564 23.2969 12.3638 21.922 13.9521 20.3317C16.6826 17.5978 16.6826 13.1652 13.9521 10.4313C11.2217 7.69738 6.79467 7.69738 4.06419 10.4313C2.40825 12.0893 1.09635 15.4003 2.7915 18.1315C2.88538 18.2827 2.93232 18.3584 2.95528 18.4161C2.99904 18.5261 3.0119 18.6106 3.00285 18.7287C2.9981 18.7906 2.97999 18.8606 2.94376 19.0005C2.71582 19.8811 2.60185 20.3214 2.66632 20.6386C2.77821 21.1891 3.20791 21.6193 3.75772 21.7313C4.07451 21.7959 4.51423 21.6818 5.39365 21.4536C5.53339 21.4173 5.6033 21.3991 5.66497 21.3944C5.78289 21.3853 5.86629 21.3979 5.97626 21.4415C6.03377 21.4643 6.10984 21.5113 6.26197 21.6055ZM11.9473 14.6309C12.3615 14.6309 12.6973 14.9666 12.6973 15.3809C12.6973 15.7951 12.3615 16.1309 11.9473 16.1309L5.94727 16.1309C5.53306 16.1309 5.19727 15.7951 5.19727 15.3809C5.19727 14.9666 5.53306 14.6309 5.94727 14.6309L11.9473 14.6309Z" fill="currentColor"/>
<path d="M5.36885 8.23034C8.36359 6.72342 12.1074 7.22138 14.6071 9.72422C17.0449 12.1651 17.5783 15.7909 16.2071 18.7502C16.3975 18.6579 16.586 18.5544 16.772 18.4393C16.9568 18.325 17.0491 18.2679 17.119 18.2402C17.2525 18.1872 17.3538 18.1719 17.497 18.183C17.5718 18.1888 17.6567 18.2108 17.8264 18.2548C18.8942 18.532 19.4282 18.6705 19.8129 18.5922C20.4805 18.4561 21.0023 17.9337 21.1382 17.2652C21.2165 16.8801 21.0781 16.3454 20.8013 15.2762C20.7573 15.1063 20.7353 15.0213 20.7295 14.9461C20.7185 14.8027 20.7342 14.7001 20.7873 14.5665C20.8152 14.4964 20.8722 14.4046 20.9862 14.2209C23.0446 10.9045 21.4515 6.884 19.4408 4.87068C16.1252 1.55092 10.7495 1.55092 7.43396 4.87068C6.45875 5.84712 5.77038 7.00199 5.36885 8.23034Z" fill="currentColor"/>
</svg>
