<svg viewBox="0 0 24 25" fill="none" xmlns="http://www.w3.org/2000/svg">
<path d="M3.75 15.3809C3.75 14.9666 3.41421 14.6309 3 14.6309C2.58579 14.6309 2.25 14.9666 2.25 15.3809H3.75ZM9 22.1309C9.41421 22.1309 9.75 21.7951 9.75 21.3809C9.75 20.9666 9.41421 20.6309 9 20.6309V22.1309ZM9 4.13086C9.41421 4.13086 9.75 3.79507 9.75 3.38086C9.75 2.96665 9.41421 2.63086 9 2.63086V4.13086ZM2.25 9.38086C2.25 9.79507 2.58579 10.1309 3 10.1309C3.41421 10.1309 3.75 9.79507 3.75 9.38086H2.25ZM20.25 9.38086C20.25 9.79507 20.5858 10.1309 21 10.1309C21.4142 10.1309 21.75 9.79507 21.75 9.38086H20.25ZM15 2.63086C14.5858 2.63086 14.25 2.96665 14.25 3.38086C14.25 3.79507 14.5858 4.13086 15 4.13086V2.63086ZM16 21.3809V20.6309V21.3809ZM15 20.6309C14.5858 20.6309 14.25 20.9666 14.25 21.3809C14.25 21.7951 14.5858 22.1309 15 22.1309V20.6309ZM21.75 15.3809C21.75 14.9666 21.4142 14.6309 21 14.6309C20.5858 14.6309 20.25 14.9666 20.25 15.3809H21.75ZM21 16.3809H21.75H21ZM3.75 16.3809V15.3809H2.25V16.3809H3.75ZM9 20.6309H8V22.1309H9V20.6309ZM2.25 16.3809C2.25 19.5565 4.82436 22.1309 8 22.1309V20.6309C5.65279 20.6309 3.75 18.7281 3.75 16.3809H2.25ZM8 4.13086H9V2.63086H8V4.13086ZM3.75 9.38086V8.38086H2.25V9.38086H3.75ZM8 2.63086C4.82436 2.63086 2.25 5.20522 2.25 8.38086H3.75C3.75 6.03365 5.65279 4.13086 8 4.13086V2.63086ZM20.25 8.38086V9.38086H21.75V8.38086H20.25ZM15 4.13086H16V2.63086H15V4.13086ZM21.75 8.38086C21.75 5.20522 19.1756 2.63086 16 2.63086V4.13086C18.3472 4.13086 20.25 6.03365 20.25 8.38086H21.75ZM16 20.6309H15V22.1309H16V20.6309ZM20.25 15.3809V16.3809H21.75V15.3809H20.25ZM16 22.1309C19.1756 22.1309 21.75 19.5565 21.75 16.3809H20.25C20.25 18.7281 18.3472 20.6309 16 20.6309V22.1309Z" fill="currentColor"/>
</svg>
