<svg viewBox="0 0 24 24" fill="none" xmlns="http://www.w3.org/2000/svg">
<path d="M6.39635 18.9929L6.96899 3.33787C6.9776 3.13551 7.00774 2.93746 7.0551 2.75232L6.75371 2.79537L3.55038 3.23454C3.07079 3.30079 2.63715 3.55483 2.34486 3.94079C2.05257 4.32674 1.92556 4.813 1.99177 5.2926L4.11871 20.8098C4.18496 21.2894 4.439 21.723 4.82496 22.0153C5.21091 22.3076 5.69717 22.4346 6.17677 22.3684L10.1852 21.8173L8.98399 21.7743C8.27244 21.7473 7.60057 21.4395 7.11555 20.9182C6.63054 20.3968 6.37192 19.7045 6.39635 18.9929ZM4.29696 5.61078L4.04294 6.51236C4.03347 6.54555 4.01455 6.57526 3.98849 6.59788C3.96243 6.6205 3.93035 6.63505 3.89616 6.63975C3.86198 6.64445 3.82716 6.6391 3.79596 6.62436C3.76476 6.60961 3.73852 6.58611 3.72045 6.55671L3.23306 5.75674C3.22043 5.7359 3.21223 5.71268 3.20897 5.68853C3.20571 5.66438 3.20747 5.63982 3.21412 5.61637L3.46815 4.71436C3.4775 4.68107 3.49639 4.65124 3.52247 4.62854C3.54856 4.60584 3.58072 4.59126 3.61498 4.5866C3.64924 4.58193 3.68412 4.58738 3.71533 4.60228C3.74654 4.61718 3.77271 4.64087 3.79063 4.67044L4.27802 5.47042C4.30385 5.51218 4.31031 5.56342 4.29696 5.61078Z" fill="currentColor"/>
<path d="M20.2727 2.00313L9.71976 1.61563C9.48029 1.60676 9.24141 1.64517 9.01678 1.72867C8.79216 1.81217 8.58619 1.93912 8.41065 2.10226C8.23512 2.2654 8.09345 2.46154 7.99375 2.67946C7.89406 2.89738 7.83829 3.13281 7.82962 3.3723L7.25699 19.0273C7.24001 19.5103 7.41552 19.9802 7.74493 20.3339C8.07433 20.6875 8.53068 20.8959 9.01365 20.9131L19.5666 21.3006C20.5698 21.3351 21.418 20.5515 21.4524 19.544L22.025 3.88896C22.0638 2.88577 21.2759 2.03757 20.2727 2.00313ZM10.7785 3.72707C10.7234 3.84634 10.6364 3.94795 10.543 4.04009C10.3781 4.20241 10.1899 4.33932 9.99317 4.46117C9.98671 4.46548 9.97939 4.46978 9.97164 4.46892C9.96389 4.46849 9.957 4.46332 9.95097 4.45859C9.75996 4.31005 9.58712 4.13952 9.43603 3.95053C9.36575 3.86439 9.30886 3.76816 9.26725 3.66507C9.22558 3.56118 9.21628 3.44712 9.24055 3.33785C9.2793 3.18371 9.42139 3.03474 9.58371 3.01235C9.75765 2.98867 9.94796 3.09631 10.0401 3.23969L10.0444 3.23624C10.1111 3.17596 10.1817 3.11784 10.2653 3.08555C10.3181 3.06539 10.3744 3.05604 10.4309 3.05803C10.4874 3.06003 10.543 3.07334 10.5942 3.09717C10.6453 3.12157 10.6909 3.15599 10.7284 3.19837C10.7659 3.24075 10.7945 3.29023 10.8125 3.34388C10.8538 3.46874 10.8336 3.60781 10.7785 3.72707ZM15.196 15.6948C15.1572 15.7163 15.1185 15.7422 15.0754 15.7379C15.0324 15.7379 14.9936 15.7077 14.9592 15.6776C13.1487 14.2352 10.3996 11.6403 10.9766 9.39577C11.1918 8.53035 11.9884 7.69507 12.9011 7.57021C13.8742 7.43674 14.942 8.03952 15.4629 8.84466L15.4802 8.82744C15.8547 8.4873 16.2509 8.16007 16.7202 7.97924C17.949 7.50391 19.3659 8.13855 19.79 9.43021C20.0225 10.1277 19.9063 10.907 19.6006 11.5787C18.8579 13.1786 16.693 14.7652 15.196 15.6948ZM20.2723 19.3166C20.2171 19.4359 20.1302 19.5375 20.0367 19.6296C19.8718 19.792 19.6837 19.9289 19.4869 20.0507C19.4805 20.055 19.4731 20.0593 19.4654 20.0585C19.4576 20.0585 19.4507 20.0529 19.4447 20.0481C19.2537 19.8996 19.0809 19.7291 18.9298 19.5401C18.8595 19.454 18.8026 19.3577 18.761 19.2546C18.7194 19.1507 18.7101 19.0367 18.7343 18.9274C18.7731 18.7733 18.9151 18.6243 19.0775 18.6023C19.2514 18.5787 19.4417 18.6863 19.5343 18.8297L19.5382 18.8262C19.6049 18.766 19.6755 18.7078 19.759 18.6755C19.8119 18.6553 19.8683 18.6459 19.9249 18.6479C19.9815 18.6499 20.0371 18.6633 20.0884 18.6872C20.1394 18.7116 20.1849 18.746 20.2224 18.7884C20.2598 18.8308 20.2883 18.8803 20.3063 18.9339C20.3476 19.0587 20.3269 19.1974 20.2718 19.3171L20.2723 19.3166Z" fill="currentColor"/>
</svg>
