<svg viewBox="0 0 30 30" fill="none" xmlns="http://www.w3.org/2000/svg">
<path d="M7.99398 23.7411L8.70978 4.17237C8.72054 3.91942 8.75821 3.67185 8.81741 3.44043L8.44068 3.49425L4.43651 4.04321C3.83702 4.12601 3.29497 4.44357 2.92961 4.92601C2.56424 5.40846 2.40548 6.01628 2.48825 6.61578L5.14693 26.0123C5.22974 26.6118 5.54729 27.1538 6.02973 27.5192C6.51218 27.8846 7.12 28.0433 7.7195 27.9606L12.7301 27.2717L11.2285 27.2179C10.3391 27.1842 9.49925 26.7994 8.89298 26.1477C8.28671 25.4961 7.96343 24.6307 7.99398 23.7411ZM5.36974 7.0135L5.05221 8.14048C5.04037 8.18196 5.01673 8.21911 4.98415 8.24738C4.95157 8.27566 4.91147 8.29384 4.86874 8.29972C4.826 8.30559 4.78248 8.29891 4.74348 8.28048C4.70448 8.26204 4.67169 8.23266 4.6491 8.19592L4.03986 7.19595C4.02408 7.1699 4.01383 7.14088 4.00975 7.11069C4.00568 7.0805 4.00787 7.0498 4.01618 7.0205L4.33372 5.89298C4.34541 5.85137 4.36902 5.81408 4.40163 5.78571C4.43424 5.75733 4.47443 5.73911 4.51726 5.73328C4.56009 5.72744 4.60369 5.73426 4.6427 5.75288C4.68171 5.7715 4.71443 5.80112 4.73682 5.83809L5.34606 6.83805C5.37835 6.89026 5.38642 6.9543 5.36974 7.0135Z" fill="url(#linear)"/>
<path d="M25.3404 2.50352L12.1492 2.01914C11.8499 2.00805 11.5513 2.05607 11.2705 2.16044C10.9897 2.26482 10.7322 2.4235 10.5128 2.62743C10.2934 2.83136 10.1163 3.07653 9.99171 3.34893C9.86708 3.62133 9.79737 3.91562 9.78654 4.21497L9.07074 23.7837C9.04953 24.3875 9.26891 24.9749 9.68067 25.4169C10.0924 25.859 10.6629 26.1194 11.2666 26.141L24.4577 26.6254C25.7117 26.6685 26.772 25.6889 26.815 24.4296L27.5308 4.86081C27.5793 3.60681 26.5944 2.54657 25.3404 2.50352ZM13.4726 4.65845C13.4037 4.80753 13.295 4.93454 13.1782 5.04971C12.9721 5.25261 12.7369 5.42376 12.491 5.57607C12.4829 5.58145 12.4737 5.58683 12.4641 5.58576C12.4544 5.58522 12.4458 5.57876 12.4382 5.57284C12.1995 5.38717 11.9834 5.17401 11.7945 4.93777C11.7067 4.8301 11.6356 4.70981 11.5836 4.58095C11.5315 4.45108 11.5199 4.30851 11.5502 4.17192C11.5986 3.97924 11.7762 3.79303 11.9791 3.76504C12.1966 3.73544 12.4345 3.86999 12.5496 4.04921L12.555 4.0449C12.6384 3.96956 12.7267 3.8969 12.8311 3.85654C12.8971 3.83134 12.9675 3.81965 13.0382 3.82215C13.1088 3.82464 13.1782 3.84128 13.2423 3.87107C13.3061 3.90157 13.3632 3.94459 13.41 3.99756C13.4569 4.05054 13.4926 4.11239 13.5152 4.17945C13.5668 4.33553 13.5415 4.50937 13.4726 4.65845ZM18.9945 19.6181C18.9461 19.645 18.8976 19.6773 18.8438 19.6719C18.79 19.6719 18.7416 19.6342 18.6985 19.5966C16.4354 17.7936 12.999 14.5499 13.7202 11.7443C13.9893 10.6625 14.985 9.61845 16.1259 9.46237C17.3423 9.29553 18.677 10.049 19.3282 11.0554L19.3497 11.0339C19.8179 10.6087 20.3131 10.1997 20.8997 9.97365C22.4357 9.37949 24.2069 10.1728 24.737 11.7874C25.0277 12.6592 24.8824 13.6334 24.5002 14.473C23.5719 16.4729 20.8658 18.4561 18.9945 19.6181ZM25.3398 24.1454C25.2709 24.2945 25.1622 24.4215 25.0454 24.5367C24.8393 24.7396 24.6041 24.9107 24.3582 25.063C24.3501 25.0684 24.3409 25.0738 24.3312 25.0727C24.3216 25.0727 24.3129 25.0657 24.3054 25.0598C24.0666 24.8741 23.8506 24.661 23.6617 24.4247C23.5739 24.317 23.5028 24.1968 23.4508 24.0679C23.3987 23.938 23.3871 23.7955 23.4174 23.6589C23.4658 23.4662 23.6434 23.28 23.8463 23.2525C24.0638 23.2229 24.3016 23.3575 24.4174 23.5367L24.4222 23.5324C24.5056 23.457 24.5939 23.3844 24.6983 23.344C24.7644 23.3188 24.8349 23.307 24.9056 23.3095C24.9764 23.312 25.0459 23.3287 25.11 23.3586C25.1737 23.3891 25.2307 23.4322 25.2775 23.4851C25.3242 23.5381 25.3599 23.5999 25.3823 23.6669C25.434 23.823 25.4082 23.9963 25.3393 24.1459L25.3398 24.1454Z" fill="url(#linear)"/>
<defs>
<linearGradient id="linear" x1="7.59844" y1="3.44043" x2="7.59844" y2="27.982" gradientUnits="userSpaceOnUse">
<stop stop-color="#0DB1A0"/>
<stop offset="1" stop-color="#026056"/>
</linearGradient>
</defs>
</svg>
