<svg viewBox="0 0 24 24" fill="none" xmlns="http://www.w3.org/2000/svg">
<path d="M10.4 12.775V11.175C10.4 11.0583 10.3625 10.9625 10.2875 10.8875C10.2125 10.8125 10.1167 10.775 10 10.775H7.6V8.375C7.6 8.25834 7.5625 8.16251 7.4875 8.08751C7.4125 8.01251 7.31667 7.97501 7.2 7.97501H5.6C5.48333 7.97501 5.3875 8.01251 5.3125 8.08751C5.2375 8.16251 5.2 8.25834 5.2 8.375V10.775H2.8C2.68333 10.775 2.5875 10.8125 2.5125 10.8875C2.4375 10.9625 2.4 11.0583 2.4 11.175V12.775C2.4 12.8917 2.4375 12.9875 2.5125 13.0625C2.5875 13.1375 2.68333 13.175 2.8 13.175H5.2V15.575C5.2 15.6917 5.2375 15.7875 5.3125 15.8625C5.3875 15.9375 5.48333 15.975 5.6 15.975H7.2C7.31667 15.975 7.4125 15.9375 7.4875 15.8625C7.5625 15.7875 7.6 15.6917 7.6 15.575V13.175H10C10.1167 13.175 10.2125 13.1375 10.2875 13.0625C10.3625 12.9875 10.4 12.8917 10.4 12.775ZM17.6 13.575C17.6 13.1333 17.4437 12.7563 17.1312 12.4438C16.8187 12.1313 16.4417 11.975 16 11.975C15.5583 11.975 15.1812 12.1313 14.8687 12.4438C14.5562 12.7563 14.4 13.1333 14.4 13.575C14.4 14.0167 14.5562 14.3938 14.8687 14.7063C15.1812 15.0188 15.5583 15.175 16 15.175C16.4417 15.175 16.8187 15.0188 17.1312 14.7063C17.4437 14.3938 17.6 14.0167 17.6 13.575ZM20.8 10.375C20.8 9.93334 20.6438 9.55626 20.3313 9.24376C20.0188 8.93126 19.6417 8.77501 19.2 8.77501C18.7583 8.77501 18.3812 8.93126 18.0687 9.24376C17.7562 9.55626 17.6 9.93334 17.6 10.375C17.6 10.8167 17.7562 11.1938 18.0687 11.5063C18.3812 11.8188 18.7583 11.975 19.2 11.975C19.6417 11.975 20.0188 11.8188 20.3313 11.5063C20.6438 11.1938 20.8 10.8167 20.8 10.375ZM24 11.975C24 13.7417 23.375 15.25 22.125 16.5C20.875 17.75 19.3667 18.375 17.6 18.375C16 18.375 14.5917 17.8417 13.375 16.775H10.625C9.40833 17.8417 8 18.375 6.4 18.375C4.63333 18.375 3.125 17.75 1.875 16.5C0.625 15.25 0 13.7417 0 11.975C0 10.2083 0.625 8.70001 1.875 7.45001C3.125 6.20001 4.63333 5.57501 6.4 5.57501H17.6C19.3667 5.57501 20.875 6.20001 22.125 7.45001C23.375 8.70001 24 10.2083 24 11.975Z" fill="currentColor"/>
</svg>
