<svg viewBox="0 0 21 20" fill="none" xmlns="http://www.w3.org/2000/svg">
<path d="M10.6666 3.95833C12.1416 3.95833 13.4624 4.46666 14.5041 5.45832L17.3583 2.60416C15.6249 0.991665 13.3624 0 10.6666 0C6.75827 0 3.37911 2.24166 1.73328 5.50832L5.05827 8.08749C5.84577 5.71666 8.05827 3.95833 10.6666 3.95833Z" fill="#EA4335"/>
<path d="M20.2417 10.2298C20.2417 9.57565 20.1792 8.94232 20.0833 8.33398H10.6667V12.0923H16.0583C15.8167 13.3256 15.1167 14.3756 14.0667 15.084L17.2875 17.584C19.1667 15.8423 20.2417 13.2673 20.2417 10.2298Z" fill="#4285F4"/>
<path d="M5.05418 11.912C4.85418 11.3078 4.73751 10.6661 4.73751 9.99947C4.73751 9.33281 4.85001 8.69114 5.05418 8.08697L1.72919 5.50781C1.05002 6.85781 0.666687 8.38281 0.666687 9.99947C0.666687 11.6161 1.05002 13.1411 1.73335 14.4911L5.05418 11.912Z" fill="#FBBC05"/>
<path d="M10.6665 19.9999C13.3665 19.9999 15.6373 19.1124 17.2873 17.579L14.0665 15.079C13.1707 15.6832 12.0165 16.0374 10.6665 16.0374C8.05816 16.0374 5.84566 14.279 5.054 11.9082L1.729 14.4874C3.379 17.7582 6.75816 19.9999 10.6665 19.9999Z" fill="#34A853"/>
</svg>
