<svg viewBox="0 0 24 25" fill="none" xmlns="http://www.w3.org/2000/svg">
<path d="M2.5091 15.2823C2.66617 15.2427 2.83063 15.2217 3 15.2217C4.10457 15.2217 5 16.1171 5 17.2217V19.2217C5 20.3262 4.10457 21.2217 3 21.2217C1.89543 21.2217 1 20.3262 1 19.2217V17.2217C1 16.2865 1.64187 15.5012 2.5091 15.2823ZM2.5091 15.2823L2.39658 14.5322C1.61838 9.34416 5.10139 4.47595 10.2629 3.5375C11.4115 3.32865 12.5885 3.32865 13.7371 3.5375C18.8986 4.47595 22.3816 9.34416 21.6034 14.5322L21.4909 15.2823M21.4909 15.2823C21.3338 15.2427 21.1694 15.2217 21 15.2217C19.8954 15.2217 19 16.1171 19 17.2217V19.2217C19 20.3262 19.8954 21.2217 21 21.2217C22.1046 21.2217 23 20.3262 23 19.2217V17.2217C23 16.2865 22.3581 15.5012 21.4909 15.2823Z" stroke="currentColor" stroke-width="1.5"/>
</svg>
