<svg viewBox="0 0 20 20" fill="none" xmlns="http://www.w3.org/2000/svg">
<path fill-rule="evenodd" clip-rule="evenodd" d="M5.83382 13.3331C4.22805 12.3696 2.05391 13.2593 1.64768 15.0874L1.28454 16.7215C1.05324 17.7624 1.84446 18.7497 2.9107 18.7497H5.83382C7.45085 18.7497 8.68367 18.4936 9.46127 18.2653C9.77776 18.1724 10.0586 18.0096 10.3011 17.7983C10.1081 17.3922 10 16.9379 10 16.4583C10 14.7739 11.3327 13.4008 13.0011 13.3357L15.3836 9.1122C15.337 9.09847 15.2912 9.07903 15.2472 9.05364L12.3734 7.39459L9.21572 12.8328C9.19791 12.8634 9.18124 12.8946 9.16457 12.9258C9.15096 12.9512 9.13735 12.9766 9.1231 13.0018C8.92239 13.3569 8.00891 14.6381 5.83382 13.3331ZM11.2508 16.4387L11.2501 16.4398C11.2566 15.7734 11.6107 15.1902 12.1397 14.8628L12.1393 14.8635C12.4258 14.6859 12.7638 14.5834 13.1257 14.5834H16.8757C17.9112 14.5834 18.7507 15.4229 18.7507 16.4584C18.7507 17.4939 17.9112 18.3334 16.8757 18.3334H13.1257C12.0901 18.3334 11.2507 17.4939 11.2507 16.4584C11.2507 16.4518 11.2507 16.4452 11.2508 16.4387ZM13.001 6.3136L15.8722 7.97108C15.9124 7.99431 15.9491 8.02134 15.982 8.05146L17.294 5.72566C17.2603 5.71338 17.2273 5.69801 17.1951 5.67948L14.3297 4.02529L13.001 6.3136ZM14.9574 2.9443L17.8201 4.59692C17.8485 4.61331 17.8751 4.6316 17.8999 4.65153L18.7695 3.11003C19.22 2.31145 18.9408 1.29898 18.1447 0.844085L18.1042 0.820943C17.309 0.366493 16.296 0.638998 15.836 1.43112L14.9574 2.9443Z" fill="currentColor"/>
</svg>
