<svg viewBox="0 0 18 18" fill="none" xmlns="http://www.w3.org/2000/svg">
<path d="M3.21756 15.7042L3.6584 15.0975L3.21756 15.7042ZM2.29576 14.7824L2.90253 14.3416L2.29576 14.7824ZM15.7042 14.7824L15.0975 14.3416L15.7042 14.7824ZM14.7824 15.7042L14.3416 15.0975L14.7824 15.7042ZM14.7824 2.29576L14.3416 2.90253L14.7824 2.29576ZM15.7042 3.21756L15.0975 3.6584L15.7042 3.21756ZM3.21756 2.29576L3.6584 2.90253L3.21756 2.29576ZM2.29576 3.21756L2.90253 3.6584L2.29576 3.21756ZM9.75 8.16667C9.75 7.75245 9.41421 7.41667 9 7.41667C8.58578 7.41667 8.25 7.75245 8.25 8.16667H9.75ZM8.25 13.1667C8.25 13.5809 8.58578 13.9167 9 13.9167C9.41421 13.9167 9.75 13.5809 9.75 13.1667H8.25ZM9 15.75C7.42091 15.75 6.29683 15.749 5.4285 15.6549C4.57421 15.5623 4.05688 15.387 3.6584 15.0975L2.77672 16.311C3.47352 16.8173 4.28502 17.0398 5.26693 17.1462C6.23481 17.251 7.45432 17.25 9 17.25V15.75ZM0.75 9C0.75 10.5457 0.748971 11.7652 0.853834 12.7331C0.960218 13.715 1.18275 14.5265 1.689 15.2233L2.90253 14.3416C2.61301 13.9431 2.43766 13.4258 2.34511 12.5715C2.25103 11.7032 2.25 10.5791 2.25 9H0.75ZM3.6584 15.0975C3.36834 14.8867 3.11326 14.6317 2.90253 14.3416L1.689 15.2233C1.99226 15.6407 2.35932 16.0077 2.77672 16.311L3.6584 15.0975ZM15.75 9C15.75 10.5791 15.749 11.7032 15.6549 12.5715C15.5623 13.4258 15.387 13.9431 15.0975 14.3416L16.311 15.2233C16.8173 14.5265 17.0398 13.715 17.1462 12.7331C17.251 11.7652 17.25 10.5457 17.25 9H15.75ZM9 17.25C10.5457 17.25 11.7652 17.251 12.7331 17.1462C13.715 17.0398 14.5265 16.8173 15.2233 16.311L14.3416 15.0975C13.9431 15.387 13.4258 15.5623 12.5715 15.6549C11.7032 15.749 10.5791 15.75 9 15.75V17.25ZM15.0975 14.3416C14.8867 14.6317 14.6317 14.8867 14.3416 15.0975L15.2233 16.311C15.6407 16.0077 16.0077 15.6407 16.311 15.2233L15.0975 14.3416ZM9 2.25C10.5791 2.25 11.7032 2.25103 12.5715 2.34511C13.4258 2.43766 13.9431 2.61301 14.3416 2.90253L15.2233 1.689C14.5265 1.18275 13.715 0.960218 12.7331 0.853834C11.7652 0.748971 10.5457 0.75 9 0.75V2.25ZM17.25 9C17.25 7.45432 17.251 6.23481 17.1462 5.26693C17.0398 4.28502 16.8173 3.47352 16.311 2.77672L15.0975 3.6584C15.387 4.05688 15.5623 4.57421 15.6549 5.4285C15.749 6.29683 15.75 7.42091 15.75 9H17.25ZM14.3416 2.90253C14.6317 3.11326 14.8867 3.36834 15.0975 3.6584L16.311 2.77672C16.0077 2.35932 15.6407 1.99226 15.2233 1.689L14.3416 2.90253ZM9 0.75C7.45432 0.75 6.23481 0.748971 5.26693 0.853834C4.28502 0.960218 3.47352 1.18275 2.77672 1.689L3.6584 2.90253C4.05688 2.61301 4.57421 2.43766 5.4285 2.34511C6.29683 2.25103 7.42091 2.25 9 2.25V0.75ZM2.25 9C2.25 7.42091 2.25103 6.29683 2.34511 5.4285C2.43766 4.57421 2.61301 4.05688 2.90253 3.6584L1.689 2.77672C1.18275 3.47352 0.960218 4.28502 0.853834 5.26693C0.748971 6.23481 0.75 7.45432 0.75 9H2.25ZM2.77672 1.689C2.35932 1.99226 1.99226 2.35932 1.689 2.77672L2.90253 3.6584C3.11326 3.36834 3.36834 3.11326 3.6584 2.90253L2.77672 1.689ZM8.25 8.16667V13.1667H9.75V8.16667H8.25Z" fill="currentColor"/>
<path d="M9.83317 5.66732C9.83317 6.12755 9.46007 6.50065 8.99984 6.50065C8.5396 6.50065 8.1665 6.12755 8.1665 5.66732C8.1665 5.20708 8.5396 4.83398 8.99984 4.83398C9.46007 4.83398 9.83317 5.20708 9.83317 5.66732Z" fill="currentColor"/>
</svg>
