<svg viewBox="0 0 20 20" fill="none" xmlns="http://www.w3.org/2000/svg">
<path d="M6.66667 14.9168C7.08088 14.9168 7.41667 14.581 7.41667 14.1668C7.41667 13.7526 7.08088 13.4168 6.66667 13.4168V14.9168ZM13.3333 13.4168C12.9191 13.4168 12.5833 13.7526 12.5833 14.1668C12.5833 14.581 12.9191 14.9168 13.3333 14.9168V13.4168ZM13.3333 5.0835C12.9191 5.0835 12.5833 5.41928 12.5833 5.8335C12.5833 6.24771 12.9191 6.5835 13.3333 6.5835V5.0835ZM6.66667 6.5835C7.08088 6.5835 7.41667 6.24771 7.41667 5.8335C7.41667 5.41928 7.08088 5.0835 6.66667 5.0835V6.5835ZM6.66667 9.25016C6.25245 9.25016 5.91667 9.58595 5.91667 10.0002C5.91667 10.4144 6.25245 10.7502 6.66667 10.7502V9.25016ZM13.3333 10.7502C13.7475 10.7502 14.0833 10.4144 14.0833 10.0002C14.0833 9.58595 13.7475 9.25016 13.3333 9.25016V10.7502ZM6.66667 13.4168C4.77969 13.4168 3.25 11.8871 3.25 10.0002H1.75C1.75 12.7156 3.95127 14.9168 6.66667 14.9168V13.4168ZM16.75 10.0002C16.75 11.8871 15.2203 13.4168 13.3333 13.4168V14.9168C16.0487 14.9168 18.25 12.7156 18.25 10.0002H16.75ZM13.3333 6.5835C15.2203 6.5835 16.75 8.11319 16.75 10.0002H18.25C18.25 7.28476 16.0487 5.0835 13.3333 5.0835V6.5835ZM6.66667 5.0835C3.95127 5.0835 1.75 7.28476 1.75 10.0002H3.25C3.25 8.11319 4.77969 6.5835 6.66667 6.5835V5.0835ZM6.66667 10.7502H13.3333V9.25016H6.66667V10.7502Z" fill="currentColor"/>
</svg>
