<svg viewBox="0 0 24 24" fill="none" xmlns="http://www.w3.org/2000/svg">
<path d="M20.8322 13.682C20.8322 10.6613 18.3849 8.21552 15.3657 8.21552C12.3467 8.21552 9.90016 10.6613 9.90016 13.682C9.20382 13.682 8.63867 14.2469 8.63867 14.9435V19.1483C8.63867 19.8449 9.20382 20.4098 9.90016 20.4098H12.4231C12.6547 20.4098 12.8427 20.2218 12.8427 19.9895V17.0459C12.8427 16.5835 12.6744 15.8664 12.4675 15.4527L11.5822 13.682C11.5822 11.591 13.2749 9.89758 15.3659 9.89758C17.4552 9.89758 19.1504 11.591 19.1504 13.682L18.2651 15.4527C18.0582 15.8667 17.8889 16.5835 17.8889 17.0459V20.0864C17.137 20.5722 16.2609 20.8306 15.3657 20.8304H14.5248V22.0919H15.3657C16.9763 22.0919 18.4341 21.4488 19.5049 20.4098H20.8322C21.1668 20.4098 21.4876 20.2769 21.7242 20.0403C21.9608 19.8037 22.0937 19.4829 22.0937 19.1483V14.9435C22.0937 14.609 21.9608 14.2881 21.7242 14.0515C21.4876 13.8149 21.1668 13.682 20.8322 13.682Z" fill="currentColor"/>
<path d="M15.364 6.95403C15.6498 6.95403 15.9291 6.97774 16.2051 7.01231V3.59015C16.2051 2.66523 15.4477 1.90808 14.5231 1.90808H3.59027C2.6651 1.90808 1.9082 2.66523 1.9082 3.59015V8.63609C1.9082 9.56102 2.6651 10.3182 3.59027 10.3182V12.8411L7.79531 10.3182H9.54751C10.7126 8.31063 12.8804 6.95403 15.364 6.95403ZM12.0001 5.27196C12.1106 5.27186 12.2199 5.29354 12.322 5.33577C12.4241 5.37799 12.5168 5.43993 12.5949 5.51803C12.673 5.59614 12.735 5.68888 12.7772 5.79095C12.8194 5.89302 12.8411 6.00241 12.841 6.11287C12.841 6.27918 12.7917 6.44176 12.6993 6.58005C12.6069 6.71834 12.4756 6.82612 12.3219 6.88976C12.1682 6.95341 11.9992 6.97006 11.836 6.93762C11.6729 6.90517 11.5231 6.82508 11.4055 6.70748C11.2879 6.58988 11.2078 6.44004 11.1753 6.27692C11.1429 6.1138 11.1596 5.94472 11.2232 5.79107C11.2868 5.63741 11.3946 5.50608 11.5329 5.41368C11.6712 5.32128 11.8338 5.27196 12.0001 5.27196ZM6.11324 6.95403C5.89019 6.95403 5.67627 6.86542 5.51854 6.70769C5.36082 6.54997 5.27221 6.33605 5.27221 6.11299C5.27221 5.88994 5.36082 5.67602 5.51854 5.51829C5.67627 5.36057 5.89019 5.27196 6.11324 5.27196C6.3363 5.27196 6.55022 5.36057 6.70794 5.51829C6.86567 5.67602 6.95428 5.88994 6.95428 6.11299C6.95428 6.33605 6.86567 6.54997 6.70794 6.70769C6.55022 6.86542 6.3363 6.95403 6.11324 6.95403ZM8.21564 6.11312C8.21564 5.89006 8.30425 5.67614 8.46197 5.51842C8.61969 5.3607 8.83361 5.27209 9.05667 5.27209C9.27973 5.27209 9.49365 5.3607 9.65137 5.51842C9.80909 5.67614 9.8977 5.89006 9.8977 6.11312C9.8977 6.33618 9.80909 6.5501 9.65137 6.70782C9.49365 6.86555 9.27973 6.95415 9.05667 6.95415C8.83361 6.95415 8.61969 6.86555 8.46197 6.70782C8.30425 6.5501 8.21564 6.33618 8.21564 6.11312Z" fill="currentColor"/>
</svg>
