<svg viewBox="0 0 24 24" fill="none" xmlns="http://www.w3.org/2000/svg">
<path fill-rule="evenodd" clip-rule="evenodd" d="M6 1.25C3.37665 1.25 1.25 3.37665 1.25 6V18C1.25 20.6234 3.37665 22.75 6 22.75H18C20.6234 22.75 22.75 20.6234 22.75 18V6C22.75 3.37665 20.6234 1.25 18 1.25H6ZM12 10.25C11.0335 10.25 10.25 11.0335 10.25 12C10.25 12.9665 11.0335 13.75 12 13.75C12.9665 13.75 13.75 12.9665 13.75 12C13.75 11.0335 12.9665 10.25 12 10.25ZM8.75 12C8.75 10.2051 10.2051 8.75 12 8.75C13.7949 8.75 15.25 10.2051 15.25 12C15.25 13.7949 13.7949 15.25 12 15.25C10.2051 15.25 8.75 13.7949 8.75 12ZM8.27186 8.54571C8.57324 8.26156 8.58721 7.78689 8.30306 7.4855C8.01892 7.18412 7.54425 7.17015 7.24286 7.45429C4.58571 9.95948 4.58571 14.0405 7.24286 16.5457C7.54425 16.8299 8.01892 16.8159 8.30306 16.5145C8.58721 16.2131 8.57324 15.7384 8.27186 15.4543C6.24271 13.5412 6.24271 10.4588 8.27186 8.54571ZM16.7571 7.45429C16.4558 7.17015 15.9811 7.18412 15.6969 7.4855C15.4128 7.78689 15.4268 8.26156 15.7281 8.54571C17.7573 10.4588 17.7573 13.5412 15.7281 15.4543C15.4268 15.7384 15.4128 16.2131 15.6969 16.5145C15.9811 16.8159 16.4558 16.8299 16.7571 16.5457C19.4143 14.0405 19.4143 9.95948 16.7571 7.45429Z" fill="currentColor"/>
</svg>
