<svg viewBox="0 0 24 25" fill="none" xmlns="http://www.w3.org/2000/svg">
<path d="M6.29318 5.34642C3.62636 7.28397 2.29295 8.25275 1.76925 9.68377C1.72724 9.79857 1.68945 9.91486 1.65596 10.0324C1.23852 11.498 1.74783 13.0655 2.76647 16.2005C3.7851 19.3356 4.29442 20.9031 5.49356 21.8433C5.58976 21.9188 5.68869 21.9907 5.79015 22.0588C6.2168 22.3455 6.68707 22.5355 7.24951 22.6614V18.2005C7.24951 15.5772 9.37616 13.4505 11.9995 13.4505C14.6229 13.4505 16.7495 15.5772 16.7495 18.2005V22.6614C17.312 22.5355 17.7822 22.3455 18.2089 22.0588C18.3103 21.9907 18.4093 21.9188 18.5055 21.8433C19.7046 20.9031 20.2139 19.3356 21.2326 16.2005C22.2512 13.0655 22.7605 11.498 22.3431 10.0324C22.3096 9.91486 22.2718 9.79857 22.2298 9.68377C21.7061 8.25275 20.3727 7.28398 17.7059 5.34643C15.0391 3.40887 13.7056 2.44008 12.1828 2.38422C12.0607 2.37974 11.9384 2.37974 11.8162 2.38422C10.2934 2.44008 8.95999 3.40886 6.29318 5.34642Z" fill="currentColor"/>
<path fill-rule="evenodd" clip-rule="evenodd" d="M15.2495 22.854V18.2005C15.2495 16.4056 13.7944 14.9505 11.9995 14.9505C10.2046 14.9505 8.74951 16.4056 8.74951 18.2005V22.854C9.62247 22.9087 10.6787 22.9087 11.9995 22.9087C13.3203 22.9087 14.3766 22.9087 15.2495 22.854ZM12.7495 18.2005C12.7495 17.7863 12.4137 17.4505 11.9995 17.4505C11.5853 17.4505 11.2495 17.7863 11.2495 18.2005V20.2005C11.2495 20.6147 11.5853 20.9505 11.9995 20.9505C12.4137 20.9505 12.7495 20.6147 12.7495 20.2005V18.2005Z" fill="currentColor"/>
</svg>
