<svg viewBox="0 0 24 25" fill="none" xmlns="http://www.w3.org/2000/svg">
<path d="M10.75 13.3809C10.75 12.6905 11.3096 12.1309 12 12.1309C12.6904 12.1309 13.25 12.6905 13.25 13.3809C13.25 14.0712 12.6904 14.6309 12 14.6309C11.3096 14.6309 10.75 14.0712 10.75 13.3809Z" fill="currentColor"/>
<path fill-rule="evenodd" clip-rule="evenodd" d="M12 1.63086C8.82436 1.63086 6.25 4.20522 6.25 7.38086V8.49458C6.25 8.56138 6.25873 8.62615 6.27512 8.68779C4.83903 9.21548 3.71966 10.374 3.24472 11.8358C3 12.5889 3 13.5196 3 15.3809C3 17.2421 3 18.1728 3.24472 18.9259C3.73931 20.4481 4.93273 21.6416 6.45492 22.1361C7.20808 22.3809 8.13871 22.3809 9.99998 22.3809H14C15.8613 22.3809 16.7919 22.3809 17.5451 22.1361C19.0673 21.6416 20.2607 20.4481 20.7553 18.9259C21 18.1728 21 17.2421 21 15.3809C21 13.5196 21 12.5889 20.7553 11.8358C20.2803 10.374 19.161 9.21548 17.7249 8.68779C17.7413 8.62615 17.75 8.56138 17.75 8.49458V7.38086C17.75 4.20522 15.1756 1.63086 12 1.63086ZM14 8.38086C14.9653 8.38086 15.6803 8.38086 16.25 8.41499V7.38086C16.25 5.03365 14.3472 3.13086 12 3.13086C9.65279 3.13086 7.75 5.03365 7.75 7.38086V8.41499C8.31973 8.38086 9.03471 8.38086 10 8.38086H14ZM9.25 13.3809C9.25 11.8621 10.4812 10.6309 12 10.6309C13.5188 10.6309 14.75 11.8621 14.75 13.3809C14.75 14.6396 13.9043 15.7009 12.75 16.0273V19.3809C12.75 19.7951 12.4142 20.1309 12 20.1309C11.5858 20.1309 11.25 19.7951 11.25 19.3809V16.0273C10.0957 15.7009 9.25 14.6396 9.25 13.3809Z" fill="currentColor"/>
</svg>
