<svg viewBox="0 0 24 25" fill="none" xmlns="http://www.w3.org/2000/svg">
<path d="M10 21.3809V20.6309V21.3809ZM9 21.3809V22.1309V21.3809ZM3 15.3809H3.75H3ZM3 9.38086H2.25H3ZM9 3.38086V2.63086V3.38086ZM10 3.38086V4.13086V3.38086ZM3.06156 7.59869L2.32079 7.48136L2.32079 7.48136L3.06156 7.59869ZM7.21783 3.44242L7.33515 4.18318L7.21783 3.44242ZM7.21783 21.3193L7.1005 22.0601H7.1005L7.21783 21.3193ZM3.06156 17.163L2.32079 17.2804L2.32079 17.2804L3.06156 17.163ZM13.4504 20.9809C13.7816 20.7321 13.8484 20.262 13.5997 19.9308C13.3509 19.5996 12.8808 19.5328 12.5496 19.7816L13.4504 20.9809ZM12.5496 4.98017C12.8808 5.22894 13.3509 5.16212 13.5997 4.83093C13.8484 4.49974 13.7816 4.02959 13.4504 3.78082L12.5496 4.98017ZM7 11.6309C6.58579 11.6309 6.25 11.9666 6.25 12.3809C6.25 12.7951 6.58579 13.1309 7 13.1309V11.6309ZM20 12.3809V13.1309V12.3809ZM17.466 7.79318C17.1414 7.53583 16.6697 7.59032 16.4123 7.91489C16.155 8.23946 16.2095 8.71119 16.534 8.96854L17.466 7.79318ZM18.763 9.77871L19.2289 9.19102L18.763 9.77871ZM18.763 14.983L19.2289 15.5707L18.763 14.983ZM16.534 15.7932C16.2095 16.0505 16.155 16.5223 16.4123 16.8468C16.6697 17.1714 17.1414 17.2259 17.466 16.9685L16.534 15.7932ZM20.9801 12.1302L21.7208 12.0122V12.0122L20.9801 12.1302ZM20.9801 12.6315L21.7208 12.7495V12.7495L20.9801 12.6315ZM21 12.3809H21.75H21ZM10 20.6309H9V22.1309H10V20.6309ZM3.75 15.3809L3.75 9.38086H2.25L2.25 15.3809H3.75ZM9 4.13086L10 4.13086V2.63086L9 2.63086V4.13086ZM3.75 9.38086C3.75 8.42319 3.75233 8.03168 3.80232 7.71601L2.32079 7.48136C2.24767 7.94302 2.25 8.48051 2.25 9.38086H3.75ZM9 2.63086C8.09966 2.63086 7.56216 2.62853 7.1005 2.70165L7.33515 4.18318C7.65082 4.13319 8.04233 4.13086 9 4.13086V2.63086ZM3.80232 7.71601C4.09035 5.89747 5.51661 4.47121 7.33515 4.18318L7.1005 2.70165C4.64012 3.09134 2.71048 5.02098 2.32079 7.48136L3.80232 7.71601ZM9 20.6309C8.04233 20.6309 7.65082 20.6285 7.33515 20.5785L7.1005 22.0601C7.56216 22.1332 8.09965 22.1309 9 22.1309V20.6309ZM2.25 15.3809C2.25 16.2812 2.24767 16.8187 2.32079 17.2804L3.80232 17.0457C3.75233 16.73 3.75 16.3385 3.75 15.3809H2.25ZM7.33515 20.5785C5.51661 20.2905 4.09035 18.8642 3.80232 17.0457L2.32079 17.2804C2.71048 19.7407 4.64012 21.6704 7.1005 22.0601L7.33515 20.5785ZM10 22.1309C11.2936 22.1309 12.4894 21.7028 13.4504 20.9809L12.5496 19.7816C11.8393 20.315 10.9576 20.6309 10 20.6309V22.1309ZM10 4.13086C10.9576 4.13086 11.8393 4.44669 12.5496 4.98017L13.4504 3.78082C12.4894 3.05892 11.2936 2.63086 10 2.63086V4.13086ZM7 13.1309L20 13.1309V11.6309L7 11.6309V13.1309ZM16.534 8.96854L18.297 10.3664L19.2289 9.19102L17.466 7.79318L16.534 8.96854ZM18.297 14.3953L16.534 15.7932L17.466 16.9685L19.2289 15.5707L18.297 14.3953ZM18.297 10.3664C19.0143 10.9352 19.5012 11.3226 19.8289 11.6491C20.1532 11.9722 20.2225 12.142 20.2395 12.2482L21.7208 12.0122C21.6294 11.439 21.2932 10.9905 20.8875 10.5864C20.4852 10.1856 19.9176 9.73702 19.2289 9.19102L18.297 10.3664ZM19.2289 15.5707C19.9175 15.0247 20.4852 14.5761 20.8875 14.1753C21.2932 13.7712 21.6294 13.3227 21.7208 12.7495L20.2395 12.5135C20.2225 12.6197 20.1532 12.7895 19.8289 13.1126C19.5012 13.4391 19.0143 13.8266 18.297 14.3953L19.2289 15.5707ZM20.2395 12.2482C20.2465 12.2925 20.25 12.3368 20.25 12.3809H21.75C21.75 12.2575 21.7402 12.1343 21.7208 12.0122L20.2395 12.2482ZM20.25 12.3809C20.25 12.4249 20.2465 12.4692 20.2395 12.5135L21.7208 12.7495C21.7402 12.6274 21.75 12.5042 21.75 12.3809H20.25ZM20 13.1309H21V11.6309H20V13.1309Z" fill="currentColor"/>
</svg>
