<svg viewBox="0 0 32 32" fill="none" xmlns="http://www.w3.org/2000/svg">
<path d="M32 16C32 23.8348 26.3686 30.3543 18.9322 31.7316C17.9651 31.9107 16.9836 32.0005 16 32C14.8989 32 13.824 31.889 12.7856 31.6768C5.48963 30.1891 0 23.7355 0 16C0 11.7349 1.66925 7.85831 4.3905 4.99069C4.54797 4.82432 4.70909 4.66144 4.87375 4.50219C7.75313 1.71494 11.6761 0 16 0C20.3239 0 24.2469 1.71494 27.1262 4.50219C27.1941 4.56771 27.2614 4.63388 27.328 4.70069C30.2152 7.59444 32 11.5893 32 16Z" fill="#4182C3"/>
<path fill-rule="evenodd" clip-rule="evenodd" d="M11.3367 25.0102L12.2577 17.7557L8.37829 19.0021L7.6377 16.6971L12.594 15.1043L13.6241 6.99023H16.0378L15.082 14.3049L19.1483 12.9984L19.889 15.3034L14.7347 16.9595L13.9989 22.5892H24.3625L24.0742 25.0102H11.3367Z" fill="white"/>
</svg>
