<svg viewBox="0 0 30 30" fill="none" xmlns="http://www.w3.org/2000/svg">
<path d="M7.5 15C7.5 16.3807 6.38071 17.5 5 17.5C3.61929 17.5 2.5 16.3807 2.5 15C2.5 13.6193 3.61929 12.5 5 12.5C6.38071 12.5 7.5 13.6193 7.5 15Z" fill="url(#linear)"/>
<path d="M17.5 15C17.5 16.3807 16.3807 17.5 15 17.5C13.6193 17.5 12.5 16.3807 12.5 15C12.5 13.6193 13.6193 12.5 15 12.5C16.3807 12.5 17.5 13.6193 17.5 15Z" fill="url(#linear)"/>
<path d="M27.5 15C27.5 16.3807 26.3807 17.5 25 17.5C23.6193 17.5 22.5 16.3807 22.5 15C22.5 13.6193 23.6193 12.5 25 12.5C26.3807 12.5 27.5 13.6193 27.5 15Z" fill="url(#linear)"/>
<path d="M7.5 5C7.5 6.38071 6.38071 7.5 5 7.5C3.61929 7.5 2.5 6.38071 2.5 5C2.5 3.61929 3.61929 2.5 5 2.5C6.38071 2.5 7.5 3.61929 7.5 5Z" fill="url(#linear)"/>
<path d="M17.5 5C17.5 6.38071 16.3807 7.5 15 7.5C13.6193 7.5 12.5 6.38071 12.5 5C12.5 3.61929 13.6193 2.5 15 2.5C16.3807 2.5 17.5 3.61929 17.5 5Z" fill="url(#linear)"/>
<path d="M27.5 5C27.5 6.38071 26.3807 7.5 25 7.5C23.6193 7.5 22.5 6.38071 22.5 5C22.5 3.61929 23.6193 2.5 25 2.5C26.3807 2.5 27.5 3.61929 27.5 5Z" fill="url(#linear)"/>
<path d="M7.5 25C7.5 26.3807 6.38071 27.5 5 27.5C3.61929 27.5 2.5 26.3807 2.5 25C2.5 23.6193 3.61929 22.5 5 22.5C6.38071 22.5 7.5 23.6193 7.5 25Z" fill="url(#linear)"/>
<path d="M17.5 25C17.5 26.3807 16.3807 27.5 15 27.5C13.6193 27.5 12.5 26.3807 12.5 25C12.5 23.6193 13.6193 22.5 15 22.5C16.3807 22.5 17.5 23.6193 17.5 25Z" fill="url(#linear)"/>
<path d="M27.5 25C27.5 26.3807 26.3807 27.5 25 27.5C23.6193 27.5 22.5 26.3807 22.5 25C22.5 23.6193 23.6193 22.5 25 22.5C26.3807 22.5 27.5 23.6193 27.5 25Z" fill="url(#linear)"/>
<defs>
<linearGradient id="linear" x1="15" y1="2.5" x2="15" y2="27.5" gradientUnits="userSpaceOnUse">
<stop stop-color="#0DB1A0"/>
<stop offset="1" stop-color="#026056"/>
</linearGradient>
</defs>
</svg>
