<svg viewBox="0 0 16 16" fill="none" xmlns="http://www.w3.org/2000/svg">
<path fill-rule="evenodd" clip-rule="evenodd" d="M2.07182 10.6182C0.461035 8.01162 1.77038 4.80007 3.28481 3.28563C5.88831 0.682134 10.1094 0.682134 12.7129 3.28563C15.3164 5.88913 15.3164 10.1102 12.7129 12.7137C11.134 14.2926 7.98094 15.5435 5.38006 13.9272C5.23604 13.8377 5.16401 13.7929 5.10904 13.7711C5.00427 13.7293 4.92382 13.7171 4.81138 13.7257C4.75239 13.7302 4.68576 13.7475 4.55252 13.782C3.71399 13.9994 3.29465 14.1081 2.9926 14.0466C2.46835 13.9399 2.05864 13.5302 1.95195 13.0059C1.89048 12.7039 1.99915 12.2846 2.21649 11.4461C2.25103 11.3128 2.2683 11.2462 2.27284 11.1874C2.28153 11.075 2.26951 10.9954 2.22799 10.8906C2.20628 10.8357 2.16146 10.7632 2.07182 10.6182ZM8.09359 6.07159C8.36973 6.07159 8.59359 6.29545 8.59359 6.57159C8.59359 6.84774 8.36973 7.07159 8.09359 7.07159H5.42692C5.15078 7.0716 4.92692 6.84774 4.92692 6.57159C4.92692 6.29545 5.15078 6.07159 5.42692 6.07159L8.09359 6.07159ZM10.7603 8.73826C11.0364 8.73826 11.2603 8.96212 11.2603 9.23826C11.2603 9.5144 11.0364 9.73826 10.7603 9.73826H5.42692C5.15078 9.73826 4.92692 9.5144 4.92692 9.23826C4.92692 8.96212 5.15078 8.73826 5.42692 8.73826H10.7603Z" fill="currentColor"/>
</svg>
