<svg viewBox="0 0 18 18" fill="none" xmlns="http://www.w3.org/2000/svg">
<path d="M1.5 9C1.5 5.87522 1.5 4.31283 2.29576 3.21756C2.55276 2.86383 2.86383 2.55276 3.21756 2.29576C4.31283 1.5 5.87522 1.5 9 1.5C12.1248 1.5 13.6872 1.5 14.7824 2.29576C15.1362 2.55276 15.4472 2.86383 15.7042 3.21756C16.5 4.31283 16.5 5.87522 16.5 9C16.5 12.1248 16.5 13.6872 15.7042 14.7824C15.4472 15.1362 15.1362 15.4472 14.7824 15.7042C13.6872 16.5 12.1248 16.5 9 16.5C5.87522 16.5 4.31283 16.5 3.21756 15.7042C2.86383 15.4472 2.55276 15.1362 2.29576 14.7824C1.5 13.6872 1.5 12.1248 1.5 9Z" stroke="currentColor" stroke-width="1.5"/>
<path d="M6.50016 9.00033C6.50016 9.46056 6.12707 9.83366 5.66683 9.83366C5.20659 9.83366 4.8335 9.46056 4.8335 9.00033C4.8335 8.54009 5.20659 8.16699 5.66683 8.16699C6.12707 8.16699 6.50016 8.54009 6.50016 9.00033Z" fill="currentColor"/>
<path d="M9.8335 9.00033C9.8335 9.46056 9.4604 9.83366 9.00016 9.83366C8.53993 9.83366 8.16683 9.46056 8.16683 9.00033C8.16683 8.54009 8.53993 8.16699 9.00016 8.16699C9.4604 8.16699 9.8335 8.54009 9.8335 9.00033Z" fill="currentColor"/>
<path d="M13.1668 9.00033C13.1668 9.46056 12.7937 9.83366 12.3335 9.83366C11.8733 9.83366 11.5002 9.46056 11.5002 9.00033C11.5002 8.54009 11.8733 8.16699 12.3335 8.16699C12.7937 8.16699 13.1668 8.54009 13.1668 9.00033Z" fill="currentColor"/>
</svg>
