<svg viewBox="0 0 15 16" fill="none" xmlns="http://www.w3.org/2000/svg">
<path d="M3.49967 7.99992C3.49967 8.7363 2.90272 9.33325 2.16634 9.33325C1.42996 9.33325 0.833008 8.7363 0.833008 7.99992C0.833008 7.26354 1.42996 6.66658 2.16634 6.66658C2.90272 6.66658 3.49967 7.26354 3.49967 7.99992Z" stroke="currentColor"/>
<path d="M8.83301 7.99992C8.83301 8.7363 8.23606 9.33325 7.49968 9.33325C6.7633 9.33325 6.16634 8.7363 6.16634 7.99992C6.16634 7.26354 6.7633 6.66659 7.49968 6.66659C8.23606 6.66659 8.83301 7.26354 8.83301 7.99992Z" stroke="currentColor"/>
<path d="M14.1663 7.99992C14.1663 8.7363 13.5694 9.33325 12.833 9.33325C12.0966 9.33325 11.4997 8.7363 11.4997 7.99992C11.4997 7.26354 12.0966 6.66659 12.833 6.66659C13.5694 6.66659 14.1663 7.26354 14.1663 7.99992Z" stroke="currentColor"/>
<path d="M3.49967 2.66659C3.49967 3.40297 2.90272 3.99992 2.16634 3.99992C1.42996 3.99992 0.833008 3.40297 0.833008 2.66659C0.833008 1.93021 1.42996 1.33325 2.16634 1.33325C2.90272 1.33325 3.49967 1.93021 3.49967 2.66659Z" stroke="currentColor"/>
<path d="M8.83301 2.66659C8.83301 3.40297 8.23606 3.99992 7.49968 3.99992C6.7633 3.99992 6.16635 3.40297 6.16635 2.66659C6.16635 1.93021 6.7633 1.33325 7.49968 1.33325C8.23606 1.33325 8.83301 1.93021 8.83301 2.66659Z" stroke="currentColor"/>
<path d="M14.1663 2.66659C14.1663 3.40297 13.5694 3.99992 12.833 3.99992C12.0966 3.99992 11.4997 3.40297 11.4997 2.66659C11.4997 1.93021 12.0966 1.33325 12.833 1.33325C13.5694 1.33325 14.1663 1.93021 14.1663 2.66659Z" stroke="currentColor"/>
<path d="M3.49967 13.3333C3.49967 14.0696 2.90272 14.6666 2.16634 14.6666C1.42996 14.6666 0.833008 14.0696 0.833008 13.3333C0.833008 12.5969 1.42996 11.9999 2.16634 11.9999C2.90272 11.9999 3.49967 12.5969 3.49967 13.3333Z" stroke="currentColor"/>
<path d="M8.83301 13.3333C8.83301 14.0696 8.23606 14.6666 7.49968 14.6666C6.7633 14.6666 6.16635 14.0696 6.16635 13.3333C6.16635 12.5969 6.7633 11.9999 7.49968 11.9999C8.23606 11.9999 8.83301 12.5969 8.83301 13.3333Z" stroke="currentColor"/>
<path d="M14.1663 13.3333C14.1663 14.0696 13.5694 14.6666 12.833 14.6666C12.0966 14.6666 11.4997 14.0696 11.4997 13.3333C11.4997 12.5969 12.0966 11.9999 12.833 11.9999C13.5694 11.9999 14.1663 12.5969 14.1663 13.3333Z" stroke="currentColor"/>
</svg>
