<svg viewBox="0 0 16 16" fill="none" xmlns="http://www.w3.org/2000/svg">
<path d="M5.65349 2.28822C6.71204 0.454761 9.05646 -0.173425 10.8899 0.88512C12.7234 1.94367 13.3516 4.2881 12.293 6.12155L12.2209 6.24642C13.0758 7.66646 13.2208 9.45727 12.5012 11.0454C12.3964 11.2768 12.2497 11.5308 11.996 11.9702L11.9699 12.0155C11.9396 12.068 11.9082 12.1226 11.8742 12.17C11.55 12.6224 10.9513 12.7828 10.4444 12.5531C10.3912 12.529 10.3368 12.4975 10.2843 12.4672L6.15674 10.0841L3.74007 14.2699C3.602 14.5091 3.2962 14.591 3.05706 14.4529C2.81791 14.3149 2.73597 14.0091 2.87404 13.7699L5.29071 9.58413L1.16319 7.20111C1.11066 7.17083 1.05612 7.1394 1.0087 7.10542C0.556278 6.78122 0.395874 6.18258 0.625581 5.6756C0.649659 5.62246 0.681174 5.56797 0.711529 5.51548L0.737619 5.47031C0.991363 5.03079 1.13801 4.77678 1.28598 4.57028C2.30135 3.15334 3.92429 2.38354 5.58115 2.41351L5.65349 2.28822Z" fill="currentColor"/>
</svg>
