<svg viewBox="0 0 24 25" fill="none" xmlns="http://www.w3.org/2000/svg">
<path d="M15.0733 5.5874C13.3412 4.59981 11.9958 3.83269 10.9031 3.33504C9.80638 2.83552 8.85435 2.55343 7.92862 2.64951C6.45941 2.80202 5.1219 3.56328 4.25027 4.74807C3.69972 5.49643 3.47048 6.45694 3.36002 7.64607C3.24999 8.83045 3.25 10.3655 3.25 12.3397V12.422C3.24999 14.3962 3.24999 15.9312 3.36002 17.1156C3.47048 18.3047 3.69972 19.2652 4.25027 20.0136C5.1219 21.1984 6.45941 21.9597 7.92862 22.1122C8.85435 22.2083 9.80638 21.9262 10.9031 21.4266C11.9958 20.929 13.3412 20.1619 15.0732 19.1743L15.1435 19.1342C16.8755 18.1467 18.2209 17.3796 19.2038 16.6938C20.1894 16.006 20.916 15.3311 21.297 14.4861C21.901 13.1462 21.901 11.6155 21.297 10.2756C20.916 9.43055 20.1894 8.75563 19.2038 8.06789C18.2209 7.38212 16.8755 6.61498 15.1435 5.62747L15.0733 5.5874Z" fill="currentColor"/>
</svg>
