<svg viewBox="0 0 18 18" fill="none" xmlns="http://www.w3.org/2000/svg">
<path d="M10.1842 6.73263C11.3932 7.4767 11.9977 7.84873 12.2006 8.33444C12.3776 8.7581 12.3776 9.2419 12.2006 9.66556C11.9977 10.1513 11.3932 10.5233 10.1842 11.2674C8.97519 12.0114 8.37068 12.3835 7.87463 12.3279C7.44195 12.2794 7.0489 12.0375 6.79318 11.6623C6.5 11.2322 6.5 10.4881 6.5 9C6.5 7.51186 6.5 6.76779 6.79318 6.33766C7.0489 5.96247 7.44195 5.72057 7.87463 5.6721C8.37068 5.61652 8.97519 5.98856 10.1842 6.73263Z" stroke="currentColor" stroke-width="1.5"/>
<path d="M1.5 9C1.5 5.87522 1.5 4.31283 2.29576 3.21756C2.55276 2.86383 2.86383 2.55276 3.21756 2.29576C4.31283 1.5 5.87522 1.5 9 1.5C12.1248 1.5 13.6872 1.5 14.7824 2.29576C15.1362 2.55276 15.4472 2.86383 15.7042 3.21756C16.5 4.31283 16.5 5.87522 16.5 9C16.5 12.1248 16.5 13.6872 15.7042 14.7824C15.4472 15.1362 15.1362 15.4472 14.7824 15.7042C13.6872 16.5 12.1248 16.5 9 16.5C5.87522 16.5 4.31283 16.5 3.21756 15.7042C2.86383 15.4472 2.55276 15.1362 2.29576 14.7824C1.5 13.6872 1.5 12.1248 1.5 9Z" stroke="currentColor" stroke-width="1.5"/>
</svg>
