<svg viewBox="0 0 24 25" fill="none" xmlns="http://www.w3.org/2000/svg">
<path d="M16 10.6309C15.5858 10.6309 15.25 10.9666 15.25 11.3809C15.25 11.7951 15.5858 12.1309 16 12.1309V10.6309ZM22 12.1309C22.4142 12.1309 22.75 11.7951 22.75 11.3809C22.75 10.9666 22.4142 10.6309 22 10.6309V12.1309ZM18.25 14.3809C18.25 14.7951 18.5858 15.1309 19 15.1309C19.4142 15.1309 19.75 14.7951 19.75 14.3809H18.25ZM19.75 8.38086C19.75 7.96665 19.4142 7.63086 19 7.63086C18.5858 7.63086 18.25 7.96665 18.25 8.38086H19.75ZM12.25 6.38086C12.25 8.17579 10.7949 9.63086 9 9.63086V11.1309C11.6234 11.1309 13.75 9.00421 13.75 6.38086H12.25ZM9 9.63086C7.20507 9.63086 5.75 8.17579 5.75 6.38086H4.25C4.25 9.00421 6.37665 11.1309 9 11.1309V9.63086ZM5.75 6.38086C5.75 4.58593 7.20507 3.13086 9 3.13086V1.63086C6.37665 1.63086 4.25 3.75751 4.25 6.38086H5.75ZM9 3.13086C10.7949 3.13086 12.25 4.58593 12.25 6.38086H13.75C13.75 3.75751 11.6234 1.63086 9 1.63086V3.13086ZM6 14.1309H12V12.6309H6V14.1309ZM12 20.6309H6V22.1309H12V20.6309ZM6 20.6309C4.20507 20.6309 2.75 19.1758 2.75 17.3809H1.25C1.25 20.0042 3.37665 22.1309 6 22.1309V20.6309ZM15.25 17.3809C15.25 19.1758 13.7949 20.6309 12 20.6309V22.1309C14.6234 22.1309 16.75 20.0042 16.75 17.3809H15.25ZM12 14.1309C13.7949 14.1309 15.25 15.5859 15.25 17.3809H16.75C16.75 14.7575 14.6234 12.6309 12 12.6309V14.1309ZM6 12.6309C3.37665 12.6309 1.25 14.7575 1.25 17.3809H2.75C2.75 15.5859 4.20507 14.1309 6 14.1309V12.6309ZM16 12.1309H22V10.6309H16V12.1309ZM19.75 14.3809V11.3809H18.25V14.3809H19.75ZM19.75 11.3809V8.38086H18.25V11.3809H19.75Z" fill="currentColor"/>
</svg>
