<svg viewBox="0 0 24 25" fill="none" xmlns="http://www.w3.org/2000/svg">
<path d="M5.06107 20.4259L4.62023 21.0327L5.06107 20.4259ZM3.95491 19.3198L3.34815 19.7606H3.34815L3.95491 19.3198ZM20.0451 19.3198L19.4383 18.8789L20.0451 19.3198ZM18.9389 20.4259L18.4981 19.8192L18.9389 20.4259ZM18.9389 4.33577L18.4981 4.94254L18.9389 4.33577ZM20.0451 5.44193L19.4383 5.88277L20.0451 5.44193ZM5.06107 4.33577L5.50191 4.94254L5.06107 4.33577ZM3.95491 5.44193L4.56168 5.88277L3.95491 5.44193ZM5.00344 20.2134L4.25408 20.1825L4.25344 20.1979V20.2134H5.00344ZM18.9905 20.1034L19.7401 20.0778L19.7396 20.0649L19.7388 20.0521L18.9905 20.1034ZM15.25 9.38086C15.25 11.1758 13.7949 12.6309 12 12.6309V14.1309C14.6234 14.1309 16.75 12.0042 16.75 9.38086H15.25ZM12 12.6309C10.2051 12.6309 8.75 11.1758 8.75 9.38086H7.25C7.25 12.0042 9.37665 14.1309 12 14.1309V12.6309ZM8.75 9.38086C8.75 7.58593 10.2051 6.13086 12 6.13086V4.63086C9.37665 4.63086 7.25 6.75751 7.25 9.38086H8.75ZM12 6.13086C13.7949 6.13086 15.25 7.58593 15.25 9.38086H16.75C16.75 6.75751 14.6234 4.63086 12 4.63086V6.13086ZM12 20.6309C10.1084 20.6309 8.74999 20.6298 7.69804 20.5159C6.66013 20.4034 6.00992 20.1883 5.50191 19.8192L4.62023 21.0327C5.42656 21.6185 6.37094 21.8809 7.53648 22.0071C8.68798 22.1319 10.1418 22.1309 12 22.1309V20.6309ZM2.25 12.3809C2.25 14.239 2.24897 15.6929 2.37373 16.8444C2.50001 18.0099 2.76232 18.9543 3.34815 19.7606L4.56168 18.8789C4.19259 18.3709 3.97745 17.7207 3.865 16.6828C3.75103 15.6309 3.75 14.2724 3.75 12.3809H2.25ZM20.25 12.3809C20.25 14.2724 20.249 15.6309 20.135 16.6828C20.0225 17.7207 19.8074 18.3709 19.4383 18.8789L20.6518 19.7606C21.2377 18.9543 21.5 18.0099 21.6263 16.8444C21.751 15.6929 21.75 14.239 21.75 12.3809H20.25ZM12 22.1309C13.8582 22.1309 15.312 22.1319 16.4635 22.0071C17.6291 21.8809 18.5734 21.6185 19.3798 21.0327L18.4981 19.8192C17.9901 20.1883 17.3399 20.4034 16.302 20.5159C15.25 20.6298 13.8916 20.6309 12 20.6309V22.1309ZM12 4.13086C13.8916 4.13086 15.25 4.13189 16.302 4.24586C17.3399 4.35831 17.9901 4.57345 18.4981 4.94254L19.3798 3.72901C18.5734 3.14318 17.6291 2.88087 16.4635 2.75459C15.312 2.62983 13.8582 2.63086 12 2.63086V4.13086ZM21.75 12.3809C21.75 10.5227 21.751 9.06884 21.6263 7.91734C21.5 6.7518 21.2377 5.80742 20.6518 5.00109L19.4383 5.88277C19.8074 6.39078 20.0225 7.04099 20.135 8.0789C20.249 9.13085 20.25 10.4893 20.25 12.3809H21.75ZM18.4981 4.94254C18.8589 5.20468 19.1762 5.52197 19.4383 5.88277L20.6518 5.00109C20.2972 4.51295 19.8679 4.08367 19.3798 3.72901L18.4981 4.94254ZM12 2.63086C10.1418 2.63086 8.68798 2.62983 7.53648 2.75459C6.37094 2.88087 5.42656 3.14318 4.62023 3.72901L5.50191 4.94254C6.00992 4.57345 6.66013 4.35831 7.69804 4.24586C8.74999 4.13189 10.1084 4.13086 12 4.13086V2.63086ZM3.75 12.3809C3.75 10.4893 3.75103 9.13085 3.865 8.0789C3.97745 7.04099 4.19259 6.39078 4.56168 5.88277L3.34815 5.00109C2.76232 5.80742 2.50001 6.7518 2.37373 7.91734C2.24897 9.06884 2.25 10.5227 2.25 12.3809H3.75ZM4.62023 3.72901C4.13209 4.08367 3.70281 4.51295 3.34815 5.00109L4.56168 5.88277C4.82382 5.52197 5.14111 5.20468 5.50191 4.94254L4.62023 3.72901ZM9 17.1309H15V15.6309H9V17.1309ZM9 15.6309C6.4431 15.6309 4.35837 17.6508 4.25408 20.1825L5.75281 20.2442C5.82413 18.513 7.25085 17.1309 9 17.1309V15.6309ZM5.50191 19.8192C5.4855 19.8073 5.46917 19.7952 5.45293 19.7831L4.55396 20.9838C4.57592 21.0003 4.59801 21.0166 4.62023 21.0327L5.50191 19.8192ZM5.45293 19.7831C5.11235 19.5281 4.81189 19.2233 4.56168 18.8789L3.34815 19.7606C3.68667 20.2266 4.09317 20.6389 4.55396 20.9838L5.45293 19.7831ZM4.25344 20.2134V20.3834H5.75344V20.2134H4.25344ZM15 17.1309C16.7188 17.1309 18.1265 18.4656 18.2423 20.1546L19.7388 20.0521C19.5695 17.5817 17.5129 15.6309 15 15.6309V17.1309ZM19.4383 18.8789C19.1888 19.2223 18.8894 19.5263 18.55 19.7809L19.45 20.9809C19.9092 20.6365 20.3143 20.2252 20.6518 19.7606L19.4383 18.8789ZM18.55 19.7809C18.5328 19.7938 18.5155 19.8065 18.4981 19.8192L19.3798 21.0327C19.4033 21.0156 19.4267 20.9983 19.45 20.9809L18.55 19.7809ZM18.241 20.129L18.2504 20.4065L19.7496 20.3553L19.7401 20.0778L18.241 20.129Z" fill="currentColor"/>
</svg>
