<svg viewBox="0 0 20 20" fill="none" xmlns="http://www.w3.org/2000/svg">
<path d="M11.6666 11.5832C12.0809 11.5832 12.4166 11.2474 12.4166 10.8332C12.4166 10.419 12.0809 10.0832 11.6666 10.0832V11.5832ZM11.6666 18.2498C12.0809 18.2498 12.4166 17.9141 12.4166 17.4998C12.4166 17.0856 12.0809 16.7498 11.6666 16.7498V18.2498ZM12.5 13.4165C12.0858 13.4165 11.75 13.7523 11.75 14.1665C11.75 14.5807 12.0858 14.9165 12.5 14.9165V13.4165ZM17.5 14.9165C17.9142 14.9165 18.25 14.5807 18.25 14.1665C18.25 13.7523 17.9142 13.4165 17.5 13.4165V14.9165ZM14.25 16.6665C14.25 17.0807 14.5858 17.4165 15 17.4165C15.4142 17.4165 15.75 17.0807 15.75 16.6665H14.25ZM15.75 11.6665C15.75 11.2523 15.4142 10.9165 15 10.9165C14.5858 10.9165 14.25 11.2523 14.25 11.6665H15.75ZM12.5 4.99984H11.75C11.75 6.42657 10.5934 7.58317 9.16665 7.58317V8.33317V9.08317C11.4218 9.08317 13.25 7.255 13.25 4.99984H12.5ZM9.16665 8.33317V7.58317C7.73991 7.58317 6.58331 6.42657 6.58331 4.99984H5.83331H5.08331C5.08331 7.255 6.91148 9.08317 9.16665 9.08317V8.33317ZM5.83331 4.99984H6.58331C6.58331 3.5731 7.73991 2.4165 9.16665 2.4165V1.6665V0.916504C6.91148 0.916504 5.08331 2.74467 5.08331 4.99984H5.83331ZM9.16665 1.6665V2.4165C10.5934 2.4165 11.75 3.5731 11.75 4.99984H12.5H13.25C13.25 2.74467 11.4218 0.916504 9.16665 0.916504V1.6665ZM6.66665 10.8332V11.5832H11.6666V10.8332V10.0832H6.66665V10.8332ZM11.6666 17.4998V16.7498H6.66665V17.4998V18.2498H11.6666V17.4998ZM6.66665 17.4998V16.7498C5.23991 16.7498 4.08331 15.5932 4.08331 14.1665H3.33331H2.58331C2.58331 16.4217 4.41148 18.2498 6.66665 18.2498V17.4998ZM6.66665 10.8332V10.0832C4.41148 10.0832 2.58331 11.9113 2.58331 14.1665H3.33331H4.08331C4.08331 12.7398 5.23991 11.5832 6.66665 11.5832V10.8332ZM12.5 14.1665V14.9165H17.5V14.1665V13.4165H12.5V14.1665ZM15 16.6665H15.75V11.6665H15H14.25V16.6665H15Z" fill="currentColor"/>
</svg>
