<svg viewBox="0 0 24 25" fill="none" xmlns="http://www.w3.org/2000/svg">
<path fill-rule="evenodd" clip-rule="evenodd" d="M11.7148 1.41137C11.9048 1.40194 12.0951 1.40194 12.285 1.41137C13.0184 1.44778 13.6936 1.66087 14.4462 2.01015C15.1789 2.35017 16.0304 2.84175 17.1075 3.46366L17.1685 3.49887C18.2457 4.12077 19.0972 4.61236 19.758 5.0769C20.4368 5.55409 20.9589 6.03225 21.3571 6.64915C21.4603 6.80895 21.5555 6.97378 21.6423 7.14301C21.9774 7.79632 22.1305 8.48758 22.2043 9.31404C22.2762 10.1186 22.2762 11.1017 22.2762 12.3455V12.416C22.2762 13.6598 22.2762 14.643 22.2043 15.4476C22.1305 16.274 21.9774 16.9653 21.6423 17.6186C21.5555 17.7878 21.4603 17.9526 21.3571 18.1124C20.8719 18.8642 20.2005 19.412 19.2873 20.0006C18.708 20.3739 18.0018 20.7816 17.153 21.2717L17.1076 21.2979C16.0304 21.9198 15.179 22.4114 14.4462 22.7514C13.6936 23.1007 13.0184 23.3138 12.285 23.3502C12.0951 23.3596 11.9048 23.3596 11.7148 23.3502C10.9814 23.3138 10.3063 23.1007 9.5536 22.7514C8.82087 22.4114 7.96944 21.9198 6.89226 21.2979L6.84745 21.272C6.00655 20.7866 5.30574 20.3819 4.7297 20.0116C3.80768 19.4189 3.13094 18.8688 2.64268 18.1124C2.53952 17.9526 2.44436 17.7878 2.35755 17.6186C2.0224 16.9653 1.86936 16.274 1.79551 15.4476C1.72362 14.643 1.72363 13.6598 1.72363 12.416V12.3456C1.72363 11.1018 1.72362 10.1186 1.79551 9.31404C1.86936 8.48758 2.0224 7.79632 2.35755 7.14301C2.44437 6.97378 2.53952 6.80896 2.64268 6.64915C3.04089 6.03225 3.56301 5.55409 4.24182 5.0769C4.90266 4.61236 5.7541 4.12079 6.83127 3.49889L6.89228 3.46366C7.96945 2.84175 8.82088 2.35017 9.5536 2.01015C10.3063 1.66087 10.9814 1.44778 11.7148 1.41137ZM18.6083 18.6526C17.9636 17.3087 16.5901 16.3808 14.9999 16.3808H8.99991C7.40973 16.3808 6.03628 17.3087 5.39148 18.6526C5.4399 18.6846 5.48968 18.717 5.54085 18.7499C6.08339 19.0986 6.75368 19.4859 7.61177 19.9813C8.72616 20.6247 9.52009 21.0822 10.185 21.3908C10.8369 21.6933 11.3163 21.8286 11.7892 21.8521C11.9296 21.859 12.0702 21.859 12.2107 21.8521C12.6835 21.8286 13.1629 21.6933 13.8148 21.3908C14.4797 21.0822 15.2737 20.6247 16.3881 19.9813C17.2547 19.4809 17.9296 19.091 18.4747 18.7397C18.5204 18.7103 18.5649 18.6813 18.6083 18.6526ZM11.9999 4.6308C9.37653 4.6308 7.24988 6.75745 7.24988 9.3808C7.24988 12.0042 9.37653 14.1308 11.9999 14.1308C14.6232 14.1308 16.7499 12.0042 16.7499 9.3808C16.7499 6.75745 14.6232 4.6308 11.9999 4.6308Z" fill="currentColor"/>
</svg>
