<svg viewBox="0 0 24 24" fill="none" xmlns="http://www.w3.org/2000/svg">
<path fill-rule="evenodd" clip-rule="evenodd" d="M14.9409 4.02544C14.9409 5.85836 16.0162 7.07163 17.2621 8.42686L17.2627 8.42754C18.6518 9.94017 20.2266 11.655 20.2266 14.5313C20.2266 19.0673 16.536 22.8 12 22.8C7.464 22.8 3.77344 19.0673 3.77344 14.5313C3.77344 11.641 5.24793 9.01516 7.7167 7.50662C7.90271 7.39293 8.13077 7.38242 8.32543 7.47882C8.42116 7.52564 8.50349 7.59592 8.56476 7.68311C8.62603 7.77031 8.66424 7.87158 8.67584 7.97752C8.67955 8.00903 8.78957 8.84333 9.37231 8.85012C9.49221 8.86805 9.6399 8.80625 9.75052 8.69627C9.94703 8.50225 10.4031 7.76667 10.4031 5.51537C10.4031 1.99288 13.4603 1.20001 14.5312 1.20001C14.6253 1.20002 14.7181 1.22099 14.803 1.26141C14.8878 1.30182 14.9626 1.36067 15.0219 1.43365C15.0813 1.50657 15.1237 1.59186 15.146 1.68327C15.1682 1.77469 15.1697 1.86992 15.1504 1.962C15.1504 1.96224 15.1502 1.96302 15.15 1.96435C15.1389 2.01951 14.9409 3.00745 14.9409 4.02544ZM9.4689 11.3672C10.5157 11.3672 11.3673 12.2188 11.3673 13.2656C11.3673 14.3125 10.5157 15.1641 9.4689 15.1641C8.42206 15.1641 7.57046 14.3125 7.57046 13.2656C7.57046 12.2188 8.42206 11.3672 9.4689 11.3672ZM9.4689 12.6328C9.11975 12.6328 8.83608 12.9165 8.83608 13.2656C8.83608 13.6148 9.11975 13.8984 9.4689 13.8984C9.81804 13.8984 10.1017 13.6148 10.1017 13.2656C10.1017 12.9165 9.81804 12.6328 9.4689 12.6328ZM12.633 17.0625C12.633 16.0156 13.4846 15.1641 14.5314 15.1641C15.5783 15.1641 16.4298 16.0156 16.4298 17.0625C16.4298 18.1093 15.5782 18.9609 14.5314 18.9609C13.4846 18.9609 12.633 18.1093 12.633 17.0625ZM13.8986 17.0625C13.8986 17.4116 14.1823 17.6953 14.5314 17.6953C14.8805 17.6953 15.1642 17.4116 15.1642 17.0625C15.1642 16.7133 14.8805 16.4297 14.5314 16.4297C14.1823 16.4297 13.8986 16.7133 13.8986 17.0625ZM14.037 11.6045C14.2564 11.3338 14.6537 11.2881 14.9269 11.5056C15.1994 11.7244 15.2439 12.1223 15.0258 12.3955L9.96329 18.7236C9.74299 18.9971 9.34541 19.0398 9.07339 18.8225C8.80086 18.6037 8.75635 18.2058 8.9745 17.9326L14.037 11.6045Z" fill="currentColor"/>
</svg>
