<svg viewBox="0 0 20 20" fill="none" xmlns="http://www.w3.org/2000/svg">
<path d="M1.66645 10.0003L0.923989 10.1064L0.931234 10.1571L0.945308 10.2064L1.66645 10.0003ZM7.0192 4.50895L6.71459 5.19431L6.71459 5.19431L7.0192 4.50895ZM7.46168 4.70561L7.76629 4.02026L7.76629 4.02026L7.46168 4.70561ZM9.13455 5.34984L8.97881 6.0835L9.13455 5.34984ZM12.5379 4.70561L12.2333 4.02026L12.2333 4.02026L12.5379 4.70561ZM10.865 5.34984L11.0208 6.0835L10.865 5.34984ZM12.9664 14.6151L13.5973 14.2095L13.5973 14.2095L12.9664 14.6151ZM6.91202 14.8035L6.28114 14.3979L6.28114 14.3979L6.91202 14.8035ZM2.86829 14.2067L3.58943 14.0007L2.86829 14.2067ZM17.8252 13.5555L17.0828 13.4494L17.0828 13.4494L17.8252 13.5555ZM18.5195 8.6957L19.262 8.80176L19.262 8.80176L18.5195 8.6957ZM7.224 14.3182L7.85488 14.7238L7.85488 14.7238L7.224 14.3182ZM12.7756 14.3182L12.1447 14.7238L12.1447 14.7238L12.7756 14.3182ZM12.9804 4.50895L13.285 5.19431L13.285 5.19431L12.9804 4.50895ZM1.48007 8.6957L0.737613 8.80176L0.737613 8.80176L1.48007 8.6957ZM4.16645 8.41699C3.75224 8.41699 3.41645 8.75278 3.41645 9.16699C3.41645 9.58121 3.75224 9.91699 4.16645 9.91699V8.41699ZM7.49978 9.91699C7.914 9.91699 8.24978 9.58121 8.24978 9.16699C8.24978 8.75278 7.914 8.41699 7.49978 8.41699V9.91699ZM5.08312 10.8337C5.08312 11.2479 5.4189 11.5837 5.83312 11.5837C6.24733 11.5837 6.58312 11.2479 6.58312 10.8337H5.08312ZM6.58312 7.50033C6.58312 7.08611 6.24733 6.75033 5.83312 6.75033C5.4189 6.75033 5.08312 7.08611 5.08312 7.50033H6.58312ZM2.86829 14.2067L3.58943 14.0007L2.38759 9.79428L1.66645 10.0003L0.945308 10.2064L2.14714 14.4128L2.86829 14.2067ZM1.66645 10.0003L2.40891 9.89426L2.22254 8.58963L1.48007 8.6957L0.737613 8.80176L0.923989 10.1064L1.66645 10.0003ZM7.224 14.3182L6.59311 13.9126L6.28114 14.3979L6.91202 14.8035L7.54291 15.2091L7.85488 14.7238L7.224 14.3182ZM12.9664 14.6151L13.5973 14.2095L13.4065 13.9126L12.7756 14.3182L12.1447 14.7238L12.3355 15.0206L12.9664 14.6151ZM7.0192 4.50895L6.71459 5.19431L7.15708 5.39097L7.46168 4.70561L7.76629 4.02026L7.3238 3.8236L7.0192 4.50895ZM12.5379 4.70561L12.8425 5.39097L13.285 5.19431L12.9804 4.50895L12.6758 3.8236L12.2333 4.02026L12.5379 4.70561ZM5.4078 4.16699V4.91699C5.858 4.91699 6.30319 5.01147 6.71459 5.19431L7.0192 4.50895L7.3238 3.8236C6.72061 3.55551 6.06788 3.41699 5.4078 3.41699V4.16699ZM7.46168 4.70561L7.15708 5.39097C7.95818 5.74702 8.4563 5.97258 8.97881 6.0835L9.13455 5.34984L9.29029 4.61619C8.95765 4.54558 8.62557 4.40216 7.76629 4.02026L7.46168 4.70561ZM12.5379 4.70561L12.2333 4.02026C11.374 4.40216 11.0419 4.54558 10.7093 4.61619L10.865 5.34984L11.0208 6.0835C11.5433 5.97258 12.0414 5.74702 12.8425 5.39097L12.5379 4.70561ZM9.13455 5.34984L8.97881 6.0835C9.65196 6.22639 10.3476 6.22639 11.0208 6.0835L10.865 5.34984L10.7093 4.61619C10.2415 4.71549 9.75808 4.71549 9.29029 4.61619L9.13455 5.34984ZM15.1984 15.8337V15.0837C14.5508 15.0837 13.9475 14.7543 13.5973 14.2095L12.9664 14.6151L12.3355 15.0206C12.9618 15.9948 14.0404 16.5837 15.1984 16.5837V15.8337ZM6.91202 14.8035L6.28114 14.3979C6.0064 14.8253 5.5332 15.0837 5.02513 15.0837V15.8337V16.5837C6.04359 16.5837 6.99217 16.0658 7.54291 15.2091L6.91202 14.8035ZM2.86829 14.2067L2.14714 14.4128C2.51428 15.6978 3.68875 16.5837 5.02513 16.5837V15.8337V15.0837C4.35847 15.0837 3.77257 14.6417 3.58943 14.0007L2.86829 14.2067ZM17.8252 13.5555L17.0828 13.4494C16.9488 14.3871 16.1457 15.0837 15.1984 15.0837V15.8337V16.5837C16.8922 16.5837 18.3282 15.3382 18.5677 13.6615L17.8252 13.5555ZM18.5195 8.6957L19.262 8.80176C19.668 5.95972 17.4627 3.41699 14.5918 3.41699V4.16699V4.91699C16.5498 4.91699 18.0539 6.65124 17.777 8.58963L18.5195 8.6957ZM7.224 14.3182L7.85488 14.7238C8.85861 13.1624 11.141 13.1624 12.1447 14.7238L12.7756 14.3182L13.4065 13.9126C11.8123 11.4328 8.18729 11.4328 6.59311 13.9126L7.224 14.3182ZM12.9804 4.50895L13.285 5.19431C13.6964 5.01147 14.1416 4.91699 14.5918 4.91699V4.16699V3.41699C13.9317 3.41699 13.279 3.55551 12.6758 3.8236L12.9804 4.50895ZM1.48007 8.6957L2.22254 8.58963C1.94562 6.65124 3.44973 4.91699 5.4078 4.91699V4.16699V3.41699C2.53691 3.41699 0.331607 5.95972 0.737613 8.80176L1.48007 8.6957ZM5.83312 10.8337H6.58312V7.50033H5.83312H5.08312V10.8337H5.83312ZM18.5195 8.6957L17.777 8.58963L17.0828 13.4494L17.8252 13.5555L18.5677 13.6615L19.262 8.80176L18.5195 8.6957ZM4.16645 9.16699V9.91699H5.83312V9.16699V8.41699H4.16645V9.16699ZM5.83312 9.16699V9.91699H7.49978V9.16699V8.41699H5.83312V9.16699Z" fill="currentColor"/>
<path d="M14.9993 7.50033C14.9993 7.96056 14.6263 8.33366 14.166 8.33366C13.7058 8.33366 13.3327 7.96056 13.3327 7.50033C13.3327 7.04009 13.7058 6.66699 14.166 6.66699C14.6263 6.66699 14.9993 7.04009 14.9993 7.50033Z" fill="currentColor"/>
<path d="M13.3327 9.16699C13.3327 9.62723 12.9596 10.0003 12.4993 10.0003C12.0391 10.0003 11.666 9.62723 11.666 9.16699C11.666 8.70676 12.0391 8.33366 12.4993 8.33366C12.9596 8.33366 13.3327 8.70676 13.3327 9.16699Z" fill="currentColor"/>
<path d="M16.666 9.16699C16.666 9.62723 16.2929 10.0003 15.8327 10.0003C15.3724 10.0003 14.9993 9.62723 14.9993 9.16699C14.9993 8.70676 15.3724 8.33366 15.8327 8.33366C16.2929 8.33366 16.666 8.70676 16.666 9.16699Z" fill="currentColor"/>
<path d="M14.9993 10.8337C14.9993 11.2939 14.6263 11.667 14.166 11.667C13.7058 11.667 13.3327 11.2939 13.3327 10.8337C13.3327 10.3734 13.7058 10.0003 14.166 10.0003C14.6263 10.0003 14.9993 10.3734 14.9993 10.8337Z" fill="currentColor"/>
</svg>
