<svg viewBox="0 0 24 25" fill="none" xmlns="http://www.w3.org/2000/svg">
<path d="M2.75 12.3809C2.75 11.9666 2.41421 11.6309 2 11.6309C1.58579 11.6309 1.25 11.9666 1.25 12.3809H2.75ZM21.25 12.3809C21.25 12.7951 21.5858 13.1309 22 13.1309C22.4142 13.1309 22.75 12.7951 22.75 12.3809H21.25ZM4.40041 5.88086L4.94041 6.40134L4.95576 6.38542L4.97015 6.36862L4.40041 5.88086ZM19.5996 18.8809L20.1693 19.3686L20.1786 19.3578L20.1874 19.3466L19.5996 18.8809ZM4.01269 1.38421C4.01454 0.969996 3.68025 0.632715 3.26604 0.630867C2.85183 0.629019 2.51455 0.963304 2.5127 1.37751L4.01269 1.38421ZM3.25384 3.36657L2.50384 3.36323L3.25384 3.36657ZM6.93384 7.04657L6.93718 7.79657H6.93718L6.93384 7.04657ZM8.9229 7.78771C9.33711 7.78586 9.67139 7.44858 9.66954 7.03437C9.66769 6.62016 9.33041 6.28587 8.9162 6.28772L8.9229 7.78771ZM3.66238 6.28353L3.06926 6.74255L3.06926 6.74255L3.66238 6.28353ZM4.01688 6.63802L3.55786 7.23115L3.55786 7.23115L4.01688 6.63802ZM19.9069 23.2971C19.905 23.7113 20.2393 24.0486 20.6535 24.0504C21.0677 24.0523 21.405 23.718 21.4069 23.3038L19.9069 23.2971ZM20.6657 21.3147L21.4157 21.3181L20.6657 21.3147ZM16.9857 17.6347L16.9824 16.8847L16.9857 17.6347ZM14.9967 16.8936C14.5824 16.8954 14.2482 17.2327 14.25 17.6469C14.2519 18.0611 14.5891 18.3954 15.0034 18.3936L14.9967 16.8936ZM20.2572 18.3978L20.8503 17.9388V17.9388L20.2572 18.3978ZM19.9027 18.0433L20.3617 17.4502H20.3617L19.9027 18.0433ZM3.82952 6.47316L3.29962 7.00392L3.82952 6.47316ZM12 21.6309C6.89137 21.6309 2.75 17.4895 2.75 12.3809H1.25C1.25 18.3179 6.06294 23.1309 12 23.1309V21.6309ZM12 3.13086C17.1086 3.13086 21.25 7.27223 21.25 12.3809H22.75C22.75 6.4438 17.9371 1.63086 12 1.63086V3.13086ZM4.97015 6.36862C6.66782 4.38562 9.18698 3.13086 12 3.13086V1.63086C8.73042 1.63086 5.80117 3.09144 3.83068 5.3931L4.97015 6.36862ZM19.0299 18.3931C17.3322 20.3761 14.813 21.6309 12 21.6309V23.1309C15.2696 23.1309 18.1988 21.6703 20.1693 19.3686L19.0299 18.3931ZM2.5127 1.37751L2.50384 3.36323L4.00383 3.36992L4.01269 1.38421L2.5127 1.37751ZM6.93718 7.79657L8.9229 7.78771L8.9162 6.28772L6.93049 6.29658L6.93718 7.79657ZM2.50384 3.36323C2.50039 4.13737 2.49638 4.78136 2.55271 5.29721C2.61069 5.82814 2.74029 6.31747 3.06926 6.74255L4.25551 5.82451C4.16534 5.70799 4.08712 5.53062 4.04385 5.13437C3.99893 4.72303 4.00022 4.17934 4.00383 3.36992L2.50384 3.36323ZM6.93049 6.29658C6.12107 6.30019 5.57739 6.30148 5.16604 6.25656C4.76979 6.21329 4.59242 6.13507 4.4759 6.0449L3.55786 7.23115C3.98294 7.56012 4.47227 7.68971 5.0032 7.74769C5.51905 7.80403 6.16304 7.80002 6.93718 7.79657L6.93049 6.29658ZM21.4069 23.3038L21.4157 21.3181L19.9157 21.3114L19.9069 23.2971L21.4069 23.3038ZM16.9824 16.8847L14.9967 16.8936L15.0034 18.3936L16.9891 18.3847L16.9824 16.8847ZM21.4157 21.3181C21.4192 20.5439 21.4232 19.8999 21.3668 19.3841C21.3089 18.8532 21.1793 18.3638 20.8503 17.9388L19.664 18.8568C19.7542 18.9733 19.8324 19.1507 19.8757 19.5469C19.9206 19.9583 19.9193 20.502 19.9157 21.3114L21.4157 21.3181ZM16.9891 18.3847C17.7985 18.3811 18.3422 18.3798 18.7535 18.4247C19.1498 18.468 19.3271 18.5462 19.4437 18.6364L20.3617 17.4502C19.9366 17.1212 19.4473 16.9916 18.9164 16.9336C18.4005 16.8773 17.7565 16.8813 16.9824 16.8847L16.9891 18.3847ZM3.06926 6.74255C3.14048 6.83458 3.21743 6.92187 3.29962 7.00392L4.35942 5.9424C4.32235 5.9054 4.28764 5.86603 4.25551 5.82451L3.06926 6.74255ZM3.29962 7.00392C3.38076 7.08494 3.467 7.16084 3.55786 7.23115L4.4759 6.0449C4.43491 6.01317 4.39601 5.97894 4.35942 5.9424L3.29962 7.00392ZM3.86042 5.36038L3.28952 5.95268L4.36952 6.99365L4.94041 6.40134L3.86042 5.36038ZM20.8503 17.9388C20.7885 17.859 20.7225 17.7827 20.6524 17.7104L19.5748 18.7538C19.6064 18.7864 19.6362 18.8208 19.664 18.8568L20.8503 17.9388ZM20.6524 17.7104C20.5619 17.6169 20.4648 17.5299 20.3617 17.4502L19.4437 18.6364C19.4902 18.6724 19.534 18.7116 19.5748 18.7538L20.6524 17.7104ZM20.1874 19.3466L20.7015 18.6979L19.5258 17.7663L19.0117 18.4151L20.1874 19.3466Z" fill="currentColor"/>
</svg>
