<svg viewBox="0 0 20 20" fill="none" xmlns="http://www.w3.org/2000/svg">
<path d="M3.41669 17.5C3.41669 17.9142 3.75247 18.25 4.16669 18.25C4.5809 18.25 4.91669 17.9142 4.91669 17.5L3.41669 17.5ZM15.1824 5.2392L14.7575 4.62116L14.7575 4.62116L15.1824 5.2392ZM14.948 5.40032L15.3729 6.01835L15.3729 6.01835L14.948 5.40032ZM14.948 8.76635L15.3729 8.14831L15.3729 8.14831L14.948 8.76635ZM15.1824 8.92747L14.7575 9.5455L14.7575 9.5455L15.1824 8.92747ZM4.16669 17.5L4.91669 17.5L4.91669 4.5L4.16669 4.5L3.41669 4.5L3.41669 17.5L4.16669 17.5ZM6.16669 2.5V3.25H14.3316V2.5V1.75H6.16669V2.5ZM14.3316 11.6667V10.9167H4.16669V11.6667V12.4167H14.3316V11.6667ZM15.1824 5.2392L14.7575 4.62116L14.5231 4.78229L14.948 5.40032L15.3729 6.01835L15.6073 5.85723L15.1824 5.2392ZM14.948 8.76635L14.5231 9.38438L14.7575 9.5455L15.1824 8.92747L15.6073 8.30944L15.3729 8.14831L14.948 8.76635ZM15.1824 8.92747L14.7575 9.5455C14.9615 9.68574 15.0834 9.91741 15.0834 10.1649H15.8334H16.5834C16.5834 9.42347 16.2183 8.72951 15.6073 8.30944L15.1824 8.92747ZM15.8334 4.00172H15.0834C15.0834 4.24926 14.9615 4.48093 14.7575 4.62116L15.1824 5.2392L15.6073 5.85723C16.2183 5.43716 16.5834 4.7432 16.5834 4.00172H15.8334ZM14.948 5.40032L14.5231 4.78229C12.9093 5.89184 12.9093 8.27483 14.5231 9.38438L14.948 8.76635L15.3729 8.14831C14.626 7.63479 14.626 6.53188 15.3729 6.01835L14.948 5.40032ZM14.3316 11.6667V12.4167C15.5752 12.4167 16.5834 11.4085 16.5834 10.1649H15.8334H15.0834C15.0834 10.5801 14.7468 10.9167 14.3316 10.9167V11.6667ZM14.3316 2.5V3.25C14.7468 3.25 15.0834 3.58656 15.0834 4.00172H15.8334H16.5834C16.5834 2.75813 15.5752 1.75 14.3316 1.75V2.5ZM4.16669 4.5L4.91669 4.5C4.91669 4.00739 4.91828 3.71339 4.94661 3.50266C4.95959 3.40611 4.97489 3.35774 4.98385 3.33596C4.98592 3.33092 4.98754 3.3276 4.98855 3.32567C4.98954 3.32376 4.9901 3.32292 4.99015 3.32283C4.9902 3.32277 4.99004 3.323 4.98976 3.32335C4.98948 3.3237 4.98945 3.32368 4.98991 3.32322L4.45958 2.79289L3.92925 2.26256C3.62023 2.57159 3.50778 2.94731 3.45999 3.30279C3.41509 3.6367 3.41669 4.0498 3.41669 4.5L4.16669 4.5ZM6.16669 2.5V1.75C5.71649 1.75 5.30339 1.74841 4.96948 1.7933C4.614 1.84109 4.23827 1.95354 3.92925 2.26256L4.45958 2.79289L4.98991 3.32322C4.99037 3.32277 4.99038 3.32279 4.99004 3.32307C4.98969 3.32335 4.98945 3.32351 4.98952 3.32347C4.9896 3.32341 4.99045 3.32286 4.99236 3.32186C4.99429 3.32085 4.99761 3.31923 5.00265 3.31716C5.02443 3.3082 5.07279 3.29291 5.16935 3.27992C5.38007 3.25159 5.67408 3.25 6.16669 3.25V2.5Z" fill="currentColor"/>
</svg>
