<svg viewBox="0 0 24 25" fill="none" xmlns="http://www.w3.org/2000/svg">
<path d="M4 11.6309C3.58579 11.6309 3.25 11.9666 3.25 12.3809C3.25 12.7951 3.58579 13.1309 4 13.1309L4 11.6309ZM20 13.1309C20.4142 13.1309 20.75 12.7951 20.75 12.3809C20.75 11.9666 20.4142 11.6309 20 11.6309V13.1309ZM16.528 6.84817C16.2338 6.55658 15.7589 6.5587 15.4673 6.8529C15.1757 7.1471 15.1778 7.62197 15.472 7.91355L16.528 6.84817ZM17.763 9.12817L17.235 9.66086L17.763 9.12817ZM17.763 15.6336L18.2909 16.1662L17.763 15.6336ZM15.472 16.8482C15.1778 17.1398 15.1757 17.6146 15.4673 17.9088C15.7589 18.203 16.2338 18.2051 16.528 17.9136L15.472 16.8482ZM19.9801 12.0675L20.7241 11.9727V11.9727L19.9801 12.0675ZM19.9801 12.6942L20.7241 12.789V12.789L19.9801 12.6942ZM4 13.1309L20 13.1309V11.6309L4 11.6309L4 13.1309ZM15.472 7.91355L17.235 9.66086L18.2909 8.59548L16.528 6.84817L15.472 7.91355ZM17.235 15.1009L15.472 16.8482L16.528 17.9136L18.2909 16.1662L17.235 15.1009ZM17.235 9.66086C17.9505 10.37 18.4413 10.858 18.7734 11.2716C19.096 11.6733 19.2067 11.9313 19.2361 12.1624L20.7241 11.9727C20.6453 11.3546 20.3504 10.8396 19.9429 10.3323C19.545 9.83683 18.9814 9.27978 18.2909 8.59548L17.235 9.66086ZM18.2909 16.1662C18.9814 15.4819 19.545 14.9249 19.9429 14.4294C20.3504 13.9221 20.6453 13.4071 20.7241 12.789L19.2361 12.5994C19.2067 12.8304 19.096 13.0885 18.7734 13.4902C18.4413 13.9037 17.9505 14.3917 17.235 15.1009L18.2909 16.1662ZM19.2361 12.1624C19.2546 12.3075 19.2546 12.4543 19.2361 12.5994L20.7241 12.789C20.7586 12.518 20.7586 12.2437 20.7241 11.9727L19.2361 12.1624Z" fill="currentColor"/>
</svg>
