<svg viewBox="0 0 24 24" fill="none" xmlns="http://www.w3.org/2000/svg">
<path d="M14.32 15.6828C14.32 15.6828 22.7908 9.57 21.8512 2.574C21.8419 2.4552 21.7948 2.3425 21.7168 2.2524C21.6302 2.1721 21.519 2.12346 21.4012 2.1144C14.5648 1.1532 8.59245 9.8208 8.59245 9.8208C3.41085 9.2004 3.78765 10.2336 1.42365 15.912C0.971248 16.9944 1.70445 17.3676 2.50845 17.0628L5.08605 16.0896L8.19405 19.2672L7.24245 21.906C6.94485 22.7292 7.30845 23.4792 8.36805 23.0172C13.9168 20.598 14.9272 20.9844 14.32 15.6828ZM15.5308 8.5836C15.1856 8.22685 14.9926 7.74985 14.9926 7.2534C14.9926 6.75695 15.1856 6.27995 15.5308 5.9232C15.6996 5.74923 15.9016 5.61093 16.1249 5.51648C16.3481 5.42203 16.5881 5.37337 16.8304 5.37337C17.0728 5.37337 17.3128 5.42203 17.536 5.51648C17.7593 5.61093 17.9613 5.74923 18.13 5.9232C18.4753 6.27995 18.6683 6.75695 18.6683 7.2534C18.6683 7.74985 18.4753 8.22685 18.13 8.5836C17.9613 8.75757 17.7593 8.89587 17.536 8.99032C17.3128 9.08477 17.0728 9.13343 16.8304 9.13343C16.5881 9.13343 16.3481 9.08477 16.1249 8.99032C15.9016 8.89587 15.6996 8.75757 15.5308 8.5836Z" fill="currentColor"/>
</svg>
