<svg viewBox="0 0 25 24" fill="none" xmlns="http://www.w3.org/2000/svg">
<path d="M15.5 2.25C15.0858 2.25 14.75 2.58579 14.75 3C14.75 3.41421 15.0858 3.75 15.5 3.75H16.5C18.8472 3.75 20.75 5.65279 20.75 8V9C20.75 9.41421 21.0858 9.75 21.5 9.75C21.9142 9.75 22.25 9.41421 22.25 9V8C22.25 4.82436 19.6756 2.25 16.5 2.25H15.5Z" fill="currentColor"/>
<path d="M8.5 2.25C5.32436 2.25 2.75 4.82436 2.75 8V9C2.75 9.41421 3.08579 9.75 3.5 9.75C3.91421 9.75 4.25 9.41421 4.25 9V8C4.25 5.65279 6.15279 3.75 8.5 3.75H9.5C9.91421 3.75 10.25 3.41421 10.25 3C10.25 2.58579 9.91421 2.25 9.5 2.25H8.5Z" fill="currentColor"/>
<path d="M12.5 9.25C10.9812 9.25 9.75 10.4812 9.75 12C9.75 13.5188 10.9812 14.75 12.5 14.75C14.0188 14.75 15.25 13.5188 15.25 12C15.25 10.4812 14.0188 9.25 12.5 9.25Z" fill="currentColor"/>
<path d="M4.25 15C4.25 14.5858 3.91421 14.25 3.5 14.25C3.08579 14.25 2.75 14.5858 2.75 15V16C2.75 19.1756 5.32436 21.75 8.5 21.75H9.5C9.91422 21.75 10.25 21.4142 10.25 21C10.25 20.5858 9.91422 20.25 9.5 20.25H8.5C6.15279 20.25 4.25 18.3472 4.25 16V15Z" fill="currentColor"/>
<path d="M22.25 15C22.25 14.5858 21.9142 14.25 21.5 14.25C21.0858 14.25 20.75 14.5858 20.75 15V16C20.75 18.3472 18.8472 20.25 16.5 20.25H15.5C15.0858 20.25 14.75 20.5858 14.75 21C14.75 21.4142 15.0858 21.75 15.5 21.75H16.5C19.6756 21.75 22.25 19.1756 22.25 16V15Z" fill="currentColor"/>
<path d="M15.5 2.25C15.0858 2.25 14.75 2.58579 14.75 3C14.75 3.41421 15.0858 3.75 15.5 3.75H16.5C18.8472 3.75 20.75 5.65279 20.75 8V9C20.75 9.41421 21.0858 9.75 21.5 9.75C21.9142 9.75 22.25 9.41421 22.25 9V8C22.25 4.82436 19.6756 2.25 16.5 2.25H15.5Z" stroke="currentColor" stroke-width="1.5" stroke-linecap="round"/>
<path d="M8.5 2.25C5.32436 2.25 2.75 4.82436 2.75 8V9C2.75 9.41421 3.08579 9.75 3.5 9.75C3.91421 9.75 4.25 9.41421 4.25 9V8C4.25 5.65279 6.15279 3.75 8.5 3.75H9.5C9.91421 3.75 10.25 3.41421 10.25 3C10.25 2.58579 9.91421 2.25 9.5 2.25H8.5Z" stroke="currentColor" stroke-width="1.5" stroke-linecap="round"/>
<path d="M12.5 9.25C10.9812 9.25 9.75 10.4812 9.75 12C9.75 13.5188 10.9812 14.75 12.5 14.75C14.0188 14.75 15.25 13.5188 15.25 12C15.25 10.4812 14.0188 9.25 12.5 9.25Z" stroke="currentColor" stroke-width="1.5" stroke-linecap="round"/>
<path d="M4.25 15C4.25 14.5858 3.91421 14.25 3.5 14.25C3.08579 14.25 2.75 14.5858 2.75 15V16C2.75 19.1756 5.32436 21.75 8.5 21.75H9.5C9.91422 21.75 10.25 21.4142 10.25 21C10.25 20.5858 9.91422 20.25 9.5 20.25H8.5C6.15279 20.25 4.25 18.3472 4.25 16V15Z" stroke="currentColor" stroke-width="1.5" stroke-linecap="round"/>
<path d="M22.25 15C22.25 14.5858 21.9142 14.25 21.5 14.25C21.0858 14.25 20.75 14.5858 20.75 15V16C20.75 18.3472 18.8472 20.25 16.5 20.25H15.5C15.0858 20.25 14.75 20.5858 14.75 21C14.75 21.4142 15.0858 21.75 15.5 21.75H16.5C19.6756 21.75 22.25 19.1756 22.25 16V15Z" stroke="currentColor" stroke-width="1.5" stroke-linecap="round"/>
</svg>
