<svg viewBox="0 0 30 30" fill="none" xmlns="http://www.w3.org/2000/svg">
<path d="M13.4376 12.5C13.4376 11.6371 14.1371 10.9375 15.0001 10.9375C15.863 10.9375 16.5626 11.6371 16.5626 12.5C16.5626 13.3629 15.863 14.0625 15.0001 14.0625C14.1371 14.0625 13.4376 13.3629 13.4376 12.5Z" fill="url(#linear)"/>
<path fill-rule="evenodd" clip-rule="evenodd" d="M8.46421 5.05208C8.46421 3.12484 10.0265 1.5625 11.9538 1.5625H18.4113C20.1372 1.5625 21.5363 2.96161 21.5363 4.6875C21.5363 5.37786 22.0959 5.9375 22.7863 5.9375H23.523C25.504 5.9375 27.2464 7.47499 27.1657 9.58201C27.0622 12.2833 26.5375 16.6164 24.4334 20.451C23.863 21.4904 23.1013 22.5115 22.2778 23.4629L22.2158 23.5345C21.0312 24.9033 20.0435 26.0445 18.9817 26.8224C17.8396 27.6591 16.6206 28.0759 15.0003 28.0759C13.3799 28.0759 12.1609 27.6591 11.0188 26.8224C9.95696 26.0445 8.96927 24.9033 7.78468 23.5345L7.72268 23.4629C6.89923 22.5115 6.13749 21.4904 5.56712 20.451C3.53068 16.7398 2.97237 12.8219 2.84546 10.3081C2.73858 8.19091 4.49347 6.66667 6.46354 6.66667H6.84963C7.74133 6.66667 8.46421 5.94379 8.46421 5.05208ZM15.0001 9.0625C13.1016 9.0625 11.5626 10.6015 11.5626 12.5C11.5626 14.0735 12.6198 15.4 14.0626 15.8081V20C14.0626 20.5178 14.4823 20.9375 15.0001 20.9375C15.5179 20.9375 15.9376 20.5178 15.9376 20V15.8081C17.3804 15.4 18.4376 14.0735 18.4376 12.5C18.4376 10.6015 16.8986 9.0625 15.0001 9.0625Z" fill="url(#linear)"/>
<defs>
<linearGradient id="linear" x1="15.0046" y1="1.5625" x2="15.0046" y2="28.0759" gradientUnits="userSpaceOnUse">
<stop stop-color="#0DB1A0"/>
<stop offset="1" stop-color="#026056"/>
</linearGradient>
</defs>
</svg>
