<svg viewBox="0 0 24 25" fill="none" xmlns="http://www.w3.org/2000/svg">
<path d="M18.8889 16.3809L18.2314 16.0201L18.8889 16.3809ZM5.11091 16.3809L4.45339 16.7417L5.11091 16.3809ZM3.02511 8.58953L2.27606 8.62734L3.02511 8.58953ZM17.2549 18.6603L17.822 19.1512L17.2549 18.6603ZM6.74493 18.6603L7.31201 18.1695L6.74493 18.6603ZM20.9828 8.01776L21.7323 8.04647L20.9828 8.01776ZM11.2498 16.3809C11.2498 16.7951 11.5855 17.1309 11.9998 17.1309C12.414 17.1309 12.7498 16.7951 12.7498 16.3809H11.2498ZM20.2334 7.98905C20.1543 10.0538 19.7516 13.2495 18.2314 16.0201L19.5464 16.7417C21.2297 13.674 21.6495 10.2075 21.7323 8.04647L20.2334 7.98905ZM18.2314 16.0201C17.8424 16.7289 17.3039 17.4577 16.6878 18.1695L17.822 19.1512C18.4807 18.3901 19.0901 17.5732 19.5464 16.7417L18.2314 16.0201ZM7.31201 18.1695C6.69593 17.4577 6.15736 16.7289 5.76842 16.0201L4.45339 16.7417C4.90968 17.5732 5.51908 18.3901 6.17784 19.1512L7.31201 18.1695ZM5.76842 16.0201C4.28993 13.3257 3.86961 10.4424 3.77415 8.55171L2.27606 8.62734C2.37759 10.6384 2.82424 13.7727 4.45339 16.7417L5.76842 16.0201ZM5.17053 7.21419H5.47939V5.71419H5.17053V7.21419ZM18.2287 6.63086H18.8181V5.13086H18.2287V6.63086ZM15.7287 4.13086C15.7287 5.51157 16.848 6.63086 18.2287 6.63086V5.13086C17.6764 5.13086 17.2287 4.68314 17.2287 4.13086H15.7287ZM5.47939 7.21419C7.02119 7.21419 8.27106 5.96432 8.27106 4.42253H6.77106C6.77106 5.13589 6.19276 5.71419 5.47939 5.71419V7.21419ZM9.56273 1.63086C8.02093 1.63086 6.77106 2.88073 6.77106 4.42253H8.27106C8.27106 3.70916 8.84936 3.13086 9.56273 3.13086V1.63086ZM3.77415 8.55171C3.73784 7.83235 4.33039 7.21419 5.17053 7.21419V5.71419C3.59447 5.71419 2.19056 6.93358 2.27606 8.62734L3.77415 8.55171ZM16.6878 18.1695C15.6777 19.3365 14.9956 20.1182 14.2986 20.6288C13.651 21.1031 12.9887 21.3416 11.9999 21.3416V22.8416C13.2962 22.8416 14.2714 22.5082 15.1851 21.8388C16.0493 21.2056 16.8522 20.2716 17.822 19.1512L16.6878 18.1695ZM6.17784 19.1512C7.14764 20.2716 7.95049 21.2056 8.81473 21.8388C9.72842 22.5082 10.7036 22.8416 11.9999 22.8416V21.3416C11.0111 21.3416 10.3487 21.1031 9.7012 20.6288C9.00421 20.1182 8.32213 19.3365 7.31201 18.1695L6.17784 19.1512ZM14.7287 3.13086C15.281 3.13086 15.7287 3.57858 15.7287 4.13086H17.2287C17.2287 2.75015 16.1094 1.63086 14.7287 1.63086V3.13086ZM21.7323 8.04647C21.7968 6.36085 20.4029 5.13086 18.8181 5.13086V6.63086C19.6557 6.63086 20.2615 7.25396 20.2334 7.98905L21.7323 8.04647ZM9.56273 3.13086H14.7287V1.63086H9.56273V3.13086ZM11.2498 12.3809V16.3809H12.7498V12.3809H11.2498ZM9.24976 10.3809C9.24976 11.8996 10.481 13.1309 11.9998 13.1309V11.6309C11.3094 11.6309 10.7498 11.0712 10.7498 10.3809H9.24976ZM11.9998 13.1309C13.5185 13.1309 14.7498 11.8996 14.7498 10.3809H13.2498C13.2498 11.0712 12.6901 11.6309 11.9998 11.6309V13.1309ZM14.7498 10.3809C14.7498 8.86208 13.5185 7.63086 11.9998 7.63086V9.13086C12.6901 9.13086 13.2498 9.6905 13.2498 10.3809H14.7498ZM11.9998 7.63086C10.481 7.63086 9.24976 8.86208 9.24976 10.3809H10.7498C10.7498 9.6905 11.3094 9.13086 11.9998 9.13086V7.63086Z" fill="currentColor"/>
</svg>
