<svg viewBox="0 0 25 24" fill="none" xmlns="http://www.w3.org/2000/svg">
<path d="M16.4658 2.26404C14.6446 -0.421354 10.6882 -0.421346 8.86708 2.26406L3.63844 9.97413C2.50183 11.6502 2.44166 13.8394 3.46756 15.5799C5.51582 19.055 10.601 19.0178 12.5423 15.4591C12.5959 15.3608 12.737 15.3608 12.7906 15.4591C14.7319 19.0178 19.8171 19.055 21.8653 15.5799C22.8912 13.8394 22.831 11.6502 21.6944 9.97412L16.4658 2.26404Z" fill="currentColor"/>
<path d="M13.4164 18.9979C13.4164 18.5837 13.0807 18.2479 12.6664 18.2479C12.2522 18.2479 11.9164 18.5837 11.9164 18.9979V20.9979C11.9164 21.4121 12.2522 21.7479 12.6664 21.7479C13.0807 21.7479 13.4164 21.4121 13.4164 20.9979V18.9979Z" fill="currentColor"/>
<path d="M9.66644 20.2479C10.0807 20.2479 10.4164 20.5837 10.4164 20.9979L10.4164 22.9979C10.4164 23.4121 10.0807 23.7479 9.66644 23.7479C9.25223 23.7479 8.91644 23.4121 8.91644 22.9979L8.91644 20.9979C8.91644 20.5837 9.25223 20.2479 9.66644 20.2479Z" fill="currentColor"/>
<path d="M16.4164 20.9979C16.4164 20.5837 16.0807 20.2479 15.6664 20.2479C15.2522 20.2479 14.9164 20.5837 14.9164 20.9979V22.9979C14.9164 23.4121 15.2522 23.7479 15.6664 23.7479C16.0807 23.7479 16.4164 23.4121 16.4164 22.9979V20.9979Z" fill="currentColor"/>
</svg>
