<svg viewBox="0 0 20 20" fill="none" xmlns="http://www.w3.org/2000/svg">
<path d="M3.82349 6.481L4.54965 6.66858L3.82349 6.481ZM6.74 3.73595L6.88126 4.47253L6.74 3.73595ZM8.46054 11.0012L8.24894 10.2816L8.46054 11.0012ZM9.38281 11.9235L8.66328 11.7119L9.38281 11.9235ZM13.903 16.5605L14.0906 17.2867L13.903 16.5605ZM16.6481 13.644L17.3846 13.7853L17.3846 13.7853L16.6481 13.644ZM18.1102 6.01978L17.3737 5.87852L17.3737 5.87852L18.1102 6.01978ZM14.3642 2.27375L14.2229 1.53717L14.3642 2.27375ZM4.91595 14.4074C4.62305 14.7003 4.62305 15.1752 4.91595 15.4681C5.20884 15.761 5.68371 15.761 5.97661 15.4681L4.91595 14.4074ZM7.15512 14.2896C7.44801 13.9967 7.44801 13.5218 7.15512 13.2289C6.86223 12.936 6.38735 12.936 6.09446 13.2289L7.15512 14.2896ZM5.5052 17.3537C5.21231 17.6466 5.21231 18.1215 5.5052 18.4143C5.7981 18.7072 6.27297 18.7072 6.56586 18.4143L5.5052 17.3537ZM7.74438 17.2358C8.03727 16.9429 8.03727 16.4681 7.74438 16.1752C7.45148 15.8823 6.97661 15.8823 6.68372 16.1752L7.74438 17.2358ZM1.96967 13.8182C1.67678 14.111 1.67678 14.5859 1.96967 14.8788C2.26256 15.1717 2.73744 15.1717 3.03033 14.8788L1.96967 13.8182ZM4.20884 13.7003C4.50173 13.4074 4.50173 12.9325 4.20884 12.6396C3.91595 12.3467 3.44107 12.3467 3.14818 12.6396L4.20884 13.7003ZM17.3737 5.87852L15.9115 13.5027L17.3846 13.7853L18.8468 6.16104L17.3737 5.87852ZM6.88126 4.47253L14.5055 3.01033L14.2229 1.53717L6.59873 2.99938L6.88126 4.47253ZM4.54965 6.66858C4.83892 5.54879 5.75002 4.68948 6.88126 4.47253L6.59873 2.99938C4.89354 3.32641 3.53041 4.61688 3.09732 6.29341L4.54965 6.66858ZM8.24894 10.2816C6.04999 10.9283 3.97137 8.90714 4.54965 6.66858L3.09732 6.29341C2.2327 9.64044 5.3365 12.7016 8.67214 11.7207L8.24894 10.2816ZM10.1023 12.135C10.4357 11.0015 9.38251 9.94829 8.24894 10.2816L8.67214 11.7207C8.67582 11.7196 8.67614 11.72 8.67381 11.72C8.67165 11.72 8.66921 11.7197 8.66704 11.7191C8.66317 11.7181 8.66329 11.7171 8.66508 11.7189C8.66687 11.7207 8.66593 11.7208 8.66487 11.717C8.66427 11.7148 8.66395 11.7123 8.66396 11.7102C8.66398 11.7079 8.66436 11.7082 8.66328 11.7119L10.1023 12.135ZM13.7154 15.8344C11.4769 16.4126 9.45569 14.334 10.1023 12.135L8.66328 11.7119C7.68236 15.0475 10.7435 18.1513 14.0906 17.2867L13.7154 15.8344ZM15.9115 13.5027C15.6945 14.634 14.8352 15.5451 13.7154 15.8344L14.0906 17.2867C15.7671 16.8536 17.0576 15.4905 17.3846 13.7853L15.9115 13.5027ZM18.8468 6.16104C19.3727 3.41878 16.9652 1.01125 14.2229 1.53717L14.5055 3.01033C16.2065 2.6841 17.6999 4.17749 17.3737 5.87852L18.8468 6.16104ZM5.97661 15.4681L7.15512 14.2896L6.09446 13.2289L4.91595 14.4074L5.97661 15.4681ZM6.56586 18.4143L7.74438 17.2358L6.68372 16.1752L5.5052 17.3537L6.56586 18.4143ZM3.03033 14.8788L4.20884 13.7003L3.14818 12.6396L1.96967 13.8182L3.03033 14.8788Z" fill="currentColor"/>
</svg>
