<svg viewBox="0 0 24 25" fill="none" xmlns="http://www.w3.org/2000/svg">
<path d="M5.93237 5.76728L5.75001 6.49477L5.93237 5.76728ZM9.30692 3.81898L8.58572 3.61316L9.30692 3.81898ZM3.23886 10.4326L3.77771 9.9109L3.23886 10.4326ZM3.23886 14.3292L2.70001 13.8075H2.70001L3.23886 14.3292ZM5.93237 18.9945L6.11472 19.722L5.93237 18.9945ZM9.30692 20.9428L8.58572 21.1486L9.30692 20.9428ZM14.6939 20.9428L15.4151 21.1486L14.6939 20.9428ZM18.0685 18.9945L18.2509 18.267L18.0685 18.9945ZM20.762 14.3292L20.2232 14.8508V14.8509L20.762 14.3292ZM20.762 10.4326L20.2232 9.9109V9.91091L20.762 10.4326ZM18.0685 5.76728L17.8861 5.03979L18.0685 5.76728ZM14.6939 3.81898L15.4151 3.61316L14.6939 3.81898ZM5.75001 6.49477C7.60892 6.96073 9.50221 5.86764 10.0281 4.0248L8.58572 3.61316C8.28195 4.67756 7.18841 5.30892 6.11472 5.03979L5.75001 6.49477ZM3.77771 9.9109C2.34244 8.42838 3.74847 5.99306 5.75001 6.49477L6.11472 5.03979C2.64939 4.17116 0.215087 8.3875 2.70001 10.9542L3.77771 9.9109ZM3.77771 14.8509C5.11069 13.474 5.11069 11.2878 3.77771 9.9109L2.70001 10.9542C3.46993 11.7495 3.46992 13.0122 2.70001 13.8075L3.77771 14.8509ZM5.75001 18.267C3.74847 18.7687 2.34244 16.3334 3.77771 14.8509L2.70001 13.8075C0.215086 16.3743 2.64939 20.5906 6.11472 19.722L5.75001 18.267ZM10.0281 20.737C9.50221 18.8941 7.60892 17.801 5.75001 18.267L6.11472 19.722C7.18841 19.4528 8.28195 20.0842 8.58572 21.1486L10.0281 20.737ZM13.9727 20.737C13.4065 22.7212 10.5944 22.7212 10.0281 20.737L8.58572 21.1486C9.56613 24.584 14.4347 24.584 15.4151 21.1486L13.9727 20.737ZM18.2509 18.267C16.3919 17.801 14.4987 18.8941 13.9727 20.737L15.4151 21.1486C15.7189 20.0842 16.8125 19.4528 17.8861 19.722L18.2509 18.267ZM20.2232 14.8509C21.6584 16.3334 20.2524 18.7687 18.2509 18.267L17.8861 19.722C21.3515 20.5906 23.7858 16.3743 21.3009 13.8075L20.2232 14.8509ZM20.2232 9.91091C18.8902 11.2878 18.8902 13.474 20.2232 14.8508L21.3009 13.8075C20.5309 13.0122 20.5309 11.7495 21.3009 10.9542L20.2232 9.91091ZM18.2509 6.49477C20.2524 5.99306 21.6584 8.42837 20.2232 9.9109L21.3009 10.9542C23.7858 8.3875 21.3515 4.17116 17.8861 5.03979L18.2509 6.49477ZM13.9727 4.0248C14.4987 5.86764 16.3919 6.96073 18.2509 6.49477L17.8861 5.03979C16.8125 5.30892 15.7189 4.67756 15.4151 3.61316L13.9727 4.0248ZM15.4151 3.61316C14.4347 0.177775 9.56613 0.177776 8.58572 3.61316L10.0281 4.0248C10.5944 2.04056 13.4065 2.04056 13.9727 4.0248L15.4151 3.61316ZM8.25043 12.3809C8.25043 14.4519 9.92937 16.1309 12.0004 16.1309V14.6309C10.7578 14.6309 9.75043 13.6235 9.75043 12.3809H8.25043ZM12.0004 16.1309C14.0715 16.1309 15.7504 14.4519 15.7504 12.3809H14.2504C14.2504 13.6235 13.2431 14.6309 12.0004 14.6309V16.1309ZM15.7504 12.3809C15.7504 10.3098 14.0715 8.63087 12.0004 8.63087V10.1309C13.2431 10.1309 14.2504 11.1382 14.2504 12.3809H15.7504ZM12.0004 8.63087C9.92937 8.63087 8.25043 10.3098 8.25043 12.3809H9.75043C9.75043 11.1382 10.7578 10.1309 12.0004 10.1309V8.63087Z" fill="currentColor"/>
</svg>
