<svg viewBox="0 0 18 19" fill="none" xmlns="http://www.w3.org/2000/svg">
<path d="M11.5002 8.33268L9.81561 10.4233C9.14807 11.2518 8.8143 11.666 8.3752 11.666C7.93609 11.666 7.60232 11.2518 6.93478 10.4233L6.5002 9.88399M14.7411 13.3327C16.0759 10.9001 16.4185 8.12418 16.486 6.36343C16.5246 5.3548 15.6914 4.58268 14.6821 4.58268H14.1909C13.3855 4.58268 12.7326 3.92976 12.7326 3.12435C12.7326 2.31893 12.0797 1.66602 11.2743 1.66602H6.96926C6.02961 1.66602 5.26787 2.42775 5.26787 3.3674C5.26787 4.30706 4.50614 5.06879 3.56649 5.06879H3.3091C2.30235 5.06879 1.47049 5.83444 1.52125 6.83991C1.60332 8.46563 1.96456 10.9729 3.25941 13.3327C3.61159 13.9745 4.08991 14.6185 4.6211 15.2322C6.27103 17.1385 7.09599 18.0916 9.00024 18.0916C10.9045 18.0916 11.7295 17.1385 13.3794 15.2322C13.9106 14.6185 14.3889 13.9745 14.7411 13.3327Z" stroke="currentColor" stroke-width="1.5" stroke-linecap="round"/>
</svg>
