<svg viewBox="0 0 16 16" fill="none" xmlns="http://www.w3.org/2000/svg">
<path d="M6.81537 10.5984L6.94478 10.1155L6.81537 10.5984ZM5.40116 9.18422L5.88412 9.05481L5.40116 9.18422ZM10.5982 9.18422L10.1152 9.05481L10.5982 9.18422ZM9.18398 10.5984L9.05457 10.1155L9.18398 10.5984ZM9.18398 5.4014L9.05457 5.88436L9.18398 5.4014ZM10.5982 6.81561L10.1152 6.94502L10.5982 6.81561ZM6.81537 5.4014L6.94478 5.88436L6.81537 5.4014ZM5.40116 6.81561L5.88412 6.94502L5.40116 6.81561ZM14.6663 7.99992H14.1663C14.1663 11.4057 11.4054 14.1666 7.99967 14.1666V14.6666V15.1666C11.9577 15.1666 15.1663 11.958 15.1663 7.99992H14.6663ZM7.99967 14.6666V14.1666C4.59392 14.1666 1.83301 11.4057 1.83301 7.99992H1.33301H0.833008C0.833008 11.958 4.04163 15.1666 7.99967 15.1666V14.6666ZM1.33301 7.99992H1.83301C1.83301 4.59416 4.59392 1.83325 7.99967 1.83325V1.33325V0.833252C4.04163 0.833252 0.833008 4.04188 0.833008 7.99992H1.33301ZM7.99967 1.33325V1.83325C11.4054 1.83325 14.1663 4.59416 14.1663 7.99992H14.6663H15.1663C15.1663 4.04188 11.9577 0.833252 7.99967 0.833252V1.33325ZM7.99967 10.6666V10.1666C7.3475 10.1666 7.1195 10.1623 6.94478 10.1155L6.81537 10.5984L6.68596 11.0814C7.0199 11.1709 7.41188 11.1666 7.99967 11.1666V10.6666ZM5.33301 7.99992H4.83301C4.83301 8.58771 4.82871 8.97969 4.91819 9.31363L5.40116 9.18422L5.88412 9.05481C5.8373 8.88009 5.83301 8.65209 5.83301 7.99992H5.33301ZM6.81537 10.5984L6.94478 10.1155C6.42714 9.97677 6.02282 9.57245 5.88412 9.05481L5.40116 9.18422L4.91819 9.31363C5.14936 10.1764 5.82323 10.8502 6.68596 11.0814L6.81537 10.5984ZM10.6663 7.99992H10.1663C10.1663 8.65209 10.162 8.88009 10.1152 9.05481L10.5982 9.18422L11.0812 9.31363C11.1706 8.97969 11.1663 8.58771 11.1663 7.99992H10.6663ZM7.99967 10.6666V11.1666C8.58747 11.1666 8.97944 11.1709 9.31339 11.0814L9.18398 10.5984L9.05457 10.1155C8.87985 10.1623 8.65185 10.1666 7.99967 10.1666V10.6666ZM10.5982 9.18422L10.1152 9.05481C9.97653 9.57245 9.57221 9.97677 9.05457 10.1155L9.18398 10.5984L9.31339 11.0814C10.1761 10.8502 10.85 10.1764 11.0812 9.31363L10.5982 9.18422ZM7.99967 5.33325V5.83325C8.65185 5.83325 8.87985 5.83755 9.05457 5.88436L9.18398 5.4014L9.31339 4.91844C8.97944 4.82896 8.58747 4.83325 7.99967 4.83325V5.33325ZM10.6663 7.99992H11.1663C11.1663 7.41213 11.1706 7.02015 11.0812 6.6862L10.5982 6.81561L10.1152 6.94502C10.162 7.11975 10.1663 7.34775 10.1663 7.99992H10.6663ZM9.18398 5.4014L9.05457 5.88436C9.57221 6.02306 9.97653 6.42739 10.1152 6.94502L10.5982 6.81561L11.0812 6.6862C10.85 5.82347 10.1761 5.14961 9.31339 4.91844L9.18398 5.4014ZM7.99967 5.33325V4.83325C7.41188 4.83325 7.0199 4.82896 6.68596 4.91844L6.81537 5.4014L6.94478 5.88436C7.1195 5.83755 7.3475 5.83325 7.99967 5.83325V5.33325ZM5.33301 7.99992H5.83301C5.83301 7.34775 5.8373 7.11975 5.88412 6.94502L5.40116 6.81561L4.91819 6.6862C4.82871 7.02015 4.83301 7.41213 4.83301 7.99992H5.33301ZM6.81537 5.4014L6.68596 4.91844C5.82323 5.14961 5.14936 5.82347 4.91819 6.6862L5.40116 6.81561L5.88412 6.94502C6.02282 6.42739 6.42714 6.02306 6.94478 5.88436L6.81537 5.4014Z" fill="currentColor"/>
</svg>
