<svg viewBox="0 0 20 20" fill="none" xmlns="http://www.w3.org/2000/svg">
<path d="M7.04592 15.6301L7.27769 14.9168L7.04592 15.6301ZM4.37076 12.9549L5.08405 12.7231L4.37076 12.9549ZM15.6296 12.9549L14.9163 12.7231L15.6296 12.9549ZM12.9544 15.6301L12.7226 14.9168L12.9544 15.6301ZM12.9544 4.37125L12.7226 5.08454L12.9544 4.37125ZM15.6296 7.04641L14.9163 7.27818L15.6296 7.04641ZM7.04592 4.37125L7.27769 5.08454L7.04592 4.37125ZM4.37076 7.04641L5.08405 7.27818L4.37076 7.04641ZM5.00016 10.7507C5.41438 10.7507 5.75016 10.4149 5.75016 10.0007C5.75016 9.58644 5.41438 9.25065 5.00016 9.25065V10.7507ZM0.833496 9.25065C0.419283 9.25065 0.0834961 9.58644 0.0834961 10.0007C0.0834961 10.4149 0.419283 10.7507 0.833496 10.7507V9.25065ZM9.25016 5.00065C9.25016 5.41486 9.58595 5.75065 10.0002 5.75065C10.4144 5.75065 10.7502 5.41486 10.7502 5.00065H9.25016ZM10.7502 0.833984C10.7502 0.419771 10.4144 0.0839844 10.0002 0.0839844C9.58595 0.0839844 9.25016 0.419771 9.25016 0.833984H10.7502ZM9.25016 19.1673C9.25016 19.5815 9.58595 19.9173 10.0002 19.9173C10.4144 19.9173 10.7502 19.5815 10.7502 19.1673H9.25016ZM10.7502 15.0006C10.7502 14.5864 10.4144 14.2506 10.0002 14.2506C9.58595 14.2506 9.25016 14.5864 9.25016 15.0006H10.7502ZM19.1668 10.7507C19.581 10.7507 19.9168 10.4149 19.9168 10.0007C19.9168 9.58644 19.581 9.25065 19.1668 9.25065V10.7507ZM15.0002 9.25065C14.5859 9.25065 14.2502 9.58644 14.2502 10.0007C14.2502 10.4149 14.5859 10.7507 15.0002 10.7507V9.25065ZM10.0002 15.084C8.39072 15.084 7.76387 15.0747 7.27769 14.9168L6.81416 16.3433C7.58325 16.5932 8.50747 16.584 10.0002 16.584V15.084ZM3.41683 10.0007C3.41683 11.4933 3.40758 12.4176 3.65747 13.1867L5.08405 12.7231C4.92608 12.2369 4.91683 11.6101 4.91683 10.0007H3.41683ZM7.27769 14.9168C6.23752 14.5788 5.42202 13.7633 5.08405 12.7231L3.65747 13.1867C4.14381 14.6835 5.31734 15.857 6.81416 16.3433L7.27769 14.9168ZM15.0835 10.0007C15.0835 11.6101 15.0742 12.2369 14.9163 12.7231L16.3429 13.1867C16.5927 12.4176 16.5835 11.4933 16.5835 10.0007H15.0835ZM10.0002 16.584C11.4929 16.584 12.4171 16.5932 13.1862 16.3433L12.7226 14.9168C12.2365 15.0747 11.6096 15.084 10.0002 15.084V16.584ZM14.9163 12.7231C14.5783 13.7633 13.7628 14.5788 12.7226 14.9168L13.1862 16.3433C14.683 15.857 15.8565 14.6835 16.3429 13.1867L14.9163 12.7231ZM10.0002 4.91732C11.6096 4.91732 12.2365 4.92657 12.7226 5.08454L13.1862 3.65796C12.4171 3.40806 11.4929 3.41732 10.0002 3.41732V4.91732ZM16.5835 10.0007C16.5835 8.50796 16.5927 7.58374 16.3429 6.81465L14.9163 7.27818C15.0742 7.76436 15.0835 8.39121 15.0835 10.0007H16.5835ZM12.7226 5.08454C13.7628 5.42251 14.5783 6.23801 14.9163 7.27818L16.3429 6.81465C15.8565 5.31783 14.683 4.1443 13.1862 3.65796L12.7226 5.08454ZM10.0002 3.41732C8.50747 3.41732 7.58325 3.40806 6.81416 3.65796L7.27769 5.08454C7.76387 4.92657 8.39072 4.91732 10.0002 4.91732V3.41732ZM4.91683 10.0007C4.91683 8.39121 4.92608 7.76436 5.08405 7.27818L3.65747 6.81465C3.40758 7.58374 3.41683 8.50796 3.41683 10.0007H4.91683ZM6.81416 3.65796C5.31734 4.1443 4.14381 5.31783 3.65747 6.81465L5.08405 7.27818C5.42202 6.23801 6.23752 5.42251 7.27769 5.08454L6.81416 3.65796ZM5.00016 9.25065H0.833496V10.7507H5.00016V9.25065ZM10.7502 5.00065V0.833984H9.25016V5.00065H10.7502ZM10.7502 19.1673V15.0006H9.25016V19.1673H10.7502ZM19.1668 9.25065H15.0002V10.7507H19.1668V9.25065Z" fill="currentColor"/>
<path d="M8.41699 10.0013C8.41699 10.8758 9.12587 11.5846 10.0003 11.5846C10.8748 11.5846 11.5837 10.8758 11.5837 10.0013C11.5837 9.12685 10.8748 8.41797 10.0003 8.41797C9.12587 8.41797 8.41699 9.12685 8.41699 10.0013Z" stroke="currentColor" stroke-width="1.5"/>
</svg>
