<svg viewBox="0 0 30 30" fill="none" xmlns="http://www.w3.org/2000/svg">
<path d="M15 0C12.0333 0 9.13319 0.879735 6.66645 2.52796C4.19971 4.17618 2.27713 6.51886 1.14181 9.25975C0.00649927 12.0006 -0.290551 15.0166 0.288228 17.9264C0.867006 20.8361 2.29562 23.5088 4.3934 25.6066C6.49119 27.7044 9.16394 29.133 12.0736 29.7118C14.9834 30.2906 17.9994 29.9935 20.7403 28.8582C23.4811 27.7229 25.8238 25.8003 27.472 23.3335C29.1203 20.8668 30 17.9667 30 15C29.9958 11.023 28.4141 7.21017 25.602 4.39804C22.7898 1.5859 18.977 0.00419974 15 0ZM16.1538 5.67981L19.7293 3.22067C21.7765 4.04524 23.5745 5.38707 24.9476 7.1149L23.7938 11.0005C23.7649 11.0005 23.7346 11.0149 23.7058 11.025L20.4144 12.0937C20.3651 12.1097 20.3169 12.129 20.2702 12.1514L16.1538 9.32019V5.67981ZM10.275 3.22067L13.8462 5.67981V9.32019L9.72693 12.1572C9.6802 12.1348 9.63202 12.1155 9.5827 12.0995L6.29135 11.0308C6.26251 11.0207 6.23222 11.0135 6.20337 11.0062L5.04952 7.12067C6.42388 5.38973 8.22459 4.04578 10.275 3.22067ZM8.4 21.8394H4.31251C3.11601 19.9791 2.43007 17.8367 2.32356 15.6274L5.49664 13.1928C5.52396 13.2048 5.55188 13.2154 5.58029 13.2245L8.87308 14.2947C8.91712 14.3079 8.96191 14.3185 9.00722 14.3264L10.5635 18.8582C10.5418 18.8841 10.5202 18.9101 10.5 18.9375L8.46635 21.737C8.44244 21.77 8.4203 21.8041 8.4 21.8394ZM18.2726 27.2596C16.1282 27.8307 13.8718 27.8307 11.7274 27.2596L10.2764 23.1635C10.2952 23.1404 10.3154 23.1187 10.3327 23.0942L12.3678 20.2933C12.3917 20.2608 12.4138 20.2271 12.4341 20.1923H17.5659C17.5862 20.2271 17.6084 20.2608 17.6322 20.2933L19.6673 23.0942C19.6846 23.1187 19.7048 23.1404 19.7236 23.1635L18.2726 27.2596ZM21.6 21.8351C21.5797 21.7998 21.5576 21.7656 21.5337 21.7327L19.4986 18.9375C19.4784 18.9101 19.4567 18.8841 19.4351 18.8582L20.9913 14.3264C21.0367 14.3185 21.0814 14.3079 21.1255 14.2947L24.4183 13.2245C24.4467 13.2154 24.4746 13.2048 24.5019 13.1928L27.675 15.6274C27.5685 17.8367 26.8826 19.9791 25.6861 21.8394L21.6 21.8351Z" fill="url(#linear)"/>
<defs>
<linearGradient id="linear" x1="15" y1="0" x2="15" y2="30" gradientUnits="userSpaceOnUse">
<stop stop-color="#0DB1A0"/>
<stop offset="1" stop-color="#026056"/>
</linearGradient>
</defs>
</svg>
