<svg viewBox="0 0 20 20" fill="none" xmlns="http://www.w3.org/2000/svg">
<path fill-rule="evenodd" clip-rule="evenodd" d="M7.72336 1.54911C5.63474 2.11039 3.85483 3.42533 2.69315 5.18446L4.41879 5.65186L7.72336 3.25095V1.54911ZM2.06421 6.30914C1.54174 7.43061 1.25 8.68123 1.25 10C1.25 10.9465 1.40029 11.8579 1.67831 12.7117L3.653 12.9193L5.30326 10.6922L4.05425 6.84817L2.06421 6.30914ZM3.87038 16.2442C3.21335 15.5992 2.65768 14.8512 2.22945 14.0265L3.42572 14.1522L3.87038 16.2442ZM5.404 17.4472C6.73966 18.2732 8.31415 18.75 10 18.75C10.4908 18.75 10.9722 18.7096 11.441 18.6319C11.2852 18.4846 11.213 18.2641 11.259 18.0477L12.1764 13.7318L10.3931 11.4305H6.31198L4.61258 13.7238L5.404 17.4472ZM17.485 14.5343C16.4822 16.1861 14.9481 17.4795 13.1199 18.1774L12.5761 17.8634L13.3649 14.1522L17.1383 13.7557L17.485 14.5343ZM18.1986 13.0639C18.5551 12.1103 18.75 11.0779 18.75 10C18.75 9.28128 18.6633 8.58281 18.4999 7.91445L15.2679 6.13696L12.6425 6.84815L11.3961 10.6841L13.1288 12.9202L17.4592 12.465C17.7285 12.4367 17.9854 12.585 18.0955 12.8324L18.1986 13.0639ZM16.5184 4.16271C17.0466 4.7521 17.496 5.41355 17.8501 6.13049L16.1269 5.18279L16.5184 4.16271ZM15.539 3.22607C14.0304 1.99103 12.1018 1.25 10 1.25C9.65269 1.25 9.31011 1.27023 8.97336 1.30959V3.25095L12.2779 5.65186L14.8783 4.94746L15.539 3.22607ZM5.27887 6.57206L8.34837 4.34194L11.4179 6.57206L10.2454 10.1805H6.45131L5.27887 6.57206Z" fill="currentColor"/>
</svg>
