<svg viewBox="0 0 25 22" fill="none" xmlns="http://www.w3.org/2000/svg">
<g clip-path="url(#clip0_851_3534)">
<g style="mix-blend-mode:multiply">
<path d="M24.9535 17.7913C24.9535 19.6501 20.2298 21.1539 14.4033 21.1539C8.57671 21.1539 3.853 19.6501 3.853 17.7913C3.853 15.9326 8.57671 14.4258 14.4033 14.4258C20.2298 14.4258 24.9535 15.9326 24.9535 17.7913Z" fill="#E7D3BC"/>
</g>
<path d="M19.3785 10.4707C19.3634 12.3435 18.8464 14.1708 17.891 15.7287C16.9356 17.2865 15.5833 18.5072 13.9997 19.241C13.587 19.4418 13.1611 19.6087 12.7255 19.7403C10.5571 20.3886 8.24837 20.1874 6.20243 19.1719C5.17276 18.6664 4.23689 17.96 3.44117 17.0876C3.22494 16.8389 3.02103 16.5779 2.83032 16.3056C2.06496 15.2615 1.51365 14.0515 1.21337 12.7565C1.05909 12.0983 0.971959 11.4235 0.953552 10.7444C0.953552 10.6572 0.953552 10.57 0.953552 10.4828C0.953735 9.9792 0.989775 9.47642 1.06135 8.97893C1.14331 8.44208 1.26722 7.91383 1.43173 7.39991C1.89344 6.01002 2.63682 4.7511 3.60672 3.71653C4.57662 2.68196 5.74815 1.8983 7.0344 1.4237C7.59019 1.20816 8.16422 1.05301 8.74809 0.960517C9.21743 0.883741 9.69142 0.845536 10.166 0.846226C11.4922 0.838201 12.8047 1.13769 14.0162 1.72475C15.2278 2.3118 16.3104 3.17297 17.1922 4.25089C17.3331 4.42233 17.4686 4.60279 17.5957 4.78626C18.6166 6.22723 19.2276 7.96171 19.3536 9.77596C19.3702 9.99852 19.3785 10.2271 19.3785 10.4707Z" fill="url(#paint0_linear_851_3534)"/>
<path d="M7.95483 17.6079C7.27764 17.1537 5.76572 15.8574 4.53021 15.5476C4.41412 15.1536 4.30908 14.7506 4.2234 14.3446C4.63056 14.4482 5.04317 14.5245 5.45892 14.5732C10.2573 15.1506 15.2463 12.9671 19.3785 10.4707C19.3785 10.2421 19.3785 10.0136 19.3537 9.79099C15.426 12.2182 10.9538 14.2002 6.36275 14.0228C5.58937 13.9959 4.82224 13.8625 4.07967 13.6258C3.93099 12.7382 3.84964 11.8389 3.83644 10.9369C4.46464 11.1015 5.11794 11.1179 5.75246 10.9851C6.38699 10.8523 6.98807 10.5734 7.51535 10.1669C9.90899 8.46461 11.631 5.60132 14.4254 4.69C15.4691 4.36019 16.582 4.39915 17.604 4.80129C17.4769 4.61782 17.3276 4.43736 17.2005 4.26592C15.7912 4.03205 14.3498 4.25268 13.0544 4.90054C10.8709 5.95924 9.22075 8.12475 7.31081 9.59549C6.81234 9.97038 6.24382 10.2206 5.64601 10.3283C5.04819 10.4359 4.4359 10.3983 3.85302 10.2181C3.94147 6.20286 5.45892 2.38012 8.7481 0.96051C8.16423 1.053 7.5902 1.20815 7.03441 1.42369C4.59654 3.22828 3.31127 6.47355 3.07633 9.89325C2.68282 9.67824 2.32354 9.39594 2.01218 9.05712C1.63321 8.68747 1.40125 8.17189 1.3654 7.61946C1.24221 7.94595 1.15949 8.28883 1.1194 8.63906C1.26037 9.25864 2.19737 10.2662 3.02934 10.6782C3.00656 11.5311 3.05187 12.3844 3.16478 13.2287C2.1338 12.7174 1.29354 11.9114 0.953563 10.7444C0.943638 11.2889 1.00223 11.8323 1.1277 12.3595C1.69637 13.1177 2.43921 13.6988 3.28087 14.0438C3.36727 14.5411 3.47799 15.0331 3.61255 15.5176C3.42704 15.5797 3.26263 15.7003 3.14013 15.8641C3.01762 16.028 2.94251 16.2276 2.92431 16.4379C3.08442 16.6656 3.25702 16.8825 3.44118 17.0876C3.44118 16.5793 3.59044 16.3176 3.8088 16.2123C4.03425 16.8978 4.31161 17.5618 4.638 18.1974C5.12535 18.58 5.64557 18.9103 6.19138 19.1839C5.60345 18.3057 5.12827 17.3445 4.77897 16.3266C5.04608 16.4469 5.30719 16.5825 5.56119 16.7327C6.30471 17.1537 6.9736 17.7041 7.70054 18.1523C9.2213 19.1367 10.946 19.6871 12.7145 19.7523C13.1501 19.6207 13.576 19.4538 13.9887 19.2531C12.3441 19.5899 9.79843 18.8501 7.95483 17.6079Z" fill="url(#paint1_linear_851_3534)"/>
<path opacity="0.44" d="M11.2578 2.729C11.6586 3.8689 10.3402 5.47198 8.31413 6.31111C6.28811 7.15025 4.32565 6.91265 3.92487 5.76673C3.52408 4.62081 4.84529 3.02074 6.86855 2.1816C8.89181 1.34247 10.8598 1.58609 11.2578 2.729Z" fill="#F2F2A8"/>
</g>
<defs>
<linearGradient id="paint0_linear_851_3534" x1="16.5537" y1="17.4334" x2="2.70151" y2="4.7006" gradientUnits="userSpaceOnUse">
<stop stop-color="#F67A26"/>
<stop offset="0.18" stop-color="#F78522"/>
<stop offset="0.51" stop-color="#FAA316"/>
<stop offset="0.93" stop-color="#FED203"/>
<stop offset="0.99" stop-color="#FFD900"/>
</linearGradient>
<linearGradient id="paint1_linear_851_3534" x1="10.166" y1="19.7403" x2="10.166" y2="0.96051" gradientUnits="userSpaceOnUse">
<stop stop-color="#2E0000"/>
<stop offset="0.14" stop-color="#430A0A"/>
<stop offset="0.72" stop-color="#983436"/>
<stop offset="0.99" stop-color="#BA4547"/>
</linearGradient>
<clipPath id="clip0_851_3534">
<rect width="24" height="20.3077" fill="white" transform="translate(0.953552 0.846252)"/>
</clipPath>
</defs>
</svg>
