<svg viewBox="0 0 16 16" fill="none" xmlns="http://www.w3.org/2000/svg">
<path d="M5.69908 3.00458C6.42325 0.775818 9.57635 0.775818 10.3005 3.00458C10.6244 4.00131 11.5532 4.67615 12.6012 4.67615C14.9447 4.67615 15.9191 7.67492 14.0232 9.05237C13.1753 9.66839 12.8205 10.7603 13.1444 11.757C13.8685 13.9858 11.3176 15.8391 9.42172 14.4617C8.57385 13.8457 7.42575 13.8457 6.57788 14.4617C4.68198 15.8391 2.13107 13.9858 2.85524 11.757C3.1791 10.7603 2.82431 9.66839 1.97644 9.05237C0.0805464 7.67492 1.05491 4.67615 3.39837 4.67615C4.44639 4.67615 5.37523 4.00131 5.69908 3.00458Z" fill="#FFD700" stroke="white" stroke-width="1.5"/>
</svg>
