<svg viewBox="0 0 24 25" fill="none" xmlns="http://www.w3.org/2000/svg">
<path d="M8.54862 4.88821C9.63488 1.54507 14.3645 1.54507 15.4508 4.88821C15.9366 6.38331 17.3298 7.39557 18.9019 7.39557C22.417 7.39557 23.8786 11.8937 21.0347 13.9599C19.7629 14.8839 19.2308 16.5218 19.7165 18.0169C20.8028 21.36 16.9764 24.1401 14.1326 22.0739C12.8608 21.1499 11.1386 21.1499 9.86682 22.0739C7.02297 24.14 3.19661 21.36 4.28286 18.0169C4.76865 16.5218 4.23647 14.8839 2.96466 13.9599C0.12082 11.8937 1.58236 7.39557 5.09755 7.39557C6.66959 7.39557 8.06284 6.38331 8.54862 4.88821Z" stroke="currentColor" stroke-width="1.5"/>
</svg>
