<svg viewBox="0 0 24 25" fill="none" xmlns="http://www.w3.org/2000/svg">
<path d="M16.1645 4.65645C14.8538 0.622329 9.14656 0.622329 7.83579 4.65645C7.45041 5.84253 6.34513 6.64557 5.09801 6.64557C0.856281 6.64557 -0.907344 12.0734 2.52429 14.5667C3.53323 15.2997 3.95541 16.599 3.57003 17.7851C2.25926 21.8193 6.87649 25.1739 10.3081 22.6806C11.3171 21.9476 12.6833 21.9476 13.6922 22.6806C17.1238 25.1739 21.7411 21.8193 20.4303 17.7851C20.0449 16.599 20.4671 15.2997 21.476 14.5667C24.9077 12.0734 23.144 6.64557 18.9023 6.64557C17.6552 6.64557 16.5499 5.84253 16.1645 4.65645Z" fill="currentColor"/>
</svg>
