<svg viewBox="0 0 18 18" fill="none" xmlns="http://www.w3.org/2000/svg">
<path fill-rule="evenodd" clip-rule="evenodd" d="M0.954915 2.06107C0 3.3754 0 5.25027 0 9C0 12.7497 0 14.6246 0.954915 15.9389C1.26331 16.3634 1.6366 16.7367 2.06107 17.0451C3.3754 18 5.25027 18 9 18C12.7497 18 14.6246 18 15.9389 17.0451C16.3634 16.7367 16.7367 16.3634 17.0451 15.9389C18 14.6246 18 12.7497 18 9C18 5.25027 18 3.3754 17.0451 2.06107C16.7367 1.6366 16.3634 1.26331 15.9389 0.954915C14.6246 0 12.7497 0 9 0C5.25027 0 3.3754 0 2.06107 0.954915C1.6366 1.26331 1.26331 1.6366 0.954915 2.06107ZM10.96 3.89858C11.2429 3.61458 11.5884 3.34588 12.0483 3.2726C12.1427 3.25757 12.2379 3.25 12.3334 3.25C12.4289 3.25 12.5242 3.25757 12.6185 3.2726C13.0785 3.34588 13.424 3.61458 13.7069 3.89858C13.9795 4.17232 14.2805 4.55188 14.6294 4.99197L15.5878 6.2007C15.8451 6.52527 15.7906 6.997 15.4661 7.25435C15.1415 7.5117 14.6697 7.45721 14.4124 7.13264L13.4805 5.95732C13.3289 5.76614 13.1985 5.6019 13.0834 5.46043V13.3333C13.0834 13.7475 12.7476 14.0833 12.3334 14.0833C11.9192 14.0833 11.5834 13.7475 11.5834 13.3333V5.46044C11.4684 5.6019 11.3379 5.76614 11.1863 5.95732L10.2544 7.13264C9.99709 7.45721 9.52535 7.5117 9.20078 7.25435C8.87621 6.997 8.82172 6.52527 9.07907 6.2007L10.0374 4.99199C10.3864 4.5519 10.6873 4.17233 10.96 3.89858ZM6.41667 4.6665C6.41667 4.25229 6.08088 3.9165 5.66667 3.9165C5.25245 3.9165 4.91667 4.25229 4.91667 4.6665L4.91667 12.5394C4.80163 12.3979 4.67117 12.2337 4.51958 12.0425L3.58768 10.8672C3.33034 10.5426 2.8586 10.4881 2.53403 10.7455C2.20946 11.0028 2.15497 11.4746 2.41232 11.7991L3.37069 13.0079C3.71961 13.4479 4.02053 13.8275 4.29323 14.1013C4.57613 14.3853 4.92161 14.654 5.38155 14.7272C5.47591 14.7423 5.57119 14.7498 5.66667 14.7498C5.76215 14.7498 5.85742 14.7423 5.95179 14.7272C6.41173 14.654 6.7572 14.3853 7.04011 14.1013C7.3128 13.8275 7.61372 13.448 7.96262 13.0079L8.92102 11.7991C9.17837 11.4746 9.12387 11.0028 8.7993 10.7455C8.47474 10.4881 8.003 10.5426 7.74565 10.8672L6.81375 12.0425C6.66217 12.2337 6.53171 12.3979 6.41667 12.5394L6.41667 4.6665Z" fill="currentColor"/>
</svg>
