<svg viewBox="0 0 20 20" fill="none" xmlns="http://www.w3.org/2000/svg">
<path fill-rule="evenodd" clip-rule="evenodd" d="M13.1792 13.8185C13.9877 13.2141 14.7116 12.4046 15.2963 11.3919C17.4392 7.68037 16.2661 3.71362 13.0775 1.87268C9.88891 0.0317328 5.89218 1.0137 3.74933 4.72524C3.16463 5.73796 2.82556 6.76968 2.70639 7.77204L7.82645 10.7281L13.1792 13.8185ZM11.9505 14.5525L7.20145 11.8106L2.68513 9.20314C2.8768 11.3017 4.05447 13.1493 5.9514 14.2445C7.84833 15.3397 10.0372 15.4358 11.9505 14.5525ZM4.45459 14.7478L2.66402 17.2457C2.52053 17.4458 2.58105 17.7261 2.79434 17.8493L4.46355 18.813C4.67996 18.9379 4.95692 18.8456 5.05507 18.6158L6.26149 15.7911C5.94457 15.6583 5.63203 15.5035 5.32554 15.3266C5.01879 15.1495 4.72826 14.956 4.45459 14.7478ZM15.8338 18.75C16.9844 18.75 17.9172 17.8173 17.9172 16.6667C17.9172 15.5161 16.9844 14.5834 15.8338 14.5834C14.6832 14.5834 13.7505 15.5161 13.7505 16.6667C13.7505 17.8173 14.6832 18.75 15.8338 18.75Z" fill="currentColor"/>
</svg>
