<svg viewBox="0 0 20 20" fill="none" xmlns="http://www.w3.org/2000/svg">
<path fill-rule="evenodd" clip-rule="evenodd" d="M15.9295 2.89598C15.5319 2.66451 15.0849 2.51377 14.6116 2.44609L13.3546 3.70318L12.3673 2.7159C11.9723 2.86489 11.5827 3.06796 11.2099 3.32625L12.4707 4.58706L10.9975 6.0602L9.73685 4.79951C9.4786 5.17237 9.27559 5.56204 9.12667 5.9571L10.1136 6.94408L8.85722 8.20051C8.9249 8.67379 9.07564 9.12079 9.30711 9.51839L10.9975 7.82796L12.176 9.00648L10.4858 10.6967C10.8835 10.9281 11.3307 11.0787 11.804 11.1462L13.0599 9.89036L14.0462 10.8766C14.4413 10.7277 14.8309 10.5247 15.2038 10.2664L13.9438 9.00648L15.417 7.53334L16.677 8.79343C16.9353 8.42063 17.1384 8.03102 17.2874 7.63601L16.3008 6.64946L17.5574 5.39291C17.4898 4.91953 17.3392 4.4724 17.1078 4.07468L15.417 5.76557L14.2384 4.58706L15.9295 2.89598ZM17.4793 2.52398C15.379 0.423669 11.8117 0.825897 9.52436 3.11323C8.24961 4.38798 7.56036 6.06029 7.56349 7.65465C7.41825 8.63854 7.1035 9.93913 6.77316 11.0536C6.6054 11.6196 6.43689 12.1264 6.28917 12.5102C6.21503 12.7028 6.14938 12.8559 6.09483 12.9666C6.06002 13.0372 6.03787 13.0734 6.02947 13.0871C6.02857 13.0885 6.02783 13.0898 6.02725 13.0907C6.02644 13.0921 6.02594 13.0929 6.02575 13.0934L4.80493 14.3113C4.78391 14.3127 4.76275 14.315 4.74147 14.318L4.05401 14.4162C3.87551 14.4417 3.7101 14.5244 3.5826 14.6519L1.42181 16.8127C1.09638 17.1381 1.09638 17.6658 1.42181 17.9912L2.01107 18.5805C2.3365 18.9059 2.86414 18.9059 3.18958 18.5805L5.35037 16.4197C5.47787 16.2922 5.56057 16.1268 5.58607 15.9483L5.68428 15.2608C5.68754 15.238 5.68985 15.2153 5.69125 15.1928L6.90949 13.9774C6.91002 13.9773 6.9121 13.976 6.91602 13.9736C6.92974 13.9652 6.96593 13.9431 7.03652 13.9083C7.14716 13.8537 7.30025 13.7881 7.49287 13.7139C7.87667 13.5662 8.3835 13.3977 8.94949 13.2299C10.0635 12.8997 11.3634 12.5851 12.3471 12.4398C13.9419 12.4434 15.6149 11.7541 16.8901 10.4789C19.1774 8.19159 19.5796 4.62428 17.4793 2.52398ZM7.97162 11.4088C8.0803 11.0422 8.18817 10.6534 8.28976 10.2594C8.47003 10.5467 8.68479 10.8179 8.93511 11.0682C9.18534 11.3184 9.45639 11.5331 9.74362 11.7133C9.34961 11.8149 8.96087 11.9228 8.59426 12.0315C8.2739 12.1264 7.96708 12.223 7.68536 12.3177C7.7801 12.036 7.87667 11.7292 7.97162 11.4088ZM13.3546 5.47094L11.8814 6.94408L13.0599 8.12259L14.5331 6.64945L13.3546 5.47094Z" fill="currentColor"/>
</svg>
