<svg viewBox="0 0 18 18" fill="none" xmlns="http://www.w3.org/2000/svg">
<path fill-rule="evenodd" clip-rule="evenodd" d="M0.954915 2.06107C0 3.3754 0 5.25027 0 9C0 12.7497 0 14.6246 0.954915 15.9389C1.26331 16.3634 1.6366 16.7367 2.06107 17.0451C3.3754 18 5.25027 18 9 18C12.7497 18 14.6246 18 15.9389 17.0451C16.3634 16.7367 16.7367 16.3634 17.0451 15.9389C18 14.6246 18 12.7497 18 9C18 5.25027 18 3.3754 17.0451 2.06107C16.7367 1.6366 16.3634 1.26331 15.9389 0.954915C14.6246 0 12.7497 0 9 0C5.25027 0 3.3754 0 2.06107 0.954915C1.6366 1.26331 1.26331 1.6366 0.954915 2.06107ZM14.5588 6.50027C14.8351 6.19167 14.8089 5.71752 14.5003 5.44123C14.1917 5.16493 13.7175 5.19113 13.4412 5.49973L10.0721 9.26291C9.38935 10.0254 8.9296 10.5363 8.53652 10.8667C8.16207 11.1814 7.94213 11.25 7.75 11.25C7.55787 11.25 7.33794 11.1814 6.96348 10.8667C6.5704 10.5363 6.11064 10.0254 5.42794 9.26291L4.55877 8.29209C4.28248 7.98349 3.80833 7.9573 3.49973 8.23359C3.19113 8.50988 3.16493 8.98403 3.44123 9.29263L4.34753 10.3049C4.98337 11.0152 5.51374 11.6076 5.99835 12.0149C6.51099 12.4458 7.06393 12.75 7.75 12.75C8.43607 12.75 8.98901 12.4458 9.50165 12.0149C9.98626 11.6076 10.5166 11.0152 11.1525 10.3049L14.5588 6.50027Z" fill="currentColor"/>
</svg>
