<svg viewBox="0 0 24 25" fill="none" xmlns="http://www.w3.org/2000/svg">
<path fill-rule="evenodd" clip-rule="evenodd" d="M12 1.63089C6.06294 1.63089 1.25 6.44383 1.25 12.3809C1.25 18.3179 6.06294 23.1309 12 23.1309C17.9371 23.1309 22.75 18.3179 22.75 12.3809C22.75 6.44383 17.9371 1.63089 12 1.63089ZM12.75 8.38089C12.75 7.96667 12.4142 7.63089 12 7.63089C11.5858 7.63089 11.25 7.96667 11.25 8.38089L11.25 11.8809C11.25 12.2951 10.9142 12.6309 10.5 12.6309H9C8.58579 12.6309 8.25 12.9667 8.25 13.3809C8.25 13.7951 8.58579 14.1309 9 14.1309H10.5C11.7426 14.1309 12.75 13.1235 12.75 11.8809L12.75 8.38089Z" fill="currentColor"/>
<path d="M5.96852 2.21654C6.29197 1.95778 6.34441 1.48581 6.08565 1.16237C5.82689 0.838919 5.35493 0.786478 5.03148 1.04524L2.53148 3.04524C2.20803 3.30399 2.15559 3.77596 2.41435 4.09941C2.67311 4.42285 3.14507 4.4753 3.46852 4.21654L5.96852 2.21654Z" fill="currentColor"/>
<path d="M18.9685 1.04524C18.6451 0.786478 18.1731 0.838919 17.9143 1.16237C17.6556 1.48581 17.708 1.95778 18.0315 2.21654L20.5315 4.21654C20.8549 4.4753 21.3269 4.42285 21.5857 4.09941C21.8444 3.77596 21.792 3.30399 21.4685 3.04524L18.9685 1.04524Z" fill="currentColor"/>
</svg>
