<svg viewBox="0 0 24 25" fill="none" xmlns="http://www.w3.org/2000/svg">
<path d="M18.5172 13.1603L19.26 13.2637L18.5172 13.1603ZM18.2549 15.0454L18.9977 15.1488L18.2549 15.0454ZM5.74514 15.0454L6.48798 14.942L5.74514 15.0454ZM5.4828 13.1604L4.73996 13.2637L5.4828 13.1604ZM9.18365 22.1177L8.89206 22.8087L9.18365 22.1177ZM6.47508 18.9412L7.17907 18.6825L6.47508 18.9412ZM17.5249 18.9412L18.2289 19.1998V19.1998L17.5249 18.9412ZM14.8164 22.1177L14.5248 21.4267H14.5248L14.8164 22.1177ZM5.74664 9.30992C5.70746 8.89756 5.34142 8.59504 4.92906 8.63422C4.5167 8.6734 4.21418 9.03944 4.25336 9.4518L5.74664 9.30992ZM19.7466 9.4518C19.7858 9.03944 19.4833 8.6734 19.0709 8.63422C18.6586 8.59504 18.2925 8.89756 18.2534 9.30992L19.7466 9.4518ZM20 8.13086C20.4142 8.13086 20.75 7.79507 20.75 7.38086C20.75 6.96665 20.4142 6.63086 20 6.63086V8.13086ZM4 6.63086C3.58579 6.63086 3.25 6.96665 3.25 7.38086C3.25 7.79507 3.58579 8.13086 4 8.13086V6.63086ZM9.25 18.3809C9.25 18.7951 9.58579 19.1309 10 19.1309C10.4142 19.1309 10.75 18.7951 10.75 18.3809H9.25ZM10.75 10.3809C10.75 9.96665 10.4142 9.63086 10 9.63086C9.58579 9.63086 9.25 9.96665 9.25 10.3809H10.75ZM13.25 18.3809C13.25 18.7951 13.5858 19.1309 14 19.1309C14.4142 19.1309 14.75 18.7951 14.75 18.3809H13.25ZM14.75 10.3809C14.75 9.96665 14.4142 9.63086 14 9.63086C13.5858 9.63086 13.25 9.96665 13.25 10.3809H14.75ZM16 7.38086V8.13086H16.75V7.38086H16ZM8 7.38086H7.25V8.13086H8V7.38086ZM17.7744 13.057L17.512 14.942L18.9977 15.1488L19.26 13.2637L17.7744 13.057ZM6.48798 14.942L6.22564 13.057L4.73996 13.2637L5.0023 15.1488L6.48798 14.942ZM12 21.6309C10.4708 21.6309 9.92544 21.6167 9.47524 21.4267L8.89206 22.8087C9.68914 23.145 10.6056 23.1309 12 23.1309V21.6309ZM5.0023 15.1488C5.282 17.1586 5.43406 18.2825 5.77109 19.1998L7.17907 18.6825C6.91156 17.9544 6.77851 17.0296 6.48798 14.942L5.0023 15.1488ZM9.47524 21.4267C8.55279 21.0374 7.69496 20.0867 7.17907 18.6825L5.77109 19.1998C6.3857 20.8727 7.48205 22.2137 8.89206 22.8087L9.47524 21.4267ZM17.512 14.942C17.2215 17.0296 17.0884 17.9544 16.8209 18.6825L18.2289 19.1998C18.5659 18.2825 18.718 17.1586 18.9977 15.1488L17.512 14.942ZM12 23.1309C13.3944 23.1309 14.3109 23.145 15.1079 22.8087L14.5248 21.4267C14.0746 21.6167 13.5292 21.6309 12 21.6309V23.1309ZM16.8209 18.6825C16.305 20.0867 15.4472 21.0374 14.5248 21.4267L15.1079 22.8087C16.5179 22.2137 17.6143 20.8727 18.2289 19.1998L16.8209 18.6825ZM6.22564 13.057C6.00352 11.4609 5.83766 10.2679 5.74664 9.30992L4.25336 9.4518C4.34819 10.4498 4.51961 11.6804 4.73996 13.2637L6.22564 13.057ZM19.26 13.2637C19.4804 11.6804 19.6518 10.4498 19.7466 9.4518L18.2534 9.30992C18.1623 10.2679 17.9965 11.4609 17.7744 13.057L19.26 13.2637ZM20 6.63086H4V8.13086H20V6.63086ZM10.75 18.3809V10.3809H9.25V18.3809H10.75ZM14.75 18.3809V10.3809H13.25V18.3809H14.75ZM15.25 6.38086V7.38086H16.75V6.38086H15.25ZM16 6.63086H8V8.13086H16V6.63086ZM8.75 7.38086V6.38086H7.25V7.38086H8.75ZM12 3.13086C13.7949 3.13086 15.25 4.58593 15.25 6.38086H16.75C16.75 3.75751 14.6234 1.63086 12 1.63086V3.13086ZM12 1.63086C9.37665 1.63086 7.25 3.75751 7.25 6.38086H8.75C8.75 4.58593 10.2051 3.13086 12 3.13086V1.63086Z" fill="currentColor"/>
</svg>
