<svg viewBox="0 0 24 25" fill="none" xmlns="http://www.w3.org/2000/svg">
<path d="M7.21783 21.3193L7.1005 22.0601H7.1005L7.21783 21.3193ZM3.06156 17.163L3.80232 17.0457L3.06156 17.163ZM20.9384 17.163L21.6792 17.2804V17.2804L20.9384 17.163ZM16.7822 21.3193L16.8995 22.0601H16.8995L16.7822 21.3193ZM20.6 10.9304C20.3513 10.5992 19.8811 10.5324 19.5499 10.7812C19.2187 11.0299 19.1519 11.5001 19.4007 11.8313L20.6 10.9304ZM4.59931 11.8313C4.84808 11.5001 4.78126 11.0299 4.45007 10.7812C4.11888 10.5324 3.64873 10.5992 3.39996 10.9304L4.59931 11.8313ZM11.25 17.3809C11.25 17.7951 11.5858 18.1309 12 18.1309C12.4142 18.1309 12.75 17.7951 12.75 17.3809H11.25ZM7.41232 6.91489C7.15497 7.23946 7.20946 7.71119 7.53403 7.96854C7.8586 8.22589 8.33034 8.1714 8.58768 7.84683L7.41232 6.91489ZM9.39785 5.61789L8.81016 5.15192L9.39785 5.61789ZM14.6022 5.61789L15.1898 5.15192L14.6022 5.61789ZM15.4123 7.84683C15.6697 8.1714 16.1414 8.22589 16.466 7.96854C16.7905 7.7112 16.845 7.23946 16.5877 6.91489L15.4123 7.84683ZM11.7493 3.40075L11.6313 2.66009L11.6313 2.66009L11.7493 3.40075ZM12.2507 3.40075L12.3687 2.66009L12.3687 2.66009L12.2507 3.40075ZM20.25 14.3809V15.3809H21.75V14.3809H20.25ZM15 20.6309H9V22.1309H15V20.6309ZM3.75 15.3809V14.3809H2.25V15.3809H3.75ZM9 20.6309C8.04233 20.6309 7.65082 20.6285 7.33515 20.5785L7.1005 22.0601C7.56216 22.1332 8.09965 22.1309 9 22.1309V20.6309ZM2.25 15.3809C2.25 16.2812 2.24767 16.8187 2.32079 17.2804L3.80232 17.0457C3.75233 16.73 3.75 16.3385 3.75 15.3809H2.25ZM7.33515 20.5785C5.51661 20.2905 4.09035 18.8642 3.80232 17.0457L2.32079 17.2804C2.71048 19.7407 4.64012 21.6704 7.1005 22.0601L7.33515 20.5785ZM20.25 15.3809C20.25 16.3385 20.2477 16.73 20.1977 17.0457L21.6792 17.2804C21.7523 16.8187 21.75 16.2812 21.75 15.3809H20.25ZM15 22.1309C15.9003 22.1309 16.4378 22.1332 16.8995 22.0601L16.6648 20.5785C16.3492 20.6285 15.9577 20.6309 15 20.6309V22.1309ZM20.1977 17.0457C19.9096 18.8642 18.4834 20.2905 16.6648 20.5785L16.8995 22.0601C19.3599 21.6704 21.2895 19.7407 21.6792 17.2804L20.1977 17.0457ZM21.75 14.3809C21.75 13.0873 21.3219 11.8915 20.6 10.9304L19.4007 11.8313C19.9342 12.5415 20.25 13.4232 20.25 14.3809H21.75ZM3.75 14.3809C3.75 13.4232 4.06583 12.5415 4.59931 11.8313L3.39996 10.9304C2.67806 11.8915 2.25 13.0873 2.25 14.3809H3.75ZM12.75 17.3809V4.38086H11.25V17.3809H12.75ZM8.58768 7.84683L9.98553 6.08386L8.81016 5.15192L7.41232 6.91489L8.58768 7.84683ZM14.0145 6.08386L15.4123 7.84683L16.5877 6.91489L15.1898 5.15192L14.0145 6.08386ZM9.98553 6.08386C10.5543 5.36654 10.9418 4.8797 11.2682 4.55199C11.5913 4.22764 11.7612 4.15832 11.8673 4.14141L11.6313 2.66009C11.0582 2.75141 10.6096 3.0877 10.2055 3.49338C9.80475 3.89569 9.35616 4.46331 8.81016 5.15192L9.98553 6.08386ZM15.1898 5.15192C14.6438 4.46331 14.1953 3.8957 13.7945 3.49338C13.3904 3.08771 12.9418 2.75141 12.3687 2.66009L12.1327 4.14141C12.2388 4.15833 12.4087 4.22764 12.7318 4.55199C13.0582 4.8797 13.4457 5.36654 14.0145 6.08386L15.1898 5.15192ZM11.8673 4.14141C11.9117 4.13434 11.9559 4.13086 12 4.13086V2.63086C11.8766 2.63086 11.7534 2.64064 11.6313 2.66009L11.8673 4.14141ZM12 4.13086C12.0441 4.13086 12.0883 4.13434 12.1327 4.14141L12.3687 2.66009C12.2466 2.64064 12.1234 2.63086 12 2.63086V4.13086ZM12.75 4.38086V3.38086H11.25V4.38086H12.75Z" fill="currentColor"/>
</svg>
