<svg viewBox="0 0 25 24" fill="none" xmlns="http://www.w3.org/2000/svg">
<path fill-rule="evenodd" clip-rule="evenodd" d="M4.28841 5.06107C3.3335 6.3754 3.3335 8.25027 3.3335 12C3.3335 15.7497 3.3335 17.6246 4.28841 18.9389C4.59681 19.3634 4.9701 19.7367 5.39457 20.0451C6.7089 21 8.58376 21 12.3335 21C16.0832 21 17.9581 21 19.2724 20.0451C19.6969 19.7367 20.0702 19.3634 20.3786 18.9389C21.3335 17.6246 21.3335 15.7497 21.3335 12C21.3335 8.25027 21.3335 6.3754 20.3786 5.06107C20.0702 4.6366 19.6969 4.26331 19.2724 3.95491C17.9581 3 16.0832 3 12.3335 3C8.58376 3 6.7089 3 5.39457 3.95491C4.9701 4.26331 4.59681 4.6366 4.28841 5.06107ZM10.6007 7.92869C11.0172 7.59426 11.4548 7.33989 11.988 7.27193C12.1027 7.25731 12.2181 7.25 12.3335 7.25C12.4489 7.25 12.5643 7.25731 12.679 7.27193C13.2122 7.33989 13.6498 7.59427 14.0663 7.92869C14.4633 8.24753 14.9065 8.69471 15.4378 9.23088L16.8662 10.672C17.1578 10.9662 17.1557 11.4411 16.8615 11.7327C16.5673 12.0243 16.0924 12.0222 15.8008 11.728L14.403 10.3176C13.8332 9.74268 13.4496 9.35733 13.127 9.09823C13.1122 9.08635 13.0977 9.07487 13.0835 9.06379V16C13.0835 16.4142 12.7477 16.75 12.3335 16.75C11.9193 16.75 11.5835 16.4142 11.5835 16V9.06379C11.5693 9.07487 11.5548 9.08635 11.54 9.09823C11.2174 9.35733 10.8338 9.74268 10.264 10.3176L8.86619 11.728C8.5746 12.0222 8.09973 12.0243 7.80554 11.7327C7.51134 11.4411 7.50922 10.9662 7.80081 10.672L9.22914 9.2309C9.76053 8.69472 10.2037 8.24754 10.6007 7.92869Z" fill="currentColor"/>
</svg>
