<svg viewBox="0 0 32 32" fill="none" xmlns="http://www.w3.org/2000/svg">
<path d="M32 16C32 23.8348 26.3686 30.3543 18.9322 31.7316C17.9651 31.9107 16.9836 32.0005 16 32C14.8989 32 13.824 31.889 12.7856 31.6768C5.48963 30.1891 0 23.7355 0 16C0 11.7349 1.66925 7.85831 4.3905 4.99069C4.54797 4.82432 4.70909 4.66144 4.87375 4.50219C7.75313 1.71494 11.6761 0 16 0C20.3239 0 24.2469 1.71494 27.1262 4.50219C27.1941 4.56771 27.2614 4.63388 27.328 4.70069C30.2152 7.59444 32 11.5893 32 16Z" fill="#171D2D"/>
<path d="M19.0404 12.9591H21.0675C21.0675 10.7236 19.2488 8.90493 17.0133 8.90493V6.87784H14.9862V8.90493C12.7507 8.90493 10.932 10.7236 10.932 12.9591C10.932 15.1946 12.7507 17.0133 14.9862 17.0133V21.0675C13.8685 21.0675 12.9591 20.1581 12.9591 19.0404H10.932C10.932 21.2759 12.7507 23.0946 14.9862 23.0946V25.1217H17.0133V23.0946C19.2488 23.0946 21.0675 21.2759 21.0675 19.0404C21.0675 16.8049 19.2488 14.9862 17.0133 14.9862V10.932C18.131 10.932 19.0404 11.8414 19.0404 12.9591ZM14.9862 14.9862C13.8685 14.9862 12.9591 14.0769 12.9591 12.9591C12.9591 11.8414 13.8685 10.932 14.9862 10.932V14.9862ZM19.0404 19.0404C19.0404 20.1581 18.131 21.0675 17.0133 21.0675V17.0133C18.131 17.0133 19.0404 17.9227 19.0404 19.0404ZM15.9998 3.02637C8.72493 3.02637 3.02637 8.72498 3.02637 15.9998C3.02637 23.2745 8.72493 28.9731 15.9998 28.9731C23.2746 28.9731 28.9731 23.2745 28.9731 15.9998C28.9731 8.72498 23.2746 3.02637 15.9998 3.02637ZM15.9998 26.9461C9.86167 26.9461 5.05346 22.1379 5.05346 15.9998C5.05346 9.86162 9.86167 5.05346 15.9998 5.05346C22.1378 5.05346 26.9461 9.86162 26.9461 15.9998C26.9461 22.1379 22.1378 26.9461 15.9998 26.9461Z" fill="url(#paint0_linear_29_15495)"/>
<defs>
<linearGradient id="paint0_linear_29_15495" x1="15.9998" y1="28.9731" x2="15.9998" y2="3.02637" gradientUnits="userSpaceOnUse">
<stop stop-color="#009EFD"/>
<stop offset="1" stop-color="#2AF598"/>
</linearGradient>
</defs>
</svg>
