<svg viewBox="0 0 32 32" fill="none" xmlns="http://www.w3.org/2000/svg">
<path d="M32 16C32 23.8348 26.3686 30.3543 18.9322 31.7316C17.9651 31.9107 16.9836 32.0005 16 32C14.8989 32 13.824 31.889 12.7856 31.6768C5.48963 30.1891 0 23.7355 0 16C0 11.7349 1.66925 7.85831 4.3905 4.99069C4.54797 4.82432 4.70909 4.66144 4.87375 4.50219C7.75313 1.71494 11.6761 0 16 0C20.3239 0 24.2469 1.71494 27.1262 4.50219C27.1941 4.56771 27.2614 4.63388 27.328 4.70069C30.2152 7.59444 32 11.5893 32 16Z" fill="#1BA27A"/>
<path d="M18.174 14.8136V12.1703H24.3978V8.05859H7.39394V12.1702H13.6174V14.8237C8.59024 15.0808 4.82422 16.1342 4.82422 17.3949C4.82422 18.6556 8.59024 19.709 13.6174 19.9661V28.2035C14.3871 28.3608 15.184 28.4431 16.0002 28.4431C16.7429 28.4431 17.4696 28.3749 18.174 28.2442V19.9763C23.3057 19.7381 27.1762 18.673 27.1762 17.3949C27.1762 16.1169 23.3057 15.0518 18.174 14.8136ZM16.0002 19.0197C10.3926 19.0197 5.84672 18.1749 5.84672 17.1326C5.84672 16.2428 9.15957 15.4967 13.6174 15.2977V18.3201C14.372 18.429 15.1333 18.4836 15.8957 18.4837C16.6581 18.4837 17.4194 18.429 18.174 18.3201V15.2885C22.7369 15.4739 26.1533 16.2287 26.1533 17.1325C26.1533 18.1749 21.6074 19.0197 16.0002 19.0197Z" fill="#F0EFEB"/>
</svg>
