<svg viewBox="0 0 24 25" fill="none" xmlns="http://www.w3.org/2000/svg">
<path d="M15.25 6.38086C15.25 8.17579 13.7949 9.63086 12 9.63086V11.1309C14.6234 11.1309 16.75 9.00421 16.75 6.38086H15.25ZM12 9.63086C10.2051 9.63086 8.75 8.17579 8.75 6.38086H7.25C7.25 9.00421 9.37665 11.1309 12 11.1309V9.63086ZM8.75 6.38086C8.75 4.58593 10.2051 3.13086 12 3.13086V1.63086C9.37665 1.63086 7.25 3.75751 7.25 6.38086H8.75ZM12 3.13086C13.7949 3.13086 15.25 4.58593 15.25 6.38086H16.75C16.75 3.75751 14.6234 1.63086 12 1.63086V3.13086ZM9 14.1309H15V12.6309H9V14.1309ZM15 20.6309H9V22.1309H15V20.6309ZM9 20.6309C7.20507 20.6309 5.75 19.1758 5.75 17.3809H4.25C4.25 20.0042 6.37665 22.1309 9 22.1309V20.6309ZM18.25 17.3809C18.25 19.1758 16.7949 20.6309 15 20.6309V22.1309C17.6234 22.1309 19.75 20.0042 19.75 17.3809H18.25ZM15 14.1309C16.7949 14.1309 18.25 15.5859 18.25 17.3809H19.75C19.75 14.7575 17.6234 12.6309 15 12.6309V14.1309ZM9 12.6309C6.37665 12.6309 4.25 14.7575 4.25 17.3809H5.75C5.75 15.5859 7.20507 14.1309 9 14.1309V12.6309Z" fill="currentColor"/>
</svg>
