<svg viewBox="0 0 25 24" fill="none" xmlns="http://www.w3.org/2000/svg">
<path d="M7.9165 8C7.9165 5.37665 10.0432 3.25 12.6665 3.25C15.2899 3.25 17.4165 5.37665 17.4165 8C17.4165 10.6234 15.2899 12.75 12.6665 12.75C10.0432 12.75 7.9165 10.6234 7.9165 8Z" fill="currentColor"/>
<path fill-rule="evenodd" clip-rule="evenodd" d="M11.8127 1.25H13.5203C14.9761 1.24999 16.1175 1.24999 17.0329 1.32925C17.9653 1.40998 18.7333 1.57719 19.4222 1.95335C20.3897 2.48162 21.1849 3.27685 21.7132 4.24432C22.0893 4.9332 22.2565 5.70118 22.3373 6.63362C22.4165 7.54902 22.4165 8.69034 22.4165 10.1461V13.2998C22.4165 13.3587 22.4165 13.3945 22.4162 13.4257C22.3947 15.4183 21.3604 17.1666 19.8068 18.181C18.9199 18.7601 17.8627 19.1011 16.7286 19.1133C16.6975 19.1136 16.6619 19.1136 16.6036 19.1136L16.5918 19.1136L16.5906 19.1136C16.5236 19.114 16.4595 19.1413 16.4128 19.1893L16.0519 19.5642C15.4064 20.235 14.8691 20.7932 14.3839 21.1768C13.8725 21.5811 13.329 21.8659 12.6665 21.8659C12.004 21.8659 11.4605 21.5811 10.9491 21.1768C10.4639 20.7932 9.92663 20.2349 9.28107 19.5642L8.92102 19.1901L8.92021 19.1893C8.87348 19.1413 8.80943 19.114 8.74244 19.1136L8.74121 19.1136L8.72944 19.1136C8.67108 19.1136 8.63549 19.1136 8.60445 19.1133C7.47027 19.1011 6.41309 18.7601 5.52619 18.181C3.97262 17.1666 2.93834 15.4183 2.91684 13.4257C2.9165 13.3946 2.9165 13.359 2.9165 13.3005V10.1462C2.9165 8.69035 2.91649 7.54902 2.99575 6.63362C3.07648 5.70118 3.24369 4.9332 3.61985 4.24432C4.14813 3.27685 4.94336 2.48162 5.91082 1.95335C6.59971 1.57719 7.36768 1.40998 8.30013 1.32925C9.21553 1.24999 10.3569 1.24999 11.8127 1.25ZM8.42951 2.82366C7.59594 2.89583 7.06088 3.03442 6.62969 3.26987C5.91461 3.66033 5.32683 4.24811 4.93637 4.96319C4.70092 5.39438 4.56233 5.92944 4.49016 6.76301C4.41716 7.60616 4.4165 8.68267 4.4165 10.1818V13.2949C4.4165 13.3607 4.41652 13.3876 4.41675 13.4095C4.42938 14.58 4.91425 15.637 5.69156 16.3989C6.53966 15.1054 8.00256 14.25 9.6665 14.25H15.6665C17.3304 14.25 18.7933 15.1054 19.6415 16.3989C20.4188 15.637 20.9036 14.58 20.9163 13.4095C20.9165 13.3876 20.9165 13.3607 20.9165 13.2949V10.1818C20.9165 8.68267 20.9158 7.60616 20.8428 6.76301C20.7707 5.92944 20.6321 5.39438 20.3966 4.96319C20.0062 4.24811 19.4184 3.66033 18.7033 3.26987C18.2721 3.03442 17.7371 2.89583 16.9035 2.82366C16.0603 2.75066 14.9838 2.75 13.4847 2.75H11.8483C10.3492 2.75 9.27266 2.75066 8.42951 2.82366Z" fill="currentColor"/>
</svg>
