<svg viewBox="0 0 24 25" fill="none" xmlns="http://www.w3.org/2000/svg">
<path d="M17 8.13086C17 9.3735 15.9926 10.3809 14.75 10.3809V11.8809C16.8211 11.8809 18.5 10.2019 18.5 8.13086H17ZM14.75 10.3809C13.5074 10.3809 12.5 9.3735 12.5 8.13086H11C11 10.2019 12.6789 11.8809 14.75 11.8809V10.3809ZM12.5 8.13086C12.5 6.88822 13.5074 5.88086 14.75 5.88086V4.38086C12.6789 4.38086 11 6.05979 11 8.13086H12.5ZM14.75 5.88086C15.9926 5.88086 17 6.88822 17 8.13086H18.5C18.5 6.05979 16.8211 4.38086 14.75 4.38086V5.88086ZM11.75 14.8809H17.75V13.3809H11.75V14.8809ZM17.75 19.3809H11.75V20.8809H17.75V19.3809ZM11.75 19.3809C10.5074 19.3809 9.5 18.3735 9.5 17.1309H8C8 19.2019 9.67893 20.8809 11.75 20.8809V19.3809ZM20 17.1309C20 18.3735 18.9926 19.3809 17.75 19.3809V20.8809C19.8211 20.8809 21.5 19.2019 21.5 17.1309H20ZM17.75 14.8809C18.9926 14.8809 20 15.8882 20 17.1309H21.5C21.5 15.0598 19.8211 13.3809 17.75 13.3809V14.8809ZM11.75 13.3809C9.67893 13.3809 8 15.0598 8 17.1309H9.5C9.5 15.8882 10.5074 14.8809 11.75 14.8809V13.3809Z" fill="currentColor"/>
<path d="M10.5021 10.7695C10.3444 10.5161 10.0485 10.3809 9.75 10.3809C8.50736 10.3809 7.5 9.3735 7.5 8.13086C7.5 6.88822 8.50736 5.88086 9.75 5.88086C10.0485 5.88086 10.3444 5.74559 10.5021 5.49221C10.5091 5.481 10.5161 5.46982 10.5232 5.45868C10.7858 5.04417 10.6527 4.45726 10.165 4.40356C10.0287 4.38856 9.89027 4.38086 9.75 4.38086C7.67893 4.38086 6 6.05979 6 8.13086C6 10.2019 7.67893 11.8809 9.75 11.8809C9.89027 11.8809 10.0287 11.8732 10.165 11.8582C10.6527 11.8045 10.7858 11.2176 10.5232 10.803C10.5161 10.7919 10.5091 10.7807 10.5021 10.7695Z" fill="currentColor"/>
<path d="M7.45829 18.6977C7.34477 18.5083 7.14439 18.3809 6.92359 18.3809H6.75C5.50736 18.3809 4.5 17.3735 4.5 16.1309C4.5 14.8882 5.50736 13.8809 6.75 13.8809H6.92359C7.14439 13.8809 7.34477 13.7534 7.45829 13.564C7.73539 13.1017 7.43468 12.3809 6.89569 12.3809H6.75C4.67893 12.3809 3 14.0598 3 16.1309C3 18.2019 4.67893 19.8809 6.75 19.8809H6.89569C7.43469 19.8809 7.73539 19.16 7.45829 18.6977Z" fill="currentColor"/>
</svg>
