<svg viewBox="0 0 24 24" fill="none" xmlns="http://www.w3.org/2000/svg">
<path fill-rule="evenodd" clip-rule="evenodd" d="M8.43562 2.75658C9.45899 -0.829342 14.5409 -0.829342 15.5643 2.75658C15.8911 3.90174 17.0676 4.581 18.2228 4.29145C21.84 3.38476 24.381 7.78586 21.7872 10.4651C20.9588 11.3207 20.9588 12.6792 21.7872 13.5348C24.381 16.2141 21.84 20.6152 18.2228 19.7085C17.0676 19.4189 15.8911 20.0982 15.5643 21.2433C14.5409 24.8293 9.45899 24.8293 8.43562 21.2433C8.1088 20.0982 6.93229 19.4189 5.77714 19.7085C2.15995 20.6152 -0.381026 16.2141 2.21279 13.5348C3.04112 12.6792 3.04112 11.3207 2.21279 10.4651C-0.381025 7.78586 2.15995 3.38476 5.77714 4.29145C6.93229 4.581 8.1088 3.90174 8.43562 2.75658ZM16.5762 9.48011C16.8413 9.1619 16.7983 8.68898 16.4801 8.4238C16.1619 8.15863 15.689 8.20162 15.4238 8.51983L11.9603 12.6761C11.5895 13.1211 11.3618 13.3915 11.1742 13.5609C11.0872 13.6394 11.0356 13.6707 11.0109 13.6827C11.0058 13.6851 11.0023 13.6866 11 13.6874C10.9977 13.6866 10.9942 13.6851 10.9891 13.6827C10.9644 13.6707 10.9128 13.6394 10.8258 13.5609C10.6382 13.3915 10.4105 13.1211 10.0397 12.6761L8.57617 10.9198C8.31099 10.6016 7.83807 10.5586 7.51986 10.8238C7.20165 11.089 7.15866 11.5619 7.42383 11.8801L8.91933 13.6747C9.2478 14.069 9.54391 14.4244 9.82051 14.6741C10.1214 14.9459 10.5005 15.1879 11 15.1879C11.4995 15.1879 11.8786 14.9459 12.1795 14.6741C12.4561 14.4244 12.7522 14.069 13.0807 13.6747L16.5762 9.48011Z" fill="currentColor"/>
</svg>
