<svg viewBox="0 0 24 24" fill="none" xmlns="http://www.w3.org/2000/svg">
<path d="M8.68802 6.92636L7.71151 8.389L6.0005 6.8839L6.85813 5.59534C6.99781 5.68806 7.16174 5.73752 7.3294 5.73752C7.49706 5.73752 7.66099 5.68806 7.80067 5.59534L8.68802 6.92636ZM17.9988 6.8839L16.2878 8.389L15.3113 6.92636L16.1986 5.59534C16.3383 5.68806 16.5023 5.73752 16.6699 5.73752C16.8376 5.73752 17.0015 5.68806 17.1412 5.59534L17.9988 6.8839ZM5.20656 12.3184H18.7928C19.018 12.3184 19.2339 12.4078 19.3932 12.5671C19.5524 12.7263 19.6419 12.9423 19.6419 13.1675C19.6419 13.3927 19.5524 13.6087 19.3932 13.7679C19.2339 13.9272 19.018 14.0167 18.7928 14.0167H5.20656C4.98135 14.0167 4.76537 13.9272 4.60613 13.7679C4.44688 13.6087 4.35742 13.3927 4.35742 13.1675C4.35742 12.9423 4.44688 12.7263 4.60613 12.5671C4.76537 12.4078 4.98135 12.3184 5.20656 12.3184ZM11.5609 15.2904H12.41C12.5226 15.2904 12.6306 15.3351 12.7102 15.4147C12.7898 15.4943 12.8346 15.6023 12.8346 15.7149V21.8712C12.8346 21.9838 12.7898 22.0918 12.7102 22.1714C12.6306 22.251 12.5226 22.2957 12.41 22.2957H11.5609C11.4483 22.2957 11.3403 22.251 11.2606 22.1714C11.181 22.0918 11.1363 21.9838 11.1363 21.8712V15.7149C11.1363 15.6023 11.181 15.4943 11.2606 15.4147C11.3403 15.3351 11.4483 15.2904 11.5609 15.2904ZM9.69255 15.8234L8.0639 21.9796C8.03997 22.0702 7.98674 22.1503 7.91252 22.2075C7.8383 22.2647 7.74725 22.2957 7.65356 22.2957H6.60891C6.51521 22.2957 6.42414 22.2647 6.34991 22.2076C6.27569 22.1504 6.22247 22.0702 6.19856 21.9796L4.56992 15.8234C4.55331 15.7606 4.55135 15.6948 4.56419 15.6311C4.57703 15.5673 4.60432 15.5074 4.64397 15.4559C4.68361 15.4044 4.73455 15.3627 4.79285 15.334C4.85116 15.3053 4.91527 15.2904 4.98026 15.2904H5.84044C5.93773 15.2904 6.03205 15.3238 6.10764 15.3851C6.18322 15.4463 6.23548 15.5317 6.25567 15.6268L7.13134 19.7483L8.00659 15.6268C8.02677 15.5317 8.07903 15.4463 8.15462 15.3851C8.2302 15.3238 8.32453 15.2904 8.42182 15.2904H9.28199C9.347 15.2903 9.41114 15.3053 9.46947 15.334C9.52781 15.3626 9.57877 15.4044 9.61844 15.4559C9.6581 15.5074 9.68541 15.5673 9.69826 15.631C9.71111 15.6947 9.70916 15.7606 9.69255 15.8234ZM14.1083 15.7149V21.8712C14.1083 21.9838 14.153 22.0918 14.2326 22.1714C14.3122 22.251 14.4202 22.2957 14.5328 22.2957H15.382C15.4946 22.2957 15.6026 22.251 15.6822 22.1714C15.7618 22.0918 15.8065 21.9838 15.8065 21.8712V20.3852H16.8962C18.303 20.3852 19.4436 19.2446 19.4436 17.8378C19.4436 16.431 18.303 15.2904 16.8962 15.2904H14.5328C14.4202 15.2904 14.3122 15.3351 14.2326 15.4147C14.153 15.4943 14.1083 15.6023 14.1083 15.7149ZM16.868 18.6869H15.8065V16.9886H16.868C17.0932 16.9886 17.3092 17.0781 17.4684 17.2373C17.6276 17.3966 17.7171 17.6126 17.7171 17.8378C17.7171 18.063 17.6276 18.279 17.4684 18.4382C17.3092 18.5974 17.0932 18.6869 16.868 18.6869Z" fill="currentColor"/>
<path d="M2.4474 4.67629C2.79912 4.67629 3.08425 4.39116 3.08425 4.03944C3.08425 3.68772 2.79912 3.40259 2.4474 3.40259C2.09568 3.40259 1.81055 3.68772 1.81055 4.03944C1.81055 4.39116 2.09568 4.67629 2.4474 4.67629Z" fill="currentColor"/>
<path d="M21.5529 4.67629C21.9046 4.67629 22.1897 4.39116 22.1897 4.03944C22.1897 3.68772 21.9046 3.40259 21.5529 3.40259C21.2011 3.40259 20.916 3.68772 20.916 4.03944C20.916 4.39116 21.2011 4.67629 21.5529 4.67629Z" fill="currentColor"/>
<path d="M12.0001 2.97793C12.3519 2.97793 12.637 2.6928 12.637 2.34108C12.637 1.98935 12.3519 1.70422 12.0001 1.70422C11.6484 1.70422 11.3633 1.98935 11.3633 2.34108C11.3633 2.6928 11.6484 2.97793 12.0001 2.97793Z" fill="currentColor"/>
<path d="M7.33082 5.313C7.5653 5.313 7.75539 5.12292 7.75539 4.88844C7.75539 4.65395 7.5653 4.46387 7.33082 4.46387C7.09634 4.46387 6.90625 4.65395 6.90625 4.88844C6.90625 5.12292 7.09634 5.313 7.33082 5.313Z" fill="currentColor"/>
<path d="M16.6707 5.313C16.9051 5.313 17.0952 5.12292 17.0952 4.88844C17.0952 4.65395 16.9051 4.46387 16.6707 4.46387C16.4362 4.46387 16.2461 4.65395 16.2461 4.88844C16.2461 5.12292 16.4362 5.313 16.6707 5.313Z" fill="currentColor"/>
<path d="M21.0227 4.9585L18.6408 12.1061H5.36035L2.97852 4.9585C3.01673 4.9377 3.05282 4.9135 3.08678 4.88633L7.6148 8.86878C7.6375 8.8888 7.66423 8.90371 7.69318 8.9125C7.72214 8.92129 7.75265 8.92376 7.78264 8.91973C7.81264 8.91571 7.84142 8.90528 7.86703 8.88917C7.89264 8.87305 7.9145 8.85162 7.93111 8.82632L11.5994 3.32391C11.8566 3.42858 12.1446 3.42858 12.4018 3.32391L16.0701 8.82632C16.0867 8.85162 16.1085 8.87305 16.1342 8.88917C16.1598 8.90528 16.1886 8.91571 16.2185 8.91973C16.2485 8.92376 16.279 8.92129 16.308 8.9125C16.337 8.90371 16.3637 8.8888 16.3864 8.86878L20.9144 4.88633C20.9484 4.9135 20.9845 4.9377 21.0227 4.9585Z" fill="currentColor"/>
</svg>
