<svg viewBox="0 0 20 20" fill="none" xmlns="http://www.w3.org/2000/svg">
<path fill-rule="evenodd" clip-rule="evenodd" d="M18.745 10.2994C16.5746 7.9382 13.4602 6.45845 10.0002 6.45845C9.84371 6.45845 9.68791 6.46148 9.53291 6.46747C9.61401 7.45925 9.88928 8.44947 10.3744 9.3828C11.8465 9.44335 13.2284 9.85953 14.4347 10.548C15.8445 11.3526 17.0151 12.5297 17.8121 13.9455C18.3696 12.8437 18.701 11.608 18.745 10.2994ZM17.0424 15.1939C15.4488 17.3511 12.8878 18.75 10 18.75C5.16751 18.75 1.25 14.8325 1.25 10C1.25 5.16751 5.16751 1.25 10 1.25C9.99992 1.25 10.0001 1.25 10 1.25C9.83561 1.25 9.67253 1.25453 9.51037 1.26348C9.49298 1.29287 9.47576 1.32235 9.45871 1.35192C8.6652 2.7284 8.24955 4.29655 8.25748 5.88587C8.26441 7.27484 8.59491 8.67961 9.27853 9.98476C8.71278 10.8715 7.99287 11.605 7.17452 12.1712C7.09183 12.0399 7.01131 11.9065 6.93304 11.771C5.20256 8.77366 4.92721 5.33556 5.88783 2.27467C5.33057 2.57193 4.80927 2.92773 4.33211 3.33384C3.74935 6.33106 4.20396 9.54405 5.85051 12.396C5.92876 12.5315 6.00907 12.6651 6.09139 12.7968C4.81862 13.4001 3.39376 13.6495 1.97917 13.5019C2.17654 13.9534 2.41092 14.3849 2.67846 14.7928C4.30279 14.8103 5.90715 14.385 7.30857 13.5665C8.50798 12.866 9.55928 11.8774 10.3478 10.6328C11.3986 10.6794 12.3939 10.9361 13.2933 11.3618C13.221 11.4991 13.1457 11.6356 13.0674 11.7712C12.8883 12.0814 12.6974 12.3803 12.4956 12.6678C10.7467 15.1597 8.17412 16.7977 5.3673 17.4242C5.8958 17.7547 6.46212 18.0303 7.0583 18.2431C9.59984 17.3687 11.8845 15.7145 13.5188 13.3859C13.7417 13.0683 13.9524 12.7383 14.1499 12.3962C14.2282 12.2606 14.3038 12.1242 14.3767 11.987C15.5349 12.7873 16.4629 13.8959 17.0424 15.1939ZM10.9774 1.30397C14.8278 1.73192 17.9243 4.65848 18.6088 8.42567C16.3043 6.4217 13.2939 5.20845 10.0002 5.20845C9.84376 5.20845 9.68791 5.2112 9.53271 5.21663C9.62519 4.0783 9.96929 2.96908 10.5417 1.97622C10.6747 1.7455 10.82 1.52106 10.9774 1.30397Z" fill="currentColor"/>
</svg>
