<svg viewBox="0 0 24 25" fill="none" xmlns="http://www.w3.org/2000/svg">
<path d="M4.38766 21.6441L4.77953 21.0046L4.38766 21.6441ZM2.73695 19.9934L3.37643 19.6015H3.37643L2.73695 19.9934ZM21.2634 19.9934L20.6239 19.6015L21.2634 19.9934ZM19.6126 21.6441L19.2208 21.0046L19.6126 21.6441ZM19.6126 6.11766L19.2208 6.75714L19.6126 6.11766ZM21.2634 7.76837L20.6239 8.16024L21.2634 7.76837ZM4.38766 6.11766L4.77953 6.75714H4.77953L4.38766 6.11766ZM2.73695 7.76837L3.37643 8.16024H3.37643L2.73695 7.76837ZM18.4769 2.92731L19.0182 2.40814V2.40814L18.4769 2.92731ZM3.84437 3.27165L4.29721 3.86951V3.86951L3.84437 3.27165ZM2.85459 4.30353L3.46991 4.73234L2.85459 4.30353ZM19.0002 5.51118H19.7502L19.7501 5.50748L19.0002 5.51118ZM18.3638 13.9945C18.778 13.9945 19.1138 13.6587 19.1138 13.2445C19.1138 12.8303 18.778 12.4945 18.3638 12.4945V13.9945ZM15.6365 12.4945C15.2223 12.4945 14.8865 12.8303 14.8865 13.2445C14.8865 13.6587 15.2223 13.9945 15.6365 13.9945V12.4945ZM10.5002 6.13086H13.5002V4.63086H10.5002V6.13086ZM13.5002 21.6309H10.5002V23.1309H13.5002V21.6309ZM10.5002 21.6309C8.84891 21.6309 7.66315 21.6301 6.73824 21.5421C5.82449 21.4552 5.24306 21.2886 4.77953 21.0046L3.99578 22.2835C4.7346 22.7363 5.57271 22.9381 6.59626 23.0354C7.60865 23.1317 8.87796 23.1309 10.5002 23.1309V21.6309ZM1.25015 13.8809C1.25015 15.5031 1.24936 16.7724 1.34562 17.7848C1.44294 18.8083 1.64472 19.6464 2.09747 20.3852L3.37643 19.6015C3.09238 19.138 2.92576 18.5565 2.83888 17.6428C2.75094 16.7179 2.75015 15.5321 2.75015 13.8809H1.25015ZM4.77953 21.0046C4.20767 20.6541 3.72687 20.1733 3.37643 19.6015L2.09747 20.3852C2.57159 21.1589 3.22209 21.8094 3.99578 22.2835L4.77953 21.0046ZM13.5002 23.1309C15.1223 23.1309 16.3917 23.1317 17.404 23.0354C18.4276 22.9381 19.2657 22.7363 20.0045 22.2835L19.2208 21.0046C18.7572 21.2886 18.1758 21.4552 17.2621 21.5421C16.3371 21.6301 15.1514 21.6309 13.5002 21.6309V23.1309ZM20.6239 19.6015C20.2734 20.1733 19.7926 20.6541 19.2208 21.0046L20.0045 22.2835C20.7782 21.8094 21.4287 21.1589 21.9028 20.3852L20.6239 19.6015ZM19.2208 6.75714C19.7926 7.10758 20.2734 7.58838 20.6239 8.16024L21.9028 7.37649C21.4287 6.6028 20.7782 5.9523 20.0045 5.47818L19.2208 6.75714ZM10.5002 4.63086C8.87796 4.63086 7.60865 4.63007 6.59626 4.72633C5.57271 4.82365 4.7346 5.02543 3.99578 5.47818L4.77953 6.75714C5.24306 6.47309 5.82449 6.30647 6.73824 6.21959C7.66315 6.13165 8.84891 6.13086 10.5002 6.13086V4.63086ZM2.75015 13.8809C2.75015 12.2296 2.75094 11.0439 2.83888 10.1189C2.92576 9.20519 3.09238 8.62377 3.37643 8.16024L2.09747 7.37649C1.64472 8.11531 1.44294 8.95342 1.34562 9.97697C1.24936 10.9894 1.25015 12.2587 1.25015 13.8809H2.75015ZM3.99578 5.47818C3.22209 5.9523 2.57159 6.6028 2.09747 7.37649L3.37643 8.16024C3.72687 7.58838 4.20767 7.10758 4.77953 6.75714L3.99578 5.47818ZM10.0532 3.13086H15.4219V1.63086H10.0532V3.13086ZM15.4219 3.13086C16.2876 3.13086 16.8583 3.13259 17.2815 3.1919C17.6798 3.24773 17.8347 3.34125 17.9357 3.44648L19.0182 2.40814C18.595 1.96692 18.066 1.78721 17.4897 1.70643C16.9382 1.62913 16.2435 1.63086 15.4219 1.63086V3.13086ZM10.0532 1.63086C8.39302 1.63086 7.08509 1.62974 6.04743 1.74695C4.99381 1.86596 4.12984 2.11456 3.39153 2.67379L4.29721 3.86951C4.73494 3.53795 5.29779 3.34116 6.21579 3.23747C7.14974 3.13198 8.35822 3.13086 10.0532 3.13086V1.63086ZM2.75015 10.7765C2.75015 9.01149 2.7511 7.74554 2.85294 6.76558C2.9535 5.7979 3.14565 5.19764 3.46991 4.73234L2.23928 3.87471C1.7091 4.63548 1.47402 5.52274 1.36097 6.61054C1.2492 7.68606 1.25015 9.04356 1.25015 10.7765H2.75015ZM3.39153 2.67379C2.94821 3.00958 2.5596 3.41508 2.23928 3.87471L3.46991 4.73234C3.70149 4.40004 3.98091 4.10909 4.29721 3.86951L3.39153 2.67379ZM19.7501 5.50748C19.7468 4.83081 19.7324 4.24444 19.6476 3.75833C19.5596 3.25314 19.3855 2.79111 19.0182 2.40814L17.9357 3.44648C18.029 3.54381 18.1132 3.69074 18.1699 4.01592C18.2299 4.36018 18.2468 4.82558 18.2502 5.51489L19.7501 5.50748ZM1.25015 10.7765C1.25015 11.7522 1.22999 12.645 1.25041 13.4011L2.74986 13.3606C2.7301 12.629 2.75015 11.8049 2.75015 10.7765H1.25015ZM21.5001 15.2218H15.6365V16.7218H21.5001V15.2218ZM12.1592 13.2445C12.1592 15.165 13.7161 16.7218 15.6365 16.7218V15.2218C14.5445 15.2218 13.6592 14.3365 13.6592 13.2445H12.1592ZM13.6592 13.2445C13.6592 12.1525 14.5445 11.2672 15.6365 11.2672V9.76724C13.7161 9.76724 12.1592 11.3241 12.1592 13.2445H13.6592ZM18.3638 12.4945H15.6365V13.9945H18.3638V12.4945ZM13.5002 6.13086C14.8848 6.13086 15.9451 6.13118 16.8037 6.18416C17.6614 6.23709 18.2611 6.34028 18.7339 6.51981L19.2664 5.11753C18.5863 4.85925 17.8121 4.74353 16.896 4.68701C15.9808 4.63054 14.8675 4.63086 13.5002 4.63086V6.13086ZM18.7339 6.51981C18.9109 6.58705 19.0712 6.66546 19.2208 6.75714L20.0045 5.47818C19.7711 5.33513 19.5262 5.2162 19.2664 5.11753L18.7339 6.51981ZM18.2502 5.51118V5.81867H19.7502V5.51118H18.2502ZM15.6365 11.2672H21.9446V9.76724H15.6365V11.2672ZM22.7502 13.8809C22.7502 12.5064 22.7505 11.3886 22.6931 10.4705L21.196 10.564C21.2498 11.4248 21.2502 12.4889 21.2502 13.8809H22.7502ZM22.6931 10.4705C22.6147 9.21562 22.4249 8.22835 21.9028 7.37649L20.6239 8.16024C20.9528 8.69696 21.1225 9.38793 21.196 10.564L22.6931 10.4705ZM21.2502 13.8809C21.2502 14.6684 21.2501 15.3531 21.2401 15.9593L22.7399 15.9842C22.7502 15.363 22.7502 14.6648 22.7502 13.8809H21.2502ZM21.2401 15.9593C21.2075 17.9179 21.0636 18.8839 20.6239 19.6015L21.9028 20.3852C22.583 19.2753 22.7079 17.9121 22.7399 15.9842L21.2401 15.9593ZM21.5001 16.7218H21.99V15.2218H21.5001V16.7218Z" fill="currentColor"/>
</svg>
