<svg viewBox="0 0 24 25" fill="none" xmlns="http://www.w3.org/2000/svg">
<path d="M6.25 2.38086C6.25 1.96665 6.58579 1.63086 7 1.63086H15C15.4142 1.63086 15.75 1.96665 15.75 2.38086C15.75 2.79507 15.4142 3.13086 15 3.13086H7C6.58579 3.13086 6.25 2.79507 6.25 2.38086Z" fill="currentColor"/>
<path fill-rule="evenodd" clip-rule="evenodd" d="M14.3451 3.70147C13.4807 3.63085 12.4053 3.63085 11.0336 3.63086H10.9664C9.59472 3.63085 8.51929 3.63085 7.65494 3.70147C6.7748 3.77338 6.04769 3.92224 5.38955 4.25757C4.30762 4.80884 3.42798 5.68848 2.87671 6.77041C2.54138 7.42854 2.39252 8.15565 2.32061 9.0358C2.24999 9.90014 2.25 10.9756 2.25 12.3473V12.4144C2.25 13.7861 2.24999 14.8616 2.32061 15.7259C2.39252 16.6061 2.54138 17.3332 2.87671 17.9913C3.42798 19.0732 4.30762 19.9529 5.38955 20.5041C6.04769 20.8395 6.77479 20.9883 7.65494 21.0602C8.51921 21.1309 9.59454 21.1309 10.9661 21.1309H11.0336C12.4051 21.1309 13.4808 21.1309 14.3451 21.0602C15.2252 20.9883 15.9523 20.8395 16.6104 20.5041C17.6924 19.9529 18.572 19.0732 19.1233 17.9913C19.4586 17.3332 19.6075 16.6061 19.6794 15.7259C19.7372 15.0181 19.7477 14.1686 19.7496 13.1309H21C21.4142 13.1309 21.75 12.7951 21.75 12.3809C21.75 11.9666 21.4142 11.6309 21 11.6309H19.7496C19.7477 10.5931 19.7372 9.74365 19.6794 9.0358C19.6075 8.15565 19.4586 7.42854 19.1233 6.77041C18.572 5.68848 17.6924 4.80884 16.6104 4.25757C15.9523 3.92224 15.2252 3.77338 14.3451 3.70147ZM11.75 8.38086C11.75 7.96665 11.4142 7.63086 11 7.63086C10.5858 7.63086 10.25 7.96665 10.25 8.38086V11.8809C10.25 13.1235 11.2574 14.1309 12.5 14.1309H14C14.4142 14.1309 14.75 13.7951 14.75 13.3809C14.75 12.9666 14.4142 12.6309 14 12.6309H12.5C12.0858 12.6309 11.75 12.2951 11.75 11.8809V8.38086Z" fill="currentColor"/>
<path d="M6.25 22.3809C6.25 21.9666 6.58579 21.6309 7 21.6309H15C15.4142 21.6309 15.75 21.9666 15.75 22.3809C15.75 22.7951 15.4142 23.1309 15 23.1309H7C6.58579 23.1309 6.25 22.7951 6.25 22.3809Z" fill="currentColor"/>
</svg>
