<svg viewBox="0 0 24 25" fill="none" xmlns="http://www.w3.org/2000/svg">
<path d="M8 12.3809H7.25H8ZM16 12.3809H16.75H16ZM12 16.3809V17.1309V16.3809ZM14.0694 22.1665L14.2238 22.9004L14.0694 22.1665ZM9.9306 22.1665L9.77616 22.9004L9.9306 22.1665ZM2.73861 8.60205L2.04429 8.31847H2.04429L2.73861 8.60205ZM2.21438 14.4503L1.48045 14.6047L2.21438 14.4503ZM9.9306 2.59524L9.77616 1.86131L9.9306 2.59524ZM14.0694 2.59524L14.2238 1.86131L14.0694 2.59524ZM21.1808 8.63814L21.3985 9.35585L21.1808 8.63814ZM2.81797 8.63778L3.03567 7.92007L2.81797 8.63778ZM20.5681 8.88817C21.0075 9.96485 21.25 11.1436 21.25 12.3809H22.75C22.75 10.9459 22.4685 9.57493 21.9569 8.32141L20.5681 8.88817ZM21.25 12.3809C21.25 13.0381 21.1816 13.6786 21.0517 14.2958L22.5195 14.6047C22.6707 13.8865 22.75 13.1425 22.75 12.3809H21.25ZM21.0517 14.2958C20.3002 17.867 17.4862 20.6811 13.915 21.4325L14.2238 22.9004C18.377 22.0265 21.6456 18.7578 22.5195 14.6047L21.0517 14.2958ZM13.915 21.4325C13.2978 21.5624 12.6573 21.6309 12 21.6309V23.1309C12.7617 23.1309 13.5057 23.0515 14.2238 22.9004L13.915 21.4325ZM12 21.6309C11.3427 21.6309 10.7022 21.5624 10.085 21.4325L9.77616 22.9004C10.4943 23.0515 11.2383 23.1309 12 23.1309V21.6309ZM2.75 12.3809C2.75 11.1426 2.99289 9.96301 3.43293 8.88564L2.04429 8.31847C1.53198 9.57279 1.25 10.9448 1.25 12.3809H2.75ZM10.085 21.4325C6.51382 20.6811 3.69976 17.867 2.94831 14.2958L1.48045 14.6047C2.35435 18.7578 5.62305 22.0265 9.77616 22.9004L10.085 21.4325ZM2.94831 14.2958C2.81844 13.6786 2.75 13.0381 2.75 12.3809H1.25C1.25 13.1425 1.32934 13.8865 1.48045 14.6047L2.94831 14.2958ZM3.43293 8.88564C4.57824 6.0815 7.06086 3.96552 10.085 3.32917L9.77616 1.86131C6.25736 2.60174 3.37486 5.06076 2.04429 8.31847L3.43293 8.88564ZM10.085 3.32917C10.7022 3.19929 11.3427 3.13086 12 3.13086V1.63086C11.2383 1.63086 10.4943 1.7102 9.77616 1.86131L10.085 3.32917ZM12 3.13086C12.6573 3.13086 13.2978 3.1993 13.915 3.32917L14.2238 1.86131C13.5057 1.7102 12.7617 1.63086 12 1.63086V3.13086ZM13.915 3.32917C16.9401 3.96571 19.4233 6.08278 20.5681 8.88817L21.9569 8.32141C20.6269 5.06223 17.7437 2.60197 14.2238 1.86131L13.915 3.32917ZM13.3549 2.82323C13.6308 3.68798 14.6522 7.01391 15.0708 10.0697L16.557 9.86612C16.1197 6.67434 15.064 3.24493 14.7839 2.36726L13.3549 2.82323ZM15.0708 10.0697C15.183 10.8887 15.25 11.6752 15.25 12.3809H16.75C16.75 11.5864 16.6751 10.7284 16.557 9.86612L15.0708 10.0697ZM20.9632 7.92042C19.8657 8.25329 17.8043 8.8379 15.6778 9.23037L15.95 10.7055C18.1556 10.2984 20.2773 9.69591 21.3985 9.35585L20.9632 7.92042ZM15.6778 9.23037C14.3878 9.46846 13.0997 9.63086 12 9.63086V11.1309C13.2292 11.1309 14.6179 10.9513 15.95 10.7055L15.6778 9.23037ZM15.25 12.3809C15.25 13.4263 15.1032 14.643 14.8836 15.8708L16.3602 16.1348C16.5874 14.8642 16.75 13.5507 16.75 12.3809H15.25ZM14.8836 15.8708C14.4025 18.562 13.5941 21.1889 13.3549 21.9385L14.7839 22.3945C15.0294 21.6252 15.8615 18.924 16.3602 16.1348L14.8836 15.8708ZM21.5576 13.7358C20.808 13.9749 18.1811 14.7833 15.4899 15.2645L15.7539 16.7411C18.5432 16.2424 21.2443 15.4102 22.0136 15.1648L21.5576 13.7358ZM15.4899 15.2645C14.2621 15.484 13.0455 15.6309 12 15.6309V17.1309C13.1698 17.1309 14.4833 16.9683 15.7539 16.7411L15.4899 15.2645ZM12 15.6309C10.9545 15.6309 9.73787 15.484 8.51007 15.2645L8.24606 16.7411C9.51671 16.9683 10.8302 17.1309 12 17.1309V15.6309ZM8.51007 15.2645C5.81886 14.7833 3.19197 13.9749 2.44237 13.7358L1.9864 15.1648C2.75568 15.4102 5.45684 16.2424 8.24606 16.7411L8.51007 15.2645ZM7.25 12.3809C7.25 13.5507 7.41258 14.8642 7.63977 16.1348L9.11636 15.8708C8.89683 14.643 8.75 13.4263 8.75 12.3809H7.25ZM7.63977 16.1348C8.13848 18.924 8.97063 21.6252 9.21609 22.3945L10.6451 21.9385C10.4059 21.1889 9.59754 18.562 9.11636 15.8708L7.63977 16.1348ZM9.21609 2.36726C8.93604 3.24493 7.8803 6.67433 7.44304 9.86612L8.92916 10.0697C9.34779 7.01391 10.3692 3.68798 10.6451 2.82323L9.21609 2.36726ZM7.44304 9.86612C7.32491 10.7284 7.25 11.5864 7.25 12.3809H8.75C8.75 11.6752 8.81697 10.8887 8.92916 10.0697L7.44304 9.86612ZM12 9.63086C10.9003 9.63086 9.61224 9.46846 8.32222 9.23037L8.04998 10.7055C9.38211 10.9513 10.7708 11.1309 12 11.1309V9.63086ZM8.32222 9.23037C6.1949 8.83776 4.13286 8.25288 3.03567 7.92007L2.60027 9.35548C3.72115 9.69548 5.84361 10.2983 8.04998 10.7055L8.32222 9.23037ZM20.9169 7.93917C20.9302 7.93228 20.946 7.92562 20.9632 7.92042L21.3985 9.35585C21.4725 9.33341 21.5421 9.30468 21.6081 9.2704L20.9169 7.93917ZM2.34732 9.24189C2.42503 9.28942 2.50939 9.32792 2.60027 9.35548L3.03567 7.92007C3.07033 7.93058 3.10229 7.94533 3.1299 7.96222L2.34732 9.24189Z" fill="currentColor"/>
</svg>
