<svg viewBox="0 0 18 18" fill="none" xmlns="http://www.w3.org/2000/svg">
<path d="M11.636 7.71602C11.6816 8.1626 11.7077 8.59485 11.7077 8.99935C11.7077 9.7566 11.6161 10.6116 11.4762 11.4762C10.6116 11.6161 9.75661 11.7077 8.99935 11.7077C8.24553 11.7077 7.39072 11.6164 6.52245 11.4759C6.38253 10.6115 6.29102 9.75652 6.29102 8.99935C6.29102 8.59498 6.31712 8.16272 6.36275 7.71602C7.27402 7.8619 8.18307 7.95768 8.99937 7.95768C9.81568 7.95768 10.7247 7.8619 11.636 7.71602Z" fill="url(#linear)"/>
<path d="M12.8686 7.49095C12.9249 8.01356 12.9577 8.5224 12.9577 8.99935C12.9577 9.69533 12.888 10.4588 12.7771 11.2337C14.3505 10.9054 15.8049 10.4859 16.584 10.2471C16.8358 10.17 16.9347 10.1393 17.0675 10.0862C17.1338 10.0597 17.1946 10.0327 17.2738 9.9948C17.3127 9.6684 17.3327 9.33621 17.3327 8.99935C17.3327 8.10889 17.193 7.25105 16.9344 6.44654L16.867 6.46774C16.0524 6.71558 14.5272 7.15371 12.8686 7.49095Z" fill="url(#linear)"/>
<path d="M16.461 5.28465C15.642 5.53285 14.2208 5.93617 12.6977 6.25017C12.3468 4.11781 11.7319 1.99102 11.436 1.0279C13.6361 1.69956 15.4496 3.25702 16.461 5.28465Z" fill="url(#linear)"/>
<path d="M11.4689 6.47736C10.6067 6.61666 9.75438 6.70768 8.99937 6.70768C8.24437 6.70768 7.39202 6.61666 6.52985 6.47736C6.86023 4.45971 7.45 2.3986 7.75155 1.41469C7.82873 1.16289 7.85941 1.06399 7.91252 0.931236C7.93904 0.864923 7.96604 0.804095 8.0039 0.724857C8.3303 0.686004 8.66249 0.666016 8.99935 0.666016C9.35124 0.666016 9.69804 0.687826 10.0385 0.73017C10.0457 0.757792 10.0524 0.782514 10.059 0.805902C10.0785 0.875009 10.109 0.972129 10.1603 1.13509L10.1657 1.15221C10.4228 1.96937 11.104 4.24857 11.4689 6.47736Z" fill="url(#linear)"/>
<path d="M5.30097 6.25014C5.65023 4.12719 6.26114 2.01186 6.55643 1.0484L6.56271 1.0279C4.36266 1.69955 2.54911 3.25701 1.53772 5.28464C2.35664 5.53283 3.77788 5.93614 5.30097 6.25014Z" fill="url(#linear)"/>
<path d="M1.0643 6.44653C0.805681 7.25105 0.666016 8.10889 0.666016 8.99935C0.666016 9.34769 0.687389 9.69105 0.728896 10.0282L0.860228 10.0719L0.861274 10.0723L0.862562 10.0727L0.863469 10.073C0.905739 10.087 2.14463 10.4962 3.77616 10.9021C4.23654 11.0166 4.72401 11.1298 5.22162 11.2336C5.11066 10.4587 5.04102 9.69529 5.04102 8.99935C5.04102 8.52225 5.07375 8.01341 5.13008 7.49093C3.471 7.15361 1.94552 6.71531 1.13107 6.46751L1.12541 6.46579L1.0643 6.44653Z" fill="url(#linear)"/>
<path d="M8.99935 12.9577C9.69533 12.9577 10.4588 12.888 11.2337 12.7771C10.9054 14.3505 10.4859 15.8049 10.2472 16.584C10.17 16.8358 10.1393 16.9347 10.0862 17.0675C10.0597 17.1338 10.0327 17.1946 9.99481 17.2738C9.6684 17.3127 9.33621 17.3327 8.99935 17.3327C8.66249 17.3327 8.3303 17.3127 8.0039 17.2738C7.96604 17.1946 7.93904 17.1338 7.91252 17.0675C7.85942 16.9347 7.82873 16.8358 7.75156 16.584C7.5128 15.805 7.09336 14.3507 6.76505 12.7773C7.53739 12.8879 8.30098 12.9577 8.99935 12.9577Z" fill="url(#linear)"/>
<path d="M3.47435 12.1151C2.44263 11.8584 1.56391 11.6006 1.02789 11.436C1.83473 14.0788 3.91984 16.164 6.56271 16.9708L6.55643 16.9503C6.2986 16.109 5.80012 14.3896 5.44531 12.5536C4.7553 12.4202 4.08445 12.2669 3.47435 12.1151Z" fill="url(#linear)"/>
<path d="M16.9503 11.4423C16.109 11.7001 14.3894 12.1986 12.5534 12.5534C12.1986 14.3894 11.7001 16.109 11.4423 16.9503L11.436 16.9708C14.0789 16.164 16.164 14.0789 16.9708 11.436L16.9503 11.4423Z" fill="url(#linear)"/>
<path d="M0.753558 10.0493C0.782405 10.0531 0.805916 10.057 0.813719 10.0588C0.820555 10.0605 0.83126 10.0633 0.835145 10.0644L0.843722 10.0668L0.848339 10.0682L0.853198 10.0697L0.857269 10.071C0.854982 10.0703 0.80868 10.0587 0.753558 10.0493Z" fill="url(#linear)"/>
<defs>
<linearGradient id="linear" x1="8.99935" y1="0.666016" x2="8.99935" y2="17.3327" gradientUnits="userSpaceOnUse">
<stop stop-color="#0DB1A0"/>
<stop offset="1" stop-color="#026056"/>
</linearGradient>
</defs>
</svg>
