<svg viewBox="0 0 32 32" fill="none" xmlns="http://www.w3.org/2000/svg">
<path d="M32 16C32 23.8348 26.3686 30.3543 18.9322 31.7316C17.9651 31.9107 16.9836 32.0005 16 32C14.8989 32 13.824 31.889 12.7856 31.6768C5.48963 30.1891 0 23.7355 0 16C0 11.7349 1.66925 7.85831 4.3905 4.99069C4.54797 4.82432 4.70909 4.66144 4.87375 4.50219C7.75313 1.71494 11.6761 0 16 0C20.3239 0 24.2469 1.71494 27.1262 4.50219C27.1941 4.56771 27.2614 4.63388 27.328 4.70069C30.2152 7.59444 32 11.5893 32 16Z" fill="white"/>
<path d="M16.0059 0C7.13313 0 0.00585938 7.12727 0.00585938 16C0.00585938 24.8727 7.13313 32 16.0059 32C24.8786 32 32.0059 24.8727 32.0059 16C32.0059 7.12727 24.8786 0 16.0059 0ZM23.1331 24.7273L18.1877 19.9273C16.8786 18.6182 14.8422 18.6182 13.5331 19.9273L8.87859 24.7273H5.67859L12.0786 18.3273C13.0968 17.3091 14.5513 16.7273 16.0059 16.7273C17.4604 16.7273 18.7695 17.3091 19.7877 18.3273L26.1877 24.7273H23.1331ZM19.9331 13.6727C18.915 14.6909 17.4604 15.2727 16.0059 15.2727C14.5513 15.2727 13.2422 14.6909 12.224 13.6727L5.67859 7.27273H8.73313L13.6786 12.0727C14.9877 13.3818 17.024 13.3818 18.3331 12.0727L23.1331 7.27273H26.1877L19.9331 13.6727Z" fill="#23292F"/>
</svg>
